<svg aria-hidden="true" style="position: absolute; width: 0; height: 0; overflow: hidden;" version="1.1" xmlns="http://www.w3.org/2000/svg" xmlns:xlink="http://www.w3.org/1999/xlink">
<defs>
<symbol id="icon-facebook" viewBox="0 0 32 32">
<path fill="#4d515c" style="fill: var(--color1, #4d515c)" d="M32 16c0-8.836-7.164-16-16-16s-16 7.164-16 16c0 7.987 5.851 14.605 13.5 15.805v-11.179h-4.063v-4.627h4.063v-3.525c0-4.009 2.389-6.224 6.044-6.224 1.749 0 3.581 0.312 3.581 0.312v3.937h-2.019c-1.988 0-2.608 1.233-2.608 2.5v3h4.437l-0.709 4.625h-3.728v11.18c7.651-1.2 13.501-7.819 13.501-15.805z"></path>
<path fill="#fff" style="fill: var(--color2, #fff)" d="M22.228 20.625l0.709-4.625h-4.437v-3c0-1.265 0.62-2.5 2.608-2.5h2.017v-3.937s-1.832-0.312-3.581-0.312c-3.655 0-6.044 2.213-6.044 6.224v3.525h-4.063v4.625h4.063v11.18c0.751 0.124 1.617 0.194 2.5 0.194s1.749-0.071 2.593-0.207l-0.093 0.012v-11.179h3.728z"></path>
</symbol>
<symbol id="icon-instagram" viewBox="0 0 32 32">
<path fill="#4d515c" style="fill: var(--color1, #4d515c)" d="M16 2.88c4.275 0 4.781 0.020 6.463 0.095 1.563 0.069 2.407 0.332 2.968 0.551 0.721 0.27 1.335 0.676 1.838 1.192l0.001 0.001c0.561 0.563 0.907 1.093 1.193 1.837 0.219 0.563 0.48 1.413 0.549 2.969 0.076 1.687 0.093 2.193 0.093 6.463 0 4.275-0.017 4.781-0.093 6.461-0.068 1.563-0.331 2.407-0.549 2.969-0.288 0.744-0.637 1.281-1.193 1.837-0.503 0.518-1.117 0.925-1.805 1.182l-0.034 0.011c-0.561 0.22-1.412 0.481-2.968 0.551-1.688 0.075-2.193 0.093-6.463 0.093-4.275 0-4.781-0.019-6.463-0.093-1.563-0.069-2.407-0.331-2.968-0.551-0.721-0.27-1.335-0.676-1.838-1.192l-0.001-0.001c-0.518-0.503-0.924-1.117-1.182-1.803l-0.011-0.034c-0.219-0.563-0.48-1.413-0.549-2.969-0.076-1.687-0.093-2.193-0.093-6.461 0-4.276 0.017-4.781 0.093-6.463 0.068-1.563 0.331-2.407 0.549-2.969 0.288-0.744 0.637-1.28 1.193-1.837 0.563-0.563 1.093-0.907 1.839-1.193 0.561-0.219 1.412-0.481 2.968-0.551 1.681-0.075 2.187-0.093 6.463-0.093zM16 0c-4.344 0-4.888 0.019-6.593 0.093-1.7 0.076-2.869 0.351-3.881 0.744-1.111 0.424-2.058 1.054-2.836 1.849l-0.001 0.001c-0.795 0.778-1.425 1.723-1.832 2.777l-0.018 0.054c-0.393 1.019-0.668 2.181-0.744 3.881-0.075 1.712-0.093 2.256-0.093 6.6s0.019 4.888 0.093 6.593c0.076 1.7 0.351 2.869 0.744 3.881 0.413 1.056 0.956 1.951 1.851 2.837 0.778 0.793 1.723 1.42 2.777 1.826l0.054 0.018c1.019 0.395 2.181 0.669 3.881 0.744 1.707 0.075 2.251 0.093 6.593 0.093 4.344 0 4.888-0.019 6.595-0.093 1.7-0.075 2.868-0.349 3.88-0.744 1.108-0.423 2.053-1.051 2.831-1.843l0.001-0.001c0.793-0.778 1.42-1.723 1.826-2.777l0.018-0.054c0.393-1.019 0.668-2.181 0.744-3.881 0.075-1.707 0.093-2.251 0.093-6.593 0-4.344-0.019-4.888-0.093-6.595-0.076-1.7-0.351-2.868-0.744-3.88-0.408-1.116-1.033-2.067-1.83-2.842l-0.002-0.002c-0.778-0.793-1.723-1.42-2.777-1.826l-0.054-0.018c-1.019-0.393-2.181-0.671-3.881-0.744-1.712-0.080-2.256-0.1-6.6-0.1z"></path>
<path fill="#4d515c" style="fill: var(--color1, #4d515c)" d="M16 7.781c-4.538 0.002-8.217 3.68-8.219 8.219v0c0.002 4.538 3.68 8.217 8.219 8.219h0c4.538-0.002 8.217-3.68 8.219-8.219v-0c-0.002-4.538-3.68-8.217-8.219-8.219h-0zM16 21.331c-2.944-0-5.331-2.387-5.331-5.332s2.387-5.332 5.332-5.332c0 0 0 0 0.001 0h-0c2.945 0 5.331 2.387 5.331 5.332s-2.387 5.332-5.332 5.332c-0 0-0 0-0.001 0h0zM26.463 7.456c0 0.015 0.001 0.033 0.001 0.051 0 1.060-0.86 1.92-1.92 1.92s-1.92-0.86-1.92-1.92c0-0.018 0-0.036 0.001-0.053l-0 0.003c0.028-1.038 0.877-1.869 1.919-1.869s1.891 0.831 1.919 1.867l0 0.003z"></path>
</symbol>
<symbol id="icon-reddit" viewBox="0 0 32 32">
<path fill="#4d515c" style="fill: var(--color1, #4d515c)" d="M16 32c8.836 0 16-7.164 16-16s-7.164-16-16-16-16 7.164-16 16 7.164 16 16 16z"></path>
<path fill="#fff" style="fill: var(--color2, #fff)" d="M26.667 16c0-1.291-1.048-2.339-2.339-2.339-0.637 0-1.199 0.243-1.609 0.653-1.591-1.14-3.8-1.889-6.232-1.983l1.067-4.996 3.461 0.729c0.037 0.892 0.768 1.601 1.665 1.601 0.92 0 1.667-0.746 1.667-1.667 0-0.003 0-0.006-0-0.009v0c0-0.917-0.749-1.667-1.667-1.667-0.653 0-1.216 0.376-1.477 0.937l-3.873-0.824c-0.025-0.005-0.055-0.008-0.085-0.008-0.087 0-0.168 0.024-0.238 0.065l0.002-0.001c-0.091 0.061-0.157 0.153-0.186 0.26l-0.001 0.003-1.179 5.576c-2.488 0.075-4.716 0.805-6.325 1.984-0.418-0.4-0.984-0.649-1.608-0.655h-0.001c-1.291 0-2.339 1.048-2.339 2.339 0 0.955 0.561 1.76 1.385 2.133-0.037 0.224-0.056 0.467-0.056 0.711 0 3.593 4.173 6.493 9.337 6.493 5.165 0 9.339-2.9 9.339-6.493 0-0.243-0.020-0.467-0.057-0.692 0.8-0.402 1.341-1.213 1.348-2.151v-0.001zM10.667 17.667c0-0.92 0.748-1.667 1.667-1.667 0.916 0 1.664 0.748 1.664 1.667 0 0.916-0.748 1.664-1.665 1.664s-1.665-0.748-1.665-1.665zM19.967 22.063c-1.141 1.143-3.312 1.217-3.948 1.217s-2.827-0.093-3.948-1.217c-0.078-0.079-0.126-0.188-0.126-0.309s0.048-0.229 0.127-0.309l-0 0c0.079-0.078 0.188-0.126 0.309-0.126s0.229 0.048 0.309 0.127l-0-0c0.711 0.712 2.245 0.973 3.349 0.973s2.62-0.263 3.349-0.973c0.079-0.079 0.189-0.127 0.309-0.127s0.23 0.049 0.309 0.127l-0-0c0.059 0.079 0.094 0.178 0.094 0.286 0 0.129-0.051 0.246-0.133 0.332l0-0zM19.668 19.331c-0.917 0-1.667-0.748-1.667-1.665s0.749-1.665 1.667-1.665 1.665 0.748 1.665 1.667c0 0.916-0.748 1.664-1.667 1.664z"></path>
</symbol>
<symbol id="icon-twitter_x" viewBox="0 0 32 32">
<path fill="#4d515c" style="fill: var(--color1, #4d515c)" d="M24.435 2.539h4.499l-9.827 11.231 11.56 15.284h-9.052l-7.089-9.269-8.112 9.269h-4.501l10.511-12.013-11.089-14.501h9.281l6.408 8.472 7.413-8.472zM22.856 26.36h2.493l-16.089-21.271h-2.673l16.269 21.271z"></path>
</symbol>
</defs>
</svg>
