<svg xmlns="http://www.w3.org/2000/svg" width="20" height="20" fill="none"><path fill="#FCA326" fill-rule="evenodd" d="m2.925 8.157-.895 2.991a.695.695 0 0 0 .221.74L10 18 2.925 8.157ZM17.075 8.157l.895 2.991a.695.695 0 0 1-.221.74L10 18l7.075-9.843Z" clip-rule="evenodd"/><path fill="#FC6D26" fill-rule="evenodd" d="M10 18 7.054 8.157H2.925L10 18ZM10 18l2.946-9.843h4.129L10 18Z" clip-rule="evenodd"/><path fill="#E24329" fill-rule="evenodd" d="M17.075 8.157h-4.129L14.72 2.23a.298.298 0 0 1 .58 0l1.775 5.928ZM2.925 8.157h4.129L5.28 2.23a.298.298 0 0 0-.58 0L2.925 8.157ZM10 18l2.946-9.843H7.054L10 18Z" clip-rule="evenodd"/></svg>