<svg width="40" height="40" viewBox="0 0 40 40" fill="none" xmlns="http://www.w3.org/2000/svg">
<path d="M36.5 20C36.5 28.0081 29.1127 34.5 20 34.5C10.8873 34.5 3.5 28.0081 3.5 20C3.5 11.9919 10.8873 5.5 20 5.5C29.1127 5.5 36.5 11.9919 36.5 20Z" fill="#FEFFFF"/>
<path d="M35.5 20C35.5 27.4558 28.5604 33.5 20 33.5C11.4396 33.5 4.5 27.4558 4.5 20C4.5 12.5442 11.4396 6.5 20 6.5C28.5604 6.5 35.5 12.5442 35.5 20Z" fill="#A1552B"/>
<path d="M8.25 15.4171C8.91667 14.0004 11 11.1671 14 9.91708C16.3241 8.9874 17.9428 9.86571 18.4131 10.1209C18.4487 10.1402 18.4777 10.156 18.5 10.1671C18.6999 10.2671 18.8998 10.3936 19.0998 10.5201C19.3998 10.7101 19.75 11 20 11C20.25 11 20.9111 10.599 21.3624 10.3656C21.5011 10.2939 21.6324 10.2259 21.75 10.1671C21.7723 10.156 21.8013 10.1402 21.8369 10.1209C22.3072 9.86571 23.9259 8.9874 26.25 9.91708C29.25 11.1671 31.3333 14.0004 32 15.4171C32.75 17.1671 31.25 16.75 30.25 16.167C29.5 15.75 27.25 15.75 26.75 15.917C26.5 16 23.8492 16.7386 24.5 19.6671C25 21.9171 28.75 22.9171 30.75 22.667C31.3047 22.5976 32.25 22.667 32.25 24.167C31.5082 29.3595 23.9194 31.8619 20.125 31.6743C16.3306 31.8619 8.74176 29.3595 8 24.167C8 22.667 8.9453 22.5976 9.5 22.667C11.5 22.9171 15.25 21.9171 15.75 19.6671C16.3452 16.9888 14.1569 16.1663 13.6075 15.9598C13.5561 15.9405 13.5191 15.9266 13.5 15.917C13 15.6671 10.75 15.75 10 16.167C9.12791 16.6519 7.5 17.1671 8.25 15.4171Z" fill="white"/>
<path fill-rule="evenodd" clip-rule="evenodd" d="M12.8194 14.0001C12.389 13.9965 11.9073 14.1182 11.2014 14.4288C10.9486 14.54 10.6536 14.4253 10.5424 14.1726C10.4311 13.9198 10.5459 13.6248 10.7986 13.5135C11.5596 13.1786 12.1924 12.9949 12.8276 13.0001C13.4662 13.0053 14.0518 13.2011 14.7165 13.5205C14.9654 13.6401 15.0703 13.9388 14.9507 14.1877C14.8311 14.4366 14.5324 14.5414 14.2835 14.4219C13.6773 14.1306 13.2463 14.0036 12.8194 14.0001Z" fill="#25353E"/>
<path fill-rule="evenodd" clip-rule="evenodd" d="M26.8194 14.0001C26.389 13.9965 25.9073 14.1182 25.2014 14.4288C24.9486 14.54 24.6536 14.4253 24.5424 14.1726C24.4311 13.9198 24.5459 13.6248 24.7986 13.5135C25.5596 13.1786 26.1924 12.9949 26.8276 13.0001C27.4662 13.0053 28.0518 13.2011 28.7165 13.5205C28.9654 13.6401 29.0703 13.9388 28.9507 14.1877C28.8311 14.4366 28.5324 14.5414 28.2835 14.4219C27.6773 14.1306 27.2463 14.0036 26.8194 14.0001Z" fill="#25353E"/>
<path d="M14.5 19C14.5 20.3807 13.3807 21.5 12 21.5C10.6193 21.5 9.5 20.3807 9.5 19C9.5 17.6193 10.6193 16.5 12 16.5C13.3807 16.5 14.5 17.6193 14.5 19Z" fill="white"/>
<path fill-rule="evenodd" clip-rule="evenodd" d="M12 21C13.1046 21 14 20.1046 14 19C14 17.8954 13.1046 17 12 17C11.4857 17 11.0167 17.1941 10.6624 17.5131C11.1374 17.5907 11.5 18.003 11.5 18.5C11.5 19.0523 11.0523 19.5 10.5 19.5C10.3331 19.5 10.1757 19.4591 10.0374 19.3868C10.2176 20.3063 11.0278 21 12 21Z" fill="#050505"/>
<path d="M30.5 19C30.5 20.3807 29.3807 21.5 28 21.5C26.6193 21.5 25.5 20.3807 25.5 19C25.5 17.6193 26.6193 16.5 28 16.5C29.3807 16.5 30.5 17.6193 30.5 19Z" fill="white"/>
<path fill-rule="evenodd" clip-rule="evenodd" d="M28 21C29.1046 21 30 20.1046 30 19C30 17.8954 29.1046 17 28 17C27.4857 17 27.0167 17.1941 26.6624 17.5131C27.1374 17.5907 27.5 18.003 27.5 18.5C27.5 19.0523 27.0523 19.5 26.5 19.5C26.3331 19.5 26.1757 19.4591 26.0374 19.3868C26.2176 20.3063 27.0278 21 28 21Z" fill="#050505"/>
<path fill-rule="evenodd" clip-rule="evenodd" d="M25.807 23.3553C26.0249 23.5249 26.0642 23.839 25.8947 24.057C25.3694 24.7323 24.4796 25.2265 23.4784 25.5603C22.4642 25.8983 21.274 26.0924 20.076 26.1248C18.8782 26.1572 17.6522 26.0285 16.5683 25.7058C15.4896 25.3847 14.5112 24.8589 13.863 24.0666C13.6882 23.8529 13.7197 23.5379 13.9334 23.363C14.1471 23.1882 14.4621 23.2197 14.637 23.4334C15.1138 24.0161 15.8854 24.4591 16.8536 24.7473C17.8166 25.034 18.9343 25.1553 20.049 25.1252C21.1635 25.0951 22.2545 24.9142 23.1622 24.6116C24.0829 24.3047 24.7556 23.8927 25.1053 23.443C25.2749 23.2251 25.589 23.1858 25.807 23.3553Z" fill="#050505"/>
<path d="M22 26.5C20.4916 26.8157 19.5535 26.8008 17.75 26.5C17.75 26.5 19.0394 27.5437 20 27.5C20.8723 27.4603 22 26.5 22 26.5Z" fill="#2C3C43"/>
<path fill-rule="evenodd" clip-rule="evenodd" d="M20 19.5001C18.3753 19.529 15.9313 20.9066 16.25 22.5C16.5 23.75 18 24 18 24L22 24C22.9665 24 24.25 23.2501 23.75 22.0001C23.25 20.75 21.7598 19.4687 20 19.5001ZM19.5 23C19.5 23.2761 19.2761 23.5 19 23.5C18.7239 23.5 18.5 23.2761 18.5 23C18.5 22.7239 18.7239 22.5 19 22.5C19.2761 22.5 19.5 22.7239 19.5 23ZM21 23.5C21.2761 23.5 21.5 23.2761 21.5 23C21.5 22.7239 21.2761 22.5 21 22.5C20.7239 22.5 20.5 22.7239 20.5 23C20.5 23.2761 20.7239 23.5 21 23.5Z" fill="#2C3C43"/>
</svg>
