<svg width="24" height="24" viewBox="0 0 24 24" fill="none" xmlns="http://www.w3.org/2000/svg">
<g clip-path="url(#clip0_85_7107)">
<path d="M6.76077 10.0302C6.76077 10.3265 6.7927 10.5667 6.84857 10.7429C6.91242 10.9191 6.99223 11.1113 7.10397 11.3195C7.14388 11.3835 7.15984 11.4476 7.15984 11.5037C7.15984 11.5837 7.11195 11.6638 7.00819 11.7439L6.50537 12.0802C6.43353 12.1283 6.3617 12.1523 6.29785 12.1523C6.21804 12.1523 6.13822 12.1123 6.05841 12.0402C5.94667 11.9201 5.85089 11.7919 5.77108 11.6638C5.69127 11.5277 5.61145 11.3755 5.52366 11.1913C4.90111 11.9281 4.11893 12.2965 3.17713 12.2965C2.5067 12.2965 1.97194 12.1043 1.58086 11.7199C1.18977 11.3355 0.990234 10.823 0.990234 10.1823C0.990234 9.50164 1.22968 8.94908 1.71654 8.53266C2.2034 8.11624 2.8499 7.90803 3.67198 7.90803C3.94334 7.90803 4.22269 7.93206 4.518 7.9721C4.81331 8.01214 5.11661 8.0762 5.43586 8.14828V7.56369C5.43586 6.95507 5.30816 6.53065 5.06074 6.2824C4.80533 6.03415 4.37434 5.91402 3.75977 5.91402C3.48042 5.91402 3.19309 5.94606 2.89778 6.01813C2.60247 6.0902 2.31514 6.17829 2.03579 6.2904C1.90809 6.34646 1.81232 6.37849 1.75645 6.39451C1.70058 6.41053 1.66067 6.41853 1.62874 6.41853C1.51701 6.41853 1.46114 6.33845 1.46114 6.17028V5.77789C1.46114 5.64976 1.4771 5.55366 1.51701 5.49761C1.55691 5.44155 1.62874 5.38549 1.74048 5.32944C2.01983 5.18529 2.35505 5.06517 2.74614 4.96907C3.13722 4.86497 3.55226 4.81692 3.99123 4.81692C4.94102 4.81692 5.6354 5.03314 6.08235 5.46557C6.52133 5.89801 6.74481 6.55467 6.74481 7.43556V10.0302H6.76077ZM3.52033 11.2474C3.78372 11.2474 4.05508 11.1994 4.34241 11.1033C4.62974 11.0072 4.88515 10.831 5.10064 10.5907C5.22835 10.4386 5.32412 10.2704 5.37201 10.0782C5.4199 9.88603 5.45182 9.65379 5.45182 9.38152V9.04518C5.22036 8.98912 4.97294 8.94108 4.71754 8.90904C4.46213 8.87701 4.21471 8.86099 3.96729 8.86099C3.43254 8.86099 3.04145 8.9651 2.77806 9.18132C2.51468 9.39754 2.38698 9.70184 2.38698 10.1022C2.38698 10.4786 2.48275 10.7589 2.68229 10.9511C2.87384 11.1513 3.15319 11.2474 3.52033 11.2474ZM9.92938 12.1123C9.78571 12.1123 9.68994 12.0882 9.62608 12.0322C9.56223 11.9841 9.50636 11.872 9.45848 11.7199L7.58285 5.52964C7.53496 5.36948 7.51102 5.26537 7.51102 5.20931C7.51102 5.08119 7.57487 5.00911 7.70257 5.00911H8.48475C8.63639 5.00911 8.74015 5.03314 8.79602 5.08919C8.85987 5.13724 8.90776 5.24936 8.95565 5.40151L10.2965 10.7029L11.5416 5.40151C11.5815 5.24135 11.6294 5.13724 11.6933 5.08919C11.7571 5.04115 11.8689 5.00911 12.0125 5.00911H12.651C12.8027 5.00911 12.9064 5.03314 12.9703 5.08919C13.0341 5.13724 13.09 5.24936 13.1219 5.40151L14.383 10.7669L15.7638 5.40151C15.8117 5.24135 15.8675 5.13724 15.9234 5.08919C15.9872 5.04115 16.091 5.00911 16.2347 5.00911H16.9769C17.1046 5.00911 17.1765 5.07318 17.1765 5.20931C17.1765 5.24936 17.1685 5.2894 17.1605 5.33744C17.1525 5.38549 17.1366 5.44956 17.1046 5.53765L15.1811 11.7279C15.1332 11.888 15.0774 11.9921 15.0135 12.0402C14.9497 12.0882 14.8459 12.1203 14.7102 12.1203H14.0238C13.8722 12.1203 13.7684 12.0963 13.7046 12.0402C13.6407 11.9841 13.5848 11.88 13.5529 11.7199L12.3158 6.55467L11.0867 11.7119C11.0468 11.872 10.9989 11.9761 10.935 12.0322C10.8712 12.0882 10.7594 12.1123 10.6158 12.1123H9.92938ZM20.1854 12.3285C19.7704 12.3285 19.3554 12.2804 18.9563 12.1843C18.5572 12.0882 18.246 11.9841 18.0385 11.864C17.9108 11.7919 17.823 11.7119 17.791 11.6398C17.7591 11.5677 17.7431 11.4876 17.7431 11.4156V11.0072C17.7431 10.839 17.807 10.7589 17.9267 10.7589C17.9746 10.7589 18.0225 10.7669 18.0704 10.7829C18.1183 10.7989 18.1901 10.831 18.2699 10.863C18.5413 10.9831 18.8366 11.0792 19.1479 11.1433C19.4671 11.2074 19.7784 11.2394 20.0977 11.2394C20.6005 11.2394 20.9916 11.1513 21.2629 10.9751C21.5343 10.7989 21.678 10.5427 21.678 10.2144C21.678 9.99013 21.6061 9.80595 21.4625 9.65379C21.3188 9.50164 21.0474 9.3655 20.6563 9.23737L19.499 8.87701C18.9164 8.69283 18.4854 8.42055 18.222 8.06019C17.9586 7.70783 17.823 7.31544 17.823 6.89902C17.823 6.56268 17.8948 6.26638 18.0385 6.01012C18.1821 5.75386 18.3737 5.52964 18.6131 5.35346C18.8526 5.16927 19.1239 5.03314 19.4432 4.93704C19.7624 4.84094 20.0977 4.8009 20.4488 4.8009C20.6244 4.8009 20.808 4.80891 20.9836 4.83294C21.1672 4.85696 21.3348 4.88899 21.5024 4.92102C21.662 4.96106 21.8136 5.00111 21.9573 5.04915C22.101 5.0972 22.2127 5.14525 22.2925 5.1933C22.4043 5.25736 22.4841 5.32143 22.532 5.3935C22.5799 5.45757 22.6038 5.54565 22.6038 5.65777V6.03415C22.6038 6.20232 22.54 6.2904 22.4202 6.2904C22.3564 6.2904 22.2526 6.25837 22.1169 6.19431C21.662 5.9861 21.1512 5.88199 20.5845 5.88199C20.1296 5.88199 19.7704 5.95407 19.523 6.10622C19.2756 6.25837 19.1479 6.49061 19.1479 6.81894C19.1479 7.04316 19.2277 7.23536 19.3873 7.38751C19.5469 7.53966 19.8422 7.69182 20.2653 7.82795L21.3986 8.18832C21.9733 8.3725 22.3883 8.62876 22.6357 8.95709C22.8832 9.28542 23.0029 9.6618 23.0029 10.0782C23.0029 10.4226 22.931 10.7349 22.7954 11.0072C22.6517 11.2794 22.4601 11.5197 22.2127 11.7119C21.9653 11.9121 21.67 12.0562 21.3268 12.1603C20.9676 12.2724 20.5925 12.3285 20.1854 12.3285Z" fill="#252F3E"/>
<path d="M21.6935 16.2203C19.0676 18.1663 15.2525 19.1993 11.9722 19.1993C7.37491 19.1993 3.23257 17.4936 0.103872 14.6588C-0.143551 14.4345 0.0799278 14.1302 0.375239 14.3064C3.75934 16.2764 7.9336 17.4696 12.2515 17.4696C15.1647 17.4696 18.3653 16.861 21.3104 15.6117C21.7494 15.4115 22.1245 15.9 21.6935 16.2203Z" fill="#FF9900"/>
<path d="M22.787 14.9709C22.4517 14.5385 20.5681 14.7627 19.7141 14.8668C19.4587 14.8989 19.4188 14.6746 19.6503 14.5065C21.1508 13.4494 23.617 13.7537 23.9043 14.1061C24.1917 14.4664 23.8245 16.9409 22.4198 18.1261C22.2043 18.3103 21.9968 18.2142 22.0926 17.974C22.4118 17.1812 23.1222 15.3954 22.787 14.9709Z" fill="#FF9900"/>
</g>
<defs>
<clipPath id="clip0_85_7107">
<rect width="24" height="24" fill="white"/>
</clipPath>
</defs>
</svg>
