<svg width="12" height="12" viewBox="0 0 12 12" fill="none" xmlns="http://www.w3.org/2000/svg">
<path d="M10.4813 1.33663C10.1058 0.96806 9.60025 0.762278 9.07412 0.763876L3.00008 0.756808C2.73589 0.757594 2.48275 0.862889 2.29595 1.0497C2.10914 1.2365 2.00384 1.48964 2.00306 1.75383C2.00252 1.88584 2.02812 2.01665 2.07839 2.13872C2.12865 2.26078 2.20259 2.37169 2.29594 2.46503C2.38929 2.55838 2.50019 2.63232 2.62226 2.68259C2.74433 2.73286 2.87514 2.75846 3.00715 2.75792L7.65284 2.75084L0.581768 9.82191C0.394232 10.0094 0.288875 10.2638 0.288875 10.529C0.288875 10.7942 0.394231 11.0486 0.581767 11.2361C0.769303 11.4237 1.02366 11.529 1.28887 11.529C1.55409 11.529 1.80844 11.4237 1.99598 11.2361L9.06705 4.16506L9.06705 8.81782C9.06611 9.08318 9.17062 9.33805 9.3576 9.52635C9.54458 9.71465 9.7987 9.82097 10.0641 9.82191C10.3294 9.82285 10.5843 9.71833 10.7726 9.53135C10.9609 9.34437 11.0672 9.09025 11.0682 8.82489L11.0611 2.75084C11.0627 2.22126 10.8542 1.71268 10.4813 1.33663Z" fill="white"/>
</svg>
