<svg width="24" height="24" viewBox="0 0 24 24" fill="none" xmlns="http://www.w3.org/2000/svg">
<g clip-path="url(#clip0_85_7116)">
<path d="M8.05261 0.838113H15.0634L7.78568 22.4014C7.71095 22.623 7.56854 22.8156 7.37854 22.9521C7.18854 23.0885 6.96051 23.1619 6.7266 23.1618H1.27061C1.09341 23.1618 0.918767 23.1196 0.761102 23.0387C0.603436 22.9578 0.467273 22.8406 0.363858 22.6967C0.260474 22.5528 0.192857 22.3864 0.166606 22.2111C0.140356 22.0359 0.156227 21.8569 0.212906 21.689L6.99353 1.59839C7.0683 1.37675 7.21071 1.18415 7.4007 1.0477C7.59069 0.911247 7.81869 0.837825 8.05261 0.837769V0.838113Z" fill="url(#paint0_linear_85_7116)"/>
<path d="M18.2402 15.3013H7.12273C7.01935 15.3011 6.91831 15.332 6.83279 15.3901C6.74726 15.4482 6.68123 15.5307 6.6433 15.6269C6.60536 15.723 6.59729 15.8284 6.62014 15.9292C6.64298 16.0301 6.69568 16.1217 6.77136 16.1921L13.9151 22.86C14.1231 23.054 14.397 23.1619 14.6814 23.1618H20.9765L18.2402 15.3013Z" fill="#0078D4"/>
<path d="M8.05247 0.838143C7.81601 0.837254 7.58546 0.911991 7.39448 1.05144C7.20351 1.19088 7.06213 1.38773 6.99098 1.61324L0.221214 21.6708C0.160778 21.8393 0.14181 22.0198 0.165914 22.1972C0.190019 22.3746 0.256486 22.5436 0.359696 22.6898C0.462905 22.8361 0.59982 22.9553 0.758861 23.0375C0.917902 23.1197 1.09439 23.1623 1.2734 23.1619H6.87035C7.0788 23.1246 7.27362 23.0327 7.43493 22.8955C7.59623 22.7584 7.71824 22.5808 7.78848 22.3811L9.13843 18.4024L13.9608 22.9001C14.1628 23.0673 14.4163 23.1597 14.6785 23.1619H20.9503L18.1995 15.3013L10.181 15.3032L15.0886 0.838143H8.05247Z" fill="url(#paint1_linear_85_7116)"/>
<path d="M17.0068 1.59738C16.9321 1.37605 16.7899 1.18373 16.6001 1.04752C16.4104 0.911306 16.1827 0.838072 15.9491 0.838135H8.13574C8.36928 0.83816 8.59693 0.911431 8.78664 1.04763C8.97636 1.18383 9.11857 1.3761 9.19327 1.59738L15.9741 21.6889C16.0308 21.8568 16.0468 22.0358 16.0206 22.2111C15.9944 22.3864 15.9268 22.553 15.8235 22.697C15.7201 22.841 15.5839 22.9583 15.4262 23.0392C15.2685 23.1201 15.0938 23.1622 14.9165 23.1622H22.7302C22.9074 23.1621 23.082 23.1198 23.2396 23.0388C23.3972 22.9579 23.5333 22.8406 23.6366 22.6966C23.7399 22.5527 23.8075 22.3862 23.8338 22.211C23.86 22.0357 23.8442 21.8568 23.7876 21.6889L17.0068 1.59738Z" fill="url(#paint2_linear_85_7116)"/>
</g>
<defs>
<linearGradient id="paint0_linear_85_7116" x1="10.6079" y1="2.49239" x2="3.32708" y2="24.0015" gradientUnits="userSpaceOnUse">
<stop stop-color="#114A8B"/>
<stop offset="1" stop-color="#0669BC"/>
</linearGradient>
<linearGradient id="paint1_linear_85_7116" x1="12.8821" y1="12.5163" x2="11.198" y2="13.0856" gradientUnits="userSpaceOnUse">
<stop stop-opacity="0.3"/>
<stop offset="0.071" stop-opacity="0.2"/>
<stop offset="0.321" stop-opacity="0.1"/>
<stop offset="0.623" stop-opacity="0.05"/>
<stop offset="1" stop-opacity="0"/>
</linearGradient>
<linearGradient id="paint2_linear_85_7116" x1="11.9556" y1="1.86499" x2="19.9478" y2="23.1575" gradientUnits="userSpaceOnUse">
<stop stop-color="#3CCBF4"/>
<stop offset="1" stop-color="#2892DF"/>
</linearGradient>
<clipPath id="clip0_85_7116">
<rect width="24" height="24" fill="white"/>
</clipPath>
</defs>
</svg>
