<svg width="24" height="25" viewBox="0 0 24 25" fill="none" xmlns="http://www.w3.org/2000/svg">
<path d="M18.3002 6.20997C17.9102 5.81997 17.2802 5.81997 16.8902 6.20997L12.0002 11.09L7.11022 6.19997C6.72022 5.80997 6.09021 5.80997 5.70021 6.19997C5.31021 6.58997 5.31021 7.21997 5.70021 7.60997L10.5902 12.5L5.70021 17.39C5.31021 17.78 5.31021 18.41 5.70021 18.8C6.09021 19.19 6.72022 19.19 7.11022 18.8L12.0002 13.91L16.8902 18.8C17.2802 19.19 17.9102 19.19 18.3002 18.8C18.6902 18.41 18.6902 17.78 18.3002 17.39L13.4102 12.5L18.3002 7.60997C18.6802 7.22997 18.6802 6.58997 18.3002 6.20997Z" fill="#6F727A"/>
</svg>
