<svg width="16" height="16" viewBox="0 0 16 16" fill="none" xmlns="http://www.w3.org/2000/svg">
<g clip-path="url(#clip0_5429_22945)">
<path d="M14.8936 6.4316C14.6882 6.2937 14.5027 6.1283 14.3423 5.93996C14.3542 5.67774 14.4069 5.41899 14.4985 5.17304C14.6707 4.59005 14.8852 3.86449 14.4719 3.29674C14.0555 2.72448 13.295 2.70527 12.6839 2.68965C12.4269 2.69991 12.1698 2.67228 11.9208 2.60761C11.7839 2.39287 11.6793 2.15915 11.6106 1.91394C11.4067 1.3333 11.1527 0.610631 10.4725 0.389591C9.81252 0.175085 9.22021 0.582627 8.69795 0.941011C8.48806 1.10859 8.25243 1.24105 8.00018 1.33328C7.74781 1.24116 7.51204 1.10867 7.30213 0.941011C6.77984 0.582312 6.18737 0.176056 5.52753 0.389591C4.84754 0.610631 4.59364 1.33294 4.38952 1.9137C4.32087 2.15768 4.21748 2.39053 4.08256 2.60509C3.83278 2.67173 3.57436 2.70015 3.31608 2.68942C2.70508 2.70501 1.94451 2.72424 1.52818 3.29648C1.11483 3.86454 1.32929 4.5901 1.50151 5.17314C1.59206 5.41781 1.64523 5.6747 1.65922 5.93521C1.49954 6.1262 1.31336 6.29339 1.10633 6.43162C0.613333 6.80759 0 7.27566 0 7.99996C0 8.72426 0.613334 9.19232 1.10644 9.56832C1.31181 9.70621 1.49731 9.87161 1.6577 10.0599C1.64578 10.3222 1.59308 10.5809 1.50146 10.8269C1.32926 11.4099 1.11478 12.1355 1.52812 12.7032C1.94446 13.2754 2.70503 13.2946 3.31605 13.3103C3.5731 13.3 3.83023 13.3277 4.07922 13.3923C4.21612 13.6071 4.32066 13.8408 4.38945 14.086C4.59356 14.6667 4.84746 15.3893 5.52761 15.6104C5.64811 15.6499 5.77414 15.67 5.90096 15.67C6.41285 15.67 6.88028 15.3487 7.30218 15.059C7.51207 14.8914 7.7477 14.7589 7.99997 14.6666C8.25235 14.7588 8.48812 14.8912 8.69808 15.0589C9.22034 15.4176 9.81265 15.8235 10.4727 15.6103C11.1526 15.3893 11.4065 14.667 11.6107 14.0862C11.6793 13.8422 11.7827 13.6094 11.9176 13.3948C12.1674 13.3282 12.4258 13.2998 12.6841 13.3105C13.2951 13.2949 14.0557 13.2757 14.472 12.7034C14.8853 12.1354 14.6709 11.4098 14.4987 10.8268C14.4081 10.5821 14.355 10.3252 14.341 10.0647C14.5006 9.87371 14.6868 9.70653 14.8939 9.56829C15.3866 9.19232 16 8.72426 16 7.99996C16 7.27566 15.3867 6.80759 14.8936 6.4316ZM10.9714 6.80465L7.63802 10.138C7.37777 10.3983 6.95577 10.3984 6.69544 10.1381C6.69538 10.1381 6.69549 10.1382 6.69544 10.1381L5.0286 8.4713C4.76497 8.21428 4.75961 7.7922 5.01664 7.52856C5.27366 7.26492 5.69574 7.25957 5.95938 7.51659C5.96342 7.52053 5.96741 7.52452 5.97135 7.52856L7.16665 8.72389L10.0286 5.86188C10.2857 5.59824 10.7077 5.59292 10.9714 5.84994C11.235 6.10696 11.2403 6.52905 10.9833 6.79268C10.9794 6.79675 10.9754 6.80071 10.9714 6.80465Z" fill="#0D99FF"/>
</g>
<defs>
<clipPath id="clip0_5429_22945">
<rect width="16" height="16" fill="white"/>
</clipPath>
</defs>
</svg>
