<svg width="24" height="24" viewBox="0 0 24 24" fill="none" xmlns="http://www.w3.org/2000/svg">
<g clip-path="url(#clip0_85_7136)">
<path d="M12.0267 19.3049H7.35733V14.7231H12.0267V19.3049ZM7.35733 22.8998H3.81997V19.3049L7.35733 19.3049V22.8998ZM3.81997 19.3049H0.849394V16.3439H3.81997V19.3049ZM11.9562 23.9574V19.3049C16.9082 19.3049 20.7282 14.4413 18.8182 9.2946C18.1105 7.39136 16.6256 5.84104 14.6444 5.13561C9.55071 3.30341 4.66939 7.1095 4.66939 11.9734H0C0 4.2195 7.56951 -1.91357 15.8474 0.624076C19.4554 1.75232 22.2851 4.57183 23.4169 8.16707C25.9634 16.4144 19.8084 23.9574 11.9562 23.9574Z" fill="#0080FF"/>
</g>
<defs>
<clipPath id="clip0_85_7136">
<rect width="24" height="24" fill="white"/>
</clipPath>
</defs>
</svg>
