<svg width="16" height="17" viewBox="0 0 16 17" fill="none" xmlns="http://www.w3.org/2000/svg">
<g clip-path="url(#clip0_6017_6306)">
<mask id="path-1-inside-1_6017_6306" fill="white">
<path d="M9.28798 3.16667C9.83027 3.1672 10.3502 3.38286 10.7337 3.76632C11.1171 4.14978 11.3328 4.66971 11.3333 5.212C11.3333 5.38881 11.4036 5.55838 11.5286 5.6834C11.6536 5.80843 11.8232 5.87867 12 5.87867C12.1768 5.87867 12.3464 5.80843 12.4714 5.6834C12.5964 5.55838 12.6666 5.38881 12.6666 5.212V5.16667C12.6666 5.154 12.6666 5.14267 12.6666 5.13C12.6444 4.24849 12.2787 3.41052 11.6476 2.7947C11.0165 2.17889 10.1698 1.83392 9.28798 1.83333H8.66665V1.16667C8.66665 0.989856 8.59641 0.820286 8.47138 0.695262C8.34636 0.570238 8.17679 0.5 7.99998 0.5C7.82317 0.5 7.6536 0.570238 7.52858 0.695262C7.40355 0.820286 7.33331 0.989856 7.33331 1.16667V1.83333H6.71198C5.91019 1.83419 5.13484 2.12016 4.52451 2.64012C3.91418 3.16008 3.50865 3.88015 3.38041 4.67162C3.25218 5.46308 3.40959 6.27436 3.82451 6.96044C4.23943 7.64652 4.88482 8.16268 5.64531 8.41667L7.33331 8.98V13.8333H6.71198C6.16969 13.8328 5.64976 13.6171 5.2663 13.2337C4.88284 12.8502 4.66718 12.3303 4.66665 11.788C4.66665 11.6112 4.59641 11.4416 4.47138 11.3166C4.34636 11.1916 4.17679 11.1213 3.99998 11.1213C3.82317 11.1213 3.6536 11.1916 3.52858 11.3166C3.40355 11.4416 3.33331 11.6112 3.33331 11.788V11.8333C3.33331 11.846 3.33331 11.8573 3.33331 11.87C3.35556 12.7515 3.72122 13.5895 4.35236 14.2053C4.98349 14.8211 5.83019 15.1661 6.71198 15.1667H7.33331V15.8333C7.33331 16.0101 7.40355 16.1797 7.52858 16.3047C7.6536 16.4298 7.82317 16.5 7.99998 16.5C8.17679 16.5 8.34636 16.4298 8.47138 16.3047C8.59641 16.1797 8.66665 16.0101 8.66665 15.8333V15.1667H9.28798C10.0898 15.1658 10.8651 14.8798 11.4755 14.3599C12.0858 13.8399 12.4913 13.1199 12.6195 12.3284C12.7478 11.5369 12.5904 10.7256 12.1755 10.0396C11.7605 9.35348 11.1151 8.83732 10.3546 8.58333L8.66665 8.02V3.16667H9.28798ZM9.93465 9.84733C10.3956 10.0008 10.7869 10.3132 11.0385 10.7288C11.29 11.1444 11.3855 11.636 11.3077 12.1155C11.2299 12.5951 10.9839 13.0313 10.6139 13.346C10.2438 13.6608 9.77379 13.8335 9.28798 13.8333H8.66665V9.42467L9.93465 9.84733ZM7.33331 7.57533L6.06665 7.15267C5.60581 6.99929 5.21459 6.68691 4.963 6.27146C4.71142 5.856 4.61589 5.36457 4.69351 4.88512C4.77114 4.40566 5.01685 3.96948 5.38667 3.65463C5.75649 3.33978 6.22628 3.1668 6.71198 3.16667H7.33331V7.57533Z"/>
</mask>
<path d="M9.28798 3.16667C9.83027 3.1672 10.3502 3.38286 10.7337 3.76632C11.1171 4.14978 11.3328 4.66971 11.3333 5.212C11.3333 5.38881 11.4036 5.55838 11.5286 5.6834C11.6536 5.80843 11.8232 5.87867 12 5.87867C12.1768 5.87867 12.3464 5.80843 12.4714 5.6834C12.5964 5.55838 12.6666 5.38881 12.6666 5.212V5.16667C12.6666 5.154 12.6666 5.14267 12.6666 5.13C12.6444 4.24849 12.2787 3.41052 11.6476 2.7947C11.0165 2.17889 10.1698 1.83392 9.28798 1.83333H8.66665V1.16667C8.66665 0.989856 8.59641 0.820286 8.47138 0.695262C8.34636 0.570238 8.17679 0.5 7.99998 0.5C7.82317 0.5 7.6536 0.570238 7.52858 0.695262C7.40355 0.820286 7.33331 0.989856 7.33331 1.16667V1.83333H6.71198C5.91019 1.83419 5.13484 2.12016 4.52451 2.64012C3.91418 3.16008 3.50865 3.88015 3.38041 4.67162C3.25218 5.46308 3.40959 6.27436 3.82451 6.96044C4.23943 7.64652 4.88482 8.16268 5.64531 8.41667L7.33331 8.98V13.8333H6.71198C6.16969 13.8328 5.64976 13.6171 5.2663 13.2337C4.88284 12.8502 4.66718 12.3303 4.66665 11.788C4.66665 11.6112 4.59641 11.4416 4.47138 11.3166C4.34636 11.1916 4.17679 11.1213 3.99998 11.1213C3.82317 11.1213 3.6536 11.1916 3.52858 11.3166C3.40355 11.4416 3.33331 11.6112 3.33331 11.788V11.8333C3.33331 11.846 3.33331 11.8573 3.33331 11.87C3.35556 12.7515 3.72122 13.5895 4.35236 14.2053C4.98349 14.8211 5.83019 15.1661 6.71198 15.1667H7.33331V15.8333C7.33331 16.0101 7.40355 16.1797 7.52858 16.3047C7.6536 16.4298 7.82317 16.5 7.99998 16.5C8.17679 16.5 8.34636 16.4298 8.47138 16.3047C8.59641 16.1797 8.66665 16.0101 8.66665 15.8333V15.1667H9.28798C10.0898 15.1658 10.8651 14.8798 11.4755 14.3599C12.0858 13.8399 12.4913 13.1199 12.6195 12.3284C12.7478 11.5369 12.5904 10.7256 12.1755 10.0396C11.7605 9.35348 11.1151 8.83732 10.3546 8.58333L8.66665 8.02V3.16667H9.28798ZM9.93465 9.84733C10.3956 10.0008 10.7869 10.3132 11.0385 10.7288C11.29 11.1444 11.3855 11.636 11.3077 12.1155C11.2299 12.5951 10.9839 13.0313 10.6139 13.346C10.2438 13.6608 9.77379 13.8335 9.28798 13.8333H8.66665V9.42467L9.93465 9.84733ZM7.33331 7.57533L6.06665 7.15267C5.60581 6.99929 5.21459 6.68691 4.963 6.27146C4.71142 5.856 4.61589 5.36457 4.69351 4.88512C4.77114 4.40566 5.01685 3.96948 5.38667 3.65463C5.75649 3.33978 6.22628 3.1668 6.71198 3.16667H7.33331V7.57533Z" fill="#4D515C"/>
<path d="M9.28798 3.16667L9.30881 -18.1667L9.29839 -18.1667H9.28798V3.16667ZM11.3333 5.212H32.6666V5.20159L32.6666 5.19117L11.3333 5.212ZM12.6666 5.13H34V4.86082L33.9932 4.59173L12.6666 5.13ZM9.28798 1.83333L9.30221 -19.5L9.2951 -19.5H9.28798V1.83333ZM8.66665 1.83333H-12.6667V23.1667H8.66665V1.83333ZM7.99998 0.5V-20.8333V0.5ZM7.33331 1.83333V23.1667H28.6666V1.83333H7.33331ZM6.71198 1.83333V-19.5H6.70059L6.6892 -19.5L6.71198 1.83333ZM5.64531 8.41667L-1.11254 28.6514L-1.10807 28.6528L5.64531 8.41667ZM7.33331 8.98H28.6666V-6.39043L14.0867 -11.2562L7.33331 8.98ZM7.33331 13.8333V35.1667H28.6666V13.8333H7.33331ZM6.71198 13.8333L6.69115 35.1667L6.70156 35.1667H6.71198V13.8333ZM4.66665 11.788H-16.6667V11.7984L-16.6667 11.8088L4.66665 11.788ZM3.33331 11.87H-18V12.1392L-17.9932 12.4083L3.33331 11.87ZM6.71198 15.1667L6.69775 36.5L6.70486 36.5H6.71198V15.1667ZM7.33331 15.1667H28.6666V-6.16667H7.33331V15.1667ZM8.66665 15.1667V-6.16667H-12.6667V15.1667H8.66665ZM9.28798 15.1667V36.5H9.29937L9.31076 36.5L9.28798 15.1667ZM10.3546 8.58333L17.1125 -11.6514L17.108 -11.6528L10.3546 8.58333ZM8.66665 8.02H-12.6667V23.3904L1.91326 28.2562L8.66665 8.02ZM8.66665 3.16667V-18.1667H-12.6667V3.16667H8.66665ZM9.93465 9.84733L3.18846 30.0859L3.19764 30.089L9.93465 9.84733ZM11.3077 12.1155L32.3657 15.5319L11.3077 12.1155ZM9.28798 13.8333L9.29586 -7.5H9.28798V13.8333ZM8.66665 13.8333H-12.6667V35.1667H8.66665V13.8333ZM8.66665 9.42467L15.4128 -10.8139L-12.6667 -20.1737V9.42467H8.66665ZM7.33331 7.57533L0.580731 27.8118L28.6666 37.1836V7.57533H7.33331ZM6.06665 7.15267L12.8192 -13.0838L12.8114 -13.0864L12.8037 -13.089L6.06665 7.15267ZM6.71198 3.16667V-18.1667L6.70595 -18.1667L6.71198 3.16667ZM7.33331 3.16667H28.6666V-18.1667H7.33331V3.16667ZM9.26715 24.5C4.15871 24.495 -0.739067 22.4635 -4.35128 18.8513L25.8186 -11.3186C21.4395 -15.6978 15.5018 -18.1606 9.30881 -18.1667L9.26715 24.5ZM-4.35128 18.8513C-7.9635 15.239 -9.99502 10.3413 -10 5.23283L32.6666 5.19117C32.6606 -1.00185 30.1977 -6.93949 25.8186 -11.3186L-4.35128 18.8513ZM-10 5.212C-10 11.0467 -7.6822 16.6425 -3.55637 20.7684L26.6135 -9.40154C30.4893 -5.52575 32.6666 -0.269093 32.6666 5.212H-10ZM-3.55637 20.7684C0.569453 24.8942 6.16525 27.212 12 27.212V-15.4547C17.4811 -15.4547 22.7377 -13.2773 26.6135 -9.40154L-3.55637 20.7684ZM12 27.212C17.8347 27.212 23.4305 24.8942 27.5563 20.7684L-2.61356 -9.40154C1.26221 -13.2773 6.51887 -15.4547 12 -15.4547V27.212ZM27.5563 20.7684C31.6822 16.6425 34 11.0467 34 5.212H-8.66669C-8.66669 -0.269093 -6.48935 -5.52575 -2.61356 -9.40154L27.5563 20.7684ZM34 5.212V5.16667H-8.66669V5.212H34ZM34 5.16667C34 5.16664 34 5.16662 34 5.16659C34 5.16657 34 5.16654 34 5.16652C34 5.16649 34 5.16647 34 5.16644C34 5.16642 34 5.16639 34 5.16637C34 5.16635 34 5.16632 34 5.1663C34 5.16627 34 5.16625 34 5.16622C34 5.1662 34 5.16617 34 5.16615C34 5.16612 34 5.1661 34 5.16607C34 5.16605 34 5.16602 34 5.166C34 5.16598 34 5.16595 34 5.16593C34 5.1659 34 5.16588 34 5.16585C34 5.16583 34 5.1658 34 5.16578C34 5.16575 34 5.16573 34 5.1657C34 5.16568 34 5.16566 34 5.16563C34 5.16561 34 5.16558 34 5.16556C34 5.16553 34 5.16551 34 5.16548C34 5.16546 34 5.16543 34 5.16541C34 5.16538 34 5.16536 34 5.16534C34 5.16531 34 5.16529 34 5.16526C34 5.16524 34 5.16521 34 5.16519C34 5.16516 34 5.16514 34 5.16511C34 5.16509 34 5.16507 34 5.16504C34 5.16502 34 5.16499 34 5.16497C34 5.16494 34 5.16492 34 5.16489C34 5.16487 34 5.16484 34 5.16482C34 5.1648 34 5.16477 34 5.16475C34 5.16472 34 5.1647 34 5.16467C34 5.16465 34 5.16462 34 5.1646C34 5.16458 34 5.16455 34 5.16453C34 5.1645 34 5.16448 34 5.16445C34 5.16443 34 5.1644 34 5.16438C34 5.16436 34 5.16433 34 5.16431C34 5.16428 34 5.16426 34 5.16423C34 5.16421 34 5.16418 34 5.16416C34 5.16414 34 5.16411 34 5.16409C34 5.16406 34 5.16404 34 5.16401C34 5.16399 34 5.16397 34 5.16394C34 5.16392 34 5.16389 34 5.16387C34 5.16384 34 5.16382 34 5.16379C34 5.16377 34 5.16375 34 5.16372C34 5.1637 34 5.16367 34 5.16365C34 5.16362 34 5.1636 34 5.16358C34 5.16355 34 5.16353 34 5.1635C34 5.16348 34 5.16345 34 5.16343C34 5.1634 34 5.16338 34 5.16336C34 5.16333 34 5.16331 34 5.16328C34 5.16326 34 5.16323 34 5.16321C34 5.16319 34 5.16316 34 5.16314C34 5.16311 34 5.16309 34 5.16306C34 5.16304 34 5.16302 34 5.16299C34 5.16297 34 5.16294 34 5.16292C34 5.16289 34 5.16287 34 5.16285C34 5.16282 34 5.1628 34 5.16277C34 5.16275 34 5.16272 34 5.1627C34 5.16268 34 5.16265 34 5.16263C34 5.1626 34 5.16258 34 5.16255C34 5.16253 34 5.16251 34 5.16248C34 5.16246 34 5.16243 34 5.16241C34 5.16239 34 5.16236 34 5.16234C34 5.16231 34 5.16229 34 5.16226C34 5.16224 34 5.16222 34 5.16219C34 5.16217 34 5.16214 34 5.16212C34 5.1621 34 5.16207 34 5.16205C34 5.16202 34 5.162 34 5.16197C34 5.16195 34 5.16193 34 5.1619C34 5.16188 34 5.16185 34 5.16183C34 5.16181 34 5.16178 34 5.16176C34 5.16173 34 5.16171 34 5.16168C34 5.16166 34 5.16164 34 5.16161C34 5.16159 34 5.16156 34 5.16154C34 5.16152 34 5.16149 34 5.16147C34 5.16144 34 5.16142 34 5.16139C34 5.16137 34 5.16135 34 5.16132C34 5.1613 34 5.16127 34 5.16125C34 5.16123 34 5.1612 34 5.16118C34 5.16115 34 5.16113 34 5.16111C34 5.16108 34 5.16106 34 5.16103C34 5.16101 34 5.16098 34 5.16096C34 5.16094 34 5.16091 34 5.16089C34 5.16086 34 5.16084 34 5.16082C34 5.16079 34 5.16077 34 5.16074C34 5.16072 34 5.1607 34 5.16067C34 5.16065 34 5.16062 34 5.1606C34 5.16058 34 5.16055 34 5.16053C34 5.1605 34 5.16048 34 5.16046C34 5.16043 34 5.16041 34 5.16038C34 5.16036 34 5.16034 34 5.16031C34 5.16029 34 5.16026 34 5.16024C34 5.16022 34 5.16019 34 5.16017C34 5.16014 34 5.16012 34 5.1601C34 5.16007 34 5.16005 34 5.16002C34 5.16 34 5.15998 34 5.15995C34 5.15993 34 5.1599 34 5.15988C34 5.15986 34 5.15983 34 5.15981C34 5.15978 34 5.15976 34 5.15974C34 5.15971 34 5.15969 34 5.15966C34 5.15964 34 5.15962 34 5.15959C34 5.15957 34 5.15954 34 5.15952C34 5.1595 34 5.15947 34 5.15945C34 5.15943 34 5.1594 34 5.15938C34 5.15935 34 5.15933 34 5.15931C34 5.15928 34 5.15926 34 5.15923C34 5.15921 34 5.15919 34 5.15916C34 5.15914 34 5.15911 34 5.15909C34 5.15907 34 5.15904 34 5.15902C34 5.159 34 5.15897 34 5.15895C34 5.15892 34 5.1589 34 5.15888C34 5.15885 34 5.15883 34 5.1588C34 5.15878 34 5.15876 34 5.15873C34 5.15871 34 5.15868 34 5.15866C34 5.15864 34 5.15861 34 5.15859C34 5.15857 34 5.15854 34 5.15852C34 5.15849 34 5.15847 34 5.15845C34 5.15842 34 5.1584 34 5.15837C34 5.15835 34 5.15833 34 5.1583C34 5.15828 34 5.15826 34 5.15823C34 5.15821 34 5.15818 34 5.15816C34 5.15814 34 5.15811 34 5.15809C34 5.15806 34 5.15804 34 5.15802C34 5.15799 34 5.15797 34 5.15795C34 5.15792 34 5.1579 34 5.15787C34 5.15785 34 5.15783 34 5.1578C34 5.15778 34 5.15776 34 5.15773C34 5.15771 34 5.15768 34 5.15766C34 5.15764 34 5.15761 34 5.15759C34 5.15757 34 5.15754 34 5.15752C34 5.15749 34 5.15747 34 5.15745C34 5.15742 34 5.1574 34 5.15738C34 5.15735 34 5.15733 34 5.1573C34 5.15728 34 5.15726 34 5.15723C34 5.15721 34 5.15719 34 5.15716C34 5.15714 34 5.15711 34 5.15709C34 5.15707 34 5.15704 34 5.15702C34 5.157 34 5.15697 34 5.15695C34 5.15692 34 5.1569 34 5.15688C34 5.15685 34 5.15683 34 5.15681C34 5.15678 34 5.15676 34 5.15673C34 5.15671 34 5.15669 34 5.15666C34 5.15664 34 5.15662 34 5.15659C34 5.15657 34 5.15654 34 5.15652C34 5.1565 34 5.15647 34 5.15645C34 5.15643 34 5.1564 34 5.15638C34 5.15635 34 5.15633 34 5.15631C34 5.15628 34 5.15626 34 5.15624C34 5.15621 34 5.15619 34 5.15617C34 5.15614 34 5.15612 34 5.15609C34 5.15607 34 5.15605 34 5.15602C34 5.156 34 5.15598 34 5.15595C34 5.15593 34 5.1559 34 5.15588C34 5.15586 34 5.15583 34 5.15581C34 5.15579 34 5.15576 34 5.15574C34 5.15572 34 5.15569 34 5.15567C34 5.15564 34 5.15562 34 5.1556C34 5.15557 34 5.15555 34 5.15553C34 5.1555 34 5.15548 34 5.15546C34 5.15543 34 5.15541 34 5.15538C34 5.15536 34 5.15534 34 5.15531C34 5.15529 34 5.15527 34 5.15524C34 5.15522 34 5.1552 34 5.15517C34 5.15515 34 5.15512 34 5.1551C34 5.15508 34 5.15505 34 5.15503C34 5.15501 34 5.15498 34 5.15496C34 5.15494 34 5.15491 34 5.15489C34 5.15486 34 5.15484 34 5.15482C34 5.15479 34 5.15477 34 5.15475C34 5.15472 34 5.1547 34 5.15468C34 5.15465 34 5.15463 34 5.15461C34 5.15458 34 5.15456 34 5.15453C34 5.15451 34 5.15449 34 5.15446C34 5.15444 34 5.15442 34 5.15439C34 5.15437 34 5.15435 34 5.15432C34 5.1543 34 5.15427 34 5.15425C34 5.15423 34 5.1542 34 5.15418C34 5.15416 34 5.15413 34 5.15411C34 5.15409 34 5.15406 34 5.15404C34 5.15402 34 5.15399 34 5.15397C34 5.15394 34 5.15392 34 5.1539C34 5.15387 34 5.15385 34 5.15383C34 5.1538 34 5.15378 34 5.15376C34 5.15373 34 5.15371 34 5.15369C34 5.15366 34 5.15364 34 5.15362C34 5.15359 34 5.15357 34 5.15354C34 5.15352 34 5.1535 34 5.15347C34 5.15345 34 5.15343 34 5.1534C34 5.15338 34 5.15336 34 5.15333C34 5.15331 34 5.15329 34 5.15326C34 5.15324 34 5.15321 34 5.15319C34 5.15317 34 5.15314 34 5.15312C34 5.1531 34 5.15307 34 5.15305C34 5.15303 34 5.153 34 5.15298C34 5.15296 34 5.15293 34 5.15291C34 5.15289 34 5.15286 34 5.15284C34 5.15282 34 5.15279 34 5.15277C34 5.15274 34 5.15272 34 5.1527C34 5.15267 34 5.15265 34 5.15263C34 5.1526 34 5.15258 34 5.15256C34 5.15253 34 5.15251 34 5.15249C34 5.15246 34 5.15244 34 5.15242C34 5.15239 34 5.15237 34 5.15235C34 5.15232 34 5.1523 34 5.15227C34 5.15225 34 5.15223 34 5.1522C34 5.15218 34 5.15216 34 5.15213C34 5.15211 34 5.15209 34 5.15206C34 5.15204 34 5.15202 34 5.15199C34 5.15197 34 5.15195 34 5.15192C34 5.1519 34 5.15188 34 5.15185C34 5.15183 34 5.1518 34 5.15178C34 5.15176 34 5.15173 34 5.15171C34 5.15169 34 5.15166 34 5.15164C34 5.15162 34 5.15159 34 5.15157C34 5.15155 34 5.15152 34 5.1515C34 5.15148 34 5.15145 34 5.15143C34 5.15141 34 5.15138 34 5.15136C34 5.15134 34 5.15131 34 5.15129C34 5.15126 34 5.15124 34 5.15122C34 5.15119 34 5.15117 34 5.15115C34 5.15112 34 5.1511 34 5.15108C34 5.15105 34 5.15103 34 5.15101C34 5.15098 34 5.15096 34 5.15094C34 5.15091 34 5.15089 34 5.15087C34 5.15084 34 5.15082 34 5.1508C34 5.15077 34 5.15075 34 5.15072C34 5.1507 34 5.15068 34 5.15065C34 5.15063 34 5.15061 34 5.15058C34 5.15056 34 5.15054 34 5.15051C34 5.15049 34 5.15047 34 5.15044C34 5.15042 34 5.1504 34 5.15037C34 5.15035 34 5.15033 34 5.1503C34 5.15028 34 5.15026 34 5.15023C34 5.15021 34 5.15019 34 5.15016C34 5.15014 34 5.15012 34 5.15009C34 5.15007 34 5.15004 34 5.15002C34 5.15 34 5.14997 34 5.14995C34 5.14993 34 5.1499 34 5.14988C34 5.14986 34 5.14983 34 5.14981C34 5.14979 34 5.14976 34 5.14974C34 5.14972 34 5.14969 34 5.14967C34 5.14965 34 5.14962 34 5.1496C34 5.14958 34 5.14955 34 5.14953C34 5.14951 34 5.14948 34 5.14946C34 5.14944 34 5.14941 34 5.14939C34 5.14936 34 5.14934 34 5.14932C34 5.14929 34 5.14927 34 5.14925C34 5.14922 34 5.1492 34 5.14918C34 5.14915 34 5.14913 34 5.14911C34 5.14908 34 5.14906 34 5.14904C34 5.14901 34 5.14899 34 5.14897C34 5.14894 34 5.14892 34 5.1489C34 5.14887 34 5.14885 34 5.14883C34 5.1488 34 5.14878 34 5.14876C34 5.14873 34 5.14871 34 5.14868C34 5.14866 34 5.14864 34 5.14861C34 5.14859 34 5.14857 34 5.14854C34 5.14852 34 5.1485 34 5.14847C34 5.14845 34 5.14843 34 5.1484C34 5.14838 34 5.14836 34 5.14833C34 5.14831 34 5.14829 34 5.14826C34 5.14824 34 5.14822 34 5.14819C34 5.14817 34 5.14815 34 5.14812C34 5.1481 34 5.14808 34 5.14805C34 5.14803 34 5.14801 34 5.14798C34 5.14796 34 5.14793 34 5.14791C34 5.14789 34 5.14786 34 5.14784C34 5.14782 34 5.14779 34 5.14777C34 5.14775 34 5.14772 34 5.1477C34 5.14768 34 5.14765 34 5.14763C34 5.14761 34 5.14758 34 5.14756C34 5.14754 34 5.14751 34 5.14749C34 5.14747 34 5.14744 34 5.14742C34 5.1474 34 5.14737 34 5.14735C34 5.14733 34 5.1473 34 5.14728C34 5.14726 34 5.14723 34 5.14721C34 5.14718 34 5.14716 34 5.14714C34 5.14711 34 5.14709 34 5.14707C34 5.14704 34 5.14702 34 5.147C34 5.14697 34 5.14695 34 5.14693C34 5.1469 34 5.14688 34 5.14686C34 5.14683 34 5.14681 34 5.14679C34 5.14676 34 5.14674 34 5.14672C34 5.14669 34 5.14667 34 5.14665C34 5.14662 34 5.1466 34 5.14658C34 5.14655 34 5.14653 34 5.1465C34 5.14648 34 5.14646 34 5.14643C34 5.14641 34 5.14639 34 5.14636C34 5.14634 34 5.14632 34 5.14629C34 5.14627 34 5.14625 34 5.14622C34 5.1462 34 5.14618 34 5.14615C34 5.14613 34 5.14611 34 5.14608C34 5.14606 34 5.14604 34 5.14601C34 5.14599 34 5.14597 34 5.14594C34 5.14592 34 5.1459 34 5.14587C34 5.14585 34 5.14582 34 5.1458C34 5.14578 34 5.14575 34 5.14573C34 5.14571 34 5.14568 34 5.14566C34 5.14564 34 5.14561 34 5.14559C34 5.14557 34 5.14554 34 5.14552C34 5.1455 34 5.14547 34 5.14545C34 5.14543 34 5.1454 34 5.14538C34 5.14536 34 5.14533 34 5.14531C34 5.14529 34 5.14526 34 5.14524C34 5.14521 34 5.14519 34 5.14517C34 5.14514 34 5.14512 34 5.1451C34 5.14507 34 5.14505 34 5.14503C34 5.145 34 5.14498 34 5.14496C34 5.14493 34 5.14491 34 5.14489C34 5.14486 34 5.14484 34 5.14482C34 5.14479 34 5.14477 34 5.14474C34 5.14472 34 5.1447 34 5.14467C34 5.14465 34 5.14463 34 5.1446C34 5.14458 34 5.14456 34 5.14453C34 5.14451 34 5.14449 34 5.14446C34 5.14444 34 5.14442 34 5.14439C34 5.14437 34 5.14435 34 5.14432C34 5.1443 34 5.14428 34 5.14425C34 5.14423 34 5.1442 34 5.14418C34 5.14416 34 5.14413 34 5.14411C34 5.14409 34 5.14406 34 5.14404C34 5.14402 34 5.14399 34 5.14397C34 5.14395 34 5.14392 34 5.1439C34 5.14388 34 5.14385 34 5.14383C34 5.14381 34 5.14378 34 5.14376C34 5.14373 34 5.14371 34 5.14369C34 5.14366 34 5.14364 34 5.14362C34 5.14359 34 5.14357 34 5.14355C34 5.14352 34 5.1435 34 5.14348C34 5.14345 34 5.14343 34 5.1434C34 5.14338 34 5.14336 34 5.14333C34 5.14331 34 5.14329 34 5.14326C34 5.14324 34 5.14322 34 5.14319C34 5.14317 34 5.14315 34 5.14312C34 5.1431 34 5.14308 34 5.14305C34 5.14303 34 5.143 34 5.14298C34 5.14296 34 5.14293 34 5.14291C34 5.14289 34 5.14286 34 5.14284C34 5.14282 34 5.14279 34 5.14277C34 5.14275 34 5.14272 34 5.1427C34 5.14267 34 5.14265 34 5.14263C34 5.1426 34 5.14258 34 5.14256C34 5.14253 34 5.14251 34 5.14249C34 5.14246 34 5.14244 34 5.14242C34 5.14239 34 5.14237 34 5.14234C34 5.14232 34 5.1423 34 5.14227C34 5.14225 34 5.14223 34 5.1422C34 5.14218 34 5.14216 34 5.14213C34 5.14211 34 5.14209 34 5.14206C34 5.14204 34 5.14201 34 5.14199C34 5.14197 34 5.14194 34 5.14192C34 5.1419 34 5.14187 34 5.14185C34 5.14183 34 5.1418 34 5.14178C34 5.14176 34 5.14173 34 5.14171C34 5.14168 34 5.14166 34 5.14164C34 5.14161 34 5.14159 34 5.14157C34 5.14154 34 5.14152 34 5.1415C34 5.14147 34 5.14145 34 5.14142C34 5.1414 34 5.14138 34 5.14135C34 5.14133 34 5.14131 34 5.14128C34 5.14126 34 5.14124 34 5.14121C34 5.14119 34 5.14116 34 5.14114C34 5.14112 34 5.14109 34 5.14107C34 5.14105 34 5.14102 34 5.141C34 5.14097 34 5.14095 34 5.14093C34 5.1409 34 5.14088 34 5.14086C34 5.14083 34 5.14081 34 5.14079C34 5.14076 34 5.14074 34 5.14071C34 5.14069 34 5.14067 34 5.14064C34 5.14062 34 5.1406 34 5.14057C34 5.14055 34 5.14053 34 5.1405C34 5.14048 34 5.14045 34 5.14043C34 5.14041 34 5.14038 34 5.14036C34 5.14034 34 5.14031 34 5.14029C34 5.14026 34 5.14024 34 5.14022C34 5.14019 34 5.14017 34 5.14015C34 5.14012 34 5.1401 34 5.14008C34 5.14005 34 5.14003 34 5.14C34 5.13998 34 5.13996 34 5.13993C34 5.13991 34 5.13989 34 5.13986C34 5.13984 34 5.13981 34 5.13979C34 5.13977 34 5.13974 34 5.13972C34 5.1397 34 5.13967 34 5.13965C34 5.13962 34 5.1396 34 5.13958C34 5.13955 34 5.13953 34 5.13951C34 5.13948 34 5.13946 34 5.13943C34 5.13941 34 5.13939 34 5.13936C34 5.13934 34 5.13932 34 5.13929C34 5.13927 34 5.13924 34 5.13922C34 5.1392 34 5.13917 34 5.13915C34 5.13913 34 5.1391 34 5.13908C34 5.13905 34 5.13903 34 5.13901C34 5.13898 34 5.13896 34 5.13894C34 5.13891 34 5.13889 34 5.13886C34 5.13884 34 5.13882 34 5.13879C34 5.13877 34 5.13874 34 5.13872C34 5.1387 34 5.13867 34 5.13865C34 5.13863 34 5.1386 34 5.13858C34 5.13855 34 5.13853 34 5.13851C34 5.13848 34 5.13846 34 5.13844C34 5.13841 34 5.13839 34 5.13836C34 5.13834 34 5.13832 34 5.13829C34 5.13827 34 5.13824 34 5.13822C34 5.1382 34 5.13817 34 5.13815C34 5.13813 34 5.1381 34 5.13808C34 5.13805 34 5.13803 34 5.13801C34 5.13798 34 5.13796 34 5.13793C34 5.13791 34 5.13789 34 5.13786C34 5.13784 34 5.13781 34 5.13779C34 5.13777 34 5.13774 34 5.13772C34 5.1377 34 5.13767 34 5.13765C34 5.13762 34 5.1376 34 5.13758C34 5.13755 34 5.13753 34 5.1375C34 5.13748 34 5.13746 34 5.13743C34 5.13741 34 5.13738 34 5.13736C34 5.13734 34 5.13731 34 5.13729C34 5.13727 34 5.13724 34 5.13722C34 5.13719 34 5.13717 34 5.13715C34 5.13712 34 5.1371 34 5.13707C34 5.13705 34 5.13703 34 5.137C34 5.13698 34 5.13695 34 5.13693C34 5.13691 34 5.13688 34 5.13686C34 5.13683 34 5.13681 34 5.13679C34 5.13676 34 5.13674 34 5.13671C34 5.13669 34 5.13667 34 5.13664C34 5.13662 34 5.13659 34 5.13657C34 5.13655 34 5.13652 34 5.1365C34 5.13648 34 5.13645 34 5.13643C34 5.1364 34 5.13638 34 5.13635C34 5.13633 34 5.13631 34 5.13628C34 5.13626 34 5.13623 34 5.13621C34 5.13619 34 5.13616 34 5.13614C34 5.13611 34 5.13609 34 5.13607C34 5.13604 34 5.13602 34 5.13599C34 5.13597 34 5.13595 34 5.13592C34 5.1359 34 5.13587 34 5.13585C34 5.13583 34 5.1358 34 5.13578C34 5.13575 34 5.13573 34 5.13571C34 5.13568 34 5.13566 34 5.13563C34 5.13561 34 5.13559 34 5.13556C34 5.13554 34 5.13551 34 5.13549C34 5.13547 34 5.13544 34 5.13542C34 5.13539 34 5.13537 34 5.13534C34 5.13532 34 5.1353 34 5.13527C34 5.13525 34 5.13522 34 5.1352C34 5.13518 34 5.13515 34 5.13513C34 5.1351 34 5.13508 34 5.13506C34 5.13503 34 5.13501 34 5.13498C34 5.13496 34 5.13493 34 5.13491C34 5.13489 34 5.13486 34 5.13484C34 5.13481 34 5.13479 34 5.13477C34 5.13474 34 5.13472 34 5.13469C34 5.13467 34 5.13464 34 5.13462C34 5.1346 34 5.13457 34 5.13455C34 5.13452 34 5.1345 34 5.13448C34 5.13445 34 5.13443 34 5.1344C34 5.13438 34 5.13435 34 5.13433C34 5.13431 34 5.13428 34 5.13426C34 5.13423 34 5.13421 34 5.13418C34 5.13416 34 5.13414 34 5.13411C34 5.13409 34 5.13406 34 5.13404C34 5.13402 34 5.13399 34 5.13397C34 5.13394 34 5.13392 34 5.13389C34 5.13387 34 5.13385 34 5.13382C34 5.1338 34 5.13377 34 5.13375C34 5.13372 34 5.1337 34 5.13368C34 5.13365 34 5.13363 34 5.1336C34 5.13358 34 5.13355 34 5.13353C34 5.13351 34 5.13348 34 5.13346C34 5.13343 34 5.13341 34 5.13338C34 5.13336 34 5.13334 34 5.13331C34 5.13329 34 5.13326 34 5.13324C34 5.13321 34 5.13319 34 5.13316C34 5.13314 34 5.13312 34 5.13309C34 5.13307 34 5.13304 34 5.13302C34 5.13299 34 5.13297 34 5.13295C34 5.13292 34 5.1329 34 5.13287C34 5.13285 34 5.13282 34 5.1328C34 5.13278 34 5.13275 34 5.13273C34 5.1327 34 5.13268 34 5.13265C34 5.13263 34 5.1326 34 5.13258C34 5.13256 34 5.13253 34 5.13251C34 5.13248 34 5.13246 34 5.13243C34 5.13241 34 5.13238 34 5.13236C34 5.13234 34 5.13231 34 5.13229C34 5.13226 34 5.13224 34 5.13221C34 5.13219 34 5.13216 34 5.13214C34 5.13212 34 5.13209 34 5.13207C34 5.13204 34 5.13202 34 5.13199C34 5.13197 34 5.13194 34 5.13192C34 5.1319 34 5.13187 34 5.13185C34 5.13182 34 5.1318 34 5.13177C34 5.13175 34 5.13172 34 5.1317C34 5.13167 34 5.13165 34 5.13163C34 5.1316 34 5.13158 34 5.13155C34 5.13153 34 5.1315 34 5.13148C34 5.13145 34 5.13143 34 5.1314C34 5.13138 34 5.13136 34 5.13133C34 5.13131 34 5.13128 34 5.13126C34 5.13123 34 5.13121 34 5.13118C34 5.13116 34 5.13113 34 5.13111C34 5.13109 34 5.13106 34 5.13104C34 5.13101 34 5.13099 34 5.13096C34 5.13094 34 5.13091 34 5.13089C34 5.13086 34 5.13084 34 5.13082C34 5.13079 34 5.13077 34 5.13074C34 5.13072 34 5.13069 34 5.13067C34 5.13064 34 5.13062 34 5.13059C34 5.13057 34 5.13054 34 5.13052C34 5.13049 34 5.13047 34 5.13045C34 5.13042 34 5.1304 34 5.13037C34 5.13035 34 5.13032 34 5.1303C34 5.13027 34 5.13025 34 5.13022C34 5.1302 34 5.13017 34 5.13015C34 5.13012 34 5.1301 34 5.13007C34 5.13005 34 5.13002 34 5.13H-8.66669C-8.66669 5.13002 -8.66669 5.13005 -8.66669 5.13007C-8.66669 5.1301 -8.66669 5.13012 -8.66669 5.13015C-8.66669 5.13017 -8.66669 5.1302 -8.66669 5.13022C-8.66669 5.13025 -8.66669 5.13027 -8.66669 5.1303C-8.66669 5.13032 -8.66669 5.13035 -8.66669 5.13037C-8.66669 5.1304 -8.66669 5.13042 -8.66669 5.13045C-8.66669 5.13047 -8.66669 5.13049 -8.66669 5.13052C-8.66669 5.13054 -8.66669 5.13057 -8.66669 5.13059C-8.66669 5.13062 -8.66669 5.13064 -8.66669 5.13067C-8.66669 5.13069 -8.66669 5.13072 -8.66669 5.13074C-8.66669 5.13077 -8.66669 5.13079 -8.66669 5.13082C-8.66669 5.13084 -8.66669 5.13086 -8.66669 5.13089C-8.66669 5.13091 -8.66669 5.13094 -8.66669 5.13096C-8.66669 5.13099 -8.66669 5.13101 -8.66669 5.13104C-8.66669 5.13106 -8.66669 5.13109 -8.66669 5.13111C-8.66669 5.13113 -8.66669 5.13116 -8.66669 5.13118C-8.66669 5.13121 -8.66669 5.13123 -8.66669 5.13126C-8.66669 5.13128 -8.66669 5.13131 -8.66669 5.13133C-8.66669 5.13136 -8.66669 5.13138 -8.66669 5.1314C-8.66669 5.13143 -8.66669 5.13145 -8.66669 5.13148C-8.66669 5.1315 -8.66669 5.13153 -8.66669 5.13155C-8.66669 5.13158 -8.66669 5.1316 -8.66669 5.13163C-8.66669 5.13165 -8.66669 5.13167 -8.66669 5.1317C-8.66669 5.13172 -8.66669 5.13175 -8.66669 5.13177C-8.66669 5.1318 -8.66669 5.13182 -8.66669 5.13185C-8.66669 5.13187 -8.66669 5.1319 -8.66669 5.13192C-8.66669 5.13194 -8.66669 5.13197 -8.66669 5.13199C-8.66669 5.13202 -8.66669 5.13204 -8.66669 5.13207C-8.66669 5.13209 -8.66669 5.13212 -8.66669 5.13214C-8.66669 5.13216 -8.66669 5.13219 -8.66669 5.13221C-8.66669 5.13224 -8.66669 5.13226 -8.66669 5.13229C-8.66669 5.13231 -8.66669 5.13234 -8.66669 5.13236C-8.66669 5.13238 -8.66669 5.13241 -8.66669 5.13243C-8.66669 5.13246 -8.66669 5.13248 -8.66669 5.13251C-8.66669 5.13253 -8.66669 5.13256 -8.66669 5.13258C-8.66669 5.1326 -8.66669 5.13263 -8.66669 5.13265C-8.66669 5.13268 -8.66669 5.1327 -8.66669 5.13273C-8.66669 5.13275 -8.66669 5.13278 -8.66669 5.1328C-8.66669 5.13282 -8.66669 5.13285 -8.66669 5.13287C-8.66669 5.1329 -8.66669 5.13292 -8.66669 5.13295C-8.66669 5.13297 -8.66669 5.13299 -8.66669 5.13302C-8.66669 5.13304 -8.66669 5.13307 -8.66669 5.13309C-8.66669 5.13312 -8.66669 5.13314 -8.66669 5.13316C-8.66669 5.13319 -8.66669 5.13321 -8.66669 5.13324C-8.66669 5.13326 -8.66669 5.13329 -8.66669 5.13331C-8.66669 5.13334 -8.66669 5.13336 -8.66669 5.13338C-8.66669 5.13341 -8.66669 5.13343 -8.66669 5.13346C-8.66669 5.13348 -8.66669 5.13351 -8.66669 5.13353C-8.66669 5.13355 -8.66669 5.13358 -8.66669 5.1336C-8.66669 5.13363 -8.66669 5.13365 -8.66669 5.13368C-8.66669 5.1337 -8.66669 5.13372 -8.66669 5.13375C-8.66669 5.13377 -8.66669 5.1338 -8.66669 5.13382C-8.66669 5.13385 -8.66669 5.13387 -8.66669 5.13389C-8.66669 5.13392 -8.66669 5.13394 -8.66669 5.13397C-8.66669 5.13399 -8.66669 5.13402 -8.66669 5.13404C-8.66669 5.13406 -8.66669 5.13409 -8.66669 5.13411C-8.66669 5.13414 -8.66669 5.13416 -8.66669 5.13418C-8.66669 5.13421 -8.66669 5.13423 -8.66669 5.13426C-8.66669 5.13428 -8.66669 5.13431 -8.66669 5.13433C-8.66669 5.13435 -8.66669 5.13438 -8.66669 5.1344C-8.66669 5.13443 -8.66669 5.13445 -8.66669 5.13448C-8.66669 5.1345 -8.66669 5.13452 -8.66669 5.13455C-8.66669 5.13457 -8.66669 5.1346 -8.66669 5.13462C-8.66669 5.13464 -8.66669 5.13467 -8.66669 5.13469C-8.66669 5.13472 -8.66669 5.13474 -8.66669 5.13477C-8.66669 5.13479 -8.66669 5.13481 -8.66669 5.13484C-8.66669 5.13486 -8.66669 5.13489 -8.66669 5.13491C-8.66669 5.13493 -8.66669 5.13496 -8.66669 5.13498C-8.66669 5.13501 -8.66669 5.13503 -8.66669 5.13506C-8.66669 5.13508 -8.66669 5.1351 -8.66669 5.13513C-8.66669 5.13515 -8.66669 5.13518 -8.66669 5.1352C-8.66669 5.13522 -8.66669 5.13525 -8.66669 5.13527C-8.66669 5.1353 -8.66669 5.13532 -8.66669 5.13534C-8.66669 5.13537 -8.66669 5.13539 -8.66669 5.13542C-8.66669 5.13544 -8.66669 5.13547 -8.66669 5.13549C-8.66669 5.13551 -8.66669 5.13554 -8.66669 5.13556C-8.66669 5.13559 -8.66669 5.13561 -8.66669 5.13563C-8.66669 5.13566 -8.66669 5.13568 -8.66669 5.13571C-8.66669 5.13573 -8.66669 5.13575 -8.66669 5.13578C-8.66669 5.1358 -8.66669 5.13583 -8.66669 5.13585C-8.66669 5.13587 -8.66669 5.1359 -8.66669 5.13592C-8.66669 5.13595 -8.66669 5.13597 -8.66669 5.13599C-8.66669 5.13602 -8.66669 5.13604 -8.66669 5.13607C-8.66669 5.13609 -8.66669 5.13611 -8.66669 5.13614C-8.66669 5.13616 -8.66669 5.13619 -8.66669 5.13621C-8.66669 5.13623 -8.66669 5.13626 -8.66669 5.13628C-8.66669 5.13631 -8.66669 5.13633 -8.66669 5.13635C-8.66669 5.13638 -8.66669 5.1364 -8.66669 5.13643C-8.66669 5.13645 -8.66669 5.13648 -8.66669 5.1365C-8.66669 5.13652 -8.66669 5.13655 -8.66669 5.13657C-8.66669 5.13659 -8.66669 5.13662 -8.66669 5.13664C-8.66669 5.13667 -8.66669 5.13669 -8.66669 5.13671C-8.66669 5.13674 -8.66669 5.13676 -8.66669 5.13679C-8.66669 5.13681 -8.66669 5.13683 -8.66669 5.13686C-8.66669 5.13688 -8.66669 5.13691 -8.66669 5.13693C-8.66669 5.13695 -8.66669 5.13698 -8.66669 5.137C-8.66669 5.13703 -8.66669 5.13705 -8.66669 5.13707C-8.66669 5.1371 -8.66669 5.13712 -8.66669 5.13715C-8.66669 5.13717 -8.66669 5.13719 -8.66669 5.13722C-8.66669 5.13724 -8.66669 5.13727 -8.66669 5.13729C-8.66669 5.13731 -8.66669 5.13734 -8.66669 5.13736C-8.66669 5.13738 -8.66669 5.13741 -8.66669 5.13743C-8.66669 5.13746 -8.66669 5.13748 -8.66669 5.1375C-8.66669 5.13753 -8.66669 5.13755 -8.66669 5.13758C-8.66669 5.1376 -8.66669 5.13762 -8.66669 5.13765C-8.66669 5.13767 -8.66669 5.1377 -8.66669 5.13772C-8.66669 5.13774 -8.66669 5.13777 -8.66669 5.13779C-8.66669 5.13781 -8.66669 5.13784 -8.66669 5.13786C-8.66669 5.13789 -8.66669 5.13791 -8.66669 5.13793C-8.66669 5.13796 -8.66669 5.13798 -8.66669 5.13801C-8.66669 5.13803 -8.66669 5.13805 -8.66669 5.13808C-8.66669 5.1381 -8.66669 5.13813 -8.66669 5.13815C-8.66669 5.13817 -8.66669 5.1382 -8.66669 5.13822C-8.66669 5.13824 -8.66669 5.13827 -8.66669 5.13829C-8.66669 5.13832 -8.66669 5.13834 -8.66669 5.13836C-8.66669 5.13839 -8.66669 5.13841 -8.66669 5.13844C-8.66669 5.13846 -8.66669 5.13848 -8.66669 5.13851C-8.66669 5.13853 -8.66669 5.13855 -8.66669 5.13858C-8.66669 5.1386 -8.66669 5.13863 -8.66669 5.13865C-8.66669 5.13867 -8.66669 5.1387 -8.66669 5.13872C-8.66669 5.13874 -8.66669 5.13877 -8.66669 5.13879C-8.66669 5.13882 -8.66669 5.13884 -8.66669 5.13886C-8.66669 5.13889 -8.66669 5.13891 -8.66669 5.13894C-8.66669 5.13896 -8.66669 5.13898 -8.66669 5.13901C-8.66669 5.13903 -8.66669 5.13905 -8.66669 5.13908C-8.66669 5.1391 -8.66669 5.13913 -8.66669 5.13915C-8.66669 5.13917 -8.66669 5.1392 -8.66669 5.13922C-8.66669 5.13924 -8.66669 5.13927 -8.66669 5.13929C-8.66669 5.13932 -8.66669 5.13934 -8.66669 5.13936C-8.66669 5.13939 -8.66669 5.13941 -8.66669 5.13943C-8.66669 5.13946 -8.66669 5.13948 -8.66669 5.13951C-8.66669 5.13953 -8.66669 5.13955 -8.66669 5.13958C-8.66669 5.1396 -8.66669 5.13962 -8.66669 5.13965C-8.66669 5.13967 -8.66669 5.1397 -8.66669 5.13972C-8.66669 5.13974 -8.66669 5.13977 -8.66669 5.13979C-8.66669 5.13981 -8.66669 5.13984 -8.66669 5.13986C-8.66669 5.13989 -8.66669 5.13991 -8.66669 5.13993C-8.66669 5.13996 -8.66669 5.13998 -8.66669 5.14C-8.66669 5.14003 -8.66669 5.14005 -8.66669 5.14008C-8.66669 5.1401 -8.66669 5.14012 -8.66669 5.14015C-8.66669 5.14017 -8.66669 5.14019 -8.66669 5.14022C-8.66669 5.14024 -8.66669 5.14026 -8.66669 5.14029C-8.66669 5.14031 -8.66669 5.14034 -8.66669 5.14036C-8.66669 5.14038 -8.66669 5.14041 -8.66669 5.14043C-8.66669 5.14045 -8.66669 5.14048 -8.66669 5.1405C-8.66669 5.14053 -8.66669 5.14055 -8.66669 5.14057C-8.66669 5.1406 -8.66669 5.14062 -8.66669 5.14064C-8.66669 5.14067 -8.66669 5.14069 -8.66669 5.14071C-8.66669 5.14074 -8.66669 5.14076 -8.66669 5.14079C-8.66669 5.14081 -8.66669 5.14083 -8.66669 5.14086C-8.66669 5.14088 -8.66669 5.1409 -8.66669 5.14093C-8.66669 5.14095 -8.66669 5.14097 -8.66669 5.141C-8.66669 5.14102 -8.66669 5.14105 -8.66669 5.14107C-8.66669 5.14109 -8.66669 5.14112 -8.66669 5.14114C-8.66669 5.14116 -8.66669 5.14119 -8.66669 5.14121C-8.66669 5.14124 -8.66669 5.14126 -8.66669 5.14128C-8.66669 5.14131 -8.66669 5.14133 -8.66669 5.14135C-8.66669 5.14138 -8.66669 5.1414 -8.66669 5.14142C-8.66669 5.14145 -8.66669 5.14147 -8.66669 5.1415C-8.66669 5.14152 -8.66669 5.14154 -8.66669 5.14157C-8.66669 5.14159 -8.66669 5.14161 -8.66669 5.14164C-8.66669 5.14166 -8.66669 5.14168 -8.66669 5.14171C-8.66669 5.14173 -8.66669 5.14176 -8.66669 5.14178C-8.66669 5.1418 -8.66669 5.14183 -8.66669 5.14185C-8.66669 5.14187 -8.66669 5.1419 -8.66669 5.14192C-8.66669 5.14194 -8.66669 5.14197 -8.66669 5.14199C-8.66669 5.14201 -8.66669 5.14204 -8.66669 5.14206C-8.66669 5.14209 -8.66669 5.14211 -8.66669 5.14213C-8.66669 5.14216 -8.66669 5.14218 -8.66669 5.1422C-8.66669 5.14223 -8.66669 5.14225 -8.66669 5.14227C-8.66669 5.1423 -8.66669 5.14232 -8.66669 5.14234C-8.66669 5.14237 -8.66669 5.14239 -8.66669 5.14242C-8.66669 5.14244 -8.66669 5.14246 -8.66669 5.14249C-8.66669 5.14251 -8.66669 5.14253 -8.66669 5.14256C-8.66669 5.14258 -8.66669 5.1426 -8.66669 5.14263C-8.66669 5.14265 -8.66669 5.14267 -8.66669 5.1427C-8.66669 5.14272 -8.66669 5.14275 -8.66669 5.14277C-8.66669 5.14279 -8.66669 5.14282 -8.66669 5.14284C-8.66669 5.14286 -8.66669 5.14289 -8.66669 5.14291C-8.66669 5.14293 -8.66669 5.14296 -8.66669 5.14298C-8.66669 5.143 -8.66669 5.14303 -8.66669 5.14305C-8.66669 5.14308 -8.66669 5.1431 -8.66669 5.14312C-8.66669 5.14315 -8.66669 5.14317 -8.66669 5.14319C-8.66669 5.14322 -8.66669 5.14324 -8.66669 5.14326C-8.66669 5.14329 -8.66669 5.14331 -8.66669 5.14333C-8.66669 5.14336 -8.66669 5.14338 -8.66669 5.1434C-8.66669 5.14343 -8.66669 5.14345 -8.66669 5.14348C-8.66669 5.1435 -8.66669 5.14352 -8.66669 5.14355C-8.66669 5.14357 -8.66669 5.14359 -8.66669 5.14362C-8.66669 5.14364 -8.66669 5.14366 -8.66669 5.14369C-8.66669 5.14371 -8.66669 5.14373 -8.66669 5.14376C-8.66669 5.14378 -8.66669 5.14381 -8.66669 5.14383C-8.66669 5.14385 -8.66669 5.14388 -8.66669 5.1439C-8.66669 5.14392 -8.66669 5.14395 -8.66669 5.14397C-8.66669 5.14399 -8.66669 5.14402 -8.66669 5.14404C-8.66669 5.14406 -8.66669 5.14409 -8.66669 5.14411C-8.66669 5.14413 -8.66669 5.14416 -8.66669 5.14418C-8.66669 5.1442 -8.66669 5.14423 -8.66669 5.14425C-8.66669 5.14428 -8.66669 5.1443 -8.66669 5.14432C-8.66669 5.14435 -8.66669 5.14437 -8.66669 5.14439C-8.66669 5.14442 -8.66669 5.14444 -8.66669 5.14446C-8.66669 5.14449 -8.66669 5.14451 -8.66669 5.14453C-8.66669 5.14456 -8.66669 5.14458 -8.66669 5.1446C-8.66669 5.14463 -8.66669 5.14465 -8.66669 5.14467C-8.66669 5.1447 -8.66669 5.14472 -8.66669 5.14474C-8.66669 5.14477 -8.66669 5.14479 -8.66669 5.14482C-8.66669 5.14484 -8.66669 5.14486 -8.66669 5.14489C-8.66669 5.14491 -8.66669 5.14493 -8.66669 5.14496C-8.66669 5.14498 -8.66669 5.145 -8.66669 5.14503C-8.66669 5.14505 -8.66669 5.14507 -8.66669 5.1451C-8.66669 5.14512 -8.66669 5.14514 -8.66669 5.14517C-8.66669 5.14519 -8.66669 5.14521 -8.66669 5.14524C-8.66669 5.14526 -8.66669 5.14529 -8.66669 5.14531C-8.66669 5.14533 -8.66669 5.14536 -8.66669 5.14538C-8.66669 5.1454 -8.66669 5.14543 -8.66669 5.14545C-8.66669 5.14547 -8.66669 5.1455 -8.66669 5.14552C-8.66669 5.14554 -8.66669 5.14557 -8.66669 5.14559C-8.66669 5.14561 -8.66669 5.14564 -8.66669 5.14566C-8.66669 5.14568 -8.66669 5.14571 -8.66669 5.14573C-8.66669 5.14575 -8.66669 5.14578 -8.66669 5.1458C-8.66669 5.14582 -8.66669 5.14585 -8.66669 5.14587C-8.66669 5.1459 -8.66669 5.14592 -8.66669 5.14594C-8.66669 5.14597 -8.66669 5.14599 -8.66669 5.14601C-8.66669 5.14604 -8.66669 5.14606 -8.66669 5.14608C-8.66669 5.14611 -8.66669 5.14613 -8.66669 5.14615C-8.66669 5.14618 -8.66669 5.1462 -8.66669 5.14622C-8.66669 5.14625 -8.66669 5.14627 -8.66669 5.14629C-8.66669 5.14632 -8.66669 5.14634 -8.66669 5.14636C-8.66669 5.14639 -8.66669 5.14641 -8.66669 5.14643C-8.66669 5.14646 -8.66669 5.14648 -8.66669 5.1465C-8.66669 5.14653 -8.66669 5.14655 -8.66669 5.14658C-8.66669 5.1466 -8.66669 5.14662 -8.66669 5.14665C-8.66669 5.14667 -8.66669 5.14669 -8.66669 5.14672C-8.66669 5.14674 -8.66669 5.14676 -8.66669 5.14679C-8.66669 5.14681 -8.66669 5.14683 -8.66669 5.14686C-8.66669 5.14688 -8.66669 5.1469 -8.66669 5.14693C-8.66669 5.14695 -8.66669 5.14697 -8.66669 5.147C-8.66669 5.14702 -8.66669 5.14704 -8.66669 5.14707C-8.66669 5.14709 -8.66669 5.14711 -8.66669 5.14714C-8.66669 5.14716 -8.66669 5.14718 -8.66669 5.14721C-8.66669 5.14723 -8.66669 5.14726 -8.66669 5.14728C-8.66669 5.1473 -8.66669 5.14733 -8.66669 5.14735C-8.66669 5.14737 -8.66669 5.1474 -8.66669 5.14742C-8.66669 5.14744 -8.66669 5.14747 -8.66669 5.14749C-8.66669 5.14751 -8.66669 5.14754 -8.66669 5.14756C-8.66669 5.14758 -8.66669 5.14761 -8.66669 5.14763C-8.66669 5.14765 -8.66669 5.14768 -8.66669 5.1477C-8.66669 5.14772 -8.66669 5.14775 -8.66669 5.14777C-8.66669 5.14779 -8.66669 5.14782 -8.66669 5.14784C-8.66669 5.14786 -8.66669 5.14789 -8.66669 5.14791C-8.66669 5.14793 -8.66669 5.14796 -8.66669 5.14798C-8.66669 5.14801 -8.66669 5.14803 -8.66669 5.14805C-8.66669 5.14808 -8.66669 5.1481 -8.66669 5.14812C-8.66669 5.14815 -8.66669 5.14817 -8.66669 5.14819C-8.66669 5.14822 -8.66669 5.14824 -8.66669 5.14826C-8.66669 5.14829 -8.66669 5.14831 -8.66669 5.14833C-8.66669 5.14836 -8.66669 5.14838 -8.66669 5.1484C-8.66669 5.14843 -8.66669 5.14845 -8.66669 5.14847C-8.66669 5.1485 -8.66669 5.14852 -8.66669 5.14854C-8.66669 5.14857 -8.66669 5.14859 -8.66669 5.14861C-8.66669 5.14864 -8.66669 5.14866 -8.66669 5.14868C-8.66669 5.14871 -8.66669 5.14873 -8.66669 5.14876C-8.66669 5.14878 -8.66669 5.1488 -8.66669 5.14883C-8.66669 5.14885 -8.66669 5.14887 -8.66669 5.1489C-8.66669 5.14892 -8.66669 5.14894 -8.66669 5.14897C-8.66669 5.14899 -8.66669 5.14901 -8.66669 5.14904C-8.66669 5.14906 -8.66669 5.14908 -8.66669 5.14911C-8.66669 5.14913 -8.66669 5.14915 -8.66669 5.14918C-8.66669 5.1492 -8.66669 5.14922 -8.66669 5.14925C-8.66669 5.14927 -8.66669 5.14929 -8.66669 5.14932C-8.66669 5.14934 -8.66669 5.14936 -8.66669 5.14939C-8.66669 5.14941 -8.66669 5.14944 -8.66669 5.14946C-8.66669 5.14948 -8.66669 5.14951 -8.66669 5.14953C-8.66669 5.14955 -8.66669 5.14958 -8.66669 5.1496C-8.66669 5.14962 -8.66669 5.14965 -8.66669 5.14967C-8.66669 5.14969 -8.66669 5.14972 -8.66669 5.14974C-8.66669 5.14976 -8.66669 5.14979 -8.66669 5.14981C-8.66669 5.14983 -8.66669 5.14986 -8.66669 5.14988C-8.66669 5.1499 -8.66669 5.14993 -8.66669 5.14995C-8.66669 5.14997 -8.66669 5.15 -8.66669 5.15002C-8.66669 5.15004 -8.66669 5.15007 -8.66669 5.15009C-8.66669 5.15012 -8.66669 5.15014 -8.66669 5.15016C-8.66669 5.15019 -8.66669 5.15021 -8.66669 5.15023C-8.66669 5.15026 -8.66669 5.15028 -8.66669 5.1503C-8.66669 5.15033 -8.66669 5.15035 -8.66669 5.15037C-8.66669 5.1504 -8.66669 5.15042 -8.66669 5.15044C-8.66669 5.15047 -8.66669 5.15049 -8.66669 5.15051C-8.66669 5.15054 -8.66669 5.15056 -8.66669 5.15058C-8.66669 5.15061 -8.66669 5.15063 -8.66669 5.15065C-8.66669 5.15068 -8.66669 5.1507 -8.66669 5.15072C-8.66669 5.15075 -8.66669 5.15077 -8.66669 5.1508C-8.66669 5.15082 -8.66669 5.15084 -8.66669 5.15087C-8.66669 5.15089 -8.66669 5.15091 -8.66669 5.15094C-8.66669 5.15096 -8.66669 5.15098 -8.66669 5.15101C-8.66669 5.15103 -8.66669 5.15105 -8.66669 5.15108C-8.66669 5.1511 -8.66669 5.15112 -8.66669 5.15115C-8.66669 5.15117 -8.66669 5.15119 -8.66669 5.15122C-8.66669 5.15124 -8.66669 5.15126 -8.66669 5.15129C-8.66669 5.15131 -8.66669 5.15134 -8.66669 5.15136C-8.66669 5.15138 -8.66669 5.15141 -8.66669 5.15143C-8.66669 5.15145 -8.66669 5.15148 -8.66669 5.1515C-8.66669 5.15152 -8.66669 5.15155 -8.66669 5.15157C-8.66669 5.15159 -8.66669 5.15162 -8.66669 5.15164C-8.66669 5.15166 -8.66669 5.15169 -8.66669 5.15171C-8.66669 5.15173 -8.66669 5.15176 -8.66669 5.15178C-8.66669 5.1518 -8.66669 5.15183 -8.66669 5.15185C-8.66669 5.15188 -8.66669 5.1519 -8.66669 5.15192C-8.66669 5.15195 -8.66669 5.15197 -8.66669 5.15199C-8.66669 5.15202 -8.66669 5.15204 -8.66669 5.15206C-8.66669 5.15209 -8.66669 5.15211 -8.66669 5.15213C-8.66669 5.15216 -8.66669 5.15218 -8.66669 5.1522C-8.66669 5.15223 -8.66669 5.15225 -8.66669 5.15227C-8.66669 5.1523 -8.66669 5.15232 -8.66669 5.15235C-8.66669 5.15237 -8.66669 5.15239 -8.66669 5.15242C-8.66669 5.15244 -8.66669 5.15246 -8.66669 5.15249C-8.66669 5.15251 -8.66669 5.15253 -8.66669 5.15256C-8.66669 5.15258 -8.66669 5.1526 -8.66669 5.15263C-8.66669 5.15265 -8.66669 5.15267 -8.66669 5.1527C-8.66669 5.15272 -8.66669 5.15274 -8.66669 5.15277C-8.66669 5.15279 -8.66669 5.15282 -8.66669 5.15284C-8.66669 5.15286 -8.66669 5.15289 -8.66669 5.15291C-8.66669 5.15293 -8.66669 5.15296 -8.66669 5.15298C-8.66669 5.153 -8.66669 5.15303 -8.66669 5.15305C-8.66669 5.15307 -8.66669 5.1531 -8.66669 5.15312C-8.66669 5.15314 -8.66669 5.15317 -8.66669 5.15319C-8.66669 5.15321 -8.66669 5.15324 -8.66669 5.15326C-8.66669 5.15329 -8.66669 5.15331 -8.66669 5.15333C-8.66669 5.15336 -8.66669 5.15338 -8.66669 5.1534C-8.66669 5.15343 -8.66669 5.15345 -8.66669 5.15347C-8.66669 5.1535 -8.66669 5.15352 -8.66669 5.15354C-8.66669 5.15357 -8.66669 5.15359 -8.66669 5.15362C-8.66669 5.15364 -8.66669 5.15366 -8.66669 5.15369C-8.66669 5.15371 -8.66669 5.15373 -8.66669 5.15376C-8.66669 5.15378 -8.66669 5.1538 -8.66669 5.15383C-8.66669 5.15385 -8.66669 5.15387 -8.66669 5.1539C-8.66669 5.15392 -8.66669 5.15394 -8.66669 5.15397C-8.66669 5.15399 -8.66669 5.15402 -8.66669 5.15404C-8.66669 5.15406 -8.66669 5.15409 -8.66669 5.15411C-8.66669 5.15413 -8.66669 5.15416 -8.66669 5.15418C-8.66669 5.1542 -8.66669 5.15423 -8.66669 5.15425C-8.66669 5.15427 -8.66669 5.1543 -8.66669 5.15432C-8.66669 5.15435 -8.66669 5.15437 -8.66669 5.15439C-8.66669 5.15442 -8.66669 5.15444 -8.66669 5.15446C-8.66669 5.15449 -8.66669 5.15451 -8.66669 5.15453C-8.66669 5.15456 -8.66669 5.15458 -8.66669 5.15461C-8.66669 5.15463 -8.66669 5.15465 -8.66669 5.15468C-8.66669 5.1547 -8.66669 5.15472 -8.66669 5.15475C-8.66669 5.15477 -8.66669 5.15479 -8.66669 5.15482C-8.66669 5.15484 -8.66669 5.15486 -8.66669 5.15489C-8.66669 5.15491 -8.66669 5.15494 -8.66669 5.15496C-8.66669 5.15498 -8.66669 5.15501 -8.66669 5.15503C-8.66669 5.15505 -8.66669 5.15508 -8.66669 5.1551C-8.66669 5.15512 -8.66669 5.15515 -8.66669 5.15517C-8.66669 5.1552 -8.66669 5.15522 -8.66669 5.15524C-8.66669 5.15527 -8.66669 5.15529 -8.66669 5.15531C-8.66669 5.15534 -8.66669 5.15536 -8.66669 5.15538C-8.66669 5.15541 -8.66669 5.15543 -8.66669 5.15546C-8.66669 5.15548 -8.66669 5.1555 -8.66669 5.15553C-8.66669 5.15555 -8.66669 5.15557 -8.66669 5.1556C-8.66669 5.15562 -8.66669 5.15564 -8.66669 5.15567C-8.66669 5.15569 -8.66669 5.15572 -8.66669 5.15574C-8.66669 5.15576 -8.66669 5.15579 -8.66669 5.15581C-8.66669 5.15583 -8.66669 5.15586 -8.66669 5.15588C-8.66669 5.1559 -8.66669 5.15593 -8.66669 5.15595C-8.66669 5.15598 -8.66669 5.156 -8.66669 5.15602C-8.66669 5.15605 -8.66669 5.15607 -8.66669 5.15609C-8.66669 5.15612 -8.66669 5.15614 -8.66669 5.15617C-8.66669 5.15619 -8.66669 5.15621 -8.66669 5.15624C-8.66669 5.15626 -8.66669 5.15628 -8.66669 5.15631C-8.66669 5.15633 -8.66669 5.15635 -8.66669 5.15638C-8.66669 5.1564 -8.66669 5.15643 -8.66669 5.15645C-8.66669 5.15647 -8.66669 5.1565 -8.66669 5.15652C-8.66669 5.15654 -8.66669 5.15657 -8.66669 5.15659C-8.66669 5.15662 -8.66669 5.15664 -8.66669 5.15666C-8.66669 5.15669 -8.66669 5.15671 -8.66669 5.15673C-8.66669 5.15676 -8.66669 5.15678 -8.66669 5.15681C-8.66669 5.15683 -8.66669 5.15685 -8.66669 5.15688C-8.66669 5.1569 -8.66669 5.15692 -8.66669 5.15695C-8.66669 5.15697 -8.66669 5.157 -8.66669 5.15702C-8.66669 5.15704 -8.66669 5.15707 -8.66669 5.15709C-8.66669 5.15711 -8.66669 5.15714 -8.66669 5.15716C-8.66669 5.15719 -8.66669 5.15721 -8.66669 5.15723C-8.66669 5.15726 -8.66669 5.15728 -8.66669 5.1573C-8.66669 5.15733 -8.66669 5.15735 -8.66669 5.15738C-8.66669 5.1574 -8.66669 5.15742 -8.66669 5.15745C-8.66669 5.15747 -8.66669 5.15749 -8.66669 5.15752C-8.66669 5.15754 -8.66669 5.15757 -8.66669 5.15759C-8.66669 5.15761 -8.66669 5.15764 -8.66669 5.15766C-8.66669 5.15768 -8.66669 5.15771 -8.66669 5.15773C-8.66669 5.15776 -8.66669 5.15778 -8.66669 5.1578C-8.66669 5.15783 -8.66669 5.15785 -8.66669 5.15787C-8.66669 5.1579 -8.66669 5.15792 -8.66669 5.15795C-8.66669 5.15797 -8.66669 5.15799 -8.66669 5.15802C-8.66669 5.15804 -8.66669 5.15806 -8.66669 5.15809C-8.66669 5.15811 -8.66669 5.15814 -8.66669 5.15816C-8.66669 5.15818 -8.66669 5.15821 -8.66669 5.15823C-8.66669 5.15826 -8.66669 5.15828 -8.66669 5.1583C-8.66669 5.15833 -8.66669 5.15835 -8.66669 5.15837C-8.66669 5.1584 -8.66669 5.15842 -8.66669 5.15845C-8.66669 5.15847 -8.66669 5.15849 -8.66669 5.15852C-8.66669 5.15854 -8.66669 5.15857 -8.66669 5.15859C-8.66669 5.15861 -8.66669 5.15864 -8.66669 5.15866C-8.66669 5.15868 -8.66669 5.15871 -8.66669 5.15873C-8.66669 5.15876 -8.66669 5.15878 -8.66669 5.1588C-8.66669 5.15883 -8.66669 5.15885 -8.66669 5.15888C-8.66669 5.1589 -8.66669 5.15892 -8.66669 5.15895C-8.66669 5.15897 -8.66669 5.159 -8.66669 5.15902C-8.66669 5.15904 -8.66669 5.15907 -8.66669 5.15909C-8.66669 5.15911 -8.66669 5.15914 -8.66669 5.15916C-8.66669 5.15919 -8.66669 5.15921 -8.66669 5.15923C-8.66669 5.15926 -8.66669 5.15928 -8.66669 5.15931C-8.66669 5.15933 -8.66669 5.15935 -8.66669 5.15938C-8.66669 5.1594 -8.66669 5.15943 -8.66669 5.15945C-8.66669 5.15947 -8.66669 5.1595 -8.66669 5.15952C-8.66669 5.15954 -8.66669 5.15957 -8.66669 5.15959C-8.66669 5.15962 -8.66669 5.15964 -8.66669 5.15966C-8.66669 5.15969 -8.66669 5.15971 -8.66669 5.15974C-8.66669 5.15976 -8.66669 5.15978 -8.66669 5.15981C-8.66669 5.15983 -8.66669 5.15986 -8.66669 5.15988C-8.66669 5.1599 -8.66669 5.15993 -8.66669 5.15995C-8.66669 5.15998 -8.66669 5.16 -8.66669 5.16002C-8.66669 5.16005 -8.66669 5.16007 -8.66669 5.1601C-8.66669 5.16012 -8.66669 5.16014 -8.66669 5.16017C-8.66669 5.16019 -8.66669 5.16022 -8.66669 5.16024C-8.66669 5.16026 -8.66669 5.16029 -8.66669 5.16031C-8.66669 5.16034 -8.66669 5.16036 -8.66669 5.16038C-8.66669 5.16041 -8.66669 5.16043 -8.66669 5.16046C-8.66669 5.16048 -8.66669 5.1605 -8.66669 5.16053C-8.66669 5.16055 -8.66669 5.16058 -8.66669 5.1606C-8.66669 5.16062 -8.66669 5.16065 -8.66669 5.16067C-8.66669 5.1607 -8.66669 5.16072 -8.66669 5.16074C-8.66669 5.16077 -8.66669 5.16079 -8.66669 5.16082C-8.66669 5.16084 -8.66669 5.16086 -8.66669 5.16089C-8.66669 5.16091 -8.66669 5.16094 -8.66669 5.16096C-8.66669 5.16098 -8.66669 5.16101 -8.66669 5.16103C-8.66669 5.16106 -8.66669 5.16108 -8.66669 5.16111C-8.66669 5.16113 -8.66669 5.16115 -8.66669 5.16118C-8.66669 5.1612 -8.66669 5.16123 -8.66669 5.16125C-8.66669 5.16127 -8.66669 5.1613 -8.66669 5.16132C-8.66669 5.16135 -8.66669 5.16137 -8.66669 5.16139C-8.66669 5.16142 -8.66669 5.16144 -8.66669 5.16147C-8.66669 5.16149 -8.66669 5.16152 -8.66669 5.16154C-8.66669 5.16156 -8.66669 5.16159 -8.66669 5.16161C-8.66669 5.16164 -8.66669 5.16166 -8.66669 5.16168C-8.66669 5.16171 -8.66669 5.16173 -8.66669 5.16176C-8.66669 5.16178 -8.66669 5.16181 -8.66669 5.16183C-8.66669 5.16185 -8.66669 5.16188 -8.66669 5.1619C-8.66669 5.16193 -8.66669 5.16195 -8.66669 5.16197C-8.66669 5.162 -8.66669 5.16202 -8.66669 5.16205C-8.66669 5.16207 -8.66669 5.1621 -8.66669 5.16212C-8.66669 5.16214 -8.66669 5.16217 -8.66669 5.16219C-8.66669 5.16222 -8.66669 5.16224 -8.66669 5.16226C-8.66669 5.16229 -8.66669 5.16231 -8.66669 5.16234C-8.66669 5.16236 -8.66669 5.16239 -8.66669 5.16241C-8.66669 5.16243 -8.66669 5.16246 -8.66669 5.16248C-8.66669 5.16251 -8.66669 5.16253 -8.66669 5.16255C-8.66669 5.16258 -8.66669 5.1626 -8.66669 5.16263C-8.66669 5.16265 -8.66669 5.16268 -8.66669 5.1627C-8.66669 5.16272 -8.66669 5.16275 -8.66669 5.16277C-8.66669 5.1628 -8.66669 5.16282 -8.66669 5.16285C-8.66669 5.16287 -8.66669 5.16289 -8.66669 5.16292C-8.66669 5.16294 -8.66669 5.16297 -8.66669 5.16299C-8.66669 5.16302 -8.66669 5.16304 -8.66669 5.16306C-8.66669 5.16309 -8.66669 5.16311 -8.66669 5.16314C-8.66669 5.16316 -8.66669 5.16319 -8.66669 5.16321C-8.66669 5.16323 -8.66669 5.16326 -8.66669 5.16328C-8.66669 5.16331 -8.66669 5.16333 -8.66669 5.16336C-8.66669 5.16338 -8.66669 5.1634 -8.66669 5.16343C-8.66669 5.16345 -8.66669 5.16348 -8.66669 5.1635C-8.66669 5.16353 -8.66669 5.16355 -8.66669 5.16358C-8.66669 5.1636 -8.66669 5.16362 -8.66669 5.16365C-8.66669 5.16367 -8.66669 5.1637 -8.66669 5.16372C-8.66669 5.16375 -8.66669 5.16377 -8.66669 5.16379C-8.66669 5.16382 -8.66669 5.16384 -8.66669 5.16387C-8.66669 5.16389 -8.66669 5.16392 -8.66669 5.16394C-8.66669 5.16397 -8.66669 5.16399 -8.66669 5.16401C-8.66669 5.16404 -8.66669 5.16406 -8.66669 5.16409C-8.66669 5.16411 -8.66669 5.16414 -8.66669 5.16416C-8.66669 5.16418 -8.66669 5.16421 -8.66669 5.16423C-8.66669 5.16426 -8.66669 5.16428 -8.66669 5.16431C-8.66669 5.16433 -8.66669 5.16436 -8.66669 5.16438C-8.66669 5.1644 -8.66669 5.16443 -8.66669 5.16445C-8.66669 5.16448 -8.66669 5.1645 -8.66669 5.16453C-8.66669 5.16455 -8.66669 5.16458 -8.66669 5.1646C-8.66669 5.16462 -8.66669 5.16465 -8.66669 5.16467C-8.66669 5.1647 -8.66669 5.16472 -8.66669 5.16475C-8.66669 5.16477 -8.66669 5.1648 -8.66669 5.16482C-8.66669 5.16484 -8.66669 5.16487 -8.66669 5.16489C-8.66669 5.16492 -8.66669 5.16494 -8.66669 5.16497C-8.66669 5.16499 -8.66669 5.16502 -8.66669 5.16504C-8.66669 5.16507 -8.66669 5.16509 -8.66669 5.16511C-8.66669 5.16514 -8.66669 5.16516 -8.66669 5.16519C-8.66669 5.16521 -8.66669 5.16524 -8.66669 5.16526C-8.66669 5.16529 -8.66669 5.16531 -8.66669 5.16534C-8.66669 5.16536 -8.66669 5.16538 -8.66669 5.16541C-8.66669 5.16543 -8.66669 5.16546 -8.66669 5.16548C-8.66669 5.16551 -8.66669 5.16553 -8.66669 5.16556C-8.66669 5.16558 -8.66669 5.16561 -8.66669 5.16563C-8.66669 5.16566 -8.66669 5.16568 -8.66669 5.1657C-8.66669 5.16573 -8.66669 5.16575 -8.66669 5.16578C-8.66669 5.1658 -8.66669 5.16583 -8.66669 5.16585C-8.66669 5.16588 -8.66669 5.1659 -8.66669 5.16593C-8.66669 5.16595 -8.66669 5.16598 -8.66669 5.166C-8.66669 5.16602 -8.66669 5.16605 -8.66669 5.16607C-8.66669 5.1661 -8.66669 5.16612 -8.66669 5.16615C-8.66669 5.16617 -8.66669 5.1662 -8.66669 5.16622C-8.66669 5.16625 -8.66669 5.16627 -8.66669 5.1663C-8.66669 5.16632 -8.66669 5.16635 -8.66669 5.16637C-8.66669 5.16639 -8.66669 5.16642 -8.66669 5.16644C-8.66669 5.16647 -8.66669 5.16649 -8.66669 5.16652C-8.66669 5.16654 -8.66669 5.16657 -8.66669 5.16659C-8.66669 5.16662 -8.66669 5.16664 -8.66669 5.16667H34ZM33.9932 4.59173C33.8306 -1.85029 31.1584 -7.97406 26.5461 -12.4744L-3.25091 18.0638C-6.60091 14.7951 -8.5418 10.3473 -8.6599 5.66827L33.9932 4.59173ZM26.5461 -12.4744C21.9339 -16.9747 15.7463 -19.4957 9.30221 -19.5L9.27375 23.1667C4.59326 23.1635 0.0990875 21.3325 -3.25091 18.0638L26.5461 -12.4744ZM9.28798 -19.5H8.66665V23.1667H9.28798V-19.5ZM30 1.83333V1.16667H-12.6667V1.83333H30ZM30 1.16667C30 -4.66811 27.6821 -10.2639 23.5563 -14.3897L-6.61356 15.7802C-10.4893 11.9045 -12.6667 6.64782 -12.6667 1.16667H30ZM23.5563 -14.3897C19.4305 -18.5155 13.8347 -20.8333 7.99998 -20.8333V21.8333C2.51883 21.8333 -2.73781 19.656 -6.61356 15.7802L23.5563 -14.3897ZM7.99998 -20.8333C2.16521 -20.8333 -3.43057 -18.5155 -7.55637 -14.3897L22.6135 15.7802C18.7378 19.656 13.4811 21.8333 7.99998 21.8333V-20.8333ZM-7.55637 -14.3897C-11.6822 -10.2639 -14 -4.66811 -14 1.16667H28.6666C28.6666 6.64782 26.4893 11.9045 22.6135 15.7802L-7.55637 -14.3897ZM-14 1.16667V1.83333H28.6666V1.16667H-14ZM7.33331 -19.5H6.71198V23.1667H7.33331V-19.5ZM6.6892 -19.5C0.824819 -19.4937 -4.84621 -17.4021 -9.31024 -13.5991L18.3593 18.8793C15.1159 21.6424 10.9956 23.1621 6.73476 23.1667L6.6892 -19.5ZM-9.31024 -13.5991C-13.7743 -9.79599 -16.7403 -4.52932 -17.6783 1.25957L24.4391 8.08366C23.7576 12.2896 21.6026 16.1161 18.3593 18.8793L-9.31024 -13.5991ZM-17.6783 1.25957C-18.6162 7.04846 -17.4649 12.9822 -14.4301 18.0003L22.0792 -4.07944C24.2841 -0.433529 25.1206 3.8777 24.4391 8.08366L-17.6783 1.25957ZM-14.4301 18.0003C-11.3954 23.0184 -6.67491 26.7937 -1.11254 28.6514L12.4032 -11.818C16.4445 -10.4683 19.8742 -7.72536 22.0792 -4.07944L-14.4301 18.0003ZM-1.10807 28.6528L0.579925 29.2162L14.0867 -11.2562L12.3987 -11.8195L-1.10807 28.6528ZM-14 8.98V13.8333H28.6666V8.98H-14ZM7.33331 -7.5H6.71198V35.1667H7.33331V-7.5ZM6.73281 -7.49999C11.8412 -7.495 16.739 -5.46348 20.3512 -1.85126L-9.81865 28.3186C-5.43951 32.6978 0.49813 35.1606 6.69115 35.1667L6.73281 -7.49999ZM20.3512 -1.85126C23.9635 1.76096 25.995 6.65874 26 11.7672L-16.6667 11.8088C-16.6606 18.0018 -14.1978 23.9395 -9.81865 28.3186L20.3512 -1.85126ZM26 11.788C26 5.9532 23.6821 0.357426 19.5563 -3.76835L-10.6136 26.4015C-14.4893 22.5258 -16.6667 17.2692 -16.6667 11.788H26ZM19.5563 -3.76835C15.4305 -7.89414 9.83476 -10.212 3.99998 -10.212V32.4547C-1.48118 32.4547 -6.73782 30.2773 -10.6136 26.4015L19.5563 -3.76835ZM3.99998 -10.212C-1.8348 -10.212 -7.43058 -7.89414 -11.5564 -3.76835L18.6135 26.4015C14.7378 30.2773 9.48114 32.4547 3.99998 32.4547V-10.212ZM-11.5564 -3.76835C-15.6821 0.357426 -18 5.9532 -18 11.788H24.6666C24.6666 17.2692 22.4892 22.5258 18.6135 26.4015L-11.5564 -3.76835ZM-18 11.788V11.8333H24.6666V11.788H-18ZM-18 11.8333C-18 11.8334 -18 11.8334 -18 11.8334C-18 11.8334 -18 11.8335 -18 11.8335C-18 11.8335 -18 11.8335 -18 11.8336C-18 11.8336 -18 11.8336 -18 11.8336C-18 11.8337 -18 11.8337 -18 11.8337C-18 11.8337 -18 11.8338 -18 11.8338C-18 11.8338 -18 11.8338 -18 11.8339C-18 11.8339 -18 11.8339 -18 11.8339C-18 11.834 -18 11.834 -18 11.834C-18 11.834 -18 11.8341 -18 11.8341C-18 11.8341 -18 11.8341 -18 11.8341C-18 11.8342 -18 11.8342 -18 11.8342C-18 11.8342 -18 11.8343 -18 11.8343C-18 11.8343 -18 11.8343 -18 11.8344C-18 11.8344 -18 11.8344 -18 11.8344C-18 11.8345 -18 11.8345 -18 11.8345C-18 11.8345 -18 11.8346 -18 11.8346C-18 11.8346 -18 11.8346 -18 11.8347C-18 11.8347 -18 11.8347 -18 11.8347C-18 11.8348 -18 11.8348 -18 11.8348C-18 11.8348 -18 11.8349 -18 11.8349C-18 11.8349 -18 11.8349 -18 11.835C-18 11.835 -18 11.835 -18 11.835C-18 11.8351 -18 11.8351 -18 11.8351C-18 11.8351 -18 11.8352 -18 11.8352C-18 11.8352 -18 11.8352 -18 11.8353C-18 11.8353 -18 11.8353 -18 11.8353C-18 11.8354 -18 11.8354 -18 11.8354C-18 11.8354 -18 11.8354 -18 11.8355C-18 11.8355 -18 11.8355 -18 11.8355C-18 11.8356 -18 11.8356 -18 11.8356C-18 11.8356 -18 11.8357 -18 11.8357C-18 11.8357 -18 11.8357 -18 11.8358C-18 11.8358 -18 11.8358 -18 11.8358C-18 11.8359 -18 11.8359 -18 11.8359C-18 11.8359 -18 11.836 -18 11.836C-18 11.836 -18 11.836 -18 11.8361C-18 11.8361 -18 11.8361 -18 11.8361C-18 11.8362 -18 11.8362 -18 11.8362C-18 11.8362 -18 11.8363 -18 11.8363C-18 11.8363 -18 11.8363 -18 11.8364C-18 11.8364 -18 11.8364 -18 11.8364C-18 11.8364 -18 11.8365 -18 11.8365C-18 11.8365 -18 11.8365 -18 11.8366C-18 11.8366 -18 11.8366 -18 11.8366C-18 11.8367 -18 11.8367 -18 11.8367C-18 11.8367 -18 11.8368 -18 11.8368C-18 11.8368 -18 11.8368 -18 11.8369C-18 11.8369 -18 11.8369 -18 11.8369C-18 11.837 -18 11.837 -18 11.837C-18 11.837 -18 11.8371 -18 11.8371C-18 11.8371 -18 11.8371 -18 11.8372C-18 11.8372 -18 11.8372 -18 11.8372C-18 11.8373 -18 11.8373 -18 11.8373C-18 11.8373 -18 11.8373 -18 11.8374C-18 11.8374 -18 11.8374 -18 11.8374C-18 11.8375 -18 11.8375 -18 11.8375C-18 11.8375 -18 11.8376 -18 11.8376C-18 11.8376 -18 11.8376 -18 11.8377C-18 11.8377 -18 11.8377 -18 11.8377C-18 11.8378 -18 11.8378 -18 11.8378C-18 11.8378 -18 11.8379 -18 11.8379C-18 11.8379 -18 11.8379 -18 11.838C-18 11.838 -18 11.838 -18 11.838C-18 11.8381 -18 11.8381 -18 11.8381C-18 11.8381 -18 11.8381 -18 11.8382C-18 11.8382 -18 11.8382 -18 11.8382C-18 11.8383 -18 11.8383 -18 11.8383C-18 11.8383 -18 11.8384 -18 11.8384C-18 11.8384 -18 11.8384 -18 11.8385C-18 11.8385 -18 11.8385 -18 11.8385C-18 11.8386 -18 11.8386 -18 11.8386C-18 11.8386 -18 11.8387 -18 11.8387C-18 11.8387 -18 11.8387 -18 11.8388C-18 11.8388 -18 11.8388 -18 11.8388C-18 11.8388 -18 11.8389 -18 11.8389C-18 11.8389 -18 11.8389 -18 11.839C-18 11.839 -18 11.839 -18 11.839C-18 11.8391 -18 11.8391 -18 11.8391C-18 11.8391 -18 11.8392 -18 11.8392C-18 11.8392 -18 11.8392 -18 11.8393C-18 11.8393 -18 11.8393 -18 11.8393C-18 11.8394 -18 11.8394 -18 11.8394C-18 11.8394 -18 11.8394 -18 11.8395C-18 11.8395 -18 11.8395 -18 11.8395C-18 11.8396 -18 11.8396 -18 11.8396C-18 11.8396 -18 11.8397 -18 11.8397C-18 11.8397 -18 11.8397 -18 11.8398C-18 11.8398 -18 11.8398 -18 11.8398C-18 11.8399 -18 11.8399 -18 11.8399C-18 11.8399 -18 11.84 -18 11.84C-18 11.84 -18 11.84 -18 11.84C-18 11.8401 -18 11.8401 -18 11.8401C-18 11.8401 -18 11.8402 -18 11.8402C-18 11.8402 -18 11.8402 -18 11.8403C-18 11.8403 -18 11.8403 -18 11.8403C-18 11.8404 -18 11.8404 -18 11.8404C-18 11.8404 -18 11.8405 -18 11.8405C-18 11.8405 -18 11.8405 -18 11.8406C-18 11.8406 -18 11.8406 -18 11.8406C-18 11.8406 -18 11.8407 -18 11.8407C-18 11.8407 -18 11.8407 -18 11.8408C-18 11.8408 -18 11.8408 -18 11.8408C-18 11.8409 -18 11.8409 -18 11.8409C-18 11.8409 -18 11.841 -18 11.841C-18 11.841 -18 11.841 -18 11.8411C-18 11.8411 -18 11.8411 -18 11.8411C-18 11.8411 -18 11.8412 -18 11.8412C-18 11.8412 -18 11.8412 -18 11.8413C-18 11.8413 -18 11.8413 -18 11.8413C-18 11.8414 -18 11.8414 -18 11.8414C-18 11.8414 -18 11.8415 -18 11.8415C-18 11.8415 -18 11.8415 -18 11.8416C-18 11.8416 -18 11.8416 -18 11.8416C-18 11.8417 -18 11.8417 -18 11.8417C-18 11.8417 -18 11.8417 -18 11.8418C-18 11.8418 -18 11.8418 -18 11.8418C-18 11.8419 -18 11.8419 -18 11.8419C-18 11.8419 -18 11.842 -18 11.842C-18 11.842 -18 11.842 -18 11.8421C-18 11.8421 -18 11.8421 -18 11.8421C-18 11.8421 -18 11.8422 -18 11.8422C-18 11.8422 -18 11.8422 -18 11.8423C-18 11.8423 -18 11.8423 -18 11.8423C-18 11.8424 -18 11.8424 -18 11.8424C-18 11.8424 -18 11.8425 -18 11.8425C-18 11.8425 -18 11.8425 -18 11.8426C-18 11.8426 -18 11.8426 -18 11.8426C-18 11.8426 -18 11.8427 -18 11.8427C-18 11.8427 -18 11.8427 -18 11.8428C-18 11.8428 -18 11.8428 -18 11.8428C-18 11.8429 -18 11.8429 -18 11.8429C-18 11.8429 -18 11.843 -18 11.843C-18 11.843 -18 11.843 -18 11.8431C-18 11.8431 -18 11.8431 -18 11.8431C-18 11.8431 -18 11.8432 -18 11.8432C-18 11.8432 -18 11.8432 -18 11.8433C-18 11.8433 -18 11.8433 -18 11.8433C-18 11.8434 -18 11.8434 -18 11.8434C-18 11.8434 -18 11.8435 -18 11.8435C-18 11.8435 -18 11.8435 -18 11.8436C-18 11.8436 -18 11.8436 -18 11.8436C-18 11.8436 -18 11.8437 -18 11.8437C-18 11.8437 -18 11.8437 -18 11.8438C-18 11.8438 -18 11.8438 -18 11.8438C-18 11.8439 -18 11.8439 -18 11.8439C-18 11.8439 -18 11.844 -18 11.844C-18 11.844 -18 11.844 -18 11.844C-18 11.8441 -18 11.8441 -18 11.8441C-18 11.8441 -18 11.8442 -18 11.8442C-18 11.8442 -18 11.8442 -18 11.8443C-18 11.8443 -18 11.8443 -18 11.8443C-18 11.8444 -18 11.8444 -18 11.8444C-18 11.8444 -18 11.8444 -18 11.8445C-18 11.8445 -18 11.8445 -18 11.8445C-18 11.8446 -18 11.8446 -18 11.8446C-18 11.8446 -18 11.8447 -18 11.8447C-18 11.8447 -18 11.8447 -18 11.8448C-18 11.8448 -18 11.8448 -18 11.8448C-18 11.8449 -18 11.8449 -18 11.8449C-18 11.8449 -18 11.8449 -18 11.845C-18 11.845 -18 11.845 -18 11.845C-18 11.8451 -18 11.8451 -18 11.8451C-18 11.8451 -18 11.8452 -18 11.8452C-18 11.8452 -18 11.8452 -18 11.8453C-18 11.8453 -18 11.8453 -18 11.8453C-18 11.8453 -18 11.8454 -18 11.8454C-18 11.8454 -18 11.8454 -18 11.8455C-18 11.8455 -18 11.8455 -18 11.8455C-18 11.8456 -18 11.8456 -18 11.8456C-18 11.8456 -18 11.8457 -18 11.8457C-18 11.8457 -18 11.8457 -18 11.8457C-18 11.8458 -18 11.8458 -18 11.8458C-18 11.8458 -18 11.8459 -18 11.8459C-18 11.8459 -18 11.8459 -18 11.846C-18 11.846 -18 11.846 -18 11.846C-18 11.8461 -18 11.8461 -18 11.8461C-18 11.8461 -18 11.8461 -18 11.8462C-18 11.8462 -18 11.8462 -18 11.8462C-18 11.8463 -18 11.8463 -18 11.8463C-18 11.8463 -18 11.8464 -18 11.8464C-18 11.8464 -18 11.8464 -18 11.8465C-18 11.8465 -18 11.8465 -18 11.8465C-18 11.8465 -18 11.8466 -18 11.8466C-18 11.8466 -18 11.8466 -18 11.8467C-18 11.8467 -18 11.8467 -18 11.8467C-18 11.8468 -18 11.8468 -18 11.8468C-18 11.8468 -18 11.8469 -18 11.8469C-18 11.8469 -18 11.8469 -18 11.847C-18 11.847 -18 11.847 -18 11.847C-18 11.847 -18 11.8471 -18 11.8471C-18 11.8471 -18 11.8471 -18 11.8472C-18 11.8472 -18 11.8472 -18 11.8472C-18 11.8473 -18 11.8473 -18 11.8473C-18 11.8473 -18 11.8474 -18 11.8474C-18 11.8474 -18 11.8474 -18 11.8474C-18 11.8475 -18 11.8475 -18 11.8475C-18 11.8475 -18 11.8476 -18 11.8476C-18 11.8476 -18 11.8476 -18 11.8477C-18 11.8477 -18 11.8477 -18 11.8477C-18 11.8477 -18 11.8478 -18 11.8478C-18 11.8478 -18 11.8478 -18 11.8479C-18 11.8479 -18 11.8479 -18 11.8479C-18 11.848 -18 11.848 -18 11.848C-18 11.848 -18 11.8481 -18 11.8481C-18 11.8481 -18 11.8481 -18 11.8481C-18 11.8482 -18 11.8482 -18 11.8482C-18 11.8482 -18 11.8483 -18 11.8483C-18 11.8483 -18 11.8483 -18 11.8484C-18 11.8484 -18 11.8484 -18 11.8484C-18 11.8485 -18 11.8485 -18 11.8485C-18 11.8485 -18 11.8485 -18 11.8486C-18 11.8486 -18 11.8486 -18 11.8486C-18 11.8487 -18 11.8487 -18 11.8487C-18 11.8487 -18 11.8488 -18 11.8488C-18 11.8488 -18 11.8488 -18 11.8489C-18 11.8489 -18 11.8489 -18 11.8489C-18 11.8489 -18 11.849 -18 11.849C-18 11.849 -18 11.849 -18 11.8491C-18 11.8491 -18 11.8491 -18 11.8491C-18 11.8492 -18 11.8492 -18 11.8492C-18 11.8492 -18 11.8493 -18 11.8493C-18 11.8493 -18 11.8493 -18 11.8493C-18 11.8494 -18 11.8494 -18 11.8494C-18 11.8494 -18 11.8495 -18 11.8495C-18 11.8495 -18 11.8495 -18 11.8496C-18 11.8496 -18 11.8496 -18 11.8496C-18 11.8497 -18 11.8497 -18 11.8497C-18 11.8497 -18 11.8497 -18 11.8498C-18 11.8498 -18 11.8498 -18 11.8498C-18 11.8499 -18 11.8499 -18 11.8499C-18 11.8499 -18 11.85 -18 11.85C-18 11.85 -18 11.85 -18 11.85C-18 11.8501 -18 11.8501 -18 11.8501C-18 11.8501 -18 11.8502 -18 11.8502C-18 11.8502 -18 11.8502 -18 11.8503C-18 11.8503 -18 11.8503 -18 11.8503C-18 11.8504 -18 11.8504 -18 11.8504C-18 11.8504 -18 11.8504 -18 11.8505C-18 11.8505 -18 11.8505 -18 11.8505C-18 11.8506 -18 11.8506 -18 11.8506C-18 11.8506 -18 11.8507 -18 11.8507C-18 11.8507 -18 11.8507 -18 11.8508C-18 11.8508 -18 11.8508 -18 11.8508C-18 11.8508 -18 11.8509 -18 11.8509C-18 11.8509 -18 11.8509 -18 11.851C-18 11.851 -18 11.851 -18 11.851C-18 11.8511 -18 11.8511 -18 11.8511C-18 11.8511 -18 11.8512 -18 11.8512C-18 11.8512 -18 11.8512 -18 11.8512C-18 11.8513 -18 11.8513 -18 11.8513C-18 11.8513 -18 11.8514 -18 11.8514C-18 11.8514 -18 11.8514 -18 11.8515C-18 11.8515 -18 11.8515 -18 11.8515C-18 11.8516 -18 11.8516 -18 11.8516C-18 11.8516 -18 11.8516 -18 11.8517C-18 11.8517 -18 11.8517 -18 11.8517C-18 11.8518 -18 11.8518 -18 11.8518C-18 11.8518 -18 11.8519 -18 11.8519C-18 11.8519 -18 11.8519 -18 11.8519C-18 11.852 -18 11.852 -18 11.852C-18 11.852 -18 11.8521 -18 11.8521C-18 11.8521 -18 11.8521 -18 11.8522C-18 11.8522 -18 11.8522 -18 11.8522C-18 11.8523 -18 11.8523 -18 11.8523C-18 11.8523 -18 11.8523 -18 11.8524C-18 11.8524 -18 11.8524 -18 11.8524C-18 11.8525 -18 11.8525 -18 11.8525C-18 11.8525 -18 11.8526 -18 11.8526C-18 11.8526 -18 11.8526 -18 11.8527C-18 11.8527 -18 11.8527 -18 11.8527C-18 11.8527 -18 11.8528 -18 11.8528C-18 11.8528 -18 11.8528 -18 11.8529C-18 11.8529 -18 11.8529 -18 11.8529C-18 11.853 -18 11.853 -18 11.853C-18 11.853 -18 11.8531 -18 11.8531C-18 11.8531 -18 11.8531 -18 11.8531C-18 11.8532 -18 11.8532 -18 11.8532C-18 11.8532 -18 11.8533 -18 11.8533C-18 11.8533 -18 11.8533 -18 11.8534C-18 11.8534 -18 11.8534 -18 11.8534C-18 11.8534 -18 11.8535 -18 11.8535C-18 11.8535 -18 11.8535 -18 11.8536C-18 11.8536 -18 11.8536 -18 11.8536C-18 11.8537 -18 11.8537 -18 11.8537C-18 11.8537 -18 11.8538 -18 11.8538C-18 11.8538 -18 11.8538 -18 11.8538C-18 11.8539 -18 11.8539 -18 11.8539C-18 11.8539 -18 11.854 -18 11.854C-18 11.854 -18 11.854 -18 11.8541C-18 11.8541 -18 11.8541 -18 11.8541C-18 11.8542 -18 11.8542 -18 11.8542C-18 11.8542 -18 11.8542 -18 11.8543C-18 11.8543 -18 11.8543 -18 11.8543C-18 11.8544 -18 11.8544 -18 11.8544C-18 11.8544 -18 11.8545 -18 11.8545C-18 11.8545 -18 11.8545 -18 11.8546C-18 11.8546 -18 11.8546 -18 11.8546C-18 11.8546 -18 11.8547 -18 11.8547C-18 11.8547 -18 11.8547 -18 11.8548C-18 11.8548 -18 11.8548 -18 11.8548C-18 11.8549 -18 11.8549 -18 11.8549C-18 11.8549 -18 11.8549 -18 11.855C-18 11.855 -18 11.855 -18 11.855C-18 11.8551 -18 11.8551 -18 11.8551C-18 11.8551 -18 11.8552 -18 11.8552C-18 11.8552 -18 11.8552 -18 11.8553C-18 11.8553 -18 11.8553 -18 11.8553C-18 11.8553 -18 11.8554 -18 11.8554C-18 11.8554 -18 11.8554 -18 11.8555C-18 11.8555 -18 11.8555 -18 11.8555C-18 11.8556 -18 11.8556 -18 11.8556C-18 11.8556 -18 11.8557 -18 11.8557C-18 11.8557 -18 11.8557 -18 11.8557C-18 11.8558 -18 11.8558 -18 11.8558C-18 11.8558 -18 11.8559 -18 11.8559C-18 11.8559 -18 11.8559 -18 11.856C-18 11.856 -18 11.856 -18 11.856C-18 11.8561 -18 11.8561 -18 11.8561C-18 11.8561 -18 11.8561 -18 11.8562C-18 11.8562 -18 11.8562 -18 11.8562C-18 11.8563 -18 11.8563 -18 11.8563C-18 11.8563 -18 11.8564 -18 11.8564C-18 11.8564 -18 11.8564 -18 11.8565C-18 11.8565 -18 11.8565 -18 11.8565C-18 11.8565 -18 11.8566 -18 11.8566C-18 11.8566 -18 11.8566 -18 11.8567C-18 11.8567 -18 11.8567 -18 11.8567C-18 11.8568 -18 11.8568 -18 11.8568C-18 11.8568 -18 11.8569 -18 11.8569C-18 11.8569 -18 11.8569 -18 11.8569C-18 11.857 -18 11.857 -18 11.857C-18 11.857 -18 11.8571 -18 11.8571C-18 11.8571 -18 11.8571 -18 11.8572C-18 11.8572 -18 11.8572 -18 11.8572C-18 11.8573 -18 11.8573 -18 11.8573C-18 11.8573 -18 11.8573 -18 11.8574C-18 11.8574 -18 11.8574 -18 11.8574C-18 11.8575 -18 11.8575 -18 11.8575C-18 11.8575 -18 11.8576 -18 11.8576C-18 11.8576 -18 11.8576 -18 11.8577C-18 11.8577 -18 11.8577 -18 11.8577C-18 11.8577 -18 11.8578 -18 11.8578C-18 11.8578 -18 11.8578 -18 11.8579C-18 11.8579 -18 11.8579 -18 11.8579C-18 11.858 -18 11.858 -18 11.858C-18 11.858 -18 11.8581 -18 11.8581C-18 11.8581 -18 11.8581 -18 11.8582C-18 11.8582 -18 11.8582 -18 11.8582C-18 11.8582 -18 11.8583 -18 11.8583C-18 11.8583 -18 11.8583 -18 11.8584C-18 11.8584 -18 11.8584 -18 11.8584C-18 11.8585 -18 11.8585 -18 11.8585C-18 11.8585 -18 11.8586 -18 11.8586C-18 11.8586 -18 11.8586 -18 11.8586C-18 11.8587 -18 11.8587 -18 11.8587C-18 11.8587 -18 11.8588 -18 11.8588C-18 11.8588 -18 11.8588 -18 11.8589C-18 11.8589 -18 11.8589 -18 11.8589C-18 11.859 -18 11.859 -18 11.859C-18 11.859 -18 11.859 -18 11.8591C-18 11.8591 -18 11.8591 -18 11.8591C-18 11.8592 -18 11.8592 -18 11.8592C-18 11.8592 -18 11.8593 -18 11.8593C-18 11.8593 -18 11.8593 -18 11.8594C-18 11.8594 -18 11.8594 -18 11.8594C-18 11.8595 -18 11.8595 -18 11.8595C-18 11.8595 -18 11.8595 -18 11.8596C-18 11.8596 -18 11.8596 -18 11.8596C-18 11.8597 -18 11.8597 -18 11.8597C-18 11.8597 -18 11.8598 -18 11.8598C-18 11.8598 -18 11.8598 -18 11.8599C-18 11.8599 -18 11.8599 -18 11.8599C-18 11.8599 -18 11.86 -18 11.86C-18 11.86 -18 11.86 -18 11.8601C-18 11.8601 -18 11.8601 -18 11.8601C-18 11.8602 -18 11.8602 -18 11.8602C-18 11.8602 -18 11.8603 -18 11.8603C-18 11.8603 -18 11.8603 -18 11.8604C-18 11.8604 -18 11.8604 -18 11.8604C-18 11.8604 -18 11.8605 -18 11.8605C-18 11.8605 -18 11.8605 -18 11.8606C-18 11.8606 -18 11.8606 -18 11.8606C-18 11.8607 -18 11.8607 -18 11.8607C-18 11.8607 -18 11.8608 -18 11.8608C-18 11.8608 -18 11.8608 -18 11.8609C-18 11.8609 -18 11.8609 -18 11.8609C-18 11.8609 -18 11.861 -18 11.861C-18 11.861 -18 11.861 -18 11.8611C-18 11.8611 -18 11.8611 -18 11.8611C-18 11.8612 -18 11.8612 -18 11.8612C-18 11.8612 -18 11.8613 -18 11.8613C-18 11.8613 -18 11.8613 -18 11.8614C-18 11.8614 -18 11.8614 -18 11.8614C-18 11.8614 -18 11.8615 -18 11.8615C-18 11.8615 -18 11.8615 -18 11.8616C-18 11.8616 -18 11.8616 -18 11.8616C-18 11.8617 -18 11.8617 -18 11.8617C-18 11.8617 -18 11.8618 -18 11.8618C-18 11.8618 -18 11.8618 -18 11.8619C-18 11.8619 -18 11.8619 -18 11.8619C-18 11.8619 -18 11.862 -18 11.862C-18 11.862 -18 11.862 -18 11.8621C-18 11.8621 -18 11.8621 -18 11.8621C-18 11.8622 -18 11.8622 -18 11.8622C-18 11.8622 -18 11.8623 -18 11.8623C-18 11.8623 -18 11.8623 -18 11.8624C-18 11.8624 -18 11.8624 -18 11.8624C-18 11.8624 -18 11.8625 -18 11.8625C-18 11.8625 -18 11.8625 -18 11.8626C-18 11.8626 -18 11.8626 -18 11.8626C-18 11.8627 -18 11.8627 -18 11.8627C-18 11.8627 -18 11.8628 -18 11.8628C-18 11.8628 -18 11.8628 -18 11.8629C-18 11.8629 -18 11.8629 -18 11.8629C-18 11.863 -18 11.863 -18 11.863C-18 11.863 -18 11.863 -18 11.8631C-18 11.8631 -18 11.8631 -18 11.8631C-18 11.8632 -18 11.8632 -18 11.8632C-18 11.8632 -18 11.8633 -18 11.8633C-18 11.8633 -18 11.8633 -18 11.8634C-18 11.8634 -18 11.8634 -18 11.8634C-18 11.8635 -18 11.8635 -18 11.8635C-18 11.8635 -18 11.8636 -18 11.8636C-18 11.8636 -18 11.8636 -18 11.8636C-18 11.8637 -18 11.8637 -18 11.8637C-18 11.8637 -18 11.8638 -18 11.8638C-18 11.8638 -18 11.8638 -18 11.8639C-18 11.8639 -18 11.8639 -18 11.8639C-18 11.864 -18 11.864 -18 11.864C-18 11.864 -18 11.8641 -18 11.8641C-18 11.8641 -18 11.8641 -18 11.8642C-18 11.8642 -18 11.8642 -18 11.8642C-18 11.8642 -18 11.8643 -18 11.8643C-18 11.8643 -18 11.8643 -18 11.8644C-18 11.8644 -18 11.8644 -18 11.8644C-18 11.8645 -18 11.8645 -18 11.8645C-18 11.8645 -18 11.8646 -18 11.8646C-18 11.8646 -18 11.8646 -18 11.8647C-18 11.8647 -18 11.8647 -18 11.8647C-18 11.8648 -18 11.8648 -18 11.8648C-18 11.8648 -18 11.8648 -18 11.8649C-18 11.8649 -18 11.8649 -18 11.8649C-18 11.865 -18 11.865 -18 11.865C-18 11.865 -18 11.8651 -18 11.8651C-18 11.8651 -18 11.8651 -18 11.8652C-18 11.8652 -18 11.8652 -18 11.8652C-18 11.8653 -18 11.8653 -18 11.8653C-18 11.8653 -18 11.8654 -18 11.8654C-18 11.8654 -18 11.8654 -18 11.8655C-18 11.8655 -18 11.8655 -18 11.8655C-18 11.8656 -18 11.8656 -18 11.8656C-18 11.8656 -18 11.8656 -18 11.8657C-18 11.8657 -18 11.8657 -18 11.8657C-18 11.8658 -18 11.8658 -18 11.8658C-18 11.8658 -18 11.8659 -18 11.8659C-18 11.8659 -18 11.8659 -18 11.866C-18 11.866 -18 11.866 -18 11.866C-18 11.8661 -18 11.8661 -18 11.8661C-18 11.8661 -18 11.8662 -18 11.8662C-18 11.8662 -18 11.8662 -18 11.8663C-18 11.8663 -18 11.8663 -18 11.8663C-18 11.8663 -18 11.8664 -18 11.8664C-18 11.8664 -18 11.8664 -18 11.8665C-18 11.8665 -18 11.8665 -18 11.8665C-18 11.8666 -18 11.8666 -18 11.8666C-18 11.8666 -18 11.8667 -18 11.8667C-18 11.8667 -18 11.8667 -18 11.8668C-18 11.8668 -18 11.8668 -18 11.8668C-18 11.8669 -18 11.8669 -18 11.8669C-18 11.8669 -18 11.867 -18 11.867C-18 11.867 -18 11.867 -18 11.8671C-18 11.8671 -18 11.8671 -18 11.8671C-18 11.8672 -18 11.8672 -18 11.8672C-18 11.8672 -18 11.8672 -18 11.8673C-18 11.8673 -18 11.8673 -18 11.8673C-18 11.8674 -18 11.8674 -18 11.8674C-18 11.8674 -18 11.8675 -18 11.8675C-18 11.8675 -18 11.8675 -18 11.8676C-18 11.8676 -18 11.8676 -18 11.8676C-18 11.8677 -18 11.8677 -18 11.8677C-18 11.8677 -18 11.8678 -18 11.8678C-18 11.8678 -18 11.8678 -18 11.8679C-18 11.8679 -18 11.8679 -18 11.8679C-18 11.868 -18 11.868 -18 11.868C-18 11.868 -18 11.8681 -18 11.8681C-18 11.8681 -18 11.8681 -18 11.8682C-18 11.8682 -18 11.8682 -18 11.8682C-18 11.8683 -18 11.8683 -18 11.8683C-18 11.8683 -18 11.8684 -18 11.8684C-18 11.8684 -18 11.8684 -18 11.8684C-18 11.8685 -18 11.8685 -18 11.8685C-18 11.8685 -18 11.8686 -18 11.8686C-18 11.8686 -18 11.8686 -18 11.8687C-18 11.8687 -18 11.8687 -18 11.8687C-18 11.8688 -18 11.8688 -18 11.8688C-18 11.8688 -18 11.8689 -18 11.8689C-18 11.8689 -18 11.8689 -18 11.869C-18 11.869 -18 11.869 -18 11.869C-18 11.8691 -18 11.8691 -18 11.8691C-18 11.8691 -18 11.8692 -18 11.8692C-18 11.8692 -18 11.8692 -18 11.8693C-18 11.8693 -18 11.8693 -18 11.8693C-18 11.8694 -18 11.8694 -18 11.8694C-18 11.8694 -18 11.8695 -18 11.8695C-18 11.8695 -18 11.8695 -18 11.8696C-18 11.8696 -18 11.8696 -18 11.8696C-18 11.8697 -18 11.8697 -18 11.8697C-18 11.8697 -18 11.8698 -18 11.8698C-18 11.8698 -18 11.8698 -18 11.8699C-18 11.8699 -18 11.8699 -18 11.8699C-18 11.87 -18 11.87 -18 11.87H24.6666C24.6666 11.87 24.6666 11.87 24.6666 11.8699C24.6666 11.8699 24.6666 11.8699 24.6666 11.8699C24.6666 11.8698 24.6666 11.8698 24.6666 11.8698C24.6666 11.8698 24.6666 11.8697 24.6666 11.8697C24.6666 11.8697 24.6666 11.8697 24.6666 11.8696C24.6666 11.8696 24.6666 11.8696 24.6666 11.8696C24.6666 11.8695 24.6666 11.8695 24.6666 11.8695C24.6666 11.8695 24.6666 11.8694 24.6666 11.8694C24.6666 11.8694 24.6666 11.8694 24.6666 11.8693C24.6666 11.8693 24.6666 11.8693 24.6666 11.8693C24.6666 11.8692 24.6666 11.8692 24.6666 11.8692C24.6666 11.8692 24.6666 11.8691 24.6666 11.8691C24.6666 11.8691 24.6666 11.8691 24.6666 11.869C24.6666 11.869 24.6666 11.869 24.6666 11.869C24.6666 11.8689 24.6666 11.8689 24.6666 11.8689C24.6666 11.8689 24.6666 11.8688 24.6666 11.8688C24.6666 11.8688 24.6666 11.8688 24.6666 11.8687C24.6666 11.8687 24.6666 11.8687 24.6666 11.8687C24.6666 11.8686 24.6666 11.8686 24.6666 11.8686C24.6666 11.8686 24.6666 11.8685 24.6666 11.8685C24.6666 11.8685 24.6666 11.8685 24.6666 11.8684C24.6666 11.8684 24.6666 11.8684 24.6666 11.8684C24.6666 11.8684 24.6666 11.8683 24.6666 11.8683C24.6666 11.8683 24.6666 11.8683 24.6666 11.8682C24.6666 11.8682 24.6666 11.8682 24.6666 11.8682C24.6666 11.8681 24.6666 11.8681 24.6666 11.8681C24.6666 11.8681 24.6666 11.868 24.6666 11.868C24.6666 11.868 24.6666 11.868 24.6666 11.8679C24.6666 11.8679 24.6666 11.8679 24.6666 11.8679C24.6666 11.8678 24.6666 11.8678 24.6666 11.8678C24.6666 11.8678 24.6666 11.8677 24.6666 11.8677C24.6666 11.8677 24.6666 11.8677 24.6666 11.8676C24.6666 11.8676 24.6666 11.8676 24.6666 11.8676C24.6666 11.8675 24.6666 11.8675 24.6666 11.8675C24.6666 11.8675 24.6666 11.8674 24.6666 11.8674C24.6666 11.8674 24.6666 11.8674 24.6666 11.8673C24.6666 11.8673 24.6666 11.8673 24.6666 11.8673C24.6666 11.8672 24.6666 11.8672 24.6666 11.8672C24.6666 11.8672 24.6666 11.8672 24.6666 11.8671C24.6666 11.8671 24.6666 11.8671 24.6666 11.8671C24.6666 11.867 24.6666 11.867 24.6666 11.867C24.6666 11.867 24.6666 11.8669 24.6666 11.8669C24.6666 11.8669 24.6666 11.8669 24.6666 11.8668C24.6666 11.8668 24.6666 11.8668 24.6666 11.8668C24.6666 11.8667 24.6666 11.8667 24.6666 11.8667C24.6666 11.8667 24.6666 11.8666 24.6666 11.8666C24.6666 11.8666 24.6666 11.8666 24.6666 11.8665C24.6666 11.8665 24.6666 11.8665 24.6666 11.8665C24.6666 11.8664 24.6666 11.8664 24.6666 11.8664C24.6666 11.8664 24.6666 11.8663 24.6666 11.8663C24.6666 11.8663 24.6666 11.8663 24.6666 11.8663C24.6666 11.8662 24.6666 11.8662 24.6666 11.8662C24.6666 11.8662 24.6666 11.8661 24.6666 11.8661C24.6666 11.8661 24.6666 11.8661 24.6666 11.866C24.6666 11.866 24.6666 11.866 24.6666 11.866C24.6666 11.8659 24.6666 11.8659 24.6666 11.8659C24.6666 11.8659 24.6666 11.8658 24.6666 11.8658C24.6666 11.8658 24.6666 11.8658 24.6666 11.8657C24.6666 11.8657 24.6666 11.8657 24.6666 11.8657C24.6666 11.8656 24.6666 11.8656 24.6666 11.8656C24.6666 11.8656 24.6666 11.8656 24.6666 11.8655C24.6666 11.8655 24.6666 11.8655 24.6666 11.8655C24.6666 11.8654 24.6666 11.8654 24.6666 11.8654C24.6666 11.8654 24.6666 11.8653 24.6666 11.8653C24.6666 11.8653 24.6666 11.8653 24.6666 11.8652C24.6666 11.8652 24.6666 11.8652 24.6666 11.8652C24.6666 11.8651 24.6666 11.8651 24.6666 11.8651C24.6666 11.8651 24.6666 11.865 24.6666 11.865C24.6666 11.865 24.6666 11.865 24.6666 11.8649C24.6666 11.8649 24.6666 11.8649 24.6666 11.8649C24.6666 11.8648 24.6666 11.8648 24.6666 11.8648C24.6666 11.8648 24.6666 11.8648 24.6666 11.8647C24.6666 11.8647 24.6666 11.8647 24.6666 11.8647C24.6666 11.8646 24.6666 11.8646 24.6666 11.8646C24.6666 11.8646 24.6666 11.8645 24.6666 11.8645C24.6666 11.8645 24.6666 11.8645 24.6666 11.8644C24.6666 11.8644 24.6666 11.8644 24.6666 11.8644C24.6666 11.8643 24.6666 11.8643 24.6666 11.8643C24.6666 11.8643 24.6666 11.8642 24.6666 11.8642C24.6666 11.8642 24.6666 11.8642 24.6666 11.8642C24.6666 11.8641 24.6666 11.8641 24.6666 11.8641C24.6666 11.8641 24.6666 11.864 24.6666 11.864C24.6666 11.864 24.6666 11.864 24.6666 11.8639C24.6666 11.8639 24.6666 11.8639 24.6666 11.8639C24.6666 11.8638 24.6666 11.8638 24.6666 11.8638C24.6666 11.8638 24.6666 11.8637 24.6666 11.8637C24.6666 11.8637 24.6666 11.8637 24.6666 11.8636C24.6666 11.8636 24.6666 11.8636 24.6666 11.8636C24.6666 11.8636 24.6666 11.8635 24.6666 11.8635C24.6666 11.8635 24.6666 11.8635 24.6666 11.8634C24.6666 11.8634 24.6666 11.8634 24.6666 11.8634C24.6666 11.8633 24.6666 11.8633 24.6666 11.8633C24.6666 11.8633 24.6666 11.8632 24.6666 11.8632C24.6666 11.8632 24.6666 11.8632 24.6666 11.8631C24.6666 11.8631 24.6666 11.8631 24.6666 11.8631C24.6666 11.863 24.6666 11.863 24.6666 11.863C24.6666 11.863 24.6666 11.863 24.6666 11.8629C24.6666 11.8629 24.6666 11.8629 24.6666 11.8629C24.6666 11.8628 24.6666 11.8628 24.6666 11.8628C24.6666 11.8628 24.6666 11.8627 24.6666 11.8627C24.6666 11.8627 24.6666 11.8627 24.6666 11.8626C24.6666 11.8626 24.6666 11.8626 24.6666 11.8626C24.6666 11.8625 24.6666 11.8625 24.6666 11.8625C24.6666 11.8625 24.6666 11.8624 24.6666 11.8624C24.6666 11.8624 24.6666 11.8624 24.6666 11.8624C24.6666 11.8623 24.6666 11.8623 24.6666 11.8623C24.6666 11.8623 24.6666 11.8622 24.6666 11.8622C24.6666 11.8622 24.6666 11.8622 24.6666 11.8621C24.6666 11.8621 24.6666 11.8621 24.6666 11.8621C24.6666 11.862 24.6666 11.862 24.6666 11.862C24.6666 11.862 24.6666 11.8619 24.6666 11.8619C24.6666 11.8619 24.6666 11.8619 24.6666 11.8619C24.6666 11.8618 24.6666 11.8618 24.6666 11.8618C24.6666 11.8618 24.6666 11.8617 24.6666 11.8617C24.6666 11.8617 24.6666 11.8617 24.6666 11.8616C24.6666 11.8616 24.6666 11.8616 24.6666 11.8616C24.6666 11.8615 24.6666 11.8615 24.6666 11.8615C24.6666 11.8615 24.6666 11.8614 24.6666 11.8614C24.6666 11.8614 24.6666 11.8614 24.6666 11.8614C24.6666 11.8613 24.6666 11.8613 24.6666 11.8613C24.6666 11.8613 24.6666 11.8612 24.6666 11.8612C24.6666 11.8612 24.6666 11.8612 24.6666 11.8611C24.6666 11.8611 24.6666 11.8611 24.6666 11.8611C24.6666 11.861 24.6666 11.861 24.6666 11.861C24.6666 11.861 24.6666 11.8609 24.6666 11.8609C24.6666 11.8609 24.6666 11.8609 24.6666 11.8609C24.6666 11.8608 24.6666 11.8608 24.6666 11.8608C24.6666 11.8608 24.6666 11.8607 24.6666 11.8607C24.6666 11.8607 24.6666 11.8607 24.6666 11.8606C24.6666 11.8606 24.6666 11.8606 24.6666 11.8606C24.6666 11.8605 24.6666 11.8605 24.6666 11.8605C24.6666 11.8605 24.6666 11.8604 24.6666 11.8604C24.6666 11.8604 24.6666 11.8604 24.6666 11.8604C24.6666 11.8603 24.6666 11.8603 24.6666 11.8603C24.6666 11.8603 24.6666 11.8602 24.6666 11.8602C24.6666 11.8602 24.6666 11.8602 24.6666 11.8601C24.6666 11.8601 24.6666 11.8601 24.6666 11.8601C24.6666 11.86 24.6666 11.86 24.6666 11.86C24.6666 11.86 24.6666 11.8599 24.6666 11.8599C24.6666 11.8599 24.6666 11.8599 24.6666 11.8599C24.6666 11.8598 24.6666 11.8598 24.6666 11.8598C24.6666 11.8598 24.6666 11.8597 24.6666 11.8597C24.6666 11.8597 24.6666 11.8597 24.6666 11.8596C24.6666 11.8596 24.6666 11.8596 24.6666 11.8596C24.6666 11.8595 24.6666 11.8595 24.6666 11.8595C24.6666 11.8595 24.6666 11.8595 24.6666 11.8594C24.6666 11.8594 24.6666 11.8594 24.6666 11.8594C24.6666 11.8593 24.6666 11.8593 24.6666 11.8593C24.6666 11.8593 24.6666 11.8592 24.6666 11.8592C24.6666 11.8592 24.6666 11.8592 24.6666 11.8591C24.6666 11.8591 24.6666 11.8591 24.6666 11.8591C24.6666 11.859 24.6666 11.859 24.6666 11.859C24.6666 11.859 24.6666 11.859 24.6666 11.8589C24.6666 11.8589 24.6666 11.8589 24.6666 11.8589C24.6666 11.8588 24.6666 11.8588 24.6666 11.8588C24.6666 11.8588 24.6666 11.8587 24.6666 11.8587C24.6666 11.8587 24.6666 11.8587 24.6666 11.8586C24.6666 11.8586 24.6666 11.8586 24.6666 11.8586C24.6666 11.8586 24.6666 11.8585 24.6666 11.8585C24.6666 11.8585 24.6666 11.8585 24.6666 11.8584C24.6666 11.8584 24.6666 11.8584 24.6666 11.8584C24.6666 11.8583 24.6666 11.8583 24.6666 11.8583C24.6666 11.8583 24.6666 11.8582 24.6666 11.8582C24.6666 11.8582 24.6666 11.8582 24.6666 11.8582C24.6666 11.8581 24.6666 11.8581 24.6666 11.8581C24.6666 11.8581 24.6666 11.858 24.6666 11.858C24.6666 11.858 24.6666 11.858 24.6666 11.8579C24.6666 11.8579 24.6666 11.8579 24.6666 11.8579C24.6666 11.8578 24.6666 11.8578 24.6666 11.8578C24.6666 11.8578 24.6666 11.8577 24.6666 11.8577C24.6666 11.8577 24.6666 11.8577 24.6666 11.8577C24.6666 11.8576 24.6666 11.8576 24.6666 11.8576C24.6666 11.8576 24.6666 11.8575 24.6666 11.8575C24.6666 11.8575 24.6666 11.8575 24.6666 11.8574C24.6666 11.8574 24.6666 11.8574 24.6666 11.8574C24.6666 11.8573 24.6666 11.8573 24.6666 11.8573C24.6666 11.8573 24.6666 11.8573 24.6666 11.8572C24.6666 11.8572 24.6666 11.8572 24.6666 11.8572C24.6666 11.8571 24.6666 11.8571 24.6666 11.8571C24.6666 11.8571 24.6666 11.857 24.6666 11.857C24.6666 11.857 24.6666 11.857 24.6666 11.8569C24.6666 11.8569 24.6666 11.8569 24.6666 11.8569C24.6666 11.8569 24.6666 11.8568 24.6666 11.8568C24.6666 11.8568 24.6666 11.8568 24.6666 11.8567C24.6666 11.8567 24.6666 11.8567 24.6666 11.8567C24.6666 11.8566 24.6666 11.8566 24.6666 11.8566C24.6666 11.8566 24.6666 11.8565 24.6666 11.8565C24.6666 11.8565 24.6666 11.8565 24.6666 11.8565C24.6666 11.8564 24.6666 11.8564 24.6666 11.8564C24.6666 11.8564 24.6666 11.8563 24.6666 11.8563C24.6666 11.8563 24.6666 11.8563 24.6666 11.8562C24.6666 11.8562 24.6666 11.8562 24.6666 11.8562C24.6666 11.8561 24.6666 11.8561 24.6666 11.8561C24.6666 11.8561 24.6666 11.8561 24.6666 11.856C24.6666 11.856 24.6666 11.856 24.6666 11.856C24.6666 11.8559 24.6666 11.8559 24.6666 11.8559C24.6666 11.8559 24.6666 11.8558 24.6666 11.8558C24.6666 11.8558 24.6666 11.8558 24.6666 11.8557C24.6666 11.8557 24.6666 11.8557 24.6666 11.8557C24.6666 11.8557 24.6666 11.8556 24.6666 11.8556C24.6666 11.8556 24.6666 11.8556 24.6666 11.8555C24.6666 11.8555 24.6666 11.8555 24.6666 11.8555C24.6666 11.8554 24.6666 11.8554 24.6666 11.8554C24.6666 11.8554 24.6666 11.8553 24.6666 11.8553C24.6666 11.8553 24.6666 11.8553 24.6666 11.8553C24.6666 11.8552 24.6666 11.8552 24.6666 11.8552C24.6666 11.8552 24.6666 11.8551 24.6666 11.8551C24.6666 11.8551 24.6666 11.8551 24.6666 11.855C24.6666 11.855 24.6666 11.855 24.6666 11.855C24.6666 11.8549 24.6666 11.8549 24.6666 11.8549C24.6666 11.8549 24.6666 11.8549 24.6666 11.8548C24.6666 11.8548 24.6666 11.8548 24.6666 11.8548C24.6666 11.8547 24.6666 11.8547 24.6666 11.8547C24.6666 11.8547 24.6666 11.8546 24.6666 11.8546C24.6666 11.8546 24.6666 11.8546 24.6666 11.8546C24.6666 11.8545 24.6666 11.8545 24.6666 11.8545C24.6666 11.8545 24.6666 11.8544 24.6666 11.8544C24.6666 11.8544 24.6666 11.8544 24.6666 11.8543C24.6666 11.8543 24.6666 11.8543 24.6666 11.8543C24.6666 11.8542 24.6666 11.8542 24.6666 11.8542C24.6666 11.8542 24.6666 11.8542 24.6666 11.8541C24.6666 11.8541 24.6666 11.8541 24.6666 11.8541C24.6666 11.854 24.6666 11.854 24.6666 11.854C24.6666 11.854 24.6666 11.8539 24.6666 11.8539C24.6666 11.8539 24.6666 11.8539 24.6666 11.8538C24.6666 11.8538 24.6666 11.8538 24.6666 11.8538C24.6666 11.8538 24.6666 11.8537 24.6666 11.8537C24.6666 11.8537 24.6666 11.8537 24.6666 11.8536C24.6666 11.8536 24.6666 11.8536 24.6666 11.8536C24.6666 11.8535 24.6666 11.8535 24.6666 11.8535C24.6666 11.8535 24.6666 11.8534 24.6666 11.8534C24.6666 11.8534 24.6666 11.8534 24.6666 11.8534C24.6666 11.8533 24.6666 11.8533 24.6666 11.8533C24.6666 11.8533 24.6666 11.8532 24.6666 11.8532C24.6666 11.8532 24.6666 11.8532 24.6666 11.8531C24.6666 11.8531 24.6666 11.8531 24.6666 11.8531C24.6666 11.8531 24.6666 11.853 24.6666 11.853C24.6666 11.853 24.6666 11.853 24.6666 11.8529C24.6666 11.8529 24.6666 11.8529 24.6666 11.8529C24.6666 11.8528 24.6666 11.8528 24.6666 11.8528C24.6666 11.8528 24.6666 11.8527 24.6666 11.8527C24.6666 11.8527 24.6666 11.8527 24.6666 11.8527C24.6666 11.8526 24.6666 11.8526 24.6666 11.8526C24.6666 11.8526 24.6666 11.8525 24.6666 11.8525C24.6666 11.8525 24.6666 11.8525 24.6666 11.8524C24.6666 11.8524 24.6666 11.8524 24.6666 11.8524C24.6666 11.8523 24.6666 11.8523 24.6666 11.8523C24.6666 11.8523 24.6666 11.8523 24.6666 11.8522C24.6666 11.8522 24.6666 11.8522 24.6666 11.8522C24.6666 11.8521 24.6666 11.8521 24.6666 11.8521C24.6666 11.8521 24.6666 11.852 24.6666 11.852C24.6666 11.852 24.6666 11.852 24.6666 11.8519C24.6666 11.8519 24.6666 11.8519 24.6666 11.8519C24.6666 11.8519 24.6666 11.8518 24.6666 11.8518C24.6666 11.8518 24.6666 11.8518 24.6666 11.8517C24.6666 11.8517 24.6666 11.8517 24.6666 11.8517C24.6666 11.8516 24.6666 11.8516 24.6666 11.8516C24.6666 11.8516 24.6666 11.8516 24.6666 11.8515C24.6666 11.8515 24.6666 11.8515 24.6666 11.8515C24.6666 11.8514 24.6666 11.8514 24.6666 11.8514C24.6666 11.8514 24.6666 11.8513 24.6666 11.8513C24.6666 11.8513 24.6666 11.8513 24.6666 11.8512C24.6666 11.8512 24.6666 11.8512 24.6666 11.8512C24.6666 11.8512 24.6666 11.8511 24.6666 11.8511C24.6666 11.8511 24.6666 11.8511 24.6666 11.851C24.6666 11.851 24.6666 11.851 24.6666 11.851C24.6666 11.8509 24.6666 11.8509 24.6666 11.8509C24.6666 11.8509 24.6666 11.8508 24.6666 11.8508C24.6666 11.8508 24.6666 11.8508 24.6666 11.8508C24.6666 11.8507 24.6666 11.8507 24.6666 11.8507C24.6666 11.8507 24.6666 11.8506 24.6666 11.8506C24.6666 11.8506 24.6666 11.8506 24.6666 11.8505C24.6666 11.8505 24.6666 11.8505 24.6666 11.8505C24.6666 11.8504 24.6666 11.8504 24.6666 11.8504C24.6666 11.8504 24.6666 11.8504 24.6666 11.8503C24.6666 11.8503 24.6666 11.8503 24.6666 11.8503C24.6666 11.8502 24.6666 11.8502 24.6666 11.8502C24.6666 11.8502 24.6666 11.8501 24.6666 11.8501C24.6666 11.8501 24.6666 11.8501 24.6666 11.85C24.6666 11.85 24.6666 11.85 24.6666 11.85C24.6666 11.85 24.6666 11.8499 24.6666 11.8499C24.6666 11.8499 24.6666 11.8499 24.6666 11.8498C24.6666 11.8498 24.6666 11.8498 24.6666 11.8498C24.6666 11.8497 24.6666 11.8497 24.6666 11.8497C24.6666 11.8497 24.6666 11.8497 24.6666 11.8496C24.6666 11.8496 24.6666 11.8496 24.6666 11.8496C24.6666 11.8495 24.6666 11.8495 24.6666 11.8495C24.6666 11.8495 24.6666 11.8494 24.6666 11.8494C24.6666 11.8494 24.6666 11.8494 24.6666 11.8493C24.6666 11.8493 24.6666 11.8493 24.6666 11.8493C24.6666 11.8493 24.6666 11.8492 24.6666 11.8492C24.6666 11.8492 24.6666 11.8492 24.6666 11.8491C24.6666 11.8491 24.6666 11.8491 24.6666 11.8491C24.6666 11.849 24.6666 11.849 24.6666 11.849C24.6666 11.849 24.6666 11.8489 24.6666 11.8489C24.6666 11.8489 24.6666 11.8489 24.6666 11.8489C24.6666 11.8488 24.6666 11.8488 24.6666 11.8488C24.6666 11.8488 24.6666 11.8487 24.6666 11.8487C24.6666 11.8487 24.6666 11.8487 24.6666 11.8486C24.6666 11.8486 24.6666 11.8486 24.6666 11.8486C24.6666 11.8485 24.6666 11.8485 24.6666 11.8485C24.6666 11.8485 24.6666 11.8485 24.6666 11.8484C24.6666 11.8484 24.6666 11.8484 24.6666 11.8484C24.6666 11.8483 24.6666 11.8483 24.6666 11.8483C24.6666 11.8483 24.6666 11.8482 24.6666 11.8482C24.6666 11.8482 24.6666 11.8482 24.6666 11.8481C24.6666 11.8481 24.6666 11.8481 24.6666 11.8481C24.6666 11.8481 24.6666 11.848 24.6666 11.848C24.6666 11.848 24.6666 11.848 24.6666 11.8479C24.6666 11.8479 24.6666 11.8479 24.6666 11.8479C24.6666 11.8478 24.6666 11.8478 24.6666 11.8478C24.6666 11.8478 24.6666 11.8477 24.6666 11.8477C24.6666 11.8477 24.6666 11.8477 24.6666 11.8477C24.6666 11.8476 24.6666 11.8476 24.6666 11.8476C24.6666 11.8476 24.6666 11.8475 24.6666 11.8475C24.6666 11.8475 24.6666 11.8475 24.6666 11.8474C24.6666 11.8474 24.6666 11.8474 24.6666 11.8474C24.6666 11.8474 24.6666 11.8473 24.6666 11.8473C24.6666 11.8473 24.6666 11.8473 24.6666 11.8472C24.6666 11.8472 24.6666 11.8472 24.6666 11.8472C24.6666 11.8471 24.6666 11.8471 24.6666 11.8471C24.6666 11.8471 24.6666 11.847 24.6666 11.847C24.6666 11.847 24.6666 11.847 24.6666 11.847C24.6666 11.8469 24.6666 11.8469 24.6666 11.8469C24.6666 11.8469 24.6666 11.8468 24.6666 11.8468C24.6666 11.8468 24.6666 11.8468 24.6666 11.8467C24.6666 11.8467 24.6666 11.8467 24.6666 11.8467C24.6666 11.8466 24.6666 11.8466 24.6666 11.8466C24.6666 11.8466 24.6666 11.8465 24.6666 11.8465C24.6666 11.8465 24.6666 11.8465 24.6666 11.8465C24.6666 11.8464 24.6666 11.8464 24.6666 11.8464C24.6666 11.8464 24.6666 11.8463 24.6666 11.8463C24.6666 11.8463 24.6666 11.8463 24.6666 11.8462C24.6666 11.8462 24.6666 11.8462 24.6666 11.8462C24.6666 11.8461 24.6666 11.8461 24.6666 11.8461C24.6666 11.8461 24.6666 11.8461 24.6666 11.846C24.6666 11.846 24.6666 11.846 24.6666 11.846C24.6666 11.8459 24.6666 11.8459 24.6666 11.8459C24.6666 11.8459 24.6666 11.8458 24.6666 11.8458C24.6666 11.8458 24.6666 11.8458 24.6666 11.8457C24.6666 11.8457 24.6666 11.8457 24.6666 11.8457C24.6666 11.8457 24.6666 11.8456 24.6666 11.8456C24.6666 11.8456 24.6666 11.8456 24.6666 11.8455C24.6666 11.8455 24.6666 11.8455 24.6666 11.8455C24.6666 11.8454 24.6666 11.8454 24.6666 11.8454C24.6666 11.8454 24.6666 11.8453 24.6666 11.8453C24.6666 11.8453 24.6666 11.8453 24.6666 11.8453C24.6666 11.8452 24.6666 11.8452 24.6666 11.8452C24.6666 11.8452 24.6666 11.8451 24.6666 11.8451C24.6666 11.8451 24.6666 11.8451 24.6666 11.845C24.6666 11.845 24.6666 11.845 24.6666 11.845C24.6666 11.8449 24.6666 11.8449 24.6666 11.8449C24.6666 11.8449 24.6666 11.8449 24.6666 11.8448C24.6666 11.8448 24.6666 11.8448 24.6666 11.8448C24.6666 11.8447 24.6666 11.8447 24.6666 11.8447C24.6666 11.8447 24.6666 11.8446 24.6666 11.8446C24.6666 11.8446 24.6666 11.8446 24.6666 11.8445C24.6666 11.8445 24.6666 11.8445 24.6666 11.8445C24.6666 11.8444 24.6666 11.8444 24.6666 11.8444C24.6666 11.8444 24.6666 11.8444 24.6666 11.8443C24.6666 11.8443 24.6666 11.8443 24.6666 11.8443C24.6666 11.8442 24.6666 11.8442 24.6666 11.8442C24.6666 11.8442 24.6666 11.8441 24.6666 11.8441C24.6666 11.8441 24.6666 11.8441 24.6666 11.844C24.6666 11.844 24.6666 11.844 24.6666 11.844C24.6666 11.844 24.6666 11.8439 24.6666 11.8439C24.6666 11.8439 24.6666 11.8439 24.6666 11.8438C24.6666 11.8438 24.6666 11.8438 24.6666 11.8438C24.6666 11.8437 24.6666 11.8437 24.6666 11.8437C24.6666 11.8437 24.6666 11.8436 24.6666 11.8436C24.6666 11.8436 24.6666 11.8436 24.6666 11.8436C24.6666 11.8435 24.6666 11.8435 24.6666 11.8435C24.6666 11.8435 24.6666 11.8434 24.6666 11.8434C24.6666 11.8434 24.6666 11.8434 24.6666 11.8433C24.6666 11.8433 24.6666 11.8433 24.6666 11.8433C24.6666 11.8432 24.6666 11.8432 24.6666 11.8432C24.6666 11.8432 24.6666 11.8431 24.6666 11.8431C24.6666 11.8431 24.6666 11.8431 24.6666 11.8431C24.6666 11.843 24.6666 11.843 24.6666 11.843C24.6666 11.843 24.6666 11.8429 24.6666 11.8429C24.6666 11.8429 24.6666 11.8429 24.6666 11.8428C24.6666 11.8428 24.6666 11.8428 24.6666 11.8428C24.6666 11.8427 24.6666 11.8427 24.6666 11.8427C24.6666 11.8427 24.6666 11.8426 24.6666 11.8426C24.6666 11.8426 24.6666 11.8426 24.6666 11.8426C24.6666 11.8425 24.6666 11.8425 24.6666 11.8425C24.6666 11.8425 24.6666 11.8424 24.6666 11.8424C24.6666 11.8424 24.6666 11.8424 24.6666 11.8423C24.6666 11.8423 24.6666 11.8423 24.6666 11.8423C24.6666 11.8422 24.6666 11.8422 24.6666 11.8422C24.6666 11.8422 24.6666 11.8421 24.6666 11.8421C24.6666 11.8421 24.6666 11.8421 24.6666 11.8421C24.6666 11.842 24.6666 11.842 24.6666 11.842C24.6666 11.842 24.6666 11.8419 24.6666 11.8419C24.6666 11.8419 24.6666 11.8419 24.6666 11.8418C24.6666 11.8418 24.6666 11.8418 24.6666 11.8418C24.6666 11.8417 24.6666 11.8417 24.6666 11.8417C24.6666 11.8417 24.6666 11.8417 24.6666 11.8416C24.6666 11.8416 24.6666 11.8416 24.6666 11.8416C24.6666 11.8415 24.6666 11.8415 24.6666 11.8415C24.6666 11.8415 24.6666 11.8414 24.6666 11.8414C24.6666 11.8414 24.6666 11.8414 24.6666 11.8413C24.6666 11.8413 24.6666 11.8413 24.6666 11.8413C24.6666 11.8412 24.6666 11.8412 24.6666 11.8412C24.6666 11.8412 24.6666 11.8411 24.6666 11.8411C24.6666 11.8411 24.6666 11.8411 24.6666 11.8411C24.6666 11.841 24.6666 11.841 24.6666 11.841C24.6666 11.841 24.6666 11.8409 24.6666 11.8409C24.6666 11.8409 24.6666 11.8409 24.6666 11.8408C24.6666 11.8408 24.6666 11.8408 24.6666 11.8408C24.6666 11.8407 24.6666 11.8407 24.6666 11.8407C24.6666 11.8407 24.6666 11.8406 24.6666 11.8406C24.6666 11.8406 24.6666 11.8406 24.6666 11.8406C24.6666 11.8405 24.6666 11.8405 24.6666 11.8405C24.6666 11.8405 24.6666 11.8404 24.6666 11.8404C24.6666 11.8404 24.6666 11.8404 24.6666 11.8403C24.6666 11.8403 24.6666 11.8403 24.6666 11.8403C24.6666 11.8402 24.6666 11.8402 24.6666 11.8402C24.6666 11.8402 24.6666 11.8401 24.6666 11.8401C24.6666 11.8401 24.6666 11.8401 24.6666 11.84C24.6666 11.84 24.6666 11.84 24.6666 11.84C24.6666 11.84 24.6666 11.8399 24.6666 11.8399C24.6666 11.8399 24.6666 11.8399 24.6666 11.8398C24.6666 11.8398 24.6666 11.8398 24.6666 11.8398C24.6666 11.8397 24.6666 11.8397 24.6666 11.8397C24.6666 11.8397 24.6666 11.8396 24.6666 11.8396C24.6666 11.8396 24.6666 11.8396 24.6666 11.8395C24.6666 11.8395 24.6666 11.8395 24.6666 11.8395C24.6666 11.8394 24.6666 11.8394 24.6666 11.8394C24.6666 11.8394 24.6666 11.8394 24.6666 11.8393C24.6666 11.8393 24.6666 11.8393 24.6666 11.8393C24.6666 11.8392 24.6666 11.8392 24.6666 11.8392C24.6666 11.8392 24.6666 11.8391 24.6666 11.8391C24.6666 11.8391 24.6666 11.8391 24.6666 11.839C24.6666 11.839 24.6666 11.839 24.6666 11.839C24.6666 11.8389 24.6666 11.8389 24.6666 11.8389C24.6666 11.8389 24.6666 11.8388 24.6666 11.8388C24.6666 11.8388 24.6666 11.8388 24.6666 11.8388C24.6666 11.8387 24.6666 11.8387 24.6666 11.8387C24.6666 11.8387 24.6666 11.8386 24.6666 11.8386C24.6666 11.8386 24.6666 11.8386 24.6666 11.8385C24.6666 11.8385 24.6666 11.8385 24.6666 11.8385C24.6666 11.8384 24.6666 11.8384 24.6666 11.8384C24.6666 11.8384 24.6666 11.8383 24.6666 11.8383C24.6666 11.8383 24.6666 11.8383 24.6666 11.8382C24.6666 11.8382 24.6666 11.8382 24.6666 11.8382C24.6666 11.8381 24.6666 11.8381 24.6666 11.8381C24.6666 11.8381 24.6666 11.8381 24.6666 11.838C24.6666 11.838 24.6666 11.838 24.6666 11.838C24.6666 11.8379 24.6666 11.8379 24.6666 11.8379C24.6666 11.8379 24.6666 11.8378 24.6666 11.8378C24.6666 11.8378 24.6666 11.8378 24.6666 11.8377C24.6666 11.8377 24.6666 11.8377 24.6666 11.8377C24.6666 11.8376 24.6666 11.8376 24.6666 11.8376C24.6666 11.8376 24.6666 11.8375 24.6666 11.8375C24.6666 11.8375 24.6666 11.8375 24.6666 11.8374C24.6666 11.8374 24.6666 11.8374 24.6666 11.8374C24.6666 11.8373 24.6666 11.8373 24.6666 11.8373C24.6666 11.8373 24.6666 11.8373 24.6666 11.8372C24.6666 11.8372 24.6666 11.8372 24.6666 11.8372C24.6666 11.8371 24.6666 11.8371 24.6666 11.8371C24.6666 11.8371 24.6666 11.837 24.6666 11.837C24.6666 11.837 24.6666 11.837 24.6666 11.8369C24.6666 11.8369 24.6666 11.8369 24.6666 11.8369C24.6666 11.8368 24.6666 11.8368 24.6666 11.8368C24.6666 11.8368 24.6666 11.8367 24.6666 11.8367C24.6666 11.8367 24.6666 11.8367 24.6666 11.8366C24.6666 11.8366 24.6666 11.8366 24.6666 11.8366C24.6666 11.8365 24.6666 11.8365 24.6666 11.8365C24.6666 11.8365 24.6666 11.8364 24.6666 11.8364C24.6666 11.8364 24.6666 11.8364 24.6666 11.8364C24.6666 11.8363 24.6666 11.8363 24.6666 11.8363C24.6666 11.8363 24.6666 11.8362 24.6666 11.8362C24.6666 11.8362 24.6666 11.8362 24.6666 11.8361C24.6666 11.8361 24.6666 11.8361 24.6666 11.8361C24.6666 11.836 24.6666 11.836 24.6666 11.836C24.6666 11.836 24.6666 11.8359 24.6666 11.8359C24.6666 11.8359 24.6666 11.8359 24.6666 11.8358C24.6666 11.8358 24.6666 11.8358 24.6666 11.8358C24.6666 11.8357 24.6666 11.8357 24.6666 11.8357C24.6666 11.8357 24.6666 11.8356 24.6666 11.8356C24.6666 11.8356 24.6666 11.8356 24.6666 11.8355C24.6666 11.8355 24.6666 11.8355 24.6666 11.8355C24.6666 11.8354 24.6666 11.8354 24.6666 11.8354C24.6666 11.8354 24.6666 11.8354 24.6666 11.8353C24.6666 11.8353 24.6666 11.8353 24.6666 11.8353C24.6666 11.8352 24.6666 11.8352 24.6666 11.8352C24.6666 11.8352 24.6666 11.8351 24.6666 11.8351C24.6666 11.8351 24.6666 11.8351 24.6666 11.835C24.6666 11.835 24.6666 11.835 24.6666 11.835C24.6666 11.8349 24.6666 11.8349 24.6666 11.8349C24.6666 11.8349 24.6666 11.8348 24.6666 11.8348C24.6666 11.8348 24.6666 11.8348 24.6666 11.8347C24.6666 11.8347 24.6666 11.8347 24.6666 11.8347C24.6666 11.8346 24.6666 11.8346 24.6666 11.8346C24.6666 11.8346 24.6666 11.8345 24.6666 11.8345C24.6666 11.8345 24.6666 11.8345 24.6666 11.8344C24.6666 11.8344 24.6666 11.8344 24.6666 11.8344C24.6666 11.8343 24.6666 11.8343 24.6666 11.8343C24.6666 11.8343 24.6666 11.8342 24.6666 11.8342C24.6666 11.8342 24.6666 11.8342 24.6666 11.8341C24.6666 11.8341 24.6666 11.8341 24.6666 11.8341C24.6666 11.8341 24.6666 11.834 24.6666 11.834C24.6666 11.834 24.6666 11.834 24.6666 11.8339C24.6666 11.8339 24.6666 11.8339 24.6666 11.8339C24.6666 11.8338 24.6666 11.8338 24.6666 11.8338C24.6666 11.8338 24.6666 11.8337 24.6666 11.8337C24.6666 11.8337 24.6666 11.8337 24.6666 11.8336C24.6666 11.8336 24.6666 11.8336 24.6666 11.8336C24.6666 11.8335 24.6666 11.8335 24.6666 11.8335C24.6666 11.8335 24.6666 11.8334 24.6666 11.8334C24.6666 11.8334 24.6666 11.8334 24.6666 11.8333H-18ZM-17.9932 12.4083C-17.8306 18.8503 -15.1584 24.9741 -10.5462 29.4744L19.2509 -1.0638C22.6009 2.2049 24.5418 6.65274 24.6599 11.3317L-17.9932 12.4083ZM-10.5462 29.4744C-5.93389 33.9747 0.253682 36.4957 6.69775 36.5L6.72621 -6.16666C11.4067 -6.16354 15.9009 -4.3325 19.2509 -1.0638L-10.5462 29.4744ZM6.71198 36.5H7.33331V-6.16667H6.71198V36.5ZM-14 15.1667V15.8333H28.6666V15.1667H-14ZM-14 15.8333C-14 21.6681 -11.6822 27.2639 -7.55637 31.3897L22.6135 1.21979C26.4893 5.09555 28.6666 10.3522 28.6666 15.8333H-14ZM-7.55637 31.3897C-3.43054 35.5155 2.16525 37.8333 7.99998 37.8333V-4.83333C13.4811 -4.83333 18.7377 -2.65598 22.6135 1.21979L-7.55637 31.3897ZM7.99998 37.8333C13.8347 37.8333 19.4305 35.5155 23.5563 31.3897L-6.61356 1.21979C-2.73778 -2.65598 2.51888 -4.83333 7.99998 -4.83333V37.8333ZM23.5563 31.3897C27.6821 27.2639 30 21.6681 30 15.8333H-12.6667C-12.6667 10.3522 -10.4893 5.09555 -6.61356 1.21979L23.5563 31.3897ZM30 15.8333V15.1667H-12.6667V15.8333H30ZM8.66665 36.5H9.28798V-6.16667H8.66665V36.5ZM9.31076 36.5C15.1751 36.4937 20.8462 34.4021 25.3102 30.5991L-2.3593 -1.87929C0.884068 -4.64244 5.00439 -6.1621 9.2652 -6.16665L9.31076 36.5ZM25.3102 30.5991C29.7742 26.796 32.7403 21.5293 33.6782 15.7404L-8.43916 8.91634C-7.75769 4.71039 -5.60267 0.883854 -2.3593 -1.87929L25.3102 30.5991ZM33.6782 15.7404C34.6162 9.95156 33.4649 4.01777 30.4301 -1.00032L-6.0792 21.0794C-8.28415 17.4335 -9.12063 13.1223 -8.43916 8.91634L33.6782 15.7404ZM30.4301 -1.00032C27.3953 -6.0184 22.6749 -9.79367 17.1125 -11.6514L3.5968 28.818C-0.444576 27.4683 -3.87425 24.7254 -6.0792 21.0794L30.4301 -1.00032ZM17.108 -11.6528L15.42 -12.2162L1.91326 28.2562L3.60126 28.8195L17.108 -11.6528ZM30 8.02V3.16667H-12.6667V8.02H30ZM8.66665 24.5H9.28798V-18.1667H8.66665V24.5ZM3.19764 30.089C-1.14925 28.6422 -4.83921 25.6954 -7.21163 21.7762L29.2885 -0.318589C26.413 -5.06896 21.9404 -8.6407 16.6717 -10.3943L3.19764 30.089ZM-7.21163 21.7762C-9.58404 17.8571 -10.484 13.2214 -9.75034 8.69921L32.3657 15.5319C33.2549 10.0506 32.1641 4.43179 29.2885 -0.318589L-7.21163 21.7762ZM-9.75034 8.69921C-9.01669 4.17704 -6.69735 0.0636382 -3.20756 -2.9045L24.4353 29.5965C28.6652 25.9989 31.4764 21.0131 32.3657 15.5319L-9.75034 8.69921ZM-3.20756 -2.9045C0.282215 -5.87263 4.71454 -7.50169 9.29586 -7.5L9.2801 35.1667C14.833 35.1687 20.2054 33.1942 24.4353 29.5965L-3.20756 -2.9045ZM9.28798 -7.5H8.66665V35.1667H9.28798V-7.5ZM30 13.8333V9.42467H-12.6667V13.8333H30ZM1.92046 29.6632L3.18846 30.0859L16.6808 -10.3912L15.4128 -10.8139L1.92046 29.6632ZM14.0859 -12.6611L12.8192 -13.0838L-0.685935 27.3891L0.580731 27.8118L14.0859 -12.6611ZM12.8037 -13.089C17.1495 -11.6425 20.8388 -8.69682 23.2113 -4.77893L-13.2853 17.3218C-10.4096 22.0706 -5.93788 25.6411 -0.670365 27.3943L12.8037 -13.089ZM23.2113 -4.77893C25.5838 -0.861064 26.4846 3.77323 25.7526 8.29459L-16.3656 1.47565C-17.2529 6.95591 -16.1609 12.5731 -13.2853 17.3218L23.2113 -4.77893ZM25.7526 8.29459C25.0206 12.8159 22.7035 16.9293 19.216 19.8984L-8.4427 -12.5891C-12.6698 -8.99029 -15.4784 -4.00462 -16.3656 1.47565L25.7526 8.29459ZM19.216 19.8984C15.7285 22.8675 11.2982 24.4987 6.718 24.5L6.70595 -18.1667C1.15434 -18.1651 -4.21555 -16.188 -8.4427 -12.5891L19.216 19.8984ZM6.71198 24.5H7.33331V-18.1667H6.71198V24.5ZM-14 3.16667V7.57533H28.6666V3.16667H-14Z" fill="#4D515C" mask="url(#path-1-inside-1_6017_6306)"/>
</g>
<defs>
<clipPath id="clip0_6017_6306">
<rect width="16" height="16" fill="white" transform="translate(0 0.5)"/>
</clipPath>
</defs>
</svg>
