<svg width="12" height="12" viewBox="0 0 12 12" fill="none" xmlns="http://www.w3.org/2000/svg">
<path d="M11.698 9.89L7.81805 6L11.708 2.11C12.098 1.72 12.098 1.09 11.708 0.7C11.318 0.31 10.688 0.31 10.298 0.7L5.70805 5.29C5.31805 5.68 5.31805 6.31 5.70805 6.7L10.298 11.29C10.688 11.68 11.318 11.68 11.708 11.29C12.088 10.91 12.088 10.27 11.698 9.89ZM0.998047 0C1.54805 0 1.99805 0.45 1.99805 1V11C1.99805 11.55 1.54805 12 0.998047 12C0.448047 12 -0.00195312 11.55 -0.00195312 11V1C-0.00195312 0.45 0.448047 0 0.998047 0Z" fill="#969696"/>
</svg>
