<svg width="24" height="24" viewBox="0 0 24 24" fill="none" xmlns="http://www.w3.org/2000/svg">
<mask id="path-1-inside-1_5983_3975" fill="white">
<path d="M10.48 18.9998C10.2177 18.9987 9.9663 18.8946 9.78004 18.7098L5.19004 14.1198C4.62824 13.5573 4.31268 12.7948 4.31268 11.9998C4.31268 11.2048 4.62824 10.4423 5.19004 9.87982L9.78004 5.28982C9.96741 5.10356 10.2209 4.99902 10.485 4.99902C10.7492 4.99902 11.0027 5.10356 11.19 5.28982C11.2838 5.38278 11.3582 5.49338 11.4089 5.61524C11.4597 5.7371 11.4858 5.8678 11.4858 5.99982C11.4858 6.13183 11.4597 6.26253 11.4089 6.38439C11.3582 6.50625 11.2838 6.61685 11.19 6.70982L6.60004 11.2898C6.50632 11.3828 6.43192 11.4934 6.38115 11.6152C6.33038 11.7371 6.30425 11.8678 6.30425 11.9998C6.30425 12.1318 6.33038 12.2625 6.38115 12.3844C6.43192 12.5063 6.50632 12.6169 6.60004 12.7098L11.19 17.2898C11.2838 17.3828 11.3582 17.4934 11.4089 17.6152C11.4597 17.7371 11.4858 17.8678 11.4858 17.9998C11.4858 18.1318 11.4597 18.2625 11.4089 18.3844C11.3582 18.5063 11.2838 18.6169 11.19 18.7098C11.0966 18.8025 10.9858 18.8758 10.864 18.9256C10.7421 18.9754 10.6117 19.0006 10.48 18.9998Z"/>
</mask>
<path d="M10.48 18.9998C10.2177 18.9987 9.9663 18.8946 9.78004 18.7098L5.19004 14.1198C4.62824 13.5573 4.31268 12.7948 4.31268 11.9998C4.31268 11.2048 4.62824 10.4423 5.19004 9.87982L9.78004 5.28982C9.96741 5.10356 10.2209 4.99902 10.485 4.99902C10.7492 4.99902 11.0027 5.10356 11.19 5.28982C11.2838 5.38278 11.3582 5.49338 11.4089 5.61524C11.4597 5.7371 11.4858 5.8678 11.4858 5.99982C11.4858 6.13183 11.4597 6.26253 11.4089 6.38439C11.3582 6.50625 11.2838 6.61685 11.19 6.70982L6.60004 11.2898C6.50632 11.3828 6.43192 11.4934 6.38115 11.6152C6.33038 11.7371 6.30425 11.8678 6.30425 11.9998C6.30425 12.1318 6.33038 12.2625 6.38115 12.3844C6.43192 12.5063 6.50632 12.6169 6.60004 12.7098L11.19 17.2898C11.2838 17.3828 11.3582 17.4934 11.4089 17.6152C11.4597 17.7371 11.4858 17.8678 11.4858 17.9998C11.4858 18.1318 11.4597 18.2625 11.4089 18.3844C11.3582 18.5063 11.2838 18.6169 11.19 18.7098C11.0966 18.8025 10.9858 18.8758 10.864 18.9256C10.7421 18.9754 10.6117 19.0006 10.48 18.9998Z" fill="#96969C"/>
<path d="M10.48 18.9998L10.6034 -2.33316L10.5866 -2.33326L10.5699 -2.33333L10.48 18.9998ZM9.78004 18.7098L-5.3049 33.7948L-5.27407 33.8256L-5.24312 33.8563L9.78004 18.7098ZM5.19004 14.1198L-9.90429 29.1954L-9.8949 29.2048L5.19004 14.1198ZM4.31268 11.9998H-17.0207H4.31268ZM5.19004 9.87982L-9.89491 -5.20513L-9.90429 -5.19574L5.19004 9.87982ZM9.78004 5.28982L-5.25996 -9.83994L-5.28246 -9.81757L-5.3049 -9.79513L9.78004 5.28982ZM10.485 4.99902V-16.3343V4.99902ZM11.19 5.28982L-3.84996 20.4196L-3.84145 20.428L-3.83293 20.4365L11.19 5.28982ZM11.19 6.70982L-3.83293 -8.43685L-3.85572 -8.41424L-3.87844 -8.39157L11.19 6.70982ZM6.60004 11.2898L21.623 26.4365L21.6458 26.4139L21.6685 26.3912L6.60004 11.2898ZM6.30425 11.9998H27.6376H6.30425ZM6.60004 12.7098L21.6685 -2.39157L21.6458 -2.41424L21.623 -2.43685L6.60004 12.7098ZM11.19 17.2898L-3.87844 32.3912L-3.85572 32.4139L-3.83293 32.4365L11.19 17.2898ZM11.19 18.7098L-3.83293 3.56315L-3.83329 3.56351L11.19 18.7098ZM10.5699 -2.33333C15.9042 -2.31087 21.0159 -0.193088 24.8032 3.56334L-5.24312 33.8563C-1.08333 37.9822 4.53124 40.3083 10.3902 40.333L10.5699 -2.33333ZM24.865 3.62487L20.275 -0.965129L-9.8949 29.2048L-5.3049 33.7948L24.865 3.62487ZM20.2844 -0.955739C23.7176 2.48177 25.646 7.14146 25.646 11.9998H-17.0207C-17.0207 18.4482 -14.4611 24.6329 -9.90429 29.1954L20.2844 -0.955739ZM25.646 11.9998C25.646 16.8582 23.7176 21.5179 20.2844 24.9554L-9.90429 -5.19574C-14.4611 -0.633231 -17.0207 5.55146 -17.0207 11.9998H25.646ZM20.275 24.9648L24.865 20.3748L-5.3049 -9.79513L-9.8949 -5.20513L20.275 24.9648ZM24.82 20.4196C21.0103 24.2067 15.8568 26.3324 10.485 26.3324V-16.3343C4.58491 -16.3343 -1.07552 -13.9996 -5.25996 -9.83994L24.82 20.4196ZM10.485 26.3324C5.11328 26.3324 -0.0402455 24.2067 -3.84996 20.4196L26.23 -9.83994C22.0456 -13.9996 16.3852 -16.3343 10.485 -16.3343V26.3324ZM-3.83293 20.4365C-5.73868 18.5463 -7.25139 16.2974 -8.28372 13.8195L31.1016 -2.58906C29.9677 -5.31065 28.3062 -7.78073 26.213 -9.85685L-3.83293 20.4365ZM-8.28372 13.8195C-9.31604 11.3417 -9.84749 8.68398 -9.84749 5.99982H32.8192C32.8192 3.05163 32.2355 0.132537 31.1016 -2.58906L-8.28372 13.8195ZM-9.84749 5.99982C-9.84749 3.31566 -9.31604 0.657972 -8.28372 -1.81991L31.1016 14.5887C32.2355 11.8671 32.8192 8.948 32.8192 5.99982H-9.84749ZM-8.28372 -1.81991C-7.25139 -4.29778 -5.73868 -6.54666 -3.83293 -8.43685L26.213 21.8565C28.3062 19.7804 29.9677 17.3103 31.1016 14.5887L-8.28372 -1.81991ZM-3.87844 -8.39157L-8.46844 -3.81157L21.6685 26.3912L26.2585 21.8112L-3.87844 -8.39157ZM-8.42293 -3.85685C-10.5162 -1.78067 -12.1777 0.689428 -13.3115 3.41094L26.0738 19.8195C25.0415 22.2973 23.5288 24.5462 21.623 26.4365L-8.42293 -3.85685ZM-13.3115 3.41094C-14.4453 6.13244 -15.0291 9.05153 -15.0291 11.9998H27.6376C27.6376 14.6841 27.1061 17.3418 26.0738 19.8195L-13.3115 3.41094ZM-15.0291 11.9998C-15.0291 14.9481 -14.4453 17.8672 -13.3115 20.5887L26.0738 4.18009C27.1061 6.65788 27.6376 9.31555 27.6376 11.9998H-15.0291ZM-13.3115 20.5887C-12.1777 23.3102 -10.5162 25.7803 -8.42293 27.8565L21.623 -2.43685C23.5288 -0.546593 25.0415 1.7023 26.0738 4.18009L-13.3115 20.5887ZM-8.46844 27.8112L-3.87844 32.3912L26.2585 2.18843L21.6685 -2.39157L-8.46844 27.8112ZM-3.83293 32.4365C-5.73864 30.5463 -7.25137 28.2975 -8.28372 25.8195L31.1016 9.41094C29.9677 6.68929 28.3062 4.21923 26.213 2.14315L-3.83293 32.4365ZM-8.28372 25.8195C-9.31604 23.3417 -9.84749 20.684 -9.84749 17.9998H32.8192C32.8192 15.0516 32.2355 12.1325 31.1016 9.41094L-8.28372 25.8195ZM-9.84749 17.9998C-9.84749 15.3157 -9.31604 12.658 -8.28372 10.1801L31.1016 26.5887C32.2355 23.8671 32.8192 20.948 32.8192 17.9998H-9.84749ZM-8.28372 10.1801C-7.25137 7.70217 -5.73864 5.4533 -3.83293 3.56315L26.213 33.8565C28.3062 31.7804 29.9677 29.3103 31.1016 26.5887L-8.28372 10.1801ZM-3.83329 3.56351C-1.93346 1.67911 0.31976 0.188105 2.79728 -0.823841L18.9306 38.675C21.6518 37.5635 24.1267 35.9259 26.2134 33.8561L-3.83329 3.56351ZM2.79728 -0.823841C5.27471 -1.83575 7.92745 -2.34863 10.6034 -2.33316L10.3567 40.3328C13.2959 40.3498 16.2095 39.7865 18.9306 38.675L2.79728 -0.823841Z" fill="#96969C" mask="url(#path-1-inside-1_5983_3975)"/>
<mask id="path-3-inside-2_5983_3975" fill="white">
<path d="M17.4799 18.9998C17.2175 18.9987 16.9661 18.8946 16.7799 18.7098L10.7799 12.7098C10.6861 12.6169 10.6117 12.5063 10.561 12.3844C10.5102 12.2625 10.4841 12.1318 10.4841 11.9998C10.4841 11.8678 10.5102 11.7371 10.561 11.6152C10.6117 11.4934 10.6861 11.3828 10.7799 11.2898L16.7799 5.28982C16.9672 5.10356 17.2207 4.99902 17.4849 4.99902C17.749 4.99902 18.0025 5.10356 18.1899 5.28982C18.2836 5.38278 18.358 5.49338 18.4087 5.61524C18.4595 5.7371 18.4857 5.8678 18.4857 5.99982C18.4857 6.13183 18.4595 6.26253 18.4087 6.38439C18.358 6.50625 18.2836 6.61685 18.1899 6.70982L12.8999 11.9998L18.1899 17.2898C18.2836 17.3828 18.358 17.4934 18.4087 17.6152C18.4595 17.7371 18.4857 17.8678 18.4857 17.9998C18.4857 18.1318 18.4595 18.2625 18.4087 18.3844C18.358 18.5063 18.2836 18.6169 18.1899 18.7098C18.0964 18.8025 17.9856 18.8758 17.8638 18.9256C17.7419 18.9754 17.6115 19.0006 17.4799 18.9998Z"/>
</mask>
<path d="M17.4799 18.9998C17.2175 18.9987 16.9661 18.8946 16.7799 18.7098L10.7799 12.7098C10.6861 12.6169 10.6117 12.5063 10.561 12.3844C10.5102 12.2625 10.4841 12.1318 10.4841 11.9998C10.4841 11.8678 10.5102 11.7371 10.561 11.6152C10.6117 11.4934 10.6861 11.3828 10.7799 11.2898L16.7799 5.28982C16.9672 5.10356 17.2207 4.99902 17.4849 4.99902C17.749 4.99902 18.0025 5.10356 18.1899 5.28982C18.2836 5.38278 18.358 5.49338 18.4087 5.61524C18.4595 5.7371 18.4857 5.8678 18.4857 5.99982C18.4857 6.13183 18.4595 6.26253 18.4087 6.38439C18.358 6.50625 18.2836 6.61685 18.1899 6.70982L12.8999 11.9998L18.1899 17.2898C18.2836 17.3828 18.358 17.4934 18.4087 17.6152C18.4595 17.7371 18.4857 17.8678 18.4857 17.9998C18.4857 18.1318 18.4595 18.2625 18.4087 18.3844C18.358 18.5063 18.2836 18.6169 18.1899 18.7098C18.0964 18.8025 17.9856 18.8758 17.8638 18.9256C17.7419 18.9754 17.6115 19.0006 17.4799 18.9998Z" fill="#96969C"/>
<path d="M17.4799 18.9998L17.6032 -2.33316L17.5864 -2.33326L17.5697 -2.33333L17.4799 18.9998ZM16.7799 18.7098L1.6949 33.7948L1.72573 33.8256L1.75669 33.8563L16.7799 18.7098ZM10.7799 12.7098L25.8648 -2.37512L25.8339 -2.40604L25.8029 -2.43684L10.7799 12.7098ZM10.4841 11.9998H31.8174H10.4841ZM10.7799 11.2898L25.8029 26.4365L25.8339 26.4057L25.8648 26.3748L10.7799 11.2898ZM16.7799 5.28982L1.73984 -9.83993L1.71734 -9.81756L1.6949 -9.79512L16.7799 5.28982ZM18.1899 5.28982L3.14984 20.4196L3.15835 20.428L3.16687 20.4365L18.1899 5.28982ZM18.1899 6.70982L3.16687 -8.43684L3.13582 -8.40604L3.1049 -8.37512L18.1899 6.70982ZM12.8999 11.9998L-2.18509 -3.08512L-17.27 11.9998L-2.18509 27.0847L12.8999 11.9998ZM18.1899 17.2898L3.1049 32.3748L3.13582 32.4057L3.16687 32.4365L18.1899 17.2898ZM18.1899 18.7098L3.16687 3.56316L3.16651 3.56352L18.1899 18.7098ZM17.5697 -2.33333C22.904 -2.31087 28.0158 -0.193063 31.803 3.56335L1.75669 33.8563C5.91645 37.9822 11.531 40.3083 17.39 40.333L17.5697 -2.33333ZM31.8648 3.62488L25.8648 -2.37512L-4.30509 27.7948L1.6949 33.7948L31.8648 3.62488ZM25.8029 -2.43684C27.7087 -0.546578 29.2213 1.70232 30.2536 4.18011L-9.13168 20.5887C-7.99786 23.3102 -6.33639 25.7803 -4.24312 27.8565L25.8029 -2.43684ZM30.2536 4.18011C31.2859 6.65789 31.8174 9.31556 31.8174 11.9998H-10.8493C-10.8493 14.9481 -10.2655 17.8672 -9.13168 20.5887L30.2536 4.18011ZM31.8174 11.9998C31.8174 14.6841 31.2859 17.3417 30.2536 19.8195L-9.13168 3.41095C-10.2655 6.13245 -10.8493 9.05153 -10.8493 11.9998H31.8174ZM30.2536 19.8195C29.2213 22.2973 27.7087 24.5462 25.8029 26.4365L-4.24312 -3.85684C-6.33639 -1.78065 -7.99786 0.689444 -9.13168 3.41095L30.2536 19.8195ZM25.8648 26.3748L31.8648 20.3747L1.6949 -9.79512L-4.30509 -3.79512L25.8648 26.3748ZM31.8199 20.4196C28.0102 24.2067 22.8566 26.3324 17.4849 26.3324V-16.3343C11.5847 -16.3343 5.92428 -13.9995 1.73984 -9.83993L31.8199 20.4196ZM17.4849 26.3324C12.1131 26.3324 6.95955 24.2067 3.14984 20.4196L33.2299 -9.83993C29.0454 -13.9995 23.385 -16.3343 17.4849 -16.3343V26.3324ZM3.16687 20.4365C1.26105 18.5462 -0.251623 16.2973 -1.28391 13.8195L38.1014 -2.58905C36.9676 -5.31056 35.3061 -7.78065 33.2128 -9.85684L3.16687 20.4365ZM-1.28391 13.8195C-2.31624 11.3417 -2.84768 8.68397 -2.84768 5.99982H39.819C39.819 3.05164 39.2353 0.132546 38.1014 -2.58905L-1.28391 13.8195ZM-2.84768 5.99982C-2.84768 3.31566 -2.31624 0.657981 -1.28391 -1.8199L38.1014 14.5887C39.2353 11.8671 39.819 8.94799 39.819 5.99982H-2.84768ZM-1.28391 -1.8199C-0.251623 -4.29768 1.26105 -6.54658 3.16687 -8.43684L33.2128 21.8565C35.3061 19.7803 36.9676 17.3102 38.1014 14.5887L-1.28391 -1.8199ZM3.1049 -8.37512L-2.18509 -3.08512L27.9848 27.0847L33.2748 21.7947L3.1049 -8.37512ZM-2.18509 27.0847L3.1049 32.3748L33.2748 2.20489L27.9848 -3.08511L-2.18509 27.0847ZM3.16687 32.4365C1.2611 30.5463 -0.2516 28.2974 -1.28391 25.8195L38.1014 9.41095C36.9676 6.68939 35.3061 4.21931 33.2128 2.14317L3.16687 32.4365ZM-1.28391 25.8195C-2.31624 23.3417 -2.84768 20.684 -2.84768 17.9998H39.819C39.819 15.0516 39.2353 12.1325 38.1014 9.41095L-1.28391 25.8195ZM-2.84768 17.9998C-2.84768 15.3157 -2.31624 12.658 -1.28391 10.1801L38.1014 26.5887C39.2353 23.8671 39.819 20.948 39.819 17.9998H-2.84768ZM-1.28391 10.1801C-0.2516 7.70226 1.2611 5.45338 3.16687 3.56316L33.2128 33.8565C35.3061 31.7803 36.9676 29.3102 38.1014 26.5887L-1.28391 10.1801ZM3.16651 3.56352C5.06638 1.67908 7.31961 0.188091 9.79708 -0.823836L25.9304 38.675C28.6516 37.5636 31.1265 35.9259 33.2132 33.8561L3.16651 3.56352ZM9.79708 -0.823836C12.2745 -1.83574 14.9273 -2.34863 17.6032 -2.33316L17.3565 40.3328C20.2957 40.3498 23.2093 39.7865 25.9304 38.675L9.79708 -0.823836Z" fill="#96969C" mask="url(#path-3-inside-2_5983_3975)"/>
</svg>
