<svg width="16" height="16" viewBox="0 0 16 16" fill="none" xmlns="http://www.w3.org/2000/svg">
<g clip-path="url(#clip0_6017_6328)">
<path d="M15.5137 6.27917C14.4797 4.59517 12.1277 1.76984 7.99973 1.76984C3.87173 1.76984 1.51973 4.59517 0.485729 6.27917C0.166081 6.79617 -0.00323486 7.392 -0.00323486 7.99984C-0.00323486 8.60768 0.166081 9.2035 0.485729 9.7205C1.51973 11.4045 3.87173 14.2298 7.99973 14.2298C12.1277 14.2298 14.4797 11.4045 15.5137 9.7205C15.8334 9.2035 16.0027 8.60768 16.0027 7.99984C16.0027 7.392 15.8334 6.79617 15.5137 6.27917ZM14.3771 9.0225C13.4891 10.4665 11.4791 12.8965 7.99973 12.8965C4.5204 12.8965 2.5104 10.4665 1.6224 9.0225C1.43249 8.7152 1.3319 8.36109 1.3319 7.99984C1.3319 7.63859 1.43249 7.28447 1.6224 6.97717C2.5104 5.53317 4.5204 3.10317 7.99973 3.10317C11.4791 3.10317 13.4891 5.5305 14.3771 6.97717C14.567 7.28447 14.6676 7.63859 14.6676 7.99984C14.6676 8.36109 14.567 8.7152 14.3771 9.0225Z" fill="#6F727A"/>
<path d="M8.00002 4.66648C7.34075 4.66648 6.69628 4.86198 6.14812 5.22825C5.59996 5.59452 5.17272 6.11512 4.92042 6.72421C4.66813 7.33329 4.60212 8.00352 4.73074 8.65012C4.85936 9.29672 5.17682 9.89067 5.643 10.3568C6.10917 10.823 6.70312 11.1405 7.34972 11.2691C7.99632 11.3977 8.66655 11.3317 9.27563 11.0794C9.88472 10.8271 10.4053 10.3999 10.7716 9.85172C11.1379 9.30355 11.3334 8.65909 11.3334 7.99982C11.3323 7.11609 10.9808 6.26886 10.3559 5.64396C9.73098 5.01907 8.88375 4.66754 8.00002 4.66648ZM8.00002 9.99982C7.60446 9.99982 7.21778 9.88252 6.88888 9.66276C6.55998 9.44299 6.30364 9.13064 6.15226 8.76518C6.00089 8.39973 5.96128 7.9976 6.03845 7.60964C6.11562 7.22167 6.3061 6.86531 6.58581 6.5856C6.86551 6.3059 7.22188 6.11542 7.60984 6.03825C7.9978 5.96108 8.39994 6.00068 8.76539 6.15206C9.13084 6.30343 9.4432 6.55978 9.66296 6.88868C9.88272 7.21758 10 7.60425 10 7.99982C10 8.53025 9.78931 9.03896 9.41424 9.41403C9.03916 9.7891 8.53045 9.99982 8.00002 9.99982Z" fill="#6F727A"/>
</g>
<defs>
<clipPath id="clip0_6017_6328">
<rect width="16" height="16" fill="white"/>
</clipPath>
</defs>
</svg>
