<svg width="16" height="16" viewBox="0 0 16 16" fill="none" xmlns="http://www.w3.org/2000/svg">
<g clip-path="url(#clip0_85_5311)">
<path d="M8.0024 16.0048C12.422 16.0048 16.0048 12.422 16.0048 8.0024C16.0048 3.5828 12.422 0 8.0024 0C3.5828 0 0 3.5828 0 8.0024C0 12.422 3.5828 16.0048 8.0024 16.0048Z" fill="#0CAA41"/>
<path fill-rule="evenodd" clip-rule="evenodd" d="M5.3335 4.45459V11.7033C5.3335 12.1978 5.82795 12.529 6.27919 12.3418L10.0668 10.7672C10.4268 10.6184 10.662 10.268 10.662 9.87914V5.32348L9.78354 5.27068V9.42309C9.78354 9.73032 9.59152 10.0087 9.30829 10.1096L6.90805 10.9784V5.22267C6.90805 4.87704 7.21048 4.60821 7.55132 4.64661L10.6716 5.00185V4.43059L6.332 3.61931C5.80874 3.5233 5.3335 3.92174 5.3335 4.45459Z" fill="white"/>
</g>
<defs>
<clipPath id="clip0_85_5311">
<rect width="16" height="16" fill="white"/>
</clipPath>
</defs>
</svg>
