<svg width="24" height="24" viewBox="0 0 24 24" fill="none" xmlns="http://www.w3.org/2000/svg">
<path d="M15.1126 7.55643H15.1876L15.1501 7.51893L17.7751 4.89393V4.83768C15.5626 2.88768 12.5063 2.21268 9.6751 3.05643C6.84385 3.90018 4.66885 6.15018 3.88135 9.00018C3.91885 8.98143 3.9751 8.96268 4.03135 8.96268C5.00635 8.32518 6.16885 7.95018 7.3876 7.95018C7.8001 7.95018 8.19385 7.98768 8.5876 8.06268C8.60635 8.04393 8.6251 8.04393 8.64385 8.04393C10.3313 6.18768 13.1813 5.96268 15.1313 7.55643H15.1126Z" fill="#EA4535"/>
<path d="M20.2687 8.96247C19.8374 7.36872 18.9374 5.92498 17.6812 4.81873L14.9999 7.48123C16.1249 8.39998 16.7812 9.78747 16.7437 11.2312V11.7C19.9124 11.7 19.9124 16.425 16.7437 16.425H11.9812V20.175H11.9624L11.9812 20.2125H16.7437C19.4812 20.2312 21.8999 18.4687 22.7062 15.8812C23.5124 13.2937 22.5187 10.4812 20.2687 8.96247V8.96247Z" fill="#557EBF"/>
<path d="M7.31269 20.2313H12.2439V16.4438H7.31269C6.95644 16.4438 6.61894 16.3688 6.30019 16.2375L3.4502 18.975V19.0125C4.5752 19.8188 5.92519 20.25 7.33144 20.25L7.31269 20.2313Z" fill="#36A852"/>
<path d="M7.53772 7.8562C4.74397 7.87495 2.26897 9.59995 1.36897 12.1312C0.46897 14.6812 1.36897 17.475 3.58147 19.125L6.50647 16.3312C4.89397 15.6375 4.51897 13.6125 5.75647 12.4312C6.99397 11.2312 9.09397 11.6062 9.82522 13.1437L12.7502 10.35C11.5127 8.7937 9.58147 7.87495 7.53772 7.8937V7.8562Z" fill="#F9BC15"/>
</svg>
