<svg width="20" height="20" viewBox="0 0 20 20" fill="none" xmlns="http://www.w3.org/2000/svg">
<g clip-path="url(#clip0_60_344)">
<path d="M8.33594 10.8334C8.69385 11.3119 9.15047 11.7078 9.67484 11.9943C10.1992 12.2808 10.7791 12.4512 11.3751 12.4939C11.9711 12.5365 12.5693 12.4506 13.1291 12.2417C13.689 12.0329 14.1974 11.7061 14.6198 11.2835L17.12 8.78327C17.8791 7.99736 18.2991 6.94476 18.2896 5.85218C18.2801 4.7596 17.8419 3.71446 17.0693 2.94186C16.2967 2.16926 15.2515 1.73101 14.1589 1.72152C13.0664 1.71203 12.0138 2.13204 11.2279 2.8911L9.7944 4.31622" stroke="#3D3D3D" stroke-width="1.66678" stroke-linecap="round" stroke-linejoin="round"/>
<path d="M11.6696 9.16666C11.3117 8.68818 10.8551 8.29227 10.3307 8.00578C9.80636 7.71929 9.22651 7.54893 8.6305 7.50624C8.0345 7.46356 7.43629 7.54955 6.87644 7.75839C6.31659 7.96723 5.80821 8.29403 5.38577 8.71663L2.88555 11.2168C2.1265 12.0027 1.70648 13.0553 1.71598 14.1479C1.72547 15.2405 2.16371 16.2857 2.93631 17.0582C3.70891 17.8308 4.75405 18.2691 5.84663 18.2786C6.93921 18.2881 7.99181 17.8681 8.77772 17.109L10.2028 15.6839" stroke="#3D3D3D" stroke-width="1.66678" stroke-linecap="round" stroke-linejoin="round"/>
</g>
<defs>
<clipPath id="clip0_60_344">
<rect width="20.0017" height="20.0017" fill="white" transform="translate(0.00195312 -0.000854492)"/>
</clipPath>
</defs>
</svg>
