<svg width="16" height="17" viewBox="0 0 16 17" fill="none" xmlns="http://www.w3.org/2000/svg">
<g clip-path="url(#clip0_5983_3713)">
<path d="M8.00007 4.49983C7.47265 4.49983 6.95708 4.65622 6.51855 4.94924C6.08002 5.24226 5.73822 5.65873 5.53639 6.146C5.33455 6.63327 5.28175 7.16945 5.38464 7.68673C5.48753 8.20402 5.74151 8.67917 6.11445 9.05211C6.48739 9.42505 6.96254 9.67903 7.47983 9.78192C7.99711 9.88482 8.53329 9.83201 9.02056 9.63017C9.50783 9.42834 9.9243 9.08655 10.2173 8.64801C10.5103 8.20948 10.6667 7.69391 10.6667 7.16649C10.6667 6.45925 10.3858 5.78097 9.88569 5.28088C9.38559 4.78078 8.70731 4.49983 8.00007 4.49983ZM8.00007 8.49983C7.73636 8.49983 7.47857 8.42163 7.25931 8.27512C7.04004 8.12861 6.86914 7.92037 6.76823 7.67674C6.66731 7.4331 6.64091 7.16501 6.69235 6.90637C6.7438 6.64773 6.87079 6.41016 7.05726 6.22369C7.24373 6.03722 7.48131 5.91023 7.73995 5.85878C7.99859 5.80733 8.26668 5.83374 8.51031 5.93465C8.75395 6.03557 8.96218 6.20647 9.10869 6.42573C9.2552 6.645 9.3334 6.90279 9.3334 7.16649C9.3334 7.52012 9.19292 7.85925 8.94288 8.1093C8.69283 8.35935 8.35369 8.49983 8.00007 8.49983Z" fill="#4D515C"/>
<path d="M8.00021 16.5C7.43884 16.5029 6.88495 16.3712 6.38492 16.1161C5.88489 15.8609 5.45327 15.4896 5.12621 15.0334C2.58554 11.5287 1.29688 8.89402 1.29688 7.20202C1.29688 5.42419 2.00312 3.71917 3.26024 2.46205C4.51735 1.20493 6.22237 0.498688 8.00021 0.498688C9.77804 0.498688 11.4831 1.20493 12.7402 2.46205C13.9973 3.71917 14.7035 5.42419 14.7035 7.20202C14.7035 8.89402 13.4149 11.5287 10.8742 15.0334C10.5471 15.4896 10.1155 15.8609 9.6155 16.1161C9.11547 16.3712 8.56158 16.5029 8.00021 16.5ZM8.00021 1.95402C6.60849 1.95561 5.27422 2.50917 4.29012 3.49327C3.30603 4.47737 2.75246 5.81163 2.75087 7.20336C2.75087 8.54336 4.01287 11.0214 6.30354 14.1807C6.498 14.4485 6.75312 14.6665 7.04802 14.8169C7.34291 14.9672 7.66921 15.0456 8.00021 15.0456C8.33121 15.0456 8.6575 14.9672 8.9524 14.8169C9.24729 14.6665 9.50241 14.4485 9.69687 14.1807C11.9875 11.0214 13.2495 8.54336 13.2495 7.20336C13.248 5.81163 12.6944 4.47737 11.7103 3.49327C10.7262 2.50917 9.39193 1.95561 8.00021 1.95402Z" fill="#4D515C"/>
</g>
<defs>
<clipPath id="clip0_5983_3713">
<rect width="16" height="16" fill="white" transform="translate(0 0.5)"/>
</clipPath>
</defs>
</svg>
