<svg width="20" height="20" viewBox="0 0 20 20" fill="none" xmlns="http://www.w3.org/2000/svg">
<path d="M10.0009 10.8334C10.4612 10.8334 10.8343 10.4603 10.8343 10C10.8343 9.53972 10.4612 9.1666 10.0009 9.1666C9.54061 9.1666 9.16748 9.53972 9.16748 10C9.16748 10.4603 9.54061 10.8334 10.0009 10.8334Z" stroke="#6F727A" stroke-width="2" stroke-linecap="round" stroke-linejoin="round"/>
<path d="M10.0009 4.99957C10.4612 4.99957 10.8343 4.62644 10.8343 4.16617C10.8343 3.70589 10.4612 3.33276 10.0009 3.33276C9.54061 3.33276 9.16748 3.70589 9.16748 4.16617C9.16748 4.62644 9.54061 4.99957 10.0009 4.99957Z" stroke="#6F727A" stroke-width="2" stroke-linecap="round" stroke-linejoin="round"/>
<path d="M10.0009 16.6672C10.4612 16.6672 10.8343 16.2941 10.8343 15.8338C10.8343 15.3736 10.4612 15.0004 10.0009 15.0004C9.54061 15.0004 9.16748 15.3736 9.16748 15.8338C9.16748 16.2941 9.54061 16.6672 10.0009 16.6672Z" stroke="#6F727A" stroke-width="2" stroke-linecap="round" stroke-linejoin="round"/>
</svg>
