<svg width="16" height="16" viewBox="0 0 16 16" fill="none" xmlns="http://www.w3.org/2000/svg">
<path fill-rule="evenodd" clip-rule="evenodd" d="M4 4.66665C4 3.56208 4.89543 2.66665 6 2.66665C7.10457 2.66665 8 3.56208 8 4.66665C8 5.77122 7.10457 6.66665 6 6.66665C4.89543 6.66665 4 5.77122 4 4.66665ZM6 1.33331C4.15905 1.33331 2.66667 2.8257 2.66667 4.66665C2.66667 6.5076 4.15905 7.99998 6 7.99998C7.84095 7.99998 9.33333 6.5076 9.33333 4.66665C9.33333 2.8257 7.84095 1.33331 6 1.33331ZM3.33333 9.33331C2.44928 9.33331 1.60143 9.6845 0.976311 10.3096C0.35119 10.9347 0 11.7826 0 12.6666V14C0 14.3682 0.298477 14.6666 0.666667 14.6666C1.03486 14.6666 1.33333 14.3682 1.33333 14V12.6666C1.33333 12.1362 1.54405 11.6275 1.91912 11.2524C2.29419 10.8774 2.8029 10.6666 3.33333 10.6666H8.66667C9.1971 10.6666 9.70581 10.8774 10.0809 11.2524C10.456 11.6275 10.6667 12.1362 10.6667 12.6666V14C10.6667 14.3682 10.9651 14.6666 11.3333 14.6666C11.7015 14.6666 12 14.3682 12 14V12.6666C12 11.7826 11.6488 10.9347 11.0237 10.3096C10.3986 9.6845 9.55072 9.33331 8.66667 9.33331H3.33333ZM12.6878 9.91998C12.7799 9.56349 13.1435 9.34911 13.5 9.44115C14.2151 9.62579 14.8486 10.0427 15.3011 10.6264C15.7536 11.2101 15.9994 11.9276 16 12.6662V12.6666V14C16 14.3682 15.7015 14.6666 15.3333 14.6666C14.9651 14.6666 14.6667 14.3682 14.6667 14V12.6671V12.6669C14.6663 12.2239 14.5188 11.7935 14.2474 11.4433C13.9759 11.0931 13.5957 10.8429 13.1667 10.7321C12.8102 10.6401 12.5958 10.2765 12.6878 9.91998ZM10.832 1.44082C10.4753 1.34949 10.1122 1.56461 10.0208 1.92129C9.92951 2.27797 10.1446 2.64116 10.5013 2.73248C10.9315 2.84263 11.3128 3.09283 11.5851 3.44364C11.8574 3.79444 12.0052 4.2259 12.0052 4.66998C12.0052 5.11407 11.8574 5.54552 11.5851 5.89633C11.3128 6.24713 10.9315 6.49733 10.5013 6.60748C10.1446 6.69881 9.92951 7.06199 10.0208 7.41868C10.1122 7.77536 10.4753 7.99048 10.832 7.89915C11.549 7.71557 12.1846 7.29856 12.6384 6.71389C13.0922 6.12922 13.3386 5.41013 13.3386 4.66998C13.3386 3.92984 13.0922 3.21075 12.6384 2.62607C12.1846 2.0414 11.549 1.6244 10.832 1.44082Z" fill="#6F727A"/>
</svg>
