<svg width="24" height="24" viewBox="0 0 24 24" fill="none" xmlns="http://www.w3.org/2000/svg">
<mask id="path-1-inside-1_5983_3992" fill="white">
<path d="M15.3998 9.87982L10.8098 5.28982C10.6224 5.10356 10.369 4.99902 10.1048 4.99902C9.84062 4.99902 9.58716 5.10356 9.3998 5.28982C9.30607 5.38278 9.23168 5.49338 9.18091 5.61524C9.13014 5.7371 9.104 5.8678 9.104 5.99982C9.104 6.13183 9.13014 6.26253 9.18091 6.38439C9.23168 6.50625 9.30607 6.61685 9.3998 6.70982L13.9998 11.2898C14.0935 11.3828 14.1679 11.4934 14.2187 11.6152C14.2695 11.7371 14.2956 11.8678 14.2956 11.9998C14.2956 12.1318 14.2695 12.2625 14.2187 12.3844C14.1679 12.5063 14.0935 12.6169 13.9998 12.7098L9.3998 17.2898C9.2115 17.4768 9.10518 17.7309 9.10425 17.9963C9.10331 18.2616 9.20783 18.5165 9.3948 18.7048C9.58178 18.8931 9.8359 18.9994 10.1013 19.0004C10.3666 19.0013 10.6215 18.8968 10.8098 18.7098L15.3998 14.1198C15.9616 13.5573 16.2772 12.7948 16.2772 11.9998C16.2772 11.2048 15.9616 10.4423 15.3998 9.87982Z"/>
</mask>
<path d="M15.3998 9.87982L10.8098 5.28982C10.6224 5.10356 10.369 4.99902 10.1048 4.99902C9.84062 4.99902 9.58716 5.10356 9.3998 5.28982C9.30607 5.38278 9.23168 5.49338 9.18091 5.61524C9.13014 5.7371 9.104 5.8678 9.104 5.99982C9.104 6.13183 9.13014 6.26253 9.18091 6.38439C9.23168 6.50625 9.30607 6.61685 9.3998 6.70982L13.9998 11.2898C14.0935 11.3828 14.1679 11.4934 14.2187 11.6152C14.2695 11.7371 14.2956 11.8678 14.2956 11.9998C14.2956 12.1318 14.2695 12.2625 14.2187 12.3844C14.1679 12.5063 14.0935 12.6169 13.9998 12.7098L9.3998 17.2898C9.2115 17.4768 9.10518 17.7309 9.10425 17.9963C9.10331 18.2616 9.20783 18.5165 9.3948 18.7048C9.58178 18.8931 9.8359 18.9994 10.1013 19.0004C10.3666 19.0013 10.6215 18.8968 10.8098 18.7098L15.3998 14.1198C15.9616 13.5573 16.2772 12.7948 16.2772 11.9998C16.2772 11.2048 15.9616 10.4423 15.3998 9.87982Z" fill="#6F727A"/>
<path d="M10.8098 5.28982L25.8948 -9.79513L25.8723 -9.81757L25.8498 -9.83994L10.8098 5.28982ZM10.1048 4.99902V-16.3343V4.99902ZM9.3998 5.28982L24.4228 20.4365L24.4313 20.428L24.4398 20.4196L9.3998 5.28982ZM9.3998 6.70982L24.4518 -8.40796L24.4373 -8.42242L24.4228 -8.43685L9.3998 6.70982ZM13.9998 11.2898L-1.05224 26.4076L-1.03772 26.4221L-1.02317 26.4365L13.9998 11.2898ZM14.2956 11.9998H-7.03773H14.2956ZM13.9998 12.7098L-1.02317 -2.43685L-1.03772 -2.42242L-1.05224 -2.40796L13.9998 12.7098ZM9.3998 17.2898L24.4313 32.428L24.4416 32.4178L24.4518 32.4076L9.3998 17.2898ZM10.8098 18.7098L25.8414 33.848L25.8681 33.8214L25.8947 33.7948L10.8098 18.7098ZM15.3998 14.1198L30.4848 29.2048L30.4941 29.1954L15.3998 14.1198ZM30.4847 -5.20513L25.8948 -9.79513L-4.27514 20.3748L0.314857 24.9648L30.4847 -5.20513ZM25.8498 -9.83994C21.6654 -13.9996 16.0049 -16.3343 10.1048 -16.3343V26.3324C4.73306 26.3324 -0.420471 24.2067 -4.2302 20.4196L25.8498 -9.83994ZM10.1048 -16.3343C4.20467 -16.3343 -1.45576 -13.9996 -5.6402 -9.83994L24.4398 20.4196C20.6301 24.2067 15.4766 26.3324 10.1048 26.3324V-16.3343ZM-5.62317 -9.85685C-7.71645 -7.78067 -9.37791 -5.31057 -10.5117 -2.58906L28.8736 13.8195C27.8413 16.2973 26.3286 18.5462 24.4228 20.4365L-5.62317 -9.85685ZM-10.5117 -2.58906C-11.6456 0.132442 -12.2293 3.05153 -12.2293 5.99982H30.4373C30.4373 8.68408 29.9059 11.3418 28.8736 13.8195L-10.5117 -2.58906ZM-12.2293 5.99982C-12.2293 8.9481 -11.6456 11.8672 -10.5117 14.5887L28.8736 -1.81991C29.9059 0.657876 30.4373 3.31555 30.4373 5.99982H-12.2293ZM-10.5117 14.5887C-9.37791 17.3102 -7.71645 19.7803 -5.62317 21.8565L24.4228 -8.43685C26.3286 -6.54659 27.8413 -4.2977 28.8736 -1.81991L-10.5117 14.5887ZM-5.65224 21.8276L-1.05224 26.4076L29.0518 -3.82796L24.4518 -8.40796L-5.65224 21.8276ZM-1.02317 26.4365C-2.92899 24.5462 -4.44167 22.2973 -5.47396 19.8195L33.9113 3.41094C32.7775 0.689428 31.1161 -1.78067 29.0228 -3.85685L-1.02317 26.4365ZM-5.47396 19.8195C-6.50625 17.3418 -7.03773 14.6841 -7.03773 11.9998H35.6289C35.6289 9.05153 35.0452 6.13244 33.9113 3.41094L-5.47396 19.8195ZM-7.03773 11.9998C-7.03773 9.31555 -6.50625 6.65788 -5.47396 4.18009L33.9113 20.5887C35.0452 17.8672 35.6289 14.9481 35.6289 11.9998H-7.03773ZM-5.47396 4.18009C-4.44167 1.7023 -2.92899 -0.546593 -1.02317 -2.43685L29.0228 27.8565C31.1161 25.7803 32.7775 23.3102 33.9113 20.5887L-5.47396 4.18009ZM-1.05224 -2.40796L-5.65224 2.17204L24.4518 32.4076L29.0518 27.8276L-1.05224 -2.40796ZM-5.63175 2.15166C-9.83491 6.32523 -12.208 11.9976 -12.229 17.9209L30.4374 18.0717C30.4184 23.4643 28.2579 28.6284 24.4313 32.428L-5.63175 2.15166ZM-12.229 17.9209C-12.2499 23.8442 -9.91692 29.5332 -5.74335 33.7364L24.533 3.67327C28.3326 7.49983 30.4565 12.6791 30.4374 18.0717L-12.229 17.9209ZM-5.74335 33.7364C-1.56981 37.9395 4.10254 40.3126 10.0259 40.3336L10.1766 -2.33283C15.5693 -2.31377 20.7334 -0.153268 24.533 3.67327L-5.74335 33.7364ZM10.0259 40.3336C15.9492 40.3545 21.6382 38.0215 25.8414 33.848L-4.22174 3.57166C-0.395219 -0.227916 4.78401 -2.35188 10.1766 -2.33283L10.0259 40.3336ZM25.8947 33.7948L30.4847 29.2048L0.314857 -0.965128L-4.27514 3.62487L25.8947 33.7948ZM30.4941 29.1954C35.051 24.6329 37.6105 18.4482 37.6105 11.9998H-5.05617C-5.05617 7.14144 -3.12774 2.48175 0.305474 -0.955739L30.4941 29.1954ZM37.6105 11.9998C37.6105 5.55144 35.051 -0.633243 30.4941 -5.19574L0.305474 24.9554C-3.12774 21.5179 -5.05617 16.8582 -5.05617 11.9998H37.6105Z" fill="#6F727A" mask="url(#path-1-inside-1_5983_3992)"/>
</svg>
