<svg width="20" height="21" viewBox="0 0 20 21" fill="none" xmlns="http://www.w3.org/2000/svg">
<path d="M13.1292 12.3792H12.4709L12.2375 12.1542C13.0542 11.2042 13.5459 9.97083 13.5459 8.62916C13.5459 5.63749 11.1209 3.21249 8.12919 3.21249C5.13752 3.21249 2.71252 5.63749 2.71252 8.62916C2.71252 11.6208 5.13752 14.0458 8.12919 14.0458C9.47086 14.0458 10.7042 13.5542 11.6542 12.7375L11.8792 12.9708V13.6292L16.0459 17.7875L17.2875 16.5458L13.1292 12.3792ZM8.12919 12.3792C6.05419 12.3792 4.37919 10.7042 4.37919 8.62916C4.37919 6.55416 6.05419 4.87916 8.12919 4.87916C10.2042 4.87916 11.8792 6.55416 11.8792 8.62916C11.8792 10.7042 10.2042 12.3792 8.12919 12.3792Z" fill="#74777F"/>
</svg>
