<svg width="20" height="20" viewBox="0 0 20 20" fill="none" xmlns="http://www.w3.org/2000/svg">
<g clip-path="url(#clip0_5519_56)">
<path d="M19.1667 18.3333H2.5C2.27899 18.3333 2.06702 18.2455 1.91074 18.0893C1.75446 17.933 1.66667 17.721 1.66667 17.5V0.833333C1.66667 0.61232 1.57887 0.400358 1.42259 0.244078C1.26631 0.0877974 1.05435 0 0.833333 0C0.61232 0 0.400358 0.0877974 0.244078 0.244078C0.0877974 0.400358 0 0.61232 0 0.833333V17.5C0 18.163 0.263392 18.7989 0.732233 19.2678C1.20107 19.7366 1.83696 20 2.5 20H19.1667C19.3877 20 19.5996 19.9122 19.7559 19.7559C19.9122 19.5996 20 19.3877 20 19.1667C20 18.9457 19.9122 18.7337 19.7559 18.5774C19.5996 18.4211 19.3877 18.3333 19.1667 18.3333Z" fill="#1C1F29"/>
<path d="M12.5 16.6673C12.721 16.6673 12.933 16.5795 13.0893 16.4232C13.2455 16.2669 13.3333 16.055 13.3333 15.8339V10.0006C13.3333 9.7796 13.2455 9.56763 13.0893 9.41136C12.933 9.25507 12.721 9.16728 12.5 9.16728C12.279 9.16728 12.067 9.25507 11.9107 9.41136C11.7545 9.56763 11.6667 9.7796 11.6667 10.0006V15.8339C11.6667 16.055 11.7545 16.2669 11.9107 16.4232C12.067 16.5795 12.279 16.6673 12.5 16.6673Z" fill="#1C1F29"/>
<path d="M5.83333 16.6673C6.05435 16.6673 6.26631 16.5795 6.42259 16.4232C6.57887 16.2669 6.66666 16.055 6.66666 15.8339V10.0006C6.66666 9.7796 6.57887 9.56763 6.42259 9.41136C6.26631 9.25507 6.05435 9.16728 5.83333 9.16728C5.61232 9.16728 5.40036 9.25507 5.24408 9.41136C5.0878 9.56763 5 9.7796 5 10.0006V15.8339C5 16.055 5.0878 16.2669 5.24408 16.4232C5.40036 16.5795 5.61232 16.6673 5.83333 16.6673Z" fill="#1C1F29"/>
<path d="M15.8333 16.6667C16.0544 16.6667 16.2663 16.5789 16.4226 16.4226C16.5789 16.2663 16.6667 16.0543 16.6667 15.8333V5.83333C16.6667 5.61232 16.5789 5.40036 16.4226 5.24408C16.2663 5.0878 16.0544 5 15.8333 5C15.6123 5 15.4004 5.0878 15.2441 5.24408C15.0878 5.40036 15 5.61232 15 5.83333V15.8333C15 16.0543 15.0878 16.2663 15.2441 16.4226C15.4004 16.5789 15.6123 16.6667 15.8333 16.6667Z" fill="#1C1F29"/>
<path d="M9.16667 16.6667C9.38769 16.6667 9.59965 16.5789 9.75593 16.4226C9.91221 16.2663 10 16.0543 10 15.8333V5.83333C10 5.61232 9.91221 5.40036 9.75593 5.24408C9.59965 5.0878 9.38769 5 9.16667 5C8.94566 5 8.73369 5.0878 8.57741 5.24408C8.42113 5.40036 8.33333 5.61232 8.33333 5.83333V15.8333C8.33333 16.0543 8.42113 16.2663 8.57741 16.4226C8.73369 16.5789 8.94566 16.6667 9.16667 16.6667Z" fill="#1C1F29"/>
</g>
<defs>
<clipPath id="clip0_5519_56">
<rect width="20" height="20" fill="white"/>
</clipPath>
</defs>
</svg>
