<svg width="20" height="20" viewBox="0 0 20 20" fill="none" xmlns="http://www.w3.org/2000/svg">
<g clip-path="url(#clip0_10753_828)">
<path d="M17.5003 3.33333H14.917C14.7236 2.39284 14.2118 1.54779 13.468 0.940598C12.7242 0.333408 11.7938 0.0012121 10.8337 0H9.16699C8.20682 0.0012121 7.27642 0.333408 6.53262 0.940598C5.78881 1.54779 5.27707 2.39284 5.08366 3.33333H2.50033C2.27931 3.33333 2.06735 3.42113 1.91107 3.57741C1.75479 3.73369 1.66699 3.94565 1.66699 4.16667C1.66699 4.38768 1.75479 4.59964 1.91107 4.75592C2.06735 4.9122 2.27931 5 2.50033 5H3.33366V15.8333C3.33498 16.938 3.77439 17.997 4.55551 18.7782C5.33662 19.5593 6.39566 19.9987 7.50033 20H12.5003C13.605 19.9987 14.664 19.5593 15.4451 18.7782C16.2263 17.997 16.6657 16.938 16.667 15.8333V5H17.5003C17.7213 5 17.9333 4.9122 18.0896 4.75592C18.2459 4.59964 18.3337 4.38768 18.3337 4.16667C18.3337 3.94565 18.2459 3.73369 18.0896 3.57741C17.9333 3.42113 17.7213 3.33333 17.5003 3.33333ZM9.16699 1.66667H10.8337C11.3506 1.6673 11.8546 1.82781 12.2767 2.1262C12.6987 2.42459 13.0182 2.84624 13.1912 3.33333H6.80949C6.98248 2.84624 7.30191 2.42459 7.72398 2.1262C8.14605 1.82781 8.6501 1.6673 9.16699 1.66667ZM15.0003 15.8333C15.0003 16.4964 14.7369 17.1323 14.2681 17.6011C13.7993 18.0699 13.1634 18.3333 12.5003 18.3333H7.50033C6.83728 18.3333 6.2014 18.0699 5.73256 17.6011C5.26372 17.1323 5.00033 16.4964 5.00033 15.8333V5H15.0003V15.8333Z" fill="#7E8596"/>
<path d="M8.33373 14.9994C8.55474 14.9994 8.7667 14.9116 8.92298 14.7553C9.07926 14.599 9.16706 14.3871 9.16706 14.1661V9.16606C9.16706 8.94505 9.07926 8.73309 8.92298 8.57681C8.7667 8.42053 8.55474 8.33273 8.33373 8.33273C8.11271 8.33273 7.90075 8.42053 7.74447 8.57681C7.58819 8.73309 7.5004 8.94505 7.5004 9.16606V14.1661C7.5004 14.3871 7.58819 14.599 7.74447 14.7553C7.90075 14.9116 8.11271 14.9994 8.33373 14.9994Z" fill="#7E8596"/>
<path d="M11.6671 14.9994C11.8881 14.9994 12.1 14.9116 12.2563 14.7553C12.4126 14.599 12.5004 14.3871 12.5004 14.1661V9.16606C12.5004 8.94505 12.4126 8.73309 12.2563 8.57681C12.1 8.42053 11.8881 8.33273 11.6671 8.33273C11.4461 8.33273 11.2341 8.42053 11.0778 8.57681C10.9215 8.73309 10.8337 8.94505 10.8337 9.16606V14.1661C10.8337 14.3871 10.9215 14.599 11.0778 14.7553C11.2341 14.9116 11.4461 14.9994 11.6671 14.9994Z" fill="#7E8596"/>
</g>
<defs>
<clipPath id="clip0_10753_828">
<rect width="20" height="20" fill="white"/>
</clipPath>
</defs>
</svg>
