<svg width="24" height="24" viewBox="0 0 24 24" fill="none" xmlns="http://www.w3.org/2000/svg">
<path d="M8.3584 2.19904C8.11682 1.86084 7.77862 1.61926 7.34379 1.61926H1.20786C0.531458 1.61926 0 2.15072 0 2.82712C0 3.0687 0.0483142 3.26195 0.193258 3.45521L1.44943 5.4361L9.61457 4.13161L8.3584 2.19904Z" fill="#C9F4FF"/>
<path d="M9.61328 4.18012C9.3717 3.84191 9.0335 3.60034 8.59867 3.60034H2.46274C1.78634 3.60034 1.25488 4.1318 1.25488 4.8082C1.25488 5.04977 1.3032 5.24303 1.44814 5.43629L3.18746 8.23853L11.3526 6.98235L9.61328 4.18012Z" fill="#51B8FF"/>
<path d="M3.18896 8.23817C2.85076 7.65839 2.9957 6.93368 3.57548 6.59548C3.76873 6.49885 4.01031 6.40222 4.20356 6.40222H10.3395C10.7743 6.40222 11.1125 6.59548 11.3541 6.98199L16.8619 15.6786C17.1035 16.0651 17.1035 16.5483 16.8619 16.9831L13.8181 21.8628C13.4799 22.4426 12.7552 22.5875 12.1754 22.2493C12.0305 22.1527 11.8856 22.0078 11.7889 21.8628L3.18896 8.23817Z" fill="#0066FF"/>
<path d="M18.6971 10.8473C19.0353 11.4271 19.7601 11.572 20.3398 11.2338C20.4848 11.1372 20.6297 10.9922 20.7263 10.8473L21.7893 9.15629L23.8185 5.96753C24.06 5.58102 24.06 5.09787 23.8185 4.66304L22.2241 2.15069C21.9825 1.81249 21.6443 1.57092 21.2095 1.57092H15.0252C14.3488 1.57092 13.8174 2.10238 13.8174 2.77878C13.8174 3.02036 13.8657 3.21361 14.0106 3.40687L18.6971 10.8473Z" fill="#0066FF"/>
</svg>
