<svg xmlns="http://www.w3.org/2000/svg" width="12" height="12" fill="none"><g clip-path="url(#a)"><path fill="#7E8596" d="M9.5 2h-.55A2.505 2.505 0 0 0 6.5 0h-1a2.505 2.505 0 0 0-2.45 2H2.5A2.503 2.503 0 0 0 0 4.5v5A2.503 2.503 0 0 0 2.5 12h7A2.503 2.503 0 0 0 12 9.5v-5A2.503 2.503 0 0 0 9.5 2Zm-4-1h1a1.5 1.5 0 0 1 1.408 1H4.092A1.5 1.5 0 0 1 5.5 1Zm-3 2h7A1.5 1.5 0 0 1 11 4.5V6H1V4.5A1.5 1.5 0 0 1 2.5 3Zm7 8h-7A1.5 1.5 0 0 1 1 9.5V7h4.5v.5a.5.5 0 1 0 1 0V7H11v2.5A1.5 1.5 0 0 1 9.5 11Z"/></g><defs><clipPath id="a"><path fill="#fff" d="M0 0h12v12H0z"/></clipPath></defs></svg>