<svg xmlns="http://www.w3.org/2000/svg" width="16" height="16" fill="none"><g clip-path="url(#a)"><path fill="#4D515C" d="M2 14.082a.666.666 0 0 1-.378-.118 3.58 3.58 0 0 1 .34-6.2 5.099 5.099 0 0 1-.534-3.453 5.333 5.333 0 0 1 10.327-.56.723.723 0 0 0 .481.488 5.322 5.322 0 0 1 3.542 3.57.667.667 0 0 1-1.278.381 3.992 3.992 0 0 0-2.655-2.676 2.067 2.067 0 0 1-1.363-1.367A3.999 3.999 0 1 0 3.11 7.155a1.33 1.33 0 0 1-.528 1.791 2.247 2.247 0 0 0-.2 3.92A.667.667 0 0 1 2 14.083ZM12.733 16c.239-.011.476-.046.708-.105a3.297 3.297 0 0 0 2.467-2.467 3.341 3.341 0 0 0-2.372-4s-.42-.097-.51-.314a4 4 0 0 0-7.578.57 4.253 4.253 0 0 0-.038 1.822 2.334 2.334 0 0 0 .3 4.393c.181.054.368.088.556.101h6.467ZM11.8 9.63a1.764 1.764 0 0 0 1.392 1.088 2.013 2.013 0 0 1 1.42 2.414 1.985 1.985 0 0 1-1.902 1.517c-1.11.022-5.514.025-6.4 0a.98.98 0 0 1-.939-.715.996.996 0 0 1 .567-1.197 1.345 1.345 0 0 0 .786-1.537 2.66 2.66 0 0 1 .89-2.588 2.667 2.667 0 0 1 4.182 1.019l.004-.002Z"/></g><defs><clipPath id="a"><path fill="#fff" d="M0 0h16v16H0z"/></clipPath></defs></svg>