<svg xmlns="http://www.w3.org/2000/svg" width="20" height="20" fill="none"><g clip-path="url(#a)"><path fill="#B3C5FF" d="M11.25 5.417a1.25 1.25 0 1 1-2.5 0 1.25 1.25 0 0 1 2.5 0ZM20 15.832v-5.55A10.175 10.175 0 0 0 10.696.023 10 10 0 0 0 .024 10.711C.392 16.006 5.068 20 10.902 20h4.93A4.171 4.171 0 0 0 20 15.833ZM10.583 1.687a8.5 8.5 0 0 1 7.75 8.596v5.55a2.5 2.5 0 0 1-2.5 2.5h-4.93c-5.03 0-8.903-3.25-9.216-7.736a8.333 8.333 0 0 1 8.896-8.91ZM11.666 15v-5A1.667 1.667 0 0 0 10 8.333h-.834a.833.833 0 1 0 0 1.667H10v5a.834.834 0 0 0 1.666 0Z"/></g><defs><clipPath id="a"><path fill="#fff" d="M0 0h20v20H0z"/></clipPath></defs></svg>