<svg width="32" height="32" viewBox="0 0 32 32" fill="none" xmlns="http://www.w3.org/2000/svg">
<path d="M15.9993 2.66663C8.63935 2.66663 2.66602 8.63996 2.66602 16C2.66602 23.36 8.63935 29.3333 15.9993 29.3333C23.3594 29.3333 29.3327 23.36 29.3327 16C29.3327 8.63996 23.3594 2.66663 15.9993 2.66663ZM15.9993 26.6666C10.1193 26.6666 5.33268 21.88 5.33268 16C5.33268 10.12 10.1193 5.33329 15.9993 5.33329C21.8793 5.33329 26.666 10.12 26.666 16C26.666 21.88 21.8793 26.6666 15.9993 26.6666ZM16.4127 14.8533C14.0527 14.2533 13.2927 13.6 13.2927 12.6266C13.2927 11.5066 14.346 10.72 16.0927 10.72C17.9327 10.72 18.626 11.6 18.6793 12.9066H20.9594C20.8927 11.12 19.7993 9.47996 17.6393 8.94663V6.66663H14.5327V8.91996C12.5193 9.34663 10.906 10.6533 10.906 12.6666C10.906 15.0533 12.8927 16.2533 15.786 16.9466C18.386 17.56 18.906 18.48 18.906 19.44C18.906 20.1466 18.386 21.2933 16.106 21.2933C13.9727 21.2933 13.1327 20.3333 13.0127 19.1066H10.7193C10.8527 21.3733 12.5327 22.6533 14.5327 23.0666V25.3333H17.6527V23.1066C19.6793 22.72 21.2794 21.56 21.2927 19.4133C21.2794 16.48 18.7593 15.4666 16.4127 14.8533Z" fill="#7E8596"/>
</svg>
