<svg width="20" height="20" viewBox="0 0 20 20" fill="none" xmlns="http://www.w3.org/2000/svg">
<path d="M9.99102 1.66669C5.39102 1.66669 1.66602 5.40002 1.66602 10C1.66602 14.6 5.39102 18.3334 9.99102 18.3334C14.5993 18.3334 18.3327 14.6 18.3327 10C18.3327 5.40002 14.5993 1.66669 9.99102 1.66669ZM15.766 6.66669H13.3077C13.041 5.62502 12.6577 4.62502 12.1577 3.70002C13.691 4.22502 14.966 5.29169 15.766 6.66669ZM9.99935 3.36669C10.691 4.36669 11.2327 5.47502 11.591 6.66669H8.40768C8.76602 5.47502 9.30768 4.36669 9.99935 3.36669ZM3.54935 11.6667C3.41602 11.1334 3.33268 10.575 3.33268 10C3.33268 9.42502 3.41602 8.86669 3.54935 8.33335H6.36602C6.29935 8.88335 6.24935 9.43335 6.24935 10C6.24935 10.5667 6.29935 11.1167 6.36602 11.6667H3.54935ZM4.23268 13.3334H6.69102C6.95768 14.375 7.34102 15.375 7.84102 16.3C6.30768 15.775 5.03268 14.7167 4.23268 13.3334ZM6.69102 6.66669H4.23268C5.03268 5.28335 6.30768 4.22502 7.84102 3.70002C7.34102 4.62502 6.95768 5.62502 6.69102 6.66669ZM9.99935 16.6334C9.30768 15.6334 8.76602 14.525 8.40768 13.3334H11.591C11.2327 14.525 10.691 15.6334 9.99935 16.6334ZM11.9493 11.6667H8.04935C7.97435 11.1167 7.91602 10.5667 7.91602 10C7.91602 9.43335 7.97435 8.87502 8.04935 8.33335H11.9493C12.0243 8.87502 12.0827 9.43335 12.0827 10C12.0827 10.5667 12.0243 11.1167 11.9493 11.6667ZM12.1577 16.3C12.6577 15.375 13.041 14.375 13.3077 13.3334H15.766C14.966 14.7084 13.691 15.775 12.1577 16.3ZM13.6327 11.6667C13.6994 11.1167 13.7493 10.5667 13.7493 10C13.7493 9.43335 13.6994 8.88335 13.6327 8.33335H16.4493C16.5827 8.86669 16.666 9.42502 16.666 10C16.666 10.575 16.5827 11.1334 16.4493 11.6667H13.6327Z" fill="#003EA6"/>
</svg>
