<svg xmlns="http://www.w3.org/2000/svg" width="18" height="18" fill="none"><g fill="#B6B8C6" clip-path="url(#a)"><path d="M14 .429H4A3.576 3.576 0 0 0 .428 4v10A3.576 3.576 0 0 0 4 17.571h10A3.576 3.576 0 0 0 17.57 14V4A3.575 3.575 0 0 0 14 .429ZM4 1.857h10A2.143 2.143 0 0 1 16.143 4v10a2.108 2.108 0 0 1-.215.918L9.383 8.373a3.572 3.572 0 0 0-5.051 0l-2.475 2.474V4A2.143 2.143 0 0 1 4 1.857Zm0 14.286A2.143 2.143 0 0 1 1.857 14v-1.133l3.484-3.484a2.143 2.143 0 0 1 3.032 0l6.545 6.546c-.286.14-.6.213-.918.214H4Z"/><path d="M11.857 7.928a2.5 2.5 0 1 0 0-5 2.5 2.5 0 0 0 0 5Zm0-3.571a1.072 1.072 0 1 1 0 2.143 1.072 1.072 0 0 1 0-2.143Z"/></g><defs><clipPath id="a"><path fill="#fff" d="M.428.429h17.143v17.143H.428z"/></clipPath></defs></svg>