<svg xmlns="http://www.w3.org/2000/svg" width="129" height="32" fill="none"><path fill="#F6D2A2" fill-rule="evenodd" d="M5.987 17.15c.04.826.865.444 1.239.186.355-.245.459-.041.49-.525a7.94 7.94 0 0 0 .039-.955 2.342 2.342 0 0 0-1.56.4c-.227.165-.651.69-.208.9" clip-rule="evenodd"/><path fill="#000" d="M6.416 17.732a.527.527 0 0 1-.236-.051.541.541 0 0 1-.27-.482.358.358 0 0 1-.2-.283 1.006 1.006 0 0 1 .432-.727 2.4 2.4 0 0 1 1.613-.413l.068.006v.068c.009.25.001.499-.023.747a15.97 15.97 0 0 0-.016.218c-.022.343-.086.395-.263.456a.976.976 0 0 0-.261.129 1.788 1.788 0 0 1-.844.332Zm1.11-1.808a2.2 2.2 0 0 0-1.286.394c-.162.118-.387.394-.368.584a.22.22 0 0 0 .147.177l.043.02v.047c.01.206.072.338.185.394.218.108.624-.058.931-.269.092-.064.193-.114.3-.148.116-.04.14-.049.157-.318 0-.073.01-.146.016-.22.02-.219.03-.438.026-.658a3.905 3.905 0 0 0-.151-.003Z"/><path fill="#C6B198" fill-rule="evenodd" d="M5.987 17.15a.65.65 0 0 0 .329-.185l-.329.185Z" clip-rule="evenodd"/><path fill="#000" d="M5.987 17.229a.08.08 0 0 1-.066-.117.079.079 0 0 1 .039-.035l.053-.019a.473.473 0 0 0 .263-.163.078.078 0 0 1 .063-.012.078.078 0 0 1 .061.07.079.079 0 0 1-.02.06.615.615 0 0 1-.314.193l-.051.018a.081.081 0 0 1-.028.005Z"/><path fill="#6AD7E5" fill-rule="evenodd" d="M7.894 7.309C4.731 6.42 7.083 2.4 9.622 4.052L7.894 7.309Z" clip-rule="evenodd"/><path fill="#000" d="m7.934 7.4-.061-.017a1.927 1.927 0 0 1-1.562-1.5 2.094 2.094 0 0 1 .977-1.979 2.116 2.116 0 0 1 2.378.081l.06.039L7.934 7.4Zm.449-3.666c-.359 0-.71.104-1.01.3a1.933 1.933 0 0 0-.907 1.823 1.755 1.755 0 0 0 1.388 1.359l1.665-3.137a2.17 2.17 0 0 0-1.136-.343v-.002Z"/><path fill="#6AD7E5" fill-rule="evenodd" d="M21.944 3.75c2.5-1.758 4.765 2.209 1.856 3.207L21.944 3.75Z" clip-rule="evenodd"/><path fill="#000" d="M23.765 7.052 21.84 3.727l.059-.041a2.066 2.066 0 0 1 2.295-.193 2.122 2.122 0 0 1 1.044 1.965 1.881 1.881 0 0 1-1.413 1.573l-.06.021Zm-1.716-3.279 1.787 3.087a1.712 1.712 0 0 0 1.246-1.418 1.96 1.96 0 0 0-.967-1.814 1.857 1.857 0 0 0-2.066.145Z"/><path fill="#F6D2A2" fill-rule="evenodd" d="M22.483 27.317c.636.393 1.8 1.583.844 2.16-.916.839-1.429-.921-2.234-1.165a2.226 2.226 0 0 1 1.39-.995Z" clip-rule="evenodd"/><path fill="#000" d="M22.844 29.781h-.038c-.361-.022-.661-.374-.951-.715a2.04 2.04 0 0 0-.785-.677l-.106-.032.066-.09a2.322 2.322 0 0 1 1.441-1.026h.029l.025.015c.407.252 1.247.988 1.243 1.654a.73.73 0 0 1-.393.636.791.791 0 0 1-.531.235Zm-1.625-1.5c.296.175.554.409.756.687.281.33.547.642.841.66a.627.627 0 0 0 .457-.2l.012-.009a.578.578 0 0 0 .324-.506c0-.532-.672-1.2-1.144-1.5-.51.118-.956.427-1.246.863v.005Z"/><path fill="#000" d="M23.327 29.556a.078.078 0 0 1-.07-.043 2.919 2.919 0 0 1-.123-.3 1.31 1.31 0 0 0-.286-.518.08.08 0 0 1 .055-.13.08.08 0 0 1 .054.017c.151.165.263.362.325.577.034.095.072.189.116.28a.079.079 0 0 1-.035.106.077.077 0 0 1-.036.011Z"/><path fill="#F6D2A2" fill-rule="evenodd" d="M11.124 28.662c-.746.115-1.166.789-1.788 1.131-.586.35-.811-.112-.863-.206-.092-.042-.084.039-.226-.1-.547-.862.565-1.487 1.143-1.915.805-.163 1.31.535 1.734 1.09Z" clip-rule="evenodd"/><path fill="#000" d="M8.939 30a.537.537 0 0 1-.141-.018.648.648 0 0 1-.38-.33H8.4c-.066 0-.115-.014-.213-.113l-.011-.013c-.523-.826.367-1.453.957-1.868.074-.052.144-.1.207-.148l.014-.01h.017c.829-.168 1.353.518 1.773 1.069l.119.155-.131.02a2.263 2.263 0 0 0-1.105.634 4.02 4.02 0 0 1-.657.488.858.858 0 0 1-.431.134Zm-.527-.506c.032 0 .063.007.092.021l.023.011.02.035a.509.509 0 0 0 .292.269.602.602 0 0 0 .456-.1c.226-.135.438-.293.633-.471a2.629 2.629 0 0 1 1.056-.644c-.4-.526-.862-1.094-1.562-.963a5.541 5.541 0 0 1-.2.139c-.6.424-1.352.952-.919 1.648.062.062.077.061.09.061l.019-.006Z"/><path fill="#000" d="M8.472 29.665h-.007a.079.079 0 0 1-.072-.085 1.2 1.2 0 0 1 .253-.572 1.85 1.85 0 0 0 .165-.276.08.08 0 0 1 .144.064c-.05.105-.11.205-.178.3a1.065 1.065 0 0 0-.226.5.079.079 0 0 1-.079.069Z"/><path fill="#000" fill-rule="evenodd" d="M8.026 6.2c-.417-.221-.723-.52-.468-1 .236-.447.675-.4 1.092-.178L8.026 6.2ZM23.141 5.778c.417-.221.723-.52.468-1-.236-.447-.675-.4-1.092-.178l.624 1.178Z" clip-rule="evenodd"/><path fill="#F6D2A2" fill-rule="evenodd" d="M26.013 17.046c-.04.826-.865.444-1.239.186-.355-.245-.459-.041-.49-.525a7.952 7.952 0 0 1-.039-.955 2.341 2.341 0 0 1 1.56.4c.227.165.651.69.208.9" clip-rule="evenodd"/><path fill="#000" d="M25.584 17.627a1.788 1.788 0 0 1-.854-.331.974.974 0 0 0-.261-.129c-.177-.062-.241-.114-.263-.456 0-.073-.01-.145-.016-.218a5.68 5.68 0 0 1-.023-.747v-.068l.068-.006a2.4 2.4 0 0 1 1.613.413 1.004 1.004 0 0 1 .432.727.357.357 0 0 1-.2.283.541.541 0 0 1-.27.482.527.527 0 0 1-.226.05Zm-1.263-1.8c-.003.22.006.44.026.658l.016.22c.017.269.041.277.157.318.107.034.208.084.3.148.306.212.713.377.931.269.113-.056.175-.188.185-.394v-.047l.043-.02a.219.219 0 0 0 .147-.177c.018-.19-.206-.466-.368-.584a2.231 2.231 0 0 0-1.437-.394v.003Z"/><path fill="#C6B198" fill-rule="evenodd" d="M26.013 17.046a.65.65 0 0 1-.329-.185l.329.185Z" clip-rule="evenodd"/><path fill="#000" d="M26.013 17.124a.077.077 0 0 1-.027 0l-.051-.018a.615.615 0 0 1-.314-.193.08.08 0 0 1-.01-.092.08.08 0 0 1 .084-.039.08.08 0 0 1 .052.037c.065.07.149.118.241.139l.053.019a.08.08 0 0 1-.027.152l-.001-.005Z"/><path fill="#6AD7E5" fill-rule="evenodd" d="M15.683 2.079c3.166 0 6.134.453 7.681 3.495 1.389 3.409.895 7.086 1.107 10.689.182 3.094.585 6.668-.85 9.536-1.51 3.016-5.283 3.775-8.392 3.664-2.442-.087-5.391-.884-6.769-3.115-1.617-2.617-.851-6.509-.734-9.421.139-3.449-.934-6.91.2-10.285 1.176-3.5 4.346-4.293 7.758-4.563" clip-rule="evenodd"/><path fill="#000" d="M15.77 29.55c-.2 0-.38 0-.543-.01-1.5-.054-5.176-.469-6.833-3.152-1.307-2.116-1.074-5.041-.869-7.622.052-.649.1-1.263.124-1.843a29.672 29.672 0 0 0-.157-3.666 16.216 16.216 0 0 1 .36-6.641 5.812 5.812 0 0 1 3.08-3.539c1.5-.656 3.11-1.021 4.745-1.077h.006c3.091 0 6.17.429 7.751 3.538v.006a20.52 20.52 0 0 1 1.044 7.762c.005.969.011 1.972.068 2.952.017.3.037.6.057.9.184 2.841.392 6.062-.915 8.673-1.629 3.261-5.741 3.719-7.918 3.719Zm-.084-27.393c-3.294.261-6.5.988-7.687 4.509a16.1 16.1 0 0 0-.353 6.578c.127 1.224.179 2.455.154 3.686-.024.584-.072 1.2-.124 1.85-.2 2.557-.434 5.455.846 7.527 1.618 2.619 5.228 3.025 6.705 3.077 1.922.069 6.579-.147 8.318-3.621 1.288-2.573 1.081-5.771.9-8.592l-.057-.9c-.058-.984-.063-1.989-.068-2.96a20.41 20.41 0 0 0-1.031-7.7c-1.539-3.035-4.564-3.453-7.603-3.454Z"/><path fill="#fff" fill-rule="evenodd" d="M16.242 6.329c.568 3.3 5.97 2.431 5.194-.9-.7-2.988-5.383-2.161-5.194.9Z" clip-rule="evenodd"/><path fill="#000" d="M18.808 8.485a3.024 3.024 0 0 1-.988-.162 2.444 2.444 0 0 1-1.653-1.982v-.008a2.672 2.672 0 0 1 2.416-2.814A2.482 2.482 0 0 1 21.51 5.41a2.312 2.312 0 0 1-.673 2.343 3.072 3.072 0 0 1-2.029.732Zm-2.49-2.165a2.3 2.3 0 0 0 1.552 1.86 2.987 2.987 0 0 0 2.865-.54 2.165 2.165 0 0 0 .627-2.2A2.335 2.335 0 0 0 18.6 3.67a2.524 2.524 0 0 0-2.282 2.65Z"/><path fill="#fff" fill-rule="evenodd" d="M9.788 6.863C10.524 9.74 15.13 9 14.956 6.118c-.208-3.456-5.873-2.789-5.169.745" clip-rule="evenodd"/><path fill="#000" d="M12.245 8.761a2.826 2.826 0 0 1-1.345-.326 2.384 2.384 0 0 1-1.184-1.553 2.411 2.411 0 0 1 .826-2.472 3.107 3.107 0 0 1 3.087-.394 2.335 2.335 0 0 1 1.4 2.1 2.529 2.529 0 0 1-2.29 2.609 3.2 3.2 0 0 1-.494.036ZM9.86 6.847a2.4 2.4 0 0 0 2.858 1.729 2.385 2.385 0 0 0 2.165-2.454 2.193 2.193 0 0 0-1.314-1.976 2.953 2.953 0 0 0-2.935.374 2.27 2.27 0 0 0-.774 2.327Z"/><path fill="#fff" fill-rule="evenodd" d="M16.894 10.294c.047.455.053.913.016 1.369-.11.207-.325.229-.51.313a.75.75 0 0 1-.575-.449 9.713 9.713 0 0 1 .041-1.549l1.028.316Z" clip-rule="evenodd"/><path fill="#000" d="M16.411 12.057h-.023a.828.828 0 0 1-.635-.5V11.536c-.033-.354-.03-.71.009-1.063.013-.163.026-.331.031-.5v-.1l1.181.362v.058c0 .142.012.289.024.444a3.74 3.74 0 0 1-.008.939v.012l-.006.011a.657.657 0 0 1-.414.3c-.047.017-.091.032-.134.052l-.025.006Zm-.509-.551a.672.672 0 0 0 .488.388c.041-.017.083-.032.123-.047a.525.525 0 0 0 .322-.211 3.676 3.676 0 0 0 0-.887c-.01-.137-.02-.268-.023-.4l-.875-.268c-.007.136-.017.271-.027.4-.038.34-.041.684-.01 1.025h.002ZM11.058 7.236c.43 0 .778-.377.778-.842 0-.465-.348-.842-.778-.842-.43 0-.778.377-.778.842 0 .465.348.842.778.842Z"/><path fill="#fff" d="M11.412 6.798c.101 0 .183-.096.183-.214s-.082-.214-.183-.214c-.101 0-.183.096-.183.214s.082.214.183.214Z"/><path fill="#000" d="M17.574 7.026c.422 0 .765-.377.765-.842 0-.465-.342-.842-.765-.842s-.765.377-.765.842c0 .465.342.842.765.842Z"/><path fill="#fff" d="M17.922 6.588c.1 0 .18-.096.18-.214s-.08-.214-.18-.214c-.1 0-.18.096-.18.214s.08.214.18.214Z"/><path fill="#fff" fill-rule="evenodd" d="M14.671 10.247c-.339.822.189 2.467 1.11 1.254a9.725 9.725 0 0 1 .041-1.549l-1.151.295Z" clip-rule="evenodd"/><path fill="#000" d="M15.166 12.013a.451.451 0 0 1-.226-.062 1.6 1.6 0 0 1-.341-1.733l.015-.036L15.9 9.85v.1c-.005.17-.019.34-.032.5a4.997 4.997 0 0 0-.01 1.031v.032l-.019.026c-.265.361-.494.474-.673.474Zm-.436-1.7a1.458 1.458 0 0 0 .288 1.5c.238.136.5-.1.681-.335a5.341 5.341 0 0 1 .013-1.031c.01-.129.02-.261.027-.392l-1.009.258Z"/><path fill="#F6D2A2" fill-rule="evenodd" d="M14.787 8.663a1 1 0 0 0-.821 1.4c.435.788 1.407-.07 2.013.011.7.014 1.268.737 1.827.131.622-.674-.268-1.331-.964-1.624l-2.055.082Z" clip-rule="evenodd"/><path fill="#231F20" d="M17.308 10.526a1.726 1.726 0 0 1-.641-.179 1.928 1.928 0 0 0-.689-.194h-.009a1.75 1.75 0 0 0-.712.152c-.491.17-1.048.362-1.36-.2a.947.947 0 0 1 .014-.917 1.118 1.118 0 0 1 .869-.6l2.077-.088.016.007c.517.218 1.106.617 1.207 1.083a.835.835 0 0 1-.772.934v.002ZM15.985 10c.258.021.51.091.743.206.393.165.7.295 1.021-.05a.58.58 0 0 0 .178-.528c-.087-.4-.642-.769-1.1-.964l-2.036.081a.973.973 0 0 0-.742.517.793.793 0 0 0-.015.767c.248.449.7.294 1.17.13.246-.109.512-.163.781-.159Z"/><path fill="#000" fill-rule="evenodd" d="M14.708 8.63C14.661 7.535 16.75 7.4 17 8.315s-2.186 1.128-2.289.316l-.003-.001Z" clip-rule="evenodd"/><path fill="#1C1F29" d="M47.614 22.216c-.996 0-1.92-.162-2.772-.486a6.658 6.658 0 0 1-2.196-1.368 6.423 6.423 0 0 1-1.44-2.07 6.569 6.569 0 0 1-.504-2.592c0-.936.168-1.8.504-2.592a6.292 6.292 0 0 1 1.458-2.07A6.658 6.658 0 0 1 44.86 9.67a7.539 7.539 0 0 1 2.736-.486c.996 0 1.908.162 2.736.486.84.324 1.566.78 2.178 1.368a6.292 6.292 0 0 1 1.458 2.07c.348.78.522 1.644.522 2.592a6.5 6.5 0 0 1-.522 2.61 6.292 6.292 0 0 1-1.458 2.07 6.608 6.608 0 0 1-2.178 1.35c-.828.324-1.734.486-2.718.486Zm-.018-2.484c.564 0 1.08-.096 1.548-.288a3.672 3.672 0 0 0 2.088-2.106 4.238 4.238 0 0 0 .306-1.638c0-.6-.102-1.146-.306-1.638a3.672 3.672 0 0 0-.828-1.278 3.527 3.527 0 0 0-1.242-.828 4.178 4.178 0 0 0-1.566-.288c-.564 0-1.086.096-1.566.288a3.757 3.757 0 0 0-1.242.828c-.36.36-.642.786-.846 1.278a4.471 4.471 0 0 0-.288 1.638c0 .588.096 1.134.288 1.638.204.492.48.918.828 1.278.36.36.78.636 1.26.828.48.192 1.002.288 1.566.288ZM55.944 22v-9.684h2.681v2.736l-.377-.792c.288-.684.75-1.2 1.386-1.548.636-.36 1.41-.54 2.322-.54v2.592a3.287 3.287 0 0 0-.325-.018 2.47 2.47 0 0 0-.306-.018c-.768 0-1.392.222-1.872.666-.468.432-.702 1.11-.702 2.034V22h-2.807Zm11.625 3.636c-.912 0-1.794-.114-2.646-.342-.84-.216-1.542-.546-2.106-.99l1.116-2.016c.408.336.924.6 1.548.792.636.204 1.26.306 1.872.306.996 0 1.716-.222 2.16-.666.456-.444.684-1.104.684-1.98v-1.458l.18-2.43-.036-2.448v-2.088h2.664v8.064c0 1.8-.468 3.126-1.404 3.978-.936.852-2.28 1.278-4.032 1.278Zm-.432-4.104c-.9 0-1.716-.192-2.448-.576a4.763 4.763 0 0 1-1.746-1.638c-.432-.708-.648-1.53-.648-2.466 0-.948.216-1.77.648-2.466a4.573 4.573 0 0 1 1.746-1.638c.732-.384 1.548-.576 2.448-.576.816 0 1.536.168 2.16.504.624.324 1.11.834 1.458 1.53.348.684.522 1.566.522 2.646 0 1.068-.174 1.95-.522 2.646-.348.684-.834 1.194-1.458 1.53-.624.336-1.344.504-2.16.504Zm.558-2.304a2.9 2.9 0 0 0 1.314-.288c.384-.204.684-.486.9-.846.216-.36.324-.774.324-1.242 0-.48-.108-.894-.324-1.242a2.145 2.145 0 0 0-.9-.828 2.758 2.758 0 0 0-1.314-.306c-.492 0-.93.102-1.314.306-.384.192-.69.468-.918.828-.216.348-.324.762-.324 1.242 0 .468.108.882.324 1.242.228.36.534.642.918.846a2.9 2.9 0 0 0 1.314.288ZM81.018 22v-1.89l-.18-.414v-3.384c0-.6-.186-1.068-.558-1.404-.36-.336-.918-.504-1.674-.504a4.81 4.81 0 0 0-1.53.252 3.904 3.904 0 0 0-1.26.648l-1.008-1.962c.528-.372 1.164-.66 1.908-.864a8.54 8.54 0 0 1 2.268-.306c1.476 0 2.622.348 3.438 1.044.816.696 1.224 1.782 1.224 3.258V22h-2.628Zm-2.952.144c-.756 0-1.404-.126-1.944-.378-.54-.264-.954-.618-1.242-1.062a2.686 2.686 0 0 1-.432-1.494c0-.576.138-1.08.414-1.512.288-.432.738-.768 1.35-1.008.612-.252 1.41-.378 2.394-.378h2.574v1.638h-2.268c-.66 0-1.116.108-1.368.324-.24.216-.36.486-.36.81 0 .36.138.648.414.864.288.204.678.306 1.17.306.468 0 .888-.108 1.26-.324.372-.228.642-.558.81-.99l.432 1.296c-.204.624-.576 1.098-1.116 1.422-.54.324-1.236.486-2.088.486Zm13.468-9.972c.768 0 1.452.156 2.052.468.612.3 1.092.768 1.44 1.404.348.624.522 1.428.522 2.412V22H92.74v-5.112c0-.78-.174-1.356-.522-1.728-.336-.372-.816-.558-1.44-.558-.444 0-.846.096-1.206.288-.348.18-.624.462-.828.846-.192.384-.288.876-.288 1.476V22h-2.808v-9.684h2.682v2.682l-.504-.81a3.587 3.587 0 0 1 1.494-1.494c.648-.348 1.386-.522 2.214-.522ZM97.553 22v-9.684h2.808V22h-2.808Zm1.404-11.034c-.516 0-.936-.15-1.26-.45a1.46 1.46 0 0 1-.486-1.116c0-.444.162-.816.486-1.116.324-.3.744-.45 1.26-.45s.936.144 1.26.432c.324.276.486.636.486 1.08 0 .468-.162.858-.486 1.17-.312.3-.732.45-1.26.45ZM101.761 22v-1.692l5.724-6.768.486.936h-6.084v-2.16h8.352v1.692l-5.724 6.768-.504-.936h6.39V22h-8.64Zm14.582.144c-1.104 0-2.076-.216-2.916-.648-.828-.432-1.47-1.02-1.926-1.764-.456-.756-.684-1.614-.684-2.574 0-.972.222-1.83.666-2.574a4.764 4.764 0 0 1 1.854-1.764c.78-.432 1.662-.648 2.646-.648.948 0 1.8.204 2.556.612a4.422 4.422 0 0 1 1.818 1.728c.444.744.666 1.638.666 2.682 0 .108-.006.234-.018.378a42.22 42.22 0 0 1-.036.378h-7.866v-1.638h6.39l-1.08.486c0-.504-.102-.942-.306-1.314a2.171 2.171 0 0 0-.846-.864c-.36-.216-.78-.324-1.26-.324s-.906.108-1.278.324c-.36.204-.642.498-.846.882-.204.372-.306.816-.306 1.332v.432c0 .528.114.996.342 1.404.24.396.57.702.99.918.432.204.936.306 1.512.306.516 0 .966-.078 1.35-.234.396-.156.756-.39 1.08-.702l1.494 1.62a4.437 4.437 0 0 1-1.674 1.17c-.672.264-1.446.396-2.322.396Zm6.01-.144v-9.684h2.682v2.736l-.378-.792c.288-.684.75-1.2 1.386-1.548.636-.36 1.41-.54 2.322-.54v2.592a3.287 3.287 0 0 0-.324-.018 2.47 2.47 0 0 0-.306-.018c-.768 0-1.392.222-1.872.666-.468.432-.702 1.11-.702 2.034V22h-2.808Z"/></svg>