<svg width="32" height="32" viewBox="0 0 32 32" fill="none" xmlns="http://www.w3.org/2000/svg">
<path d="M26.5073 23.96C27.094 23.0267 27.4406 21.9467 27.4406 20.7733C27.4406 17.4533 24.7606 14.7733 21.4406 14.7733C18.1206 14.7733 15.4406 17.4533 15.4406 20.7733C15.4406 24.0933 18.1206 26.7733 21.4273 26.7733C22.6006 26.7733 23.694 26.4267 24.614 25.84L28.774 30L30.6673 28.1067L26.5073 23.96ZM21.4406 24.1067C19.6007 24.1067 18.1073 22.6133 18.1073 20.7733C18.1073 18.9333 19.6007 17.44 21.4406 17.44C23.2806 17.44 24.774 18.9333 24.774 20.7733C24.774 22.6133 23.2806 24.1067 21.4406 24.1067ZM20.9606 12.7733C19.974 12.8 19.0273 13.0133 18.1607 13.3733L17.4273 12.2667L12.3607 20.5067L8.34732 15.8133L3.50732 23.56L1.33398 22L8.00065 11.3333L12.0007 16L17.334 7.33333L20.9606 12.7733ZM24.414 13.44C23.5606 13.0667 22.6406 12.84 21.6807 12.7867L28.5073 2L30.6673 3.57333L24.414 13.44Z" fill="#7E8596"/>
</svg>
