<svg xmlns="http://www.w3.org/2000/svg" width="117" height="18" fill="none"><path fill="#1D1B1E" d="m3.438 1 3.828 6.258h.125L11.219 1h2.797L9.03 9l5.016 8h-2.813l-3.843-6.172h-.125L3.422 17H.609l5.102-8L.64 1h2.796ZM16.41 1h2.93l5.094 12.438h.187L29.715 1h2.93v16h-2.297V5.422h-.149L25.48 16.977h-1.906L18.855 5.414h-.148V17H16.41V1ZM36.154 17V1h2.414v13.922h7.25V17h-9.664ZM54.338 9.227v2.023h-7.094V9.227h7.094ZM63.053 5v1.875h-6.555V5h6.555Zm-4.797-2.875h2.336v11.352c0 .453.068.794.203 1.023.135.224.31.378.523.46.22.08.456.118.711.118.188 0 .352-.013.492-.039l.329-.062.422 1.93a3.926 3.926 0 0 1-.579.155c-.25.058-.562.089-.937.094a4.111 4.111 0 0 1-1.719-.328 2.948 2.948 0 0 1-1.289-1.062c-.328-.48-.492-1.081-.492-1.805V2.125ZM70.563 17.242c-1.126 0-2.107-.258-2.946-.773-.838-.516-1.49-1.237-1.953-2.164-.463-.927-.695-2.01-.695-3.25 0-1.245.232-2.334.695-3.266.464-.932 1.115-1.656 1.953-2.172.839-.515 1.82-.773 2.945-.773 1.126 0 2.107.258 2.946.773.838.516 1.49 1.24 1.953 2.172.463.932.695 2.02.695 3.266 0 1.24-.232 2.323-.695 3.25-.464.927-1.115 1.648-1.953 2.164-.839.515-1.82.773-2.945.773Zm.007-1.96c.73 0 1.334-.194 1.813-.579.479-.385.833-.898 1.062-1.539.235-.64.352-1.346.352-2.117 0-.766-.117-1.469-.352-2.11-.229-.645-.583-1.164-1.062-1.554-.48-.39-1.084-.586-1.813-.586-.734 0-1.343.195-1.828.586-.479.39-.836.909-1.07 1.554a6.222 6.222 0 0 0-.344 2.11c0 .77.115 1.476.344 2.117.234.64.591 1.154 1.07 1.54.485.384 1.094.577 1.828.577ZM85.834 9.227v2.023H78.74V9.227h7.094ZM99.963 6.055a4.882 4.882 0 0 0-.61-1.274c-.25-.38-.549-.703-.898-.968a3.775 3.775 0 0 0-1.195-.618c-.443-.14-.93-.21-1.461-.21-.901 0-1.714.231-2.438.695-.724.463-1.297 1.143-1.718 2.039-.417.89-.625 1.982-.625 3.273 0 1.297.21 2.393.632 3.29.422.895 1 1.575 1.735 2.038.734.464 1.57.696 2.508.696.87 0 1.627-.178 2.273-.532a3.7 3.7 0 0 0 1.508-1.5c.359-.65.539-1.416.539-2.296l.625.117H96.26V8.813h6.289v1.82c0 1.344-.287 2.51-.86 3.5a5.848 5.848 0 0 1-2.359 2.281c-1 .537-2.146.805-3.437.805-1.448 0-2.72-.334-3.813-1-1.088-.667-1.937-1.612-2.547-2.836-.61-1.23-.914-2.688-.914-4.375 0-1.276.177-2.422.531-3.438.355-1.015.852-1.877 1.493-2.586a6.514 6.514 0 0 1 2.273-1.632c.875-.38 1.83-.57 2.867-.57a7.4 7.4 0 0 1 2.414.382c.75.255 1.417.617 2 1.086a6.134 6.134 0 0 1 2.242 3.805h-2.476ZM110.48 17.242c-1.125 0-2.106-.258-2.945-.773-.838-.516-1.489-1.237-1.953-2.164-.464-.927-.695-2.01-.695-3.25 0-1.245.231-2.334.695-3.266.464-.932 1.115-1.656 1.953-2.172.839-.515 1.82-.773 2.945-.773 1.125 0 2.107.258 2.946.773.838.516 1.489 1.24 1.953 2.172.463.932.695 2.02.695 3.266 0 1.24-.232 2.323-.695 3.25-.464.927-1.115 1.648-1.953 2.164-.839.515-1.821.773-2.946.773Zm.008-1.96c.729 0 1.334-.194 1.813-.579.479-.385.833-.898 1.062-1.539.235-.64.352-1.346.352-2.117 0-.766-.117-1.469-.352-2.11-.229-.645-.583-1.164-1.062-1.554-.479-.39-1.084-.586-1.813-.586-.734 0-1.343.195-1.828.586-.479.39-.836.909-1.07 1.554a6.227 6.227 0 0 0-.344 2.11c0 .77.115 1.476.344 2.117.234.64.591 1.154 1.07 1.54.485.384 1.094.577 1.828.577Z"/></svg>