<svg width="16" height="16" viewBox="0 0 16 16" fill="none" xmlns="http://www.w3.org/2000/svg">
<mask id="path-1-inside-1_16_2915" fill="white">
<path fill-rule="evenodd" clip-rule="evenodd" d="M15.3333 3.66683H0.666667C0.489856 3.66683 0.320286 3.59659 0.195262 3.47156C0.0702379 3.34654 0 3.17697 0 3.00016C0 2.82335 0.0702379 2.65378 0.195262 2.52876C0.320286 2.40373 0.489856 2.3335 0.666667 2.3335H15.3333C15.5101 2.3335 15.6797 2.40373 15.8047 2.52876C15.9298 2.65378 16 2.82335 16 3.00016C16 3.17697 15.9298 3.34654 15.8047 3.47156C15.6797 3.59659 15.5101 3.66683 15.3333 3.66683ZM10 7.00015H0.666667C0.489856 7.00015 0.320286 6.92991 0.195262 6.80489C0.0702379 6.67986 0 6.5103 0 6.33348C0 6.15667 0.0702379 5.98711 0.195262 5.86208C0.320286 5.73706 0.489856 5.66682 0.666667 5.66682H10C10.1768 5.66682 10.3464 5.73706 10.4714 5.86208C10.5964 5.98711 10.6667 6.15667 10.6667 6.33348C10.6667 6.5103 10.5964 6.67986 10.4714 6.80489C10.3464 6.92991 10.1768 7.00015 10 7.00015ZM10 12.3335H0.666667C0.489856 12.3335 0.320286 12.4037 0.195262 12.5287C0.0702379 12.6538 0 12.8233 0 13.0001C0 13.1769 0.0702379 13.3465 0.195262 13.4715C0.320286 13.5966 0.489856 13.6668 0.666667 13.6668H10C10.1768 13.6668 10.3464 13.5966 10.4714 13.4715C10.5964 13.3465 10.6667 13.1769 10.6667 13.0001C10.6667 12.8233 10.5964 12.6538 10.4714 12.5287C10.3464 12.4037 10.1768 12.3335 10 12.3335ZM0.666667 9.00017H15.3333C15.5101 9.00017 15.6797 9.07041 15.8047 9.19544C15.9298 9.32046 16 9.49003 16 9.66684C16 9.84365 15.9298 10.0132 15.8047 10.1382C15.6797 10.2633 15.5101 10.3335 15.3333 10.3335H0.666667C0.489856 10.3335 0.320286 10.2633 0.195262 10.1382C0.0702379 10.0132 0 9.84365 0 9.66684C0 9.49003 0.0702379 9.32046 0.195262 9.19544C0.320286 9.07041 0.489856 9.00017 0.666667 9.00017Z"/>
</mask>
<path fill-rule="evenodd" clip-rule="evenodd" d="M15.3333 3.66683H0.666667C0.489856 3.66683 0.320286 3.59659 0.195262 3.47156C0.0702379 3.34654 0 3.17697 0 3.00016C0 2.82335 0.0702379 2.65378 0.195262 2.52876C0.320286 2.40373 0.489856 2.3335 0.666667 2.3335H15.3333C15.5101 2.3335 15.6797 2.40373 15.8047 2.52876C15.9298 2.65378 16 2.82335 16 3.00016C16 3.17697 15.9298 3.34654 15.8047 3.47156C15.6797 3.59659 15.5101 3.66683 15.3333 3.66683ZM10 7.00015H0.666667C0.489856 7.00015 0.320286 6.92991 0.195262 6.80489C0.0702379 6.67986 0 6.5103 0 6.33348C0 6.15667 0.0702379 5.98711 0.195262 5.86208C0.320286 5.73706 0.489856 5.66682 0.666667 5.66682H10C10.1768 5.66682 10.3464 5.73706 10.4714 5.86208C10.5964 5.98711 10.6667 6.15667 10.6667 6.33348C10.6667 6.5103 10.5964 6.67986 10.4714 6.80489C10.3464 6.92991 10.1768 7.00015 10 7.00015ZM10 12.3335H0.666667C0.489856 12.3335 0.320286 12.4037 0.195262 12.5287C0.0702379 12.6538 0 12.8233 0 13.0001C0 13.1769 0.0702379 13.3465 0.195262 13.4715C0.320286 13.5966 0.489856 13.6668 0.666667 13.6668H10C10.1768 13.6668 10.3464 13.5966 10.4714 13.4715C10.5964 13.3465 10.6667 13.1769 10.6667 13.0001C10.6667 12.8233 10.5964 12.6538 10.4714 12.5287C10.3464 12.4037 10.1768 12.3335 10 12.3335ZM0.666667 9.00017H15.3333C15.5101 9.00017 15.6797 9.07041 15.8047 9.19544C15.9298 9.32046 16 9.49003 16 9.66684C16 9.84365 15.9298 10.0132 15.8047 10.1382C15.6797 10.2633 15.5101 10.3335 15.3333 10.3335H0.666667C0.489856 10.3335 0.320286 10.2633 0.195262 10.1382C0.0702379 10.0132 0 9.84365 0 9.66684C0 9.49003 0.0702379 9.32046 0.195262 9.19544C0.320286 9.07041 0.489856 9.00017 0.666667 9.00017Z" fill="#7C7B88"/>
<path d="M0.195262 3.47156L15.2802 -11.6134L15.2802 -11.6134L0.195262 3.47156ZM0.195262 2.52876L15.2802 17.6137L15.2802 17.6137L0.195262 2.52876ZM15.8047 2.52876L30.8897 -12.5562L30.8896 -12.5562L15.8047 2.52876ZM15.8047 3.47156L30.8896 18.5566L30.8897 18.5565L15.8047 3.47156ZM0.195262 6.80489L15.2802 -8.28008L15.2802 -8.28008L0.195262 6.80489ZM0.195262 5.86208L15.2802 20.9471L15.2802 20.947L0.195262 5.86208ZM10.4714 5.86208L25.5563 -9.22286L25.5563 -9.22291L10.4714 5.86208ZM10.4714 6.80489L25.5563 21.8899L25.5563 21.8898L10.4714 6.80489ZM0.195262 12.5287L15.2802 27.6136L15.2802 27.6136L0.195262 12.5287ZM0.195262 13.4715L15.2802 -1.61337L15.2802 -1.61337L0.195262 13.4715ZM10.4714 13.4715L25.5563 28.5565L25.5564 28.5564L10.4714 13.4715ZM10.4714 12.5287L25.5564 -2.55616L25.5563 -2.55621L10.4714 12.5287ZM15.8047 9.19544L30.8898 -5.88942L30.8897 -5.88951L15.8047 9.19544ZM15.8047 10.1382L30.8897 25.2232L30.8898 25.2231L15.8047 10.1382ZM0.195262 10.1382L-14.8897 25.2231L-14.8897 25.2232L0.195262 10.1382ZM0.195262 9.19544L-14.8897 -5.88948L-14.8897 -5.88945L0.195262 9.19544ZM0.666667 25.0002H15.3333V-17.6665H0.666667V25.0002ZM-14.8897 18.5565C-10.7639 22.6823 -5.16809 25.0002 0.666667 25.0002V-17.6665C6.14781 -17.6665 11.4044 -15.4891 15.2802 -11.6134L-14.8897 18.5565ZM-21.3333 3.00016C-21.3333 8.83494 -19.0155 14.4307 -14.8897 18.5565L15.2802 -11.6134C19.1559 -7.73765 21.3333 -2.481 21.3333 3.00016H-21.3333ZM-14.8897 -12.5562C-19.0155 -8.43041 -21.3333 -2.83462 -21.3333 3.00016H21.3333C21.3333 8.48132 19.1559 13.738 15.2802 17.6137L-14.8897 -12.5562ZM0.666667 -18.9998C-5.16808 -18.9998 -10.7639 -16.682 -14.8897 -12.5562L15.2802 17.6137C11.4044 21.4895 6.14779 23.6668 0.666667 23.6668V-18.9998ZM15.3333 -18.9998H0.666667V23.6668H15.3333V-18.9998ZM30.8896 -12.5562C26.7639 -16.682 21.1681 -18.9998 15.3333 -18.9998V23.6668C9.8522 23.6668 4.59558 21.4895 0.719841 17.6138L30.8896 -12.5562ZM37.3333 3.00016C37.3333 -2.83455 35.0155 -8.43035 30.8897 -12.5562L0.719784 17.6137C-3.15599 13.7379 -5.33333 8.48126 -5.33333 3.00016H37.3333ZM30.8897 18.5565C35.0155 14.4307 37.3333 8.83488 37.3333 3.00016H-5.33333C-5.33333 -2.48093 -3.15599 -7.73759 0.719787 -11.6134L30.8897 18.5565ZM15.3333 25.0002C21.1681 25.0002 26.7639 22.6823 30.8896 18.5566L0.719837 -11.6134C4.59556 -15.4891 9.85218 -17.6665 15.3333 -17.6665V25.0002ZM0.666667 28.3335H10V-14.3332H0.666667V28.3335ZM-14.8897 21.8899C-10.7639 26.0156 -5.16811 28.3335 0.666667 28.3335V-14.3332C6.14782 -14.3332 11.4045 -12.1558 15.2802 -8.28008L-14.8897 21.8899ZM-21.3333 6.33348C-21.3333 12.1683 -19.0155 17.7641 -14.8897 21.8899L15.2802 -8.28008C19.156 -4.40433 21.3333 0.852332 21.3333 6.33348H-21.3333ZM-14.8897 -9.22289C-19.0155 -5.09709 -21.3333 0.498707 -21.3333 6.33348H21.3333C21.3333 11.8146 19.1559 17.0713 15.2802 20.9471L-14.8897 -9.22289ZM0.666667 -15.6665C-5.16809 -15.6665 -10.7639 -13.3487 -14.8897 -9.22287L15.2802 20.947C11.4044 24.8228 6.14781 27.0002 0.666667 27.0002V-15.6665ZM10 -15.6665H0.666667V27.0002H10V-15.6665ZM25.5563 -9.22291C21.4305 -13.3487 15.8348 -15.6665 10 -15.6665V27.0002C4.51885 27.0002 -0.737772 24.8228 -4.6135 20.9471L25.5563 -9.22291ZM32 6.33348C32 0.498693 29.6821 -5.09708 25.5563 -9.22286L-4.61354 20.947C-8.48927 17.0713 -10.6667 11.8147 -10.6667 6.33348H32ZM25.5563 21.8898C29.6821 17.7641 32 12.1683 32 6.33348H-10.6667C-10.6667 0.852318 -8.48928 -4.40432 -4.61354 -8.28006L25.5563 21.8898ZM10 28.3335C15.8348 28.3335 21.4305 26.0156 25.5563 21.8899L-4.61348 -8.28011C-0.737776 -12.1558 4.51883 -14.3332 10 -14.3332V28.3335ZM0.666667 33.6668H10V-8.99987H0.666667V33.6668ZM15.2802 27.6136C11.4045 31.4894 6.14783 33.6668 0.666667 33.6668V-8.99987C-5.16812 -8.99987 -10.7639 -6.682 -14.8897 -2.55618L15.2802 27.6136ZM21.3333 13.0001C21.3333 18.4812 19.156 23.7379 15.2802 27.6136L-14.8897 -2.55618C-19.0155 1.56964 -21.3333 7.16543 -21.3333 13.0001H21.3333ZM15.2802 -1.61337C19.156 2.26242 21.3333 7.51907 21.3333 13.0001H-21.3333C-21.3333 18.8348 -19.0155 24.4306 -14.8897 28.5565L15.2802 -1.61337ZM0.666667 -7.66653C6.14783 -7.66653 11.4045 -5.48913 15.2802 -1.61337L-14.8897 28.5565C-10.7639 32.6823 -5.16812 35.0001 0.666667 35.0001V-7.66653ZM10 -7.66653H0.666667V35.0001H10V-7.66653ZM-4.61354 -1.6134C-0.737815 -5.48913 4.51882 -7.66653 10 -7.66653V35.0001C15.8348 35.0001 21.4306 32.6823 25.5563 28.5565L-4.61354 -1.6134ZM-10.6667 13.0001C-10.6667 7.51905 -8.48933 2.26242 -4.6136 -1.61334L25.5564 28.5564C29.6822 24.4306 32 18.8348 32 13.0001H-10.6667ZM-4.6136 27.6136C-8.48932 23.7379 -10.6667 18.4812 -10.6667 13.0001H32C32 7.16541 29.6822 1.56965 25.5564 -2.55616L-4.6136 27.6136ZM10 33.6668C4.51882 33.6668 -0.737815 31.4894 -4.61354 27.6137L25.5563 -2.55621C21.4306 -6.68199 15.8348 -8.99987 10 -8.99987V33.6668ZM15.3333 -12.3332H0.666667V30.3335H15.3333V-12.3332ZM30.8897 -5.88951C26.7639 -10.0153 21.1682 -12.3332 15.3333 -12.3332V30.3335C9.85212 30.3335 4.59549 28.1561 0.719794 24.2804L30.8897 -5.88951ZM37.3333 9.66684C37.3333 3.83217 35.0156 -1.76359 30.8898 -5.88942L0.719708 24.2803C-3.15603 20.4045 -5.33333 15.1479 -5.33333 9.66684H37.3333ZM30.8898 25.2231C35.0156 21.0973 37.3333 15.5015 37.3333 9.66684H-5.33333C-5.33333 4.18579 -3.15603 -1.07083 0.719708 -4.94661L30.8898 25.2231ZM15.3333 31.6668C21.1682 31.6668 26.7639 29.3489 30.8897 25.2232L0.719794 -4.9467C4.59549 -8.82239 9.85212 -10.9998 15.3333 -10.9998V31.6668ZM0.666667 31.6668H15.3333V-10.9998H0.666667V31.6668ZM-14.8897 25.2232C-10.7639 29.349 -5.16816 31.6668 0.666667 31.6668V-10.9998C6.14787 -10.9998 11.4045 -8.8224 15.2802 -4.94666L-14.8897 25.2232ZM-21.3333 9.66684C-21.3333 15.5016 -19.0155 21.0973 -14.8897 25.2231L15.2803 -4.94663C19.156 -1.07089 21.3333 4.18573 21.3333 9.66684H-21.3333ZM-14.8897 -5.88945C-19.0155 -1.76365 -21.3333 3.83211 -21.3333 9.66684H21.3333C21.3333 15.148 19.156 20.4046 15.2803 24.2803L-14.8897 -5.88945ZM0.666667 -12.3332C-5.16816 -12.3332 -10.7639 -10.0153 -14.8897 -5.88948L15.2802 24.2803C11.4045 28.1561 6.14787 30.3335 0.666667 30.3335V-12.3332Z" fill="#7C7B88" mask="url(#path-1-inside-1_16_2915)"/>
</svg>
