<svg width="16" height="16" viewBox="0 0 16 16" fill="none" xmlns="http://www.w3.org/2000/svg">
<path d="M12.6667 2.66667H11.9333C11.7786 1.91428 11.3692 1.23823 10.7742 0.752479C10.1791 0.266727 9.4348 0.000969683 8.66667 0L7.33333 0C6.5652 0.000969683 5.82088 0.266727 5.22583 0.752479C4.63079 1.23823 4.2214 1.91428 4.06667 2.66667H3.33333C2.4496 2.66773 1.60237 3.01925 0.97748 3.64415C0.352588 4.26904 0.00105857 5.11627 0 6L0 12.6667C0.00105857 13.5504 0.352588 14.3976 0.97748 15.0225C1.60237 15.6474 2.4496 15.9989 3.33333 16H12.6667C13.5504 15.9989 14.3976 15.6474 15.0225 15.0225C15.6474 14.3976 15.9989 13.5504 16 12.6667V6C15.9989 5.11627 15.6474 4.26904 15.0225 3.64415C14.3976 3.01925 13.5504 2.66773 12.6667 2.66667V2.66667ZM7.33333 1.33333H8.66667C9.07884 1.33504 9.48042 1.46406 9.81647 1.70273C10.1525 1.94139 10.4066 2.27806 10.544 2.66667H5.456C5.59339 2.27806 5.84749 1.94139 6.18353 1.70273C6.51958 1.46406 6.92116 1.33504 7.33333 1.33333V1.33333ZM3.33333 4H12.6667C13.1971 4 13.7058 4.21071 14.0809 4.58579C14.456 4.96086 14.6667 5.46957 14.6667 6V8H1.33333V6C1.33333 5.46957 1.54405 4.96086 1.91912 4.58579C2.29419 4.21071 2.8029 4 3.33333 4V4ZM12.6667 14.6667H3.33333C2.8029 14.6667 2.29419 14.456 1.91912 14.0809C1.54405 13.7058 1.33333 13.1971 1.33333 12.6667V9.33333H7.33333V10C7.33333 10.1768 7.40357 10.3464 7.5286 10.4714C7.65362 10.5964 7.82319 10.6667 8 10.6667C8.17681 10.6667 8.34638 10.5964 8.4714 10.4714C8.59643 10.3464 8.66667 10.1768 8.66667 10V9.33333H14.6667V12.6667C14.6667 13.1971 14.456 13.7058 14.0809 14.0809C13.7058 14.456 13.1971 14.6667 12.6667 14.6667Z" fill="#7C7B88"/>
</svg>
