<svg width="16" height="16" viewBox="0 0 16 16" fill="none" xmlns="http://www.w3.org/2000/svg">
<g clip-path="url(#clip0_23_3052)">
<path d="M4.66667 9.33333C4.66667 9.51014 4.59643 9.67971 4.4714 9.80474C4.34638 9.92976 4.17681 10 4 10H3.33333C3.15652 10 2.98695 9.92976 2.86193 9.80474C2.7369 9.67971 2.66667 9.51014 2.66667 9.33333C2.66667 9.15652 2.7369 8.98695 2.86193 8.86193C2.98695 8.7369 3.15652 8.66667 3.33333 8.66667H4C4.17681 8.66667 4.34638 8.7369 4.4714 8.86193C4.59643 8.98695 4.66667 9.15652 4.66667 9.33333ZM7.33333 8.66667H6.66667C6.48986 8.66667 6.32029 8.7369 6.19526 8.86193C6.07024 8.98695 6 9.15652 6 9.33333C6 9.51014 6.07024 9.67971 6.19526 9.80474C6.32029 9.92976 6.48986 10 6.66667 10H7.33333C7.51014 10 7.67971 9.92976 7.80474 9.80474C7.92976 9.67971 8 9.51014 8 9.33333C8 9.15652 7.92976 8.98695 7.80474 8.86193C7.67971 8.7369 7.51014 8.66667 7.33333 8.66667ZM4 11.3333H3.33333C3.15652 11.3333 2.98695 11.4036 2.86193 11.5286C2.7369 11.6536 2.66667 11.8232 2.66667 12C2.66667 12.1768 2.7369 12.3464 2.86193 12.4714C2.98695 12.5964 3.15652 12.6667 3.33333 12.6667H4C4.17681 12.6667 4.34638 12.5964 4.4714 12.4714C4.59643 12.3464 4.66667 12.1768 4.66667 12C4.66667 11.8232 4.59643 11.6536 4.4714 11.5286C4.34638 11.4036 4.17681 11.3333 4 11.3333ZM7.33333 11.3333H6.66667C6.48986 11.3333 6.32029 11.4036 6.19526 11.5286C6.07024 11.6536 6 11.8232 6 12C6 12.1768 6.07024 12.3464 6.19526 12.4714C6.32029 12.5964 6.48986 12.6667 6.66667 12.6667H7.33333C7.51014 12.6667 7.67971 12.5964 7.80474 12.4714C7.92976 12.3464 8 12.1768 8 12C8 11.8232 7.92976 11.6536 7.80474 11.5286C7.67971 11.4036 7.51014 11.3333 7.33333 11.3333ZM4 3.33333H3.33333C3.15652 3.33333 2.98695 3.40357 2.86193 3.5286C2.7369 3.65362 2.66667 3.82319 2.66667 4C2.66667 4.17681 2.7369 4.34638 2.86193 4.4714C2.98695 4.59643 3.15652 4.66667 3.33333 4.66667H4C4.17681 4.66667 4.34638 4.59643 4.4714 4.4714C4.59643 4.34638 4.66667 4.17681 4.66667 4C4.66667 3.82319 4.59643 3.65362 4.4714 3.5286C4.34638 3.40357 4.17681 3.33333 4 3.33333ZM7.33333 3.33333H6.66667C6.48986 3.33333 6.32029 3.40357 6.19526 3.5286C6.07024 3.65362 6 3.82319 6 4C6 4.17681 6.07024 4.34638 6.19526 4.4714C6.32029 4.59643 6.48986 4.66667 6.66667 4.66667H7.33333C7.51014 4.66667 7.67971 4.59643 7.80474 4.4714C7.92976 4.34638 8 4.17681 8 4C8 3.82319 7.92976 3.65362 7.80474 3.5286C7.67971 3.40357 7.51014 3.33333 7.33333 3.33333ZM4 6H3.33333C3.15652 6 2.98695 6.07024 2.86193 6.19526C2.7369 6.32029 2.66667 6.48986 2.66667 6.66667C2.66667 6.84348 2.7369 7.01305 2.86193 7.13807C2.98695 7.2631 3.15652 7.33333 3.33333 7.33333H4C4.17681 7.33333 4.34638 7.2631 4.4714 7.13807C4.59643 7.01305 4.66667 6.84348 4.66667 6.66667C4.66667 6.48986 4.59643 6.32029 4.4714 6.19526C4.34638 6.07024 4.17681 6 4 6ZM7.33333 6H6.66667C6.48986 6 6.32029 6.07024 6.19526 6.19526C6.07024 6.32029 6 6.48986 6 6.66667C6 6.84348 6.07024 7.01305 6.19526 7.13807C6.32029 7.2631 6.48986 7.33333 6.66667 7.33333H7.33333C7.51014 7.33333 7.67971 7.2631 7.80474 7.13807C7.92976 7.01305 8 6.84348 8 6.66667C8 6.48986 7.92976 6.32029 7.80474 6.19526C7.67971 6.07024 7.51014 6 7.33333 6ZM16 6.66667V12.6667C15.9989 13.5504 15.6474 14.3976 15.0225 15.0225C14.3976 15.6474 13.5504 15.9989 12.6667 16H3.33333C2.4496 15.9989 1.60237 15.6474 0.97748 15.0225C0.352588 14.3976 0.00105857 13.5504 0 12.6667L0 3.33333C0.00105857 2.4496 0.352588 1.60237 0.97748 0.97748C1.60237 0.352588 2.4496 0.00105857 3.33333 0L7.33333 0C8.21706 0.00105857 9.0643 0.352588 9.68919 0.97748C10.3141 1.60237 10.6656 2.4496 10.6667 3.33333H12.6667C13.5504 3.33439 14.3976 3.68592 15.0225 4.31081C15.6474 4.93571 15.9989 5.78294 16 6.66667V6.66667ZM3.33333 14.6667H9.33333V3.33333C9.33333 2.8029 9.12262 2.29419 8.74755 1.91912C8.37247 1.54405 7.86377 1.33333 7.33333 1.33333H3.33333C2.8029 1.33333 2.29419 1.54405 1.91912 1.91912C1.54405 2.29419 1.33333 2.8029 1.33333 3.33333V12.6667C1.33333 13.1971 1.54405 13.7058 1.91912 14.0809C2.29419 14.456 2.8029 14.6667 3.33333 14.6667ZM14.6667 6.66667C14.6667 6.13623 14.456 5.62753 14.0809 5.25245C13.7058 4.87738 13.1971 4.66667 12.6667 4.66667H10.6667V14.6667H12.6667C13.1971 14.6667 13.7058 14.456 14.0809 14.0809C14.456 13.7058 14.6667 13.1971 14.6667 12.6667V6.66667ZM12.6667 8.66667C12.5348 8.66667 12.4059 8.70577 12.2963 8.77902C12.1867 8.85227 12.1012 8.95639 12.0507 9.07821C12.0003 9.20003 11.9871 9.33407 12.0128 9.46339C12.0385 9.59271 12.102 9.7115 12.1953 9.80474C12.2885 9.89797 12.4073 9.96147 12.5366 9.98719C12.6659 10.0129 12.8 9.99971 12.9218 9.94925C13.0436 9.89879 13.1477 9.81335 13.221 9.70371C13.2942 9.59408 13.3333 9.46519 13.3333 9.33333C13.3333 9.15652 13.2631 8.98695 13.1381 8.86193C13.013 8.7369 12.8435 8.66667 12.6667 8.66667ZM12.6667 11.3333C12.5348 11.3333 12.4059 11.3724 12.2963 11.4457C12.1867 11.5189 12.1012 11.6231 12.0507 11.7449C12.0003 11.8667 11.9871 12.0007 12.0128 12.1301C12.0385 12.2594 12.102 12.3782 12.1953 12.4714C12.2885 12.5646 12.4073 12.6281 12.5366 12.6539C12.6659 12.6796 12.8 12.6664 12.9218 12.6159C13.0436 12.5655 13.1477 12.48 13.221 12.3704C13.2942 12.2607 13.3333 12.1319 13.3333 12C13.3333 11.8232 13.2631 11.6536 13.1381 11.5286C13.013 11.4036 12.8435 11.3333 12.6667 11.3333ZM12.6667 6C12.5348 6 12.4059 6.0391 12.2963 6.11235C12.1867 6.18561 12.1012 6.28973 12.0507 6.41154C12.0003 6.53336 11.9871 6.66741 12.0128 6.79673C12.0385 6.92605 12.102 7.04484 12.1953 7.13807C12.2885 7.23131 12.4073 7.2948 12.5366 7.32052C12.6659 7.34625 12.8 7.33305 12.9218 7.28259C13.0436 7.23213 13.1477 7.14668 13.221 7.03705C13.2942 6.92741 13.3333 6.79852 13.3333 6.66667C13.3333 6.48986 13.2631 6.32029 13.1381 6.19526C13.013 6.07024 12.8435 6 12.6667 6Z" fill="#7C7B88"/>
</g>
<defs>
<clipPath id="clip0_23_3052">
<rect width="16" height="16" fill="white"/>
</clipPath>
</defs>
</svg>
