<svg width="16" height="16" viewBox="0 0 16 16" fill="none" xmlns="http://www.w3.org/2000/svg">
<g clip-path="url(#clip0_16_2918)">
<mask id="path-1-inside-1_16_2918" fill="white">
<path d="M15.3333 3.33333H13.6093L15.1379 1.80467C15.2594 1.67893 15.3266 1.51053 15.3251 1.33573C15.3235 1.16093 15.2534 0.993726 15.1298 0.870121C15.0062 0.746516 14.839 0.676403 14.6642 0.674884C14.4894 0.673365 14.321 0.740561 14.1953 0.862L12.6666 2.39067V0.666667C12.6666 0.489856 12.5964 0.320286 12.4713 0.195262C12.3463 0.0702379 12.1768 0 11.9999 0C11.8231 0 11.6536 0.0702379 11.5285 0.195262C11.4035 0.320286 11.3333 0.489856 11.3333 0.666667V3.63733C10.7876 3.05641 10.1434 2.57657 9.43061 2.22C8.93012 1.99924 8.37122 1.94803 7.83894 2.07415C7.30667 2.20026 6.83017 2.49681 6.48194 2.91867C5.30994 4.09067 2.04328 10.0807 0.199943 13.546C0.0379359 13.8613 -0.0197973 14.2199 0.0350612 14.5701C0.0899197 14.9203 0.254538 15.2441 0.505198 15.4947C0.755858 15.7454 1.07962 15.91 1.42984 15.9649C1.78005 16.0197 2.13864 15.962 2.45394 15.8C5.92061 13.9573 11.9093 10.69 13.0813 9.518C13.503 9.16984 13.7995 8.69349 13.9258 8.16138C14.052 7.62927 14.001 7.0705 13.7806 6.57C13.4236 5.85709 12.9435 5.21277 12.3626 4.66667H15.3333C15.5101 4.66667 15.6797 4.59643 15.8047 4.4714C15.9297 4.34638 15.9999 4.17681 15.9999 4C15.9999 3.82319 15.9297 3.65362 15.8047 3.5286C15.6797 3.40357 15.5101 3.33333 15.3333 3.33333ZM12.1386 8.57533C11.662 8.98316 11.1505 9.34834 10.6099 9.66667L9.13794 8.19533C9.01221 8.0739 8.84381 8.0067 8.66901 8.00822C8.49421 8.00974 8.327 8.07985 8.2034 8.20345C8.07979 8.32706 8.00968 8.49427 8.00816 8.66907C8.00664 8.84386 8.07384 9.01227 8.19528 9.138L9.44194 10.384C7.61128 11.4793 4.98261 12.9453 1.82794 14.6227C1.76493 14.6561 1.69285 14.6684 1.62231 14.6578C1.55177 14.6473 1.48649 14.6143 1.43605 14.5639C1.38561 14.5135 1.35268 14.4482 1.3421 14.3776C1.33152 14.3071 1.34385 14.235 1.37728 14.172C2.39194 12.2647 3.32594 10.556 4.15061 9.09333L5.52861 10.4713C5.65434 10.5928 5.82275 10.66 5.99754 10.6584C6.17234 10.6569 6.33955 10.5868 6.46316 10.4632C6.58676 10.3396 6.65687 10.1724 6.65839 9.9976C6.65991 9.8228 6.59271 9.6544 6.47128 9.52867L4.83394 7.89133C5.56061 6.632 6.17128 5.62467 6.63994 4.916L8.19528 6.47133C8.32101 6.59277 8.48941 6.65997 8.66421 6.65845C8.83901 6.65693 9.00622 6.58682 9.12982 6.46321C9.25343 6.33961 9.32354 6.1724 9.32506 5.9976C9.32658 5.8228 9.25938 5.6544 9.13794 5.52867L7.44928 3.84C8.01394 3.314 8.35994 3.22533 8.90461 3.44533C9.66065 3.8768 10.3386 4.43258 10.9099 5.08933C11.5669 5.66088 12.123 6.33904 12.5546 7.09533C12.7206 7.482 12.7853 7.92933 12.1386 8.57533Z"/>
</mask>
<path d="M15.3333 3.33333H13.6093L15.1379 1.80467C15.2594 1.67893 15.3266 1.51053 15.3251 1.33573C15.3235 1.16093 15.2534 0.993726 15.1298 0.870121C15.0062 0.746516 14.839 0.676403 14.6642 0.674884C14.4894 0.673365 14.321 0.740561 14.1953 0.862L12.6666 2.39067V0.666667C12.6666 0.489856 12.5964 0.320286 12.4713 0.195262C12.3463 0.0702379 12.1768 0 11.9999 0C11.8231 0 11.6536 0.0702379 11.5285 0.195262C11.4035 0.320286 11.3333 0.489856 11.3333 0.666667V3.63733C10.7876 3.05641 10.1434 2.57657 9.43061 2.22C8.93012 1.99924 8.37122 1.94803 7.83894 2.07415C7.30667 2.20026 6.83017 2.49681 6.48194 2.91867C5.30994 4.09067 2.04328 10.0807 0.199943 13.546C0.0379359 13.8613 -0.0197973 14.2199 0.0350612 14.5701C0.0899197 14.9203 0.254538 15.2441 0.505198 15.4947C0.755858 15.7454 1.07962 15.91 1.42984 15.9649C1.78005 16.0197 2.13864 15.962 2.45394 15.8C5.92061 13.9573 11.9093 10.69 13.0813 9.518C13.503 9.16984 13.7995 8.69349 13.9258 8.16138C14.052 7.62927 14.001 7.0705 13.7806 6.57C13.4236 5.85709 12.9435 5.21277 12.3626 4.66667H15.3333C15.5101 4.66667 15.6797 4.59643 15.8047 4.4714C15.9297 4.34638 15.9999 4.17681 15.9999 4C15.9999 3.82319 15.9297 3.65362 15.8047 3.5286C15.6797 3.40357 15.5101 3.33333 15.3333 3.33333ZM12.1386 8.57533C11.662 8.98316 11.1505 9.34834 10.6099 9.66667L9.13794 8.19533C9.01221 8.0739 8.84381 8.0067 8.66901 8.00822C8.49421 8.00974 8.327 8.07985 8.2034 8.20345C8.07979 8.32706 8.00968 8.49427 8.00816 8.66907C8.00664 8.84386 8.07384 9.01227 8.19528 9.138L9.44194 10.384C7.61128 11.4793 4.98261 12.9453 1.82794 14.6227C1.76493 14.6561 1.69285 14.6684 1.62231 14.6578C1.55177 14.6473 1.48649 14.6143 1.43605 14.5639C1.38561 14.5135 1.35268 14.4482 1.3421 14.3776C1.33152 14.3071 1.34385 14.235 1.37728 14.172C2.39194 12.2647 3.32594 10.556 4.15061 9.09333L5.52861 10.4713C5.65434 10.5928 5.82275 10.66 5.99754 10.6584C6.17234 10.6569 6.33955 10.5868 6.46316 10.4632C6.58676 10.3396 6.65687 10.1724 6.65839 9.9976C6.65991 9.8228 6.59271 9.6544 6.47128 9.52867L4.83394 7.89133C5.56061 6.632 6.17128 5.62467 6.63994 4.916L8.19528 6.47133C8.32101 6.59277 8.48941 6.65997 8.66421 6.65845C8.83901 6.65693 9.00622 6.58682 9.12982 6.46321C9.25343 6.33961 9.32354 6.1724 9.32506 5.9976C9.32658 5.8228 9.25938 5.6544 9.13794 5.52867L7.44928 3.84C8.01394 3.314 8.35994 3.22533 8.90461 3.44533C9.66065 3.8768 10.3386 4.43258 10.9099 5.08933C11.5669 5.66088 12.123 6.33904 12.5546 7.09533C12.7206 7.482 12.7853 7.92933 12.1386 8.57533Z" fill="#7C7B88"/>
<path d="M13.6093 3.33333L-1.47566 -11.7516L-37.894 24.6667H13.6093V3.33333ZM15.1379 1.80467L30.2229 16.8896L30.354 16.7585L30.4828 16.6252L15.1379 1.80467ZM14.1953 0.862L-0.625243 -14.4828L-0.758586 -14.354L-0.889671 -14.2229L14.1953 0.862ZM12.6666 2.39067H-8.66672V53.8939L27.7516 17.4756L12.6666 2.39067ZM11.9999 0L11.9999 -21.3333L11.9999 0ZM11.3333 3.63733L-4.21576 18.2435L32.6666 57.5068V3.63733H11.3333ZM9.43061 2.22L18.9746 -16.8594L18.5127 -17.0905L18.0401 -17.2989L9.43061 2.22ZM6.48194 2.91867L21.5669 18.0036L22.2864 17.2841L22.9342 16.4994L6.48194 2.91867ZM0.199943 13.546L-18.6345 3.52729L-18.7058 3.66128L-18.7751 3.79628L0.199943 13.546ZM2.45394 15.8L12.2037 34.7751L12.3357 34.7072L12.4668 34.6376L2.45394 15.8ZM13.0813 9.518L-0.500414 -6.93341L-1.28461 -6.286L-2.00367 -5.56694L13.0813 9.518ZM13.7806 6.57L33.3046 -2.02798L33.0918 -2.5111L32.8554 -2.9831L13.7806 6.57ZM12.3626 4.66667V-16.6667H-41.4783L-2.24916 20.2104L12.3626 4.66667ZM12.1386 8.57533L26.0082 24.7848L26.6335 24.2497L27.2158 23.6681L12.1386 8.57533ZM10.6099 9.66667L-4.47158 24.755L7.20732 36.4286L21.4359 28.049L10.6099 9.66667ZM9.13794 8.19533L24.2195 -6.89303L24.0901 -7.02237L23.9585 -7.14948L9.13794 8.19533ZM8.19528 9.138L-7.14954 23.9585L-7.01877 24.0939L-6.88564 24.227L8.19528 9.138ZM9.44194 10.384L20.3953 28.6907L43.8784 14.6402L24.5229 -4.70498L9.44194 10.384ZM1.82794 14.6227L11.8243 33.469L11.8337 33.464L11.8432 33.459L1.82794 14.6227ZM1.37728 14.172L-17.4568 4.15261L-17.4629 4.16414L-17.4691 4.17567L1.37728 14.172ZM4.15061 9.09333L19.2356 -5.99161L-0.632817 -25.86L-14.4326 -1.38407L4.15061 9.09333ZM5.52861 10.4713L-9.55633 25.5563L-9.42525 25.6874L-9.29191 25.8161L5.52861 10.4713ZM6.47128 9.52867L21.8161 -5.29185L21.6873 -5.42519L21.5562 -5.55628L6.47128 9.52867ZM4.83394 7.89133L-13.6439 -2.77082L-21.8232 11.4041L-10.251 22.9763L4.83394 7.89133ZM6.63994 4.916L21.7249 -10.1689L3.25463 -28.6392L-11.1541 -6.85185L6.63994 4.916ZM8.19528 6.47133L-6.88967 21.5563L-6.75858 21.6874L-6.62524 21.8161L8.19528 6.47133ZM9.13794 5.52867L24.4828 -9.29185L24.354 -9.42519L24.2229 -9.55628L9.13794 5.52867ZM7.44928 3.84L-7.09174 -11.7699L-23.2649 3.29573L-7.63567 18.9249L7.44928 3.84ZM8.90461 3.44533L19.4786 -15.0831L18.2287 -15.7964L16.8944 -16.3353L8.90461 3.44533ZM10.9099 5.08933L-5.18508 19.0915L-4.21126 20.2109L-3.09186 21.1847L10.9099 5.08933ZM12.5546 7.09533L32.1578 -1.32051L31.6813 -2.43048L31.0825 -3.47956L12.5546 7.09533ZM15.3333 -18H13.6093V24.6667H15.3333V-18ZM28.6942 18.4183L30.2229 16.8896L0.0530025 -13.2803L-1.47566 -11.7516L28.6942 18.4183ZM30.4828 16.6252C34.4902 12.4759 36.7077 6.91868 36.6576 1.15036L-6.00747 1.52111C-6.05456 -3.89762 -3.97148 -9.11807 -0.206872 -13.0159L30.4828 16.6252ZM36.6576 1.15036C36.6075 -4.61801 34.2937 -10.1359 30.2148 -14.2148L0.0448771 15.9551C-3.78686 12.1233 -5.96038 6.93988 -6.00747 1.52111L36.6576 1.15036ZM30.2148 -14.2148C26.1358 -18.2938 20.6179 -20.6075 14.8496 -20.6576L14.4788 22.0074C9.06011 21.9603 3.87665 19.7868 0.0448771 15.9551L30.2148 -14.2148ZM14.8496 -20.6576C9.08127 -20.7078 3.52401 -18.4903 -0.625243 -14.4828L29.0158 16.2068C25.118 19.9714 19.8976 22.0545 14.4788 22.0074L14.8496 -20.6576ZM-0.889671 -14.2229L-2.41834 -12.6943L27.7516 17.4756L29.2802 15.9469L-0.889671 -14.2229ZM33.9999 2.39067V0.666667H-8.66672V2.39067H33.9999ZM33.9999 0.666667C33.9999 -5.16806 31.6821 -10.7639 27.5563 -14.8897L-2.6136 15.2802C-6.48938 11.4044 -8.66672 6.14777 -8.66672 0.666667H33.9999ZM27.5563 -14.8897C23.4305 -19.0155 17.8347 -21.3333 11.9999 -21.3333L11.9999 21.3333C6.51882 21.3333 1.26217 19.156 -2.6136 15.2802L27.5563 -14.8897ZM11.9999 -21.3333C6.1652 -21.3333 0.569405 -19.0155 -3.55641 -14.8897L26.6135 15.2802C22.7377 19.156 17.4811 21.3333 11.9999 21.3333L11.9999 -21.3333ZM-3.55641 -14.8897C-7.68224 -10.7639 -10.0001 -5.16806 -10.0001 0.666667H32.6666C32.6666 6.14777 30.4893 11.4044 26.6135 15.2802L-3.55641 -14.8897ZM-10.0001 0.666667V3.63733H32.6666V0.666667H-10.0001ZM26.8823 -10.9688C24.6143 -13.3832 21.9372 -15.3774 18.9746 -16.8594L-0.11336 21.2994C-1.6503 20.5306 -3.03916 19.496 -4.21576 18.2435L26.8823 -10.9688ZM18.0401 -17.2989C13.2858 -19.396 7.97659 -19.8825 2.92034 -18.6844L12.7575 22.8327C8.76585 23.7785 4.57444 23.3944 0.82112 21.7389L18.0401 -17.2989ZM2.92034 -18.6844C-2.1359 -17.4864 -6.66237 -14.6694 -9.97028 -10.662L22.9342 16.4994C20.3227 19.663 16.7492 21.8869 12.7575 22.8327L2.92034 -18.6844ZM-8.603 -12.1663C-10.7591 -10.0102 -12.3193 -7.51305 -12.6998 -6.91891C-13.4628 -5.72753 -14.2302 -4.42968 -14.9043 -3.25645C-16.2702 -0.879389 -17.6747 1.72286 -18.6345 3.52729L19.0344 23.5647C19.9179 21.9038 21.0685 19.7784 22.0897 18.0011C22.6091 17.0972 22.9934 16.4612 23.2302 16.0915C23.3502 15.9041 23.3396 15.9307 23.2195 16.0962C23.1554 16.1846 23.0078 16.3849 22.7872 16.6561C22.5898 16.8986 22.1726 17.3979 21.5669 18.0036L-8.603 -12.1663ZM-18.7751 3.79628C-21.0018 8.12975 -21.7952 13.0582 -21.0413 17.8715L21.1114 11.2687C21.7556 15.3816 21.0776 19.5929 19.175 23.2957L-18.7751 3.79628ZM-21.0413 17.8715C-20.2873 22.6849 -18.0248 27.1346 -14.5797 30.5797L15.5901 0.4098C18.5339 3.35353 20.4671 7.15575 21.1114 11.2687L-21.0413 17.8715ZM-14.5797 30.5797C-11.1347 34.0247 -6.68498 36.2872 -1.8716 37.0412L4.73127 -5.11145C8.84421 -4.46719 12.6464 -2.53391 15.5901 0.4098L-14.5797 30.5797ZM-1.8716 37.0412C2.94174 37.7952 7.87018 37.0017 12.2037 34.7751L-7.29578 -3.17509C-3.5929 -5.07769 0.618361 -5.7557 4.73127 -5.11145L-1.8716 37.0412ZM12.4668 34.6376C14.2769 33.6754 16.8801 32.2705 19.2581 30.9038C20.4318 30.2293 21.7296 29.4618 22.921 28.6986C23.5157 28.3176 26.0113 26.7579 28.1662 24.6029L-2.00367 -5.56694C-1.39847 -6.17215 -0.899627 -6.58911 -0.657278 -6.7863C-0.386322 -7.00676 -0.186153 -7.15428 -0.0978814 -7.21832C0.0675261 -7.33834 0.0939801 -7.34887 -0.0933424 -7.22888C-0.462803 -6.99221 -1.09854 -6.60799 -2.00187 -6.08884C-3.77783 -5.06818 -5.90233 -3.9181 -7.55894 -3.03755L12.4668 34.6376ZM26.663 25.9694C30.6682 22.6628 33.4842 18.139 34.683 13.0855L-6.83152 3.23728C-5.88517 -0.751986 -3.66217 -4.32318 -0.500414 -6.93341L26.663 25.9694ZM34.683 13.0855C35.8818 8.03199 35.3978 2.72526 33.3046 -2.02798L-5.74337 15.168C-7.39579 11.4157 -7.77787 7.22655 -6.83152 3.23728L34.683 13.0855ZM32.8554 -2.9831C31.3746 -5.93983 29.3838 -8.61212 26.9744 -10.8771L-2.24916 20.2104C-3.49669 19.0377 -4.52751 17.654 -5.29423 16.1231L32.8554 -2.9831ZM12.3626 26H15.3333V-16.6667H12.3626V26ZM15.3333 26C21.168 26 26.7638 23.6822 30.8896 19.5563L0.719736 -10.6135C4.59549 -14.4893 9.85214 -16.6667 15.3333 -16.6667V26ZM30.8896 19.5563C35.0155 15.4305 37.3333 9.83473 37.3333 4H-5.33339C-5.33339 -1.4811 -3.15604 -6.73776 0.719736 -10.6135L30.8896 19.5563ZM37.3333 4C37.3333 -1.83473 35.0155 -7.43052 30.8896 -11.5563L0.719736 18.6135C-3.15604 14.7378 -5.33339 9.4811 -5.33339 4H37.3333ZM30.8896 -11.5563C26.7638 -15.6822 21.168 -18 15.3333 -18V24.6667C9.85214 24.6667 4.59549 22.4893 0.719736 18.6135L30.8896 -11.5563ZM-1.73096 -7.63412C-1.2586 -8.03829 -0.75166 -8.4002 -0.215984 -8.71567L21.4359 28.049C23.0526 27.0969 24.5826 26.0046 26.0082 24.7848L-1.73096 -7.63412ZM25.6915 -5.4217L24.2195 -6.89303L-5.94358 23.2837L-4.47158 24.755L25.6915 -5.4217ZM23.9585 -7.14948C19.8092 -11.157 14.252 -13.3744 8.48364 -13.3243L8.85438 29.3407C3.43564 29.3878 -1.7848 27.3047 -5.68258 23.5401L23.9585 -7.14948ZM8.48364 -13.3243C2.71532 -13.2742 -2.80256 -10.9605 -6.88155 -6.88149L23.2883 23.2884C19.4566 27.1202 14.2731 29.2937 8.85438 29.3407L8.48364 -13.3243ZM-6.88155 -6.88149C-10.9605 -2.8025 -13.2742 2.71538 -13.3244 8.48369L29.3407 8.85444C29.2936 14.2732 27.1201 19.4566 23.2883 23.2884L-6.88155 -6.88149ZM-13.3244 8.48369C-13.3745 14.252 -11.157 19.8093 -7.14954 23.9585L23.5401 -5.68252C27.3047 -1.78475 29.3878 3.4357 29.3407 8.85444L-13.3244 8.48369ZM-6.88564 24.227L-5.63897 25.473L24.5229 -4.70498L23.2762 -5.95098L-6.88564 24.227ZM-1.51141 -7.9227C-2.90907 -7.08644 -5.18819 -5.80825 -8.1873 -4.21363L11.8432 33.459C15.1534 31.6989 18.1316 30.0451 20.3953 28.6907L-1.51141 -7.9227ZM-8.16838 -4.22368C-4.19846 -6.32937 0.342205 -7.10603 4.78626 -6.43957L-1.54163 35.7552C3.0435 36.4429 7.72832 35.6415 11.8243 33.469L-8.16838 -4.22368ZM4.78626 -6.43957C9.23029 -5.7731 13.3434 -3.69866 16.521 -0.52105L-13.6489 29.6488C-10.3704 32.9273 -6.12674 35.0676 -1.54163 35.7552L4.78626 -6.43957ZM16.521 -0.52105C19.6985 2.6565 21.773 6.76957 22.4395 11.2137L-19.7553 17.5416C-19.0677 22.1268 -16.9273 26.3704 -13.6489 29.6488L16.521 -0.52105ZM22.4395 11.2137C23.106 15.6578 22.3293 20.1984 20.2236 24.1683L-17.4691 4.17567C-19.6416 8.2716 -20.4429 12.9564 -19.7553 17.5416L22.4395 11.2137ZM20.2114 24.1914C21.1613 22.4058 22.0107 20.8532 22.7338 19.5707L-14.4326 -1.38407C-15.3589 0.258806 -16.3774 2.12356 -17.4568 4.15261L20.2114 24.1914ZM-10.9343 24.1783L-9.55633 25.5563L20.6136 -4.61362L19.2356 -5.99161L-10.9343 24.1783ZM-9.29191 25.8161C-5.14267 29.8236 0.414579 32.0411 6.18292 31.991L5.81217 -10.6741C11.2309 -10.7212 16.4514 -8.63808 20.3491 -4.87348L-9.29191 25.8161ZM6.18292 31.991C11.9512 31.9409 17.4691 29.6271 21.5481 25.5482L-8.62179 -4.62173C-4.79001 -8.45351 0.393454 -10.627 5.81217 -10.6741L6.18292 31.991ZM21.5481 25.5482C25.6271 21.4692 27.9408 15.9513 27.9909 10.183L-14.6741 9.81223C-14.627 4.39351 -12.4536 -0.789952 -8.62179 -4.62173L21.5481 25.5482ZM27.9909 10.183C28.041 4.41464 25.8236 -1.14261 21.8161 -5.29185L-8.87354 24.3492C-12.6381 20.4514 -14.7212 15.231 -14.6741 9.81223L27.9909 10.183ZM21.5562 -5.55628L19.9189 -7.19361L-10.251 22.9763L-8.61367 24.6136L21.5562 -5.55628ZM23.3118 18.5535C23.9582 17.4332 24.3184 16.8586 24.434 16.6839L-11.1541 -6.85185C-11.9759 -5.60927 -12.837 -4.16916 -13.6439 -2.77082L23.3118 18.5535ZM-8.445 20.0009L-6.88967 21.5563L23.2802 -8.61361L21.7249 -10.1689L-8.445 20.0009ZM-6.62524 21.8161C-2.476 25.8236 3.08125 28.0411 8.84958 27.991L8.47884 -14.6741C13.8976 -14.7212 19.118 -12.6381 23.0158 -8.87348L-6.62524 21.8161ZM8.84958 27.991C14.6179 27.9409 20.1358 25.6271 24.2148 21.5482L-5.95512 -8.62173C-2.12334 -12.4535 3.06012 -14.627 8.47884 -14.6741L8.84958 27.991ZM24.2148 21.5482C28.2938 17.4692 30.6075 11.9513 30.6576 6.18297L-12.0075 5.81223C-11.9604 0.393511 -9.7869 -4.78995 -5.95512 -8.62173L24.2148 21.5482ZM30.6576 6.18297C30.7077 0.414636 28.4902 -5.14261 24.4828 -9.29185L-6.20687 20.3492C-9.97147 16.4514 -12.0546 11.231 -12.0075 5.81223L30.6576 6.18297ZM24.2229 -9.55628L22.5342 -11.2449L-7.63567 18.9249L-5.947 20.6136L24.2229 -9.55628ZM21.9903 19.4499C21.5404 19.869 18.6347 22.6468 13.713 23.9674C7.86256 25.5372 3.09712 24.1075 0.914863 23.226L16.8944 -16.3353C14.1674 -17.4368 8.95666 -18.9322 2.65585 -17.2416C-2.71614 -15.8002 -6.07722 -12.715 -7.09174 -11.7699L21.9903 19.4499ZM-1.6694 21.9737C-2.99487 21.2173 -4.1834 20.2429 -5.18508 19.0915L27.005 -8.91286C24.8606 -11.3778 22.3162 -13.4637 19.4786 -15.0831L-1.6694 21.9737ZM-3.09186 21.1847C-4.24291 20.1834 -5.21702 18.9952 -5.97328 17.6702L31.0825 -3.47956C29.4629 -6.31717 27.3768 -8.86161 24.9118 -11.006L-3.09186 21.1847ZM-7.04857 15.5112C-7.75117 13.8746 -9.36111 9.53513 -8.33612 3.91227C-7.34744 -1.51136 -4.5002 -4.95735 -2.93855 -6.51739L27.2158 23.6681C29.4241 21.462 32.5623 17.4694 33.6388 11.5639C34.7517 5.4592 33.0264 0.70273 32.1578 -1.32051L-7.04857 15.5112Z" fill="#7C7B88" mask="url(#path-1-inside-1_16_2918)"/>
</g>
<defs>
<clipPath id="clip0_16_2918">
<rect width="16" height="16" fill="white"/>
</clipPath>
</defs>
</svg>
