<svg width="17" height="16" viewBox="0 0 17 16" fill="none" xmlns="http://www.w3.org/2000/svg">
<g id="code">
<path id="Vector (Stroke)" fill-rule="evenodd" clip-rule="evenodd" d="M10.8619 3.52851C11.1222 3.26816 11.5443 3.26816 11.8047 3.52851L15.8047 7.52851C16.065 7.78886 16.065 8.21097 15.8047 8.47132L11.8047 12.4713C11.5443 12.7317 11.1222 12.7317 10.8619 12.4713C10.6015 12.211 10.6015 11.7889 10.8619 11.5285L14.3905 7.99992L10.8619 4.47132C10.6015 4.21097 10.6015 3.78886 10.8619 3.52851Z" fill="#6F727A"/>
<path id="Vector (Stroke)_2" fill-rule="evenodd" clip-rule="evenodd" d="M6.47132 3.52851C6.73167 3.78886 6.73167 4.21097 6.47132 4.47132L2.94273 7.99992L6.47132 11.5285C6.73167 11.7889 6.73167 12.211 6.47132 12.4713C6.21097 12.7317 5.78886 12.7317 5.52851 12.4713L1.52851 8.47132C1.26816 8.21097 1.26816 7.78886 1.52851 7.52851L5.52851 3.52851C5.78886 3.26816 6.21097 3.26816 6.47132 3.52851Z" fill="#6F727A"/>
</g>
</svg>
