<svg width="16" height="16" viewBox="0 0 16 16" fill="none" xmlns="http://www.w3.org/2000/svg">
<g id="label_important-24px">
<path id="Vector (Stroke)" fill-rule="evenodd" clip-rule="evenodd" d="M10.2881 13.0378L13.759 8.00479L10.2737 2.95463L10.2655 2.9422C10.2105 2.85903 10.1109 2.79992 9.98777 2.79992H2.59268L6.21341 8.00468L2.59931 13.1999H9.98777C10.1074 13.1999 10.2169 13.1426 10.2851 13.0422L10.2881 13.0378ZM0.839915 13.1607L4.42676 8.00468L0.839915 2.84862C0.404302 2.2196 0.839915 1.33325 1.59065 1.33325H9.98777C10.5902 1.33325 11.1556 1.6287 11.4892 2.13382L15.1595 7.45191C15.3912 7.78548 15.3912 8.22389 15.1595 8.55746L11.4985 13.866C11.1556 14.3711 10.5902 14.6666 9.98777 14.6666H1.59065C0.839915 14.6666 0.404302 13.7898 0.839915 13.1607Z" fill="#4D515C"/>
</g>
</svg>
