<svg width="16" height="16" viewBox="0 0 16 16" fill="none" xmlns="http://www.w3.org/2000/svg">
<g id="fi-rr-document-signed" clip-path="url(#clip0_5527_661)">
<g id="Vector">
<mask id="path-1-inside-1_5527_661" fill="white">
<path d="M13.0233 2.08135L11.9193 0.976014C11.6104 0.665555 11.2431 0.419439 10.8384 0.251909C10.4338 0.0843796 9.99994 -0.00123733 9.562 1.35103e-05H5.33333C4.4496 0.00107208 3.60237 0.352602 2.97748 0.977494C2.35259 1.60239 2.00106 2.44962 2 3.33335V12.6667C2.00106 13.5504 2.35259 14.3976 2.97748 15.0225C3.60237 15.6474 4.4496 15.999 5.33333 16H10.6667C11.5504 15.999 12.3976 15.6474 13.0225 15.0225C13.6474 14.3976 13.9989 13.5504 14 12.6667V4.43801C14.0011 4.00014 13.9153 3.56639 13.7477 3.16188C13.58 2.75736 13.3338 2.3901 13.0233 2.08135ZM12.0807 3.02401C12.1752 3.11823 12.2599 3.22188 12.3333 3.33335H10.6667V1.66668C10.778 1.74089 10.8818 1.82574 10.9767 1.92001L12.0807 3.02401ZM12.6667 12.6667C12.6667 13.1971 12.456 13.7058 12.0809 14.0809C11.7058 14.456 11.1971 14.6667 10.6667 14.6667H5.33333C4.8029 14.6667 4.29419 14.456 3.91912 14.0809C3.54405 13.7058 3.33333 13.1971 3.33333 12.6667V3.33335C3.33333 2.80291 3.54405 2.29421 3.91912 1.91913C4.29419 1.54406 4.8029 1.33335 5.33333 1.33335H9.33333V3.33335C9.33333 3.68697 9.47381 4.02611 9.72386 4.27616C9.97391 4.52621 10.313 4.66668 10.6667 4.66668H12.6667V12.6667ZM10.6667 6.00001C10.8435 6.00001 11.013 6.07025 11.1381 6.19528C11.2631 6.3203 11.3333 6.48987 11.3333 6.66668C11.3333 6.84349 11.2631 7.01306 11.1381 7.13809C11.013 7.26311 10.8435 7.33335 10.6667 7.33335H5.33333C5.15652 7.33335 4.98695 7.26311 4.86193 7.13809C4.7369 7.01306 4.66667 6.84349 4.66667 6.66668C4.66667 6.48987 4.7369 6.3203 4.86193 6.19528C4.98695 6.07025 5.15652 6.00001 5.33333 6.00001H10.6667ZM11.3333 9.33335C11.3333 9.51016 11.2631 9.67973 11.1381 9.80475C11.013 9.92978 10.8435 10 10.6667 10H5.33333C5.15652 10 4.98695 9.92978 4.86193 9.80475C4.7369 9.67973 4.66667 9.51016 4.66667 9.33335C4.66667 9.15654 4.7369 8.98697 4.86193 8.86194C4.98695 8.73692 5.15652 8.66668 5.33333 8.66668H10.6667C10.8435 8.66668 11.013 8.73692 11.1381 8.86194C11.2631 8.98697 11.3333 9.15654 11.3333 9.33335ZM11.2053 11.6087C11.309 11.7512 11.3519 11.9291 11.3248 12.1032C11.2977 12.2774 11.2027 12.4337 11.0607 12.538C10.3852 13.0193 9.5852 13.2955 8.75667 13.3333C8.27259 13.331 7.80321 13.1667 7.42333 12.8667C7.20467 12.7167 7.12133 12.6667 6.95667 12.6667C6.51095 12.7357 6.09041 12.9179 5.73533 13.196C5.5945 13.2964 5.42016 13.3381 5.24913 13.3124C5.0781 13.2867 4.92377 13.1955 4.81872 13.0581C4.71368 12.9207 4.66615 12.7478 4.68616 12.576C4.70618 12.4042 4.79218 12.2469 4.926 12.1373C5.51345 11.6813 6.21885 11.4024 6.95933 11.3333C7.40342 11.3404 7.83275 11.4939 8.18067 11.77C8.33926 11.9127 8.54344 11.9942 8.75667 12C9.30178 11.9592 9.82598 11.7729 10.2747 11.4607C10.4177 11.357 10.5961 11.3143 10.7706 11.3421C10.9451 11.3698 11.1015 11.4657 11.2053 11.6087Z"/>
</mask>
<path d="M13.0233 2.08135L11.9193 0.976014C11.6104 0.665555 11.2431 0.419439 10.8384 0.251909C10.4338 0.0843796 9.99994 -0.00123733 9.562 1.35103e-05H5.33333C4.4496 0.00107208 3.60237 0.352602 2.97748 0.977494C2.35259 1.60239 2.00106 2.44962 2 3.33335V12.6667C2.00106 13.5504 2.35259 14.3976 2.97748 15.0225C3.60237 15.6474 4.4496 15.999 5.33333 16H10.6667C11.5504 15.999 12.3976 15.6474 13.0225 15.0225C13.6474 14.3976 13.9989 13.5504 14 12.6667V4.43801C14.0011 4.00014 13.9153 3.56639 13.7477 3.16188C13.58 2.75736 13.3338 2.3901 13.0233 2.08135ZM12.0807 3.02401C12.1752 3.11823 12.2599 3.22188 12.3333 3.33335H10.6667V1.66668C10.778 1.74089 10.8818 1.82574 10.9767 1.92001L12.0807 3.02401ZM12.6667 12.6667C12.6667 13.1971 12.456 13.7058 12.0809 14.0809C11.7058 14.456 11.1971 14.6667 10.6667 14.6667H5.33333C4.8029 14.6667 4.29419 14.456 3.91912 14.0809C3.54405 13.7058 3.33333 13.1971 3.33333 12.6667V3.33335C3.33333 2.80291 3.54405 2.29421 3.91912 1.91913C4.29419 1.54406 4.8029 1.33335 5.33333 1.33335H9.33333V3.33335C9.33333 3.68697 9.47381 4.02611 9.72386 4.27616C9.97391 4.52621 10.313 4.66668 10.6667 4.66668H12.6667V12.6667ZM10.6667 6.00001C10.8435 6.00001 11.013 6.07025 11.1381 6.19528C11.2631 6.3203 11.3333 6.48987 11.3333 6.66668C11.3333 6.84349 11.2631 7.01306 11.1381 7.13809C11.013 7.26311 10.8435 7.33335 10.6667 7.33335H5.33333C5.15652 7.33335 4.98695 7.26311 4.86193 7.13809C4.7369 7.01306 4.66667 6.84349 4.66667 6.66668C4.66667 6.48987 4.7369 6.3203 4.86193 6.19528C4.98695 6.07025 5.15652 6.00001 5.33333 6.00001H10.6667ZM11.3333 9.33335C11.3333 9.51016 11.2631 9.67973 11.1381 9.80475C11.013 9.92978 10.8435 10 10.6667 10H5.33333C5.15652 10 4.98695 9.92978 4.86193 9.80475C4.7369 9.67973 4.66667 9.51016 4.66667 9.33335C4.66667 9.15654 4.7369 8.98697 4.86193 8.86194C4.98695 8.73692 5.15652 8.66668 5.33333 8.66668H10.6667C10.8435 8.66668 11.013 8.73692 11.1381 8.86194C11.2631 8.98697 11.3333 9.15654 11.3333 9.33335ZM11.2053 11.6087C11.309 11.7512 11.3519 11.9291 11.3248 12.1032C11.2977 12.2774 11.2027 12.4337 11.0607 12.538C10.3852 13.0193 9.5852 13.2955 8.75667 13.3333C8.27259 13.331 7.80321 13.1667 7.42333 12.8667C7.20467 12.7167 7.12133 12.6667 6.95667 12.6667C6.51095 12.7357 6.09041 12.9179 5.73533 13.196C5.5945 13.2964 5.42016 13.3381 5.24913 13.3124C5.0781 13.2867 4.92377 13.1955 4.81872 13.0581C4.71368 12.9207 4.66615 12.7478 4.68616 12.576C4.70618 12.4042 4.79218 12.2469 4.926 12.1373C5.51345 11.6813 6.21885 11.4024 6.95933 11.3333C7.40342 11.3404 7.83275 11.4939 8.18067 11.77C8.33926 11.9127 8.54344 11.9942 8.75667 12C9.30178 11.9592 9.82598 11.7729 10.2747 11.4607C10.4177 11.357 10.5961 11.3143 10.7706 11.3421C10.9451 11.3698 11.1015 11.4657 11.2053 11.6087Z" fill="#6F727A"/>
<path d="M11.9193 0.976014L-3.20385 16.0226L-3.1893 16.0373L-3.17471 16.0519L11.9193 0.976014ZM9.562 1.35103e-05V21.3333H9.59247L9.62293 21.3333L9.562 1.35103e-05ZM5.33333 1.35103e-05V-21.3333H5.32056L5.30778 -21.3333L5.33333 1.35103e-05ZM2 3.33335L-19.3333 3.30779L-19.3333 3.32057V3.33335H2ZM2 12.6667H-19.3333V12.6795L-19.3333 12.6922L2 12.6667ZM5.33333 16L5.30778 37.3333L5.32056 37.3334H5.33333V16ZM10.6667 16V37.3334H10.6794L10.6922 37.3333L10.6667 16ZM14 12.6667L35.3333 12.6922L35.3333 12.6795V12.6667H14ZM14 4.43801L-7.33327 4.38563L-7.33333 4.41182V4.43801H14ZM12.0807 3.02401L-3.00428 18.109L-2.99028 18.123L-2.97626 18.1369L12.0807 3.02401ZM12.3333 3.33335V24.6667H51.9356L30.1479 -8.40349L12.3333 3.33335ZM10.6667 3.33335H-10.6667V24.6667H10.6667V3.33335ZM10.6667 1.66668L22.5026 -16.0822L-10.6667 -38.2013V1.66668H10.6667ZM10.9767 1.92001L26.0616 -13.1649L26.0371 -13.1894L26.0126 -13.2138L10.9767 1.92001ZM12.6667 12.6667H34H12.6667ZM10.6667 14.6667V36V14.6667ZM5.33333 14.6667V36V14.6667ZM5.33333 1.33335V-20V1.33335ZM9.33333 1.33335H30.6667V-20H9.33333V1.33335ZM10.6667 4.66668V26V4.66668ZM12.6667 4.66668H34V-16.6667H12.6667V4.66668ZM11.0607 12.538L23.4406 29.9118L23.5647 29.8234L23.6874 29.7332L11.0607 12.538ZM8.75667 13.3333L8.65376 34.6664L9.19248 34.669L9.73064 34.6444L8.75667 13.3333ZM7.42333 12.8667L20.6464 -3.87436L20.083 -4.31931L19.4911 -4.72539L7.42333 12.8667ZM6.95667 12.6667V-8.66665H5.31588L3.69438 -8.41574L6.95667 12.6667ZM5.73533 13.196L18.1187 30.5673L18.5106 30.288L18.8895 29.9913L5.73533 13.196ZM4.926 12.1373L-8.15594 -4.71418L-8.37485 -4.54424L-8.58926 -4.36868L4.926 12.1373ZM6.95933 11.3333L7.30001 -9.99726L6.13708 -10.0158L4.97903 -9.90787L6.95933 11.3333ZM8.18067 11.77L22.447 -4.09137L21.9572 -4.53187L21.4412 -4.94131L8.18067 11.77ZM8.75667 12L8.1741 33.3254L9.26356 33.3552L10.3504 33.2737L8.75667 12ZM10.2747 11.4607L22.4606 28.9711L22.629 28.8539L22.7951 28.7335L10.2747 11.4607ZM28.1174 -12.9945L27.0134 -14.0998L-3.17471 16.0519L-2.07071 17.1572L28.1174 -12.9945ZM27.0425 -14.0706C24.744 -16.3808 22.0102 -18.2122 18.9992 -19.4588L2.67764 19.9626C0.47594 19.0511 -1.52312 17.7119 -3.20385 16.0226L27.0425 -14.0706ZM18.9992 -19.4588C15.9882 -20.7054 12.7599 -21.3425 9.50107 -21.3332L9.62293 21.3333C7.23998 21.3401 4.87934 20.8742 2.67764 19.9626L18.9992 -19.4588ZM9.562 -21.3333H5.33333V21.3333H9.562V-21.3333ZM5.30778 -21.3333C-1.22505 -21.3255 -7.48806 -18.7269 -12.1075 -14.1075L18.0624 16.0624C14.6928 19.4321 10.1243 21.3276 5.35889 21.3333L5.30778 -21.3333ZM-12.1075 -14.1075C-16.7269 -9.48804 -19.3255 -3.22503 -19.3333 3.30779L23.3333 3.3589C23.3276 8.12426 21.432 12.6928 18.0624 16.0624L-12.1075 -14.1075ZM-19.3333 3.33335V12.6667H23.3333V3.33335H-19.3333ZM-19.3333 12.6922C-19.3255 19.2251 -16.7269 25.4881 -12.1075 30.1075L18.0624 -0.0624073C21.4321 3.30722 23.3276 7.87577 23.3333 12.6411L-19.3333 12.6922ZM-12.1075 30.1075C-7.48805 34.7269 -1.22504 37.3255 5.30778 37.3333L5.35889 -5.3333C10.1242 -5.32759 14.6928 -3.43204 18.0624 -0.0624073L-12.1075 30.1075ZM5.33333 37.3334H10.6667V-5.33332H5.33333V37.3334ZM10.6922 37.3333C17.225 37.3255 23.4881 34.7269 28.1075 30.1075L-2.06243 -0.0624073C1.30721 -3.43204 5.87576 -5.32759 10.6411 -5.3333L10.6922 37.3333ZM28.1075 30.1075C32.7269 25.4881 35.3255 19.225 35.3333 12.6922L-7.33332 12.6411C-7.32761 7.87578 -5.43206 3.30723 -2.06243 -0.0624073L28.1075 30.1075ZM35.3333 12.6667V4.43801H-7.33333V12.6667H35.3333ZM35.3333 4.4904C35.3413 1.23206 34.7031 -1.99553 33.4556 -5.00563L-5.96028 11.3294C-6.87246 9.12831 -7.33912 6.76821 -7.33327 4.38563L35.3333 4.4904ZM33.4556 -5.00563C32.2081 -8.01573 30.3762 -10.7486 28.0657 -13.0461L-2.01901 17.2088C-3.7085 15.5288 -5.04809 13.5305 -5.96028 11.3294L33.4556 -5.00563ZM-2.97626 18.1369C-3.91378 17.2029 -4.75314 16.1753 -5.48121 15.0702L30.1479 -8.40349C29.2729 -9.7315 28.2642 -10.9664 27.1376 -12.0889L-2.97626 18.1369ZM12.3333 -18H10.6667V24.6667H12.3333V-18ZM32 3.33335V1.66668H-10.6667V3.33335H32ZM-1.16926 19.4155C-2.20676 18.7237 -3.17463 17.9327 -4.05926 17.0538L26.0126 -13.2138C24.9382 -14.2813 23.7627 -15.2419 22.5026 -16.0822L-1.16926 19.4155ZM-4.10828 17.005L-3.00428 18.109L27.1656 -12.0609L26.0616 -13.1649L-4.10828 17.005ZM-8.66667 12.6667C-8.66667 7.53917 -6.62978 2.62166 -3.00407 -1.00405L27.1658 29.1658C31.5417 24.79 34 18.8551 34 12.6667H-8.66667ZM-3.00407 -1.00405C0.621644 -4.62976 5.53916 -6.66665 10.6667 -6.66665V36C16.855 36 22.79 33.5417 27.1658 29.1658L-3.00407 -1.00405ZM10.6667 -6.66665H5.33333V36H10.6667V-6.66665ZM5.33333 -6.66665C10.4608 -6.66665 15.3784 -4.62976 19.0041 -1.00405L-11.1658 29.1658C-6.78997 33.5417 -0.855047 36 5.33333 36L5.33333 -6.66665ZM19.0041 -1.00405C22.6298 2.62166 24.6667 7.53917 24.6667 12.6667H-18C-18 18.8551 -15.5417 24.79 -11.1658 29.1658L19.0041 -1.00405ZM24.6667 12.6667V3.33335H-18V12.6667H24.6667ZM24.6667 3.33335C24.6667 8.46087 22.6298 13.3784 19.0041 17.0041L-11.1658 -13.1658C-15.5417 -8.78996 -18 -2.85504 -18 3.33335H24.6667ZM19.0041 17.0041C15.3784 20.6298 10.4609 22.6667 5.33333 22.6667L5.33333 -20C-0.855056 -20 -6.78998 -17.5417 -11.1658 -13.1658L19.0041 17.0041ZM5.33333 22.6667H9.33333V-20H5.33333V22.6667ZM-12 1.33335V3.33335H30.6667V1.33335H-12ZM-12 3.33335C-12 9.34493 -9.61191 15.1103 -5.36109 19.3611L24.8088 -10.8088C28.5595 -7.05807 30.6667 -1.97099 30.6667 3.33335H-12ZM-5.36109 19.3611C-1.11027 23.6119 4.65509 26 10.6667 26V-16.6667C15.971 -16.6667 21.0581 -14.5595 24.8088 -10.8088L-5.36109 19.3611ZM10.6667 26H12.6667V-16.6667H10.6667V26ZM-8.66667 4.66668V12.6667H34V4.66668H-8.66667ZM10.6667 27.3333C5.18553 27.3333 -0.0711191 25.156 -3.94688 21.2802L26.223 -8.88967C22.0972 -13.0155 16.5014 -15.3333 10.6667 -15.3333V27.3333ZM-3.94688 21.2802C-7.82265 17.4044 -10 12.1478 -10 6.66668H32.6667C32.6667 0.831956 30.3488 -4.76384 26.223 -8.88967L-3.94688 21.2802ZM-10 6.66668C-10 1.18558 -7.82265 -4.07108 -3.94688 -7.94686L26.223 22.223C30.3488 18.0972 32.6667 12.5014 32.6667 6.66668H-10ZM-3.94688 -7.94686C-0.0711191 -11.8226 5.18553 -14 10.6667 -14V28.6667C16.5014 28.6667 22.0972 26.3488 26.223 22.223L-3.94688 -7.94686ZM10.6667 -14H5.33333V28.6667H10.6667V-14ZM5.33333 -14C10.8145 -14 16.0711 -11.8226 19.9469 -7.94686L-10.223 22.223C-6.09723 26.3488 -0.501446 28.6667 5.33333 28.6667V-14ZM19.9469 -7.94686C23.8226 -4.07112 26 1.18553 26 6.66668H-16.6667C-16.6667 12.5015 -14.3488 18.0972 -10.223 22.223L19.9469 -7.94686ZM26 6.66668C26 12.1478 23.8226 17.4045 19.9469 21.2802L-10.223 -8.88967C-14.3488 -4.76388 -16.6667 0.831904 -16.6667 6.66668H26ZM19.9469 21.2802C16.0711 25.156 10.8145 27.3333 5.33333 27.3333V-15.3333C-0.501446 -15.3333 -6.09723 -13.0155 -10.223 -8.88967L19.9469 21.2802ZM5.33333 27.3333H10.6667V-15.3333H5.33333V27.3333ZM-10 9.33335C-10 3.85225 -7.82265 -1.40441 -3.94688 -5.28019L26.223 24.8897C30.3488 20.7639 32.6667 15.1681 32.6667 9.33335H-10ZM-3.94688 -5.28019C-0.0711191 -9.15595 5.18553 -11.3333 10.6667 -11.3333V31.3333C16.5014 31.3333 22.0972 29.0155 26.223 24.8897L-3.94688 -5.28019ZM10.6667 -11.3333H5.33333V31.3333H10.6667V-11.3333ZM5.33333 -11.3333C10.8145 -11.3333 16.0711 -9.15593 19.9469 -5.28019L-10.223 24.8897C-6.09723 29.0155 -0.501446 31.3333 5.33333 31.3333V-11.3333ZM19.9469 -5.28019C23.8226 -1.40445 26 3.85219 26 9.33335H-16.6667C-16.6667 15.1681 -14.3488 20.7639 -10.223 24.8897L19.9469 -5.28019ZM26 9.33335C26 14.8145 23.8226 20.0711 19.9469 23.9469L-10.223 -6.223C-14.3488 -2.09721 -16.6667 3.49857 -16.6667 9.33335H26ZM19.9469 23.9469C16.0711 27.8226 10.8145 30 5.33333 30V-12.6667C-0.501446 -12.6667 -6.09723 -10.3488 -10.223 -6.223L19.9469 23.9469ZM5.33333 30H10.6667V-12.6667H5.33333V30ZM10.6667 30C5.18553 30 -0.0711191 27.8226 -3.94688 23.9469L26.223 -6.223C22.0972 -10.3488 16.5014 -12.6667 10.6667 -12.6667V30ZM-3.94688 23.9469C-7.82265 20.0711 -10 14.8145 -10 9.33335H32.6667C32.6667 3.49862 30.3488 -2.09717 26.223 -6.223L-3.94688 23.9469ZM-6.05077 24.1521C-9.26341 19.7325 -10.5951 14.2205 -9.75465 8.82183L32.4043 15.3846C33.2989 9.63757 31.8813 3.77002 28.4614 -0.934759L-6.05077 24.1521ZM-9.75465 8.82183C-8.91423 3.42302 -5.97008 -1.42329 -1.56611 -4.65721L23.6874 29.7332C28.3755 26.2907 31.5096 21.1317 32.4043 15.3846L-9.75465 8.82183ZM-1.31925 -4.83578C1.34914 -6.73718 4.50955 -7.82815 7.78269 -7.97774L9.73064 34.6444C14.6608 34.4191 19.4213 32.7758 23.4406 29.9118L-1.31925 -4.83578ZM8.85957 -7.99974C13.1389 -7.97909 17.2882 -6.52683 20.6464 -3.87436L-5.79971 29.6077C-1.68178 32.8603 3.40626 34.6411 8.65376 34.6664L8.85957 -7.99974ZM19.4911 -4.72539C19.436 -4.76315 19.0649 -5.01958 18.6106 -5.30433C18.1377 -5.6007 17.2182 -6.15587 15.9975 -6.71073C12.857 -8.13824 9.73735 -8.66665 6.95667 -8.66665V34C5.89969 34 4.46244 33.9188 2.79445 33.5777C1.08645 33.2284 -0.40553 32.7009 -1.65802 32.1316C-2.80996 31.608 -3.65733 31.0934 -4.04793 30.8486C-4.25955 30.716 -4.42177 30.6086 -4.50605 30.5523C-4.55131 30.522 -4.58664 30.4981 -4.6079 30.4837C-4.62905 30.4693 -4.64291 30.4598 -4.6444 30.4588L19.4911 -4.72539ZM3.69438 -8.41574C-0.36129 -7.78817 -4.18787 -6.1297 -7.41879 -3.59922L18.8895 29.9913C16.3687 31.9655 13.3832 33.2595 10.219 33.7491L3.69438 -8.41574ZM-6.64808 -4.17529C-2.28218 -7.28759 3.12237 -8.58132 8.42429 -7.78332L2.07397 34.4081C7.71794 35.2576 13.4712 33.8804 18.1187 30.5673L-6.64808 -4.17529ZM8.42429 -7.78332C13.7262 -6.98531 18.5105 -4.15804 21.7668 0.101497L-12.1294 26.0146C-8.66297 30.549 -3.57002 33.5586 2.07397 34.4081L8.42429 -7.78332ZM21.7668 0.101497C25.0232 4.36103 26.4967 9.71937 25.8761 15.045L-16.5038 10.107C-17.1644 15.7762 -15.5958 21.4803 -12.1294 26.0146L21.7668 0.101497ZM25.8761 15.045C25.2556 20.3706 22.5897 25.2466 18.4413 28.6434L-8.58926 -4.36868C-13.0053 -0.752767 -15.8433 4.43784 -16.5038 10.107L25.8761 15.045ZM18.0079 28.9889C15.388 31.0228 12.242 32.2667 8.93964 32.5746L4.97903 -9.90787C0.195666 -9.46192 -4.36109 -7.66014 -8.15594 -4.71418L18.0079 28.9889ZM6.61866 32.664C2.36493 32.596 -1.74737 31.1257 -5.0799 28.4813L21.4412 -4.94131C17.4129 -8.13785 12.4419 -9.91514 7.30001 -9.99726L6.61866 32.664ZM-6.08565 27.6314C-2.15947 31.1627 2.89549 33.1812 8.1741 33.3254L9.33924 -9.32536C14.1914 -9.19281 18.838 -7.33743 22.447 -4.09137L-6.08565 27.6314ZM10.3504 33.2737C14.6992 32.9479 18.8811 31.4621 22.4606 28.9711L-1.9113 -6.0497C0.770833 -7.91627 3.90436 -9.02959 7.16294 -9.27371L10.3504 33.2737ZM22.7951 28.7335C18.36 31.9484 12.8299 33.271 7.42018 32.4107L14.1211 -9.72653C8.36229 -10.6423 2.47551 -9.2344 -2.24575 -5.81214L22.7951 28.7335ZM7.42018 32.4107C2.01042 31.5504 -2.83652 28.5776 -6.05559 24.1455L28.4663 -0.928136C25.0395 -5.64615 19.8799 -8.81074 14.1211 -9.72653L7.42018 32.4107Z" fill="#6F727A" mask="url(#path-1-inside-1_5527_661)"/>
</g>
</g>
<defs>
<clipPath id="clip0_5527_661">
<rect width="16" height="16" fill="white"/>
</clipPath>
</defs>
</svg>
