<svg width="16" height="16" viewBox="0 0 16 16" fill="none" xmlns="http://www.w3.org/2000/svg">
<g clip-path="url(#clip0_16_2922)">
<mask id="path-1-inside-1_16_2922" fill="white">
<path d="M8 0C6.41775 0 4.87103 0.469192 3.55544 1.34824C2.23985 2.22729 1.21447 3.47672 0.608967 4.93853C0.00346629 6.40034 -0.15496 8.00888 0.153721 9.56072C0.462403 11.1126 1.22433 12.538 2.34315 13.6569C3.46197 14.7757 4.88743 15.5376 6.43928 15.8463C7.99113 16.155 9.59966 15.9965 11.0615 15.391C12.5233 14.7855 13.7727 13.7602 14.6518 12.4446C15.5308 11.129 16 9.58225 16 8C15.9977 5.87897 15.1541 3.84547 13.6543 2.34568C12.1545 0.845886 10.121 0.00229405 8 0V0ZM13.7647 4.66667H11.6173C11.1366 3.55266 10.5037 2.51072 9.73667 1.57067C11.4343 2.03262 12.8815 3.14498 13.7647 4.66667V4.66667ZM11 8C10.9945 8.67876 10.8876 9.35288 10.6827 10H5.31734C5.11244 9.35288 5.00548 8.67876 5 8C5.00548 7.32124 5.11244 6.64712 5.31734 6H10.6827C10.8876 6.64712 10.9945 7.32124 11 8V8ZM5.852 11.3333H10.148C9.58216 12.4505 8.85877 13.4806 8 14.392C7.14092 13.4808 6.4175 12.4507 5.852 11.3333V11.3333ZM5.852 4.66667C6.41785 3.54952 7.14123 2.51944 8 1.608C8.85909 2.51918 9.58251 3.54931 10.148 4.66667H5.852ZM6.26667 1.57067C5.49844 2.51052 4.86439 3.55247 4.38267 4.66667H2.23534C3.11924 3.14429 4.56778 2.03184 6.26667 1.57067V1.57067ZM1.64067 6H3.93334C3.76051 6.65276 3.67091 7.32476 3.66667 8C3.67091 8.67524 3.76051 9.34724 3.93334 10H1.64067C1.2309 8.69815 1.2309 7.30185 1.64067 6V6ZM2.23534 11.3333H4.38267C4.86439 12.4475 5.49844 13.4895 6.26667 14.4293C4.56778 13.9682 3.11924 12.8557 2.23534 11.3333V11.3333ZM9.73667 14.4293C10.5037 13.4893 11.1366 12.4473 11.6173 11.3333H13.7647C12.8815 12.855 11.4343 13.9674 9.73667 14.4293V14.4293ZM14.3593 10H12.0667C12.2395 9.34724 12.3291 8.67524 12.3333 8C12.3291 7.32476 12.2395 6.65276 12.0667 6H14.358C14.7678 7.30185 14.7678 8.69815 14.358 10H14.3593Z"/>
</mask>
<path d="M8 0C6.41775 0 4.87103 0.469192 3.55544 1.34824C2.23985 2.22729 1.21447 3.47672 0.608967 4.93853C0.00346629 6.40034 -0.15496 8.00888 0.153721 9.56072C0.462403 11.1126 1.22433 12.538 2.34315 13.6569C3.46197 14.7757 4.88743 15.5376 6.43928 15.8463C7.99113 16.155 9.59966 15.9965 11.0615 15.391C12.5233 14.7855 13.7727 13.7602 14.6518 12.4446C15.5308 11.129 16 9.58225 16 8C15.9977 5.87897 15.1541 3.84547 13.6543 2.34568C12.1545 0.845886 10.121 0.00229405 8 0V0ZM13.7647 4.66667H11.6173C11.1366 3.55266 10.5037 2.51072 9.73667 1.57067C11.4343 2.03262 12.8815 3.14498 13.7647 4.66667V4.66667ZM11 8C10.9945 8.67876 10.8876 9.35288 10.6827 10H5.31734C5.11244 9.35288 5.00548 8.67876 5 8C5.00548 7.32124 5.11244 6.64712 5.31734 6H10.6827C10.8876 6.64712 10.9945 7.32124 11 8V8ZM5.852 11.3333H10.148C9.58216 12.4505 8.85877 13.4806 8 14.392C7.14092 13.4808 6.4175 12.4507 5.852 11.3333V11.3333ZM5.852 4.66667C6.41785 3.54952 7.14123 2.51944 8 1.608C8.85909 2.51918 9.58251 3.54931 10.148 4.66667H5.852ZM6.26667 1.57067C5.49844 2.51052 4.86439 3.55247 4.38267 4.66667H2.23534C3.11924 3.14429 4.56778 2.03184 6.26667 1.57067V1.57067ZM1.64067 6H3.93334C3.76051 6.65276 3.67091 7.32476 3.66667 8C3.67091 8.67524 3.76051 9.34724 3.93334 10H1.64067C1.2309 8.69815 1.2309 7.30185 1.64067 6V6ZM2.23534 11.3333H4.38267C4.86439 12.4475 5.49844 13.4895 6.26667 14.4293C4.56778 13.9682 3.11924 12.8557 2.23534 11.3333V11.3333ZM9.73667 14.4293C10.5037 13.4893 11.1366 12.4473 11.6173 11.3333H13.7647C12.8815 12.855 11.4343 13.9674 9.73667 14.4293V14.4293ZM14.3593 10H12.0667C12.2395 9.34724 12.3291 8.67524 12.3333 8C12.3291 7.32476 12.2395 6.65276 12.0667 6H14.358C14.7678 7.30185 14.7678 8.69815 14.358 10H14.3593Z" fill="#7C7B88"/>
<path d="M8 0H29.3333V-21.3333L8 -21.3333L8 0ZM16 8L37.3333 8V7.98846L37.3333 7.97693L16 8ZM8 0H-13.3333V21.3103L7.97693 21.3333L8 0ZM11.6173 4.66667L-7.9703 13.1186L-2.41206 26H11.6173V4.66667ZM9.73667 1.57067L15.338 -19.0142L-48.8446 -36.479L-6.79235 15.0578L9.73667 1.57067ZM10.6827 10V31.3333H26.305L31.0208 16.4398L10.6827 10ZM5.31734 10L-15.0208 16.4398L-10.305 31.3333H5.31734V10ZM5 8L-16.3326 7.82799L-16.334 8L-16.3326 8.17201L5 8ZM5.31734 6V-15.3333H-10.305L-15.0208 -0.439758L5.31734 6ZM10.6827 6L31.0208 -0.439758L26.305 -15.3333H10.6827V6ZM10.148 11.3333L29.1793 20.9728L44.8672 -10H10.148V11.3333ZM8 14.392L-7.52215 29.0267L8.00505 45.4955L23.5269 29.0216L8 14.392ZM5.852 4.66667L-13.1793 -4.9728L-28.8672 26H5.852V4.66667ZM8 1.608L23.5222 -13.0267L7.99495 -29.4955L-7.5269 -13.0216L8 1.608ZM10.148 4.66667V26H44.8546L29.1825 -4.96662L10.148 4.66667ZM4.38267 4.66667V26H18.4011L23.9642 13.1327L4.38267 4.66667ZM2.23534 4.66667L-16.2138 -6.04503L-34.8194 26L2.23534 26V4.66667ZM3.93334 6L24.5561 11.4602L31.65 -15.3333L3.93334 -15.3333V6ZM3.66667 8L-17.6662 7.86607L-17.6671 8L-17.6662 8.13393L3.66667 8ZM3.93334 10V31.3333H31.65L24.5561 4.53984L3.93334 10ZM1.64067 10L-18.7084 16.4051L-14.0096 31.3333H1.64067V10ZM4.38267 11.3333L23.9642 2.86729L18.4011 -10H4.38267V11.3333ZM6.26667 14.4293L0.67793 35.0176L64.8977 52.4502L22.7842 0.928119L6.26667 14.4293ZM11.6173 11.3333V-10H-2.41206L-7.9703 2.88138L11.6173 11.3333ZM13.7647 11.3333L32.2158 22.0416L50.8114 -10H13.7647V11.3333ZM12.0667 10L-8.55608 4.53984L-15.65 31.3333L12.0667 31.3333V10ZM12.3333 8L33.6663 8.13393L33.6671 8L33.6663 7.86607L12.3333 8ZM12.0667 6V-15.3333H-15.65L-8.55608 11.4602L12.0667 6ZM14.358 6L34.7071 -0.405123L30.0083 -15.3333H14.358V6ZM14.358 10L-5.99109 3.59488L-14.7221 31.3333H14.358V10ZM8 -21.3333C2.19842 -21.3333 -3.47288 -19.613 -8.29672 -16.3898L15.4076 19.0863C13.215 20.5513 10.6371 21.3333 8 21.3333L8 -21.3333ZM-8.29672 -16.3898C-13.1206 -13.1666 -16.8803 -8.58534 -19.1005 -3.22538L20.3184 13.1024C19.3092 15.5388 17.6003 17.6212 15.4076 19.0863L-8.29672 -16.3898ZM-19.1005 -3.22538C-21.3206 2.13459 -21.9015 8.03254 -20.7697 13.7226L21.0771 5.3988C21.5916 7.98521 21.3276 10.6661 20.3184 13.1024L-19.1005 -3.22538ZM-20.7697 13.7226C-19.6379 19.4128 -16.8441 24.6395 -12.7418 28.7418L17.4281 -1.42809C19.2928 0.436611 20.5627 2.81238 21.0771 5.3988L-20.7697 13.7226ZM-12.7418 28.7418C-8.63945 32.8441 -3.41275 35.6379 2.27735 36.7697L10.6012 -5.07714C13.1876 -4.56267 15.5634 -3.29279 17.4281 -1.42809L-12.7418 28.7418ZM2.27735 36.7697C7.96746 37.9015 13.8654 37.3206 19.2254 35.1005L2.89756 -4.31839C5.33391 -5.32756 8.0148 -5.59161 10.6012 -5.07714L2.27735 36.7697ZM19.2254 35.1005C24.5853 32.8803 29.1666 29.1206 32.3898 24.2967L-3.08626 0.592399C-1.62117 -1.60026 0.461212 -3.30923 2.89756 -4.31839L19.2254 35.1005ZM32.3898 24.2967C35.613 19.4729 37.3333 13.8016 37.3333 8L-5.33333 8C-5.33333 5.36291 -4.55134 2.78505 -3.08626 0.592399L32.3898 24.2967ZM37.3333 7.97693C37.3249 0.20595 34.2342 -7.24435 28.7393 -12.7393L-1.43062 17.4306C-3.92595 14.9353 -5.3295 11.552 -5.33332 8.02307L37.3333 7.97693ZM28.7393 -12.7393C23.2444 -18.2342 15.7941 -21.3249 8.02308 -21.3333L7.97693 21.3333C4.44801 21.3295 1.06471 19.926 -1.43062 17.4306L28.7393 -12.7393ZM29.3333 0V0H-13.3333V0H29.3333ZM13.7647 -16.6667H11.6173V26H13.7647V-16.6667ZM31.205 -3.78529C29.9425 -6.71107 28.2802 -9.44755 26.2657 -11.9165L-6.79235 15.0578C-7.27279 14.469 -7.66922 13.8164 -7.9703 13.1186L31.205 -3.78529ZM4.1353 22.1555C0.417246 21.1438 -2.75232 18.7076 -4.68646 15.3749L32.2158 -6.04159C28.5154 -12.4176 22.4514 -17.0786 15.338 -19.0142L4.1353 22.1555ZM-10.3326 7.82799C-10.321 6.37961 -10.0927 4.94111 -9.65549 3.56024L31.0208 16.4398C31.8679 13.7647 32.31 10.9779 32.3326 8.17201L-10.3326 7.82799ZM10.6827 -11.3333H5.31734V31.3333H10.6827V-11.3333ZM25.6555 3.56024C26.0927 4.94111 26.321 6.37961 26.3326 7.82799L-16.3326 8.17201C-16.31 10.9779 -15.8679 13.7647 -15.0208 16.4398L25.6555 3.56024ZM26.3326 8.17201C26.321 9.62039 26.0927 11.0589 25.6555 12.4398L-15.0208 -0.439758C-15.8679 2.23535 -16.31 5.02209 -16.3326 7.82799L26.3326 8.17201ZM5.31734 27.3333H10.6827V-15.3333H5.31734V27.3333ZM-9.65549 12.4398C-10.0927 11.0589 -10.321 9.62039 -10.3326 8.17201L32.3326 7.82799C32.31 5.02209 31.8679 2.23535 31.0208 -0.439758L-9.65549 12.4398ZM5.852 32.6667H10.148V-10H5.852V32.6667ZM-8.88334 1.69387C-8.52601 0.9884 -8.0692 0.33792 -7.5269 -0.237639L23.5269 29.0216C25.7867 26.6232 27.6903 23.9126 29.1793 20.9728L-8.88334 1.69387ZM23.5222 -0.24268C24.0678 0.33606 24.5273 0.990349 24.8865 1.70005L-13.1825 20.9666C-11.6923 23.911 -9.78597 26.6256 -7.52215 29.0267L23.5222 -0.24268ZM24.8833 14.3061C24.526 15.0116 24.0692 15.6621 23.5269 16.2376L-7.5269 -13.0216C-9.78674 -10.6232 -11.6903 -7.91257 -13.1793 -4.9728L24.8833 14.3061ZM-7.52215 16.2427C-8.0678 15.6639 -8.52729 15.0097 -8.88646 14.3L29.1825 -4.96662C27.6923 -7.91104 25.786 -10.6256 23.5222 -13.0267L-7.52215 16.2427ZM10.148 -16.6667H5.852V26H10.148V-16.6667ZM-10.2508 -11.9305C-12.2685 -9.46216 -13.9337 -6.72566 -15.1989 -3.79938L23.9642 13.1327C23.6625 13.8306 23.2654 14.4832 22.7842 15.0719L-10.2508 -11.9305ZM4.38267 -16.6667H2.23534V26H4.38267V-16.6667ZM20.6845 15.3784C18.7486 18.7125 15.5762 21.1489 11.8554 22.1589L0.67793 -19.0176C-6.44063 -17.0853 -12.5102 -12.424 -16.2138 -6.04503L20.6845 15.3784ZM1.64067 27.3333H3.93334V-15.3333H1.64067V27.3333ZM-16.6894 0.539841C-17.3225 2.93099 -17.6507 5.39258 -17.6662 7.86607L24.9996 8.13393C24.9925 9.25693 24.8435 10.3745 24.5561 11.4602L-16.6894 0.539841ZM-17.6662 8.13393C-17.6507 10.6074 -17.3225 13.069 -16.6894 15.4602L24.5561 4.53984C24.8435 5.62546 24.9925 6.74307 24.9996 7.86607L-17.6662 8.13393ZM3.93334 -11.3333H1.64067V31.3333H3.93334V-11.3333ZM21.9898 3.59488C22.8923 6.46228 22.8923 9.53772 21.9898 12.4051L-18.7084 -0.405123C-20.4305 5.06598 -20.4305 10.934 -18.7084 16.4051L21.9898 3.59488ZM2.23534 32.6667H4.38267V-10H2.23534V32.6667ZM-15.1989 19.7994C-13.9337 22.7257 -12.2685 25.4622 -10.2508 27.9306L22.7842 0.928119C23.2654 1.51679 23.6625 2.16941 23.9642 2.86729L-15.1989 19.7994ZM11.8554 -6.15894C15.5762 -5.14893 18.7486 -2.71254 20.6845 0.621642L-16.2138 22.045C-12.5101 28.424 -6.44063 33.0853 0.67793 35.0176L11.8554 -6.15894ZM26.2657 27.9165C28.2802 25.4476 29.9425 22.7111 31.205 19.7853L-7.9703 2.88138C-7.66922 2.18361 -7.27279 1.531 -6.79235 0.942209L26.2657 27.9165ZM11.6173 32.6667H13.7647V-10H11.6173V32.6667ZM-4.68646 0.625073C-2.75232 -2.70759 0.417251 -5.14379 4.1353 -6.15551L15.338 35.0142C22.4514 33.0786 28.5154 28.4176 32.2158 22.0416L-4.68646 0.625073ZM14.3593 -11.3333H12.0667V31.3333H14.3593V-11.3333ZM32.6894 15.4602C33.3225 13.069 33.6507 10.6074 33.6663 8.13393L-8.99958 7.86607C-8.99253 6.74307 -8.84351 5.62547 -8.55608 4.53984L32.6894 15.4602ZM33.6663 7.86607C33.6507 5.39259 33.3225 2.93099 32.6894 0.539841L-8.55608 11.4602C-8.84351 10.3745 -8.99253 9.25693 -8.99958 8.13393L33.6663 7.86607ZM12.0667 27.3333H14.358V-15.3333H12.0667V27.3333ZM-5.99109 12.4051C-6.89364 9.53772 -6.89364 6.46228 -5.99109 3.59488L34.7071 16.4051C36.4292 10.934 36.4292 5.06598 34.7071 -0.405123L-5.99109 12.4051ZM14.358 31.3333H14.3593V-11.3333H14.358V31.3333Z" fill="#7C7B88" mask="url(#path-1-inside-1_16_2922)"/>
</g>
<defs>
<clipPath id="clip0_16_2922">
<rect width="16" height="16" fill="white"/>
</clipPath>
</defs>
</svg>
