<svg width="16" height="16" viewBox="0 0 16 16" fill="none" xmlns="http://www.w3.org/2000/svg">
<g clip-path="url(#clip0_23_3050)">
<mask id="path-1-inside-1_23_3050" fill="white">
<path d="M15.4141 6.04591L10.3575 0.988578C9.73163 0.36457 8.88391 0.0141602 8.00013 0.0141602C7.11636 0.0141602 6.26863 0.36457 5.6428 0.988578L0.58613 6.04591C0.399747 6.2311 0.251977 6.45144 0.151385 6.69417C0.0507936 6.93689 -0.000618197 7.19717 0.000130123 7.45991V14.0046C0.000130123 14.535 0.210844 15.0437 0.585917 15.4188C0.960989 15.7939 1.4697 16.0046 2.00013 16.0046H14.0001C14.5306 16.0046 15.0393 15.7939 15.4143 15.4188C15.7894 15.0437 16.0001 14.535 16.0001 14.0046V7.45991C16.0009 7.19717 15.9495 6.93689 15.8489 6.69417C15.7483 6.45144 15.6005 6.2311 15.4141 6.04591V6.04591ZM10.0001 14.6712H6.00013V12.0486C6.00013 11.5181 6.21084 11.0094 6.58592 10.6344C6.96099 10.2593 7.4697 10.0486 8.00013 10.0486C8.53056 10.0486 9.03927 10.2593 9.41434 10.6344C9.78942 11.0094 10.0001 11.5181 10.0001 12.0486V14.6712ZM14.6668 14.0046C14.6668 14.1814 14.5966 14.351 14.4715 14.476C14.3465 14.601 14.1769 14.6712 14.0001 14.6712H11.3335V12.0486C11.3335 11.1645 10.9823 10.3167 10.3572 9.69156C9.73203 9.06643 8.88419 8.71524 8.00013 8.71524C7.11608 8.71524 6.26823 9.06643 5.64311 9.69156C5.01799 10.3167 4.6668 11.1645 4.6668 12.0486V14.6712H2.00013C1.82332 14.6712 1.65375 14.601 1.52873 14.476C1.4037 14.351 1.33346 14.1814 1.33346 14.0046V7.45991C1.33408 7.28323 1.40426 7.1139 1.5288 6.98858L6.58546 1.93324C6.96126 1.5592 7.46991 1.34921 8.00013 1.34921C8.53035 1.34921 9.039 1.5592 9.4148 1.93324L14.4715 6.99058C14.5955 7.11541 14.6657 7.28392 14.6668 7.45991V14.0046Z"/>
</mask>
<path d="M15.4141 6.04591L10.3575 0.988578C9.73163 0.36457 8.88391 0.0141602 8.00013 0.0141602C7.11636 0.0141602 6.26863 0.36457 5.6428 0.988578L0.58613 6.04591C0.399747 6.2311 0.251977 6.45144 0.151385 6.69417C0.0507936 6.93689 -0.000618197 7.19717 0.000130123 7.45991V14.0046C0.000130123 14.535 0.210844 15.0437 0.585917 15.4188C0.960989 15.7939 1.4697 16.0046 2.00013 16.0046H14.0001C14.5306 16.0046 15.0393 15.7939 15.4143 15.4188C15.7894 15.0437 16.0001 14.535 16.0001 14.0046V7.45991C16.0009 7.19717 15.9495 6.93689 15.8489 6.69417C15.7483 6.45144 15.6005 6.2311 15.4141 6.04591V6.04591ZM10.0001 14.6712H6.00013V12.0486C6.00013 11.5181 6.21084 11.0094 6.58592 10.6344C6.96099 10.2593 7.4697 10.0486 8.00013 10.0486C8.53056 10.0486 9.03927 10.2593 9.41434 10.6344C9.78942 11.0094 10.0001 11.5181 10.0001 12.0486V14.6712ZM14.6668 14.0046C14.6668 14.1814 14.5966 14.351 14.4715 14.476C14.3465 14.601 14.1769 14.6712 14.0001 14.6712H11.3335V12.0486C11.3335 11.1645 10.9823 10.3167 10.3572 9.69156C9.73203 9.06643 8.88419 8.71524 8.00013 8.71524C7.11608 8.71524 6.26823 9.06643 5.64311 9.69156C5.01799 10.3167 4.6668 11.1645 4.6668 12.0486V14.6712H2.00013C1.82332 14.6712 1.65375 14.601 1.52873 14.476C1.4037 14.351 1.33346 14.1814 1.33346 14.0046V7.45991C1.33408 7.28323 1.40426 7.1139 1.5288 6.98858L6.58546 1.93324C6.96126 1.5592 7.46991 1.34921 8.00013 1.34921C8.53035 1.34921 9.039 1.5592 9.4148 1.93324L14.4715 6.99058C14.5955 7.11541 14.6657 7.28392 14.6668 7.45991V14.0046Z" fill="#7C7B88"/>
<path d="M10.3575 0.988578L25.4434 -14.0954L25.4319 -14.1069L25.4203 -14.1184L10.3575 0.988578ZM5.6428 0.988578L-9.42004 -14.1184L-9.4316 -14.1069L-9.44314 -14.0954L5.6428 0.988578ZM0.58613 6.04591L15.6225 21.1792L15.6473 21.1546L15.6721 21.1299L0.58613 6.04591ZM0.000130123 7.45991H21.3335V7.42953L21.3334 7.39915L0.000130123 7.45991ZM0.000130123 14.0046L-21.3332 14.0046L0.000130123 14.0046ZM2.00013 16.0046V37.3379V16.0046ZM14.0001 16.0046L14.0001 37.3379L14.0001 16.0046ZM16.0001 14.0046H37.3335H16.0001ZM16.0001 7.45991L-5.33312 7.39915L-5.3332 7.42953V7.45991H16.0001ZM10.0001 14.6712V36.0046H31.3335V14.6712H10.0001ZM6.00013 14.6712H-15.3332V36.0046H6.00013V14.6712ZM8.00013 10.0486L8.00013 -11.2848L8.00013 10.0486ZM10.0001 12.0486L31.3335 12.0486L10.0001 12.0486ZM11.3335 14.6712H-9.99987V36.0046H11.3335V14.6712ZM11.3335 12.0486H-9.99987H11.3335ZM8.00013 8.71524L8.00013 -12.6181L8.00013 8.71524ZM4.6668 12.0486H-16.6665H4.6668ZM4.6668 14.6712V36.0046H26.0001V14.6712H4.6668ZM1.33346 14.0046L-19.9999 14.0046L1.33346 14.0046ZM1.33346 7.45991L-19.9997 7.38528L-19.9999 7.42259V7.45991H1.33346ZM1.5288 6.98858L-13.5542 -8.09836L-13.5788 -8.07373L-13.6033 -8.04902L1.5288 6.98858ZM6.58546 1.93324L-8.46418 -13.1869L-8.48085 -13.1703L-8.49749 -13.1537L6.58546 1.93324ZM9.4148 1.93324L24.5007 -13.1507L24.4826 -13.1688L24.4644 -13.1869L9.4148 1.93324ZM14.4715 6.99058L29.6033 -8.04734L29.5804 -8.07039L29.5574 -8.09337L14.4715 6.99058ZM14.6668 7.45991H36.0001V7.39069L35.9997 7.32146L14.6668 7.45991ZM30.5001 -9.03804L25.4434 -14.0954L-4.72848 16.0725L0.32819 21.1299L30.5001 -9.03804ZM25.4203 -14.1184C20.7955 -18.7297 14.531 -21.3192 8.00013 -21.3192L8.00013 21.3475C3.23678 21.3475 -1.33224 19.4589 -4.70537 16.0956L25.4203 -14.1184ZM8.00013 -21.3192C1.46923 -21.3192 -4.79523 -18.7297 -9.42004 -14.1184L20.7056 16.0956C17.3325 19.4589 12.7635 21.3475 8.00013 21.3475L8.00013 -21.3192ZM-9.44314 -14.0954L-14.4998 -9.03804L15.6721 21.1299L20.7287 16.0725L-9.44314 -14.0954ZM-14.4503 -9.08742C-16.6394 -6.91229 -18.3751 -4.32425 -19.5566 -1.47334L19.8593 14.8617C18.879 17.2271 17.4389 19.3745 15.6225 21.1792L-14.4503 -9.08742ZM-19.5566 -1.47334C-20.7381 1.37757 -21.3419 4.43464 -21.3331 7.52067L21.3334 7.39915C21.3407 9.9597 20.8396 12.4962 19.8593 14.8617L-19.5566 -1.47334ZM-21.3332 7.45991V14.0046H21.3335V7.45991H-21.3332ZM-21.3332 14.0046C-21.3332 20.193 -18.8749 26.1279 -14.499 30.5037L15.6709 0.333847C19.2966 3.95955 21.3335 8.87706 21.3335 14.0046L-21.3332 14.0046ZM-14.499 30.5037C-10.1232 34.8796 -4.18825 37.3379 2.00013 37.3379L2.00013 -5.32876C7.12764 -5.32876 12.0452 -3.29186 15.6709 0.333847L-14.499 30.5037ZM2.00013 37.3379H14.0001V-5.32876H2.00013V37.3379ZM14.0001 37.3379C20.1885 37.3379 26.1234 34.8796 30.4993 30.5037L0.329399 0.333847C3.95511 -3.29186 8.87262 -5.32876 14.0001 -5.32876L14.0001 37.3379ZM30.4993 30.5037C34.8751 26.1279 37.3335 20.193 37.3335 14.0046L-5.3332 14.0046C-5.3332 8.87707 -3.29631 3.95956 0.329399 0.333847L30.4993 30.5037ZM37.3335 14.0046V7.45991H-5.3332V14.0046H37.3335ZM37.3334 7.52067C37.3422 4.43463 36.7383 1.37755 35.5568 -1.47334L-3.85907 14.8617C-4.83937 12.4962 -5.34041 9.95971 -5.33312 7.39915L37.3334 7.52067ZM35.5568 -1.47334C34.3753 -4.32423 32.6397 -6.91227 30.4505 -9.08742L0.377727 21.1792C-1.43868 19.3745 -2.87876 17.2271 -3.85907 14.8617L35.5568 -1.47334ZM10.0001 -6.66209H6.00013V36.0046H10.0001V-6.66209ZM27.3335 14.6712V12.0486H-15.3332V14.6712H27.3335ZM27.3335 12.0486C27.3335 17.1761 25.2966 22.0936 21.6709 25.7193L-8.49903 -4.45058C-12.8749 -0.0747251 -15.3332 5.8602 -15.3332 12.0486H27.3335ZM21.6709 25.7193C18.0452 29.345 13.1276 31.3819 8.00013 31.3819L8.00013 -11.2848C1.81176 -11.2848 -4.12317 -8.82644 -8.49903 -4.45058L21.6709 25.7193ZM8.00013 31.3819C2.87262 31.3819 -2.04489 29.345 -5.6706 25.7193L24.4993 -4.45058C20.1234 -8.82644 14.1885 -11.2848 8.00013 -11.2848V31.3819ZM-5.6706 25.7193C-9.29631 22.0936 -11.3332 17.1761 -11.3332 12.0486L31.3335 12.0486C31.3335 5.8602 28.8751 -0.0747251 24.4993 -4.45058L-5.6706 25.7193ZM-11.3332 12.0486V14.6712H31.3335V12.0486H-11.3332ZM-6.66654 14.0046C-6.66654 8.5235 -4.4892 3.26683 -0.61341 -0.608962L29.5565 29.5609C33.6823 25.4351 36.0001 19.8393 36.0001 14.0046H-6.66654ZM-0.61341 -0.608962C3.26238 -4.48476 8.51905 -6.66209 14.0001 -6.66209V36.0046C19.8348 36.0046 25.4306 33.6868 29.5565 29.5609L-0.61341 -0.608962ZM14.0001 -6.66209H11.3335V36.0046H14.0001V-6.66209ZM32.6668 14.6712V12.0486H-9.99987V14.6712H32.6668ZM32.6668 12.0486C32.6668 5.50658 30.068 -0.767485 25.4421 -5.39339L-4.72779 24.7765C-8.10345 21.4008 -9.99987 16.8225 -9.99987 12.0486L32.6668 12.0486ZM25.4421 -5.39339C20.8162 -10.0193 14.5421 -12.6181 8.00013 -12.6181L8.00013 30.0486C3.22623 30.0486 -1.35214 28.1522 -4.72779 24.7765L25.4421 -5.39339ZM8.00013 -12.6181C1.45812 -12.6181 -4.81594 -10.0193 -9.44184 -5.39339L20.7281 24.7765C17.3524 28.1522 12.774 30.0486 8.00013 30.0486L8.00013 -12.6181ZM-9.44184 -5.39339C-14.0677 -0.767496 -16.6665 5.50657 -16.6665 12.0486L26.0001 12.0486C26.0001 16.8225 24.1037 21.4008 20.7281 24.7765L-9.44184 -5.39339ZM-16.6665 12.0486V14.6712H26.0001V12.0486H-16.6665ZM4.6668 -6.66209H2.00013V36.0046H4.6668V-6.66209ZM2.00013 -6.66209C7.48123 -6.66209 12.7379 -4.48474 16.6137 -0.608962L-13.5562 29.5609C-9.43039 33.6868 -3.83459 36.0046 2.00013 36.0046V-6.66209ZM16.6137 -0.608962C20.4894 3.2668 22.6668 8.52346 22.6668 14.0046L-19.9999 14.0046C-19.9999 19.8393 -17.682 25.4351 -13.5562 29.5609L16.6137 -0.608962ZM22.6668 14.0046V7.45991H-19.9999V14.0046H22.6668ZM22.6667 7.53454C22.6477 12.9668 20.4901 18.173 16.6609 22.0262L-13.6033 -8.04902C-17.6816 -3.94517 -19.9795 1.59969 -19.9997 7.38528L22.6667 7.53454ZM16.6118 22.0755L21.6684 17.0202L-8.49749 -13.1537L-13.5542 -8.09836L16.6118 22.0755ZM21.6351 17.0534C18.013 20.6586 13.1106 22.6825 8.00013 22.6825V-19.9841C1.82923 -19.9841 -4.09051 -17.5402 -8.46418 -13.1869L21.6351 17.0534ZM8.00013 22.6825C2.88967 22.6825 -2.01278 20.6586 -5.63485 17.0534L24.4644 -13.1869C20.0908 -17.5402 14.171 -19.9841 8.00013 -19.9841L8.00013 22.6825ZM-5.67114 17.0172L-0.614476 22.0745L29.5574 -8.09337L24.5007 -13.1507L-5.67114 17.0172ZM-0.660363 22.0285C-4.47462 18.1904 -6.63097 13.0092 -6.66609 7.59836L35.9997 7.32146C35.9623 1.55862 33.6657 -3.9596 29.6033 -8.04734L-0.660363 22.0285ZM-6.66654 7.45991V14.0046H36.0001V7.45991H-6.66654Z" fill="#7C7B88" mask="url(#path-1-inside-1_23_3050)"/>
</g>
<defs>
<clipPath id="clip0_23_3050">
<rect width="16" height="16" fill="white"/>
</clipPath>
</defs>
</svg>
