<svg width="16" height="16" viewBox="0 0 16 16" fill="none" xmlns="http://www.w3.org/2000/svg">
<g clip-path="url(#clip0_16_2926)">
<mask id="path-1-inside-1_16_2926" fill="white">
<path d="M11.3335 16H4.67013C4.28461 15.9998 3.90368 15.9163 3.55343 15.7552C3.20317 15.5941 2.89186 15.3592 2.6408 15.0667C2.39327 14.7805 2.2105 14.4442 2.10499 14.0808C1.99947 13.7175 1.97371 13.3356 2.02946 12.9613C2.38741 11.0117 3.42744 9.25298 4.96346 8C3.42742 6.74657 2.3876 4.98739 2.03013 3.03733C1.97449 2.66334 2.00024 2.28175 2.10563 1.91863C2.21103 1.55551 2.39357 1.21942 2.6408 0.933333C2.89186 0.640764 3.20317 0.405896 3.55343 0.244806C3.90368 0.0837168 4.28461 0.000209228 4.67013 0L11.3335 0C11.719 0.000341429 12.0999 0.0839081 12.4501 0.244989C12.8003 0.406069 13.1117 0.640866 13.3628 0.933333C13.6101 1.2193 13.7927 1.55523 13.8983 1.91821C14.0039 2.2812 14.03 2.66269 13.9748 3.03667C13.6137 4.9873 12.5715 6.74628 11.0341 8C12.5706 9.2548 13.6116 11.0145 13.9715 12.9653C14.0268 13.3394 14.0007 13.721 13.8951 14.0841C13.7895 14.4472 13.6068 14.7833 13.3595 15.0693C13.1084 15.3609 12.7975 15.5949 12.4479 15.7555C12.0983 15.9161 11.7182 15.9995 11.3335 16V16ZM11.3335 1.33333H4.67013C4.47675 1.33321 4.28563 1.37485 4.10982 1.45539C3.93401 1.53593 3.77766 1.65348 3.65146 1.8C3.52823 1.94029 3.43717 2.10583 3.38466 2.28502C3.33214 2.46421 3.31945 2.65272 3.34746 2.83733C3.59813 4.504 4.63013 6.064 6.41413 7.47533C6.49296 7.53775 6.55665 7.61719 6.60043 7.7077C6.64421 7.79821 6.66696 7.89745 6.66696 7.998C6.66696 8.09855 6.64421 8.19779 6.60043 8.2883C6.55665 8.37881 6.49296 8.45825 6.41413 8.52067C4.63013 9.93333 3.60013 11.4947 3.34746 13.1607C3.31915 13.3456 3.33169 13.5345 3.38421 13.714C3.43673 13.8936 3.52795 14.0595 3.65146 14.2C3.77766 14.3465 3.93401 14.4641 4.10982 14.5446C4.28563 14.6252 4.47675 14.6668 4.67013 14.6667H11.3335C11.5269 14.6668 11.718 14.6252 11.8938 14.5447C12.0696 14.4641 12.226 14.3466 12.3521 14.2C12.4753 14.06 12.5664 13.8947 12.6189 13.7157C12.6714 13.5367 12.6841 13.3484 12.6561 13.164C12.4075 11.506 11.3761 9.94467 9.58946 8.52267C9.51112 8.46022 9.44786 8.38093 9.40438 8.29067C9.3609 8.20041 9.33832 8.10152 9.33832 8.00133C9.33832 7.90115 9.3609 7.80225 9.40438 7.712C9.44786 7.62174 9.51112 7.54244 9.58946 7.48C11.3768 6.058 12.4081 4.49667 12.6561 2.838C12.684 2.65303 12.671 2.4642 12.6179 2.28483C12.5648 2.10547 12.4729 1.93996 12.3488 1.8C12.223 1.65387 12.0672 1.53655 11.892 1.45602C11.7168 1.37549 11.5263 1.33365 11.3335 1.33333V1.33333ZM10.4541 13.3333H5.54546C5.43638 13.3333 5.32898 13.3065 5.23268 13.2552C5.13637 13.204 5.05411 13.1299 4.9931 13.0395C4.93209 12.9491 4.89421 12.8451 4.88276 12.7366C4.87132 12.6281 4.88667 12.5185 4.92746 12.4173C5.44952 11.2901 6.24494 10.3111 7.24147 9.56933L7.5868 9.29467C7.70477 9.20083 7.85106 9.14975 8.0018 9.14975C8.15254 9.14975 8.29883 9.20083 8.4168 9.29467L8.75613 9.56533C9.75125 10.31 10.5467 11.2893 11.0715 12.416C11.1125 12.5172 11.1281 12.6269 11.1168 12.7355C11.1055 12.8441 11.0678 12.9483 11.0068 13.0389C10.9458 13.1295 10.8636 13.2037 10.7672 13.255C10.6708 13.3064 10.5633 13.3333 10.4541 13.3333V13.3333ZM6.68947 12H9.30813C8.92775 11.5042 8.48853 11.0565 8.00013 10.6667C7.50957 11.055 7.06929 11.5029 6.68947 12V12Z"/>
</mask>
<path d="M11.3335 16H4.67013C4.28461 15.9998 3.90368 15.9163 3.55343 15.7552C3.20317 15.5941 2.89186 15.3592 2.6408 15.0667C2.39327 14.7805 2.2105 14.4442 2.10499 14.0808C1.99947 13.7175 1.97371 13.3356 2.02946 12.9613C2.38741 11.0117 3.42744 9.25298 4.96346 8C3.42742 6.74657 2.3876 4.98739 2.03013 3.03733C1.97449 2.66334 2.00024 2.28175 2.10563 1.91863C2.21103 1.55551 2.39357 1.21942 2.6408 0.933333C2.89186 0.640764 3.20317 0.405896 3.55343 0.244806C3.90368 0.0837168 4.28461 0.000209228 4.67013 0L11.3335 0C11.719 0.000341429 12.0999 0.0839081 12.4501 0.244989C12.8003 0.406069 13.1117 0.640866 13.3628 0.933333C13.6101 1.2193 13.7927 1.55523 13.8983 1.91821C14.0039 2.2812 14.03 2.66269 13.9748 3.03667C13.6137 4.9873 12.5715 6.74628 11.0341 8C12.5706 9.2548 13.6116 11.0145 13.9715 12.9653C14.0268 13.3394 14.0007 13.721 13.8951 14.0841C13.7895 14.4472 13.6068 14.7833 13.3595 15.0693C13.1084 15.3609 12.7975 15.5949 12.4479 15.7555C12.0983 15.9161 11.7182 15.9995 11.3335 16V16ZM11.3335 1.33333H4.67013C4.47675 1.33321 4.28563 1.37485 4.10982 1.45539C3.93401 1.53593 3.77766 1.65348 3.65146 1.8C3.52823 1.94029 3.43717 2.10583 3.38466 2.28502C3.33214 2.46421 3.31945 2.65272 3.34746 2.83733C3.59813 4.504 4.63013 6.064 6.41413 7.47533C6.49296 7.53775 6.55665 7.61719 6.60043 7.7077C6.64421 7.79821 6.66696 7.89745 6.66696 7.998C6.66696 8.09855 6.64421 8.19779 6.60043 8.2883C6.55665 8.37881 6.49296 8.45825 6.41413 8.52067C4.63013 9.93333 3.60013 11.4947 3.34746 13.1607C3.31915 13.3456 3.33169 13.5345 3.38421 13.714C3.43673 13.8936 3.52795 14.0595 3.65146 14.2C3.77766 14.3465 3.93401 14.4641 4.10982 14.5446C4.28563 14.6252 4.47675 14.6668 4.67013 14.6667H11.3335C11.5269 14.6668 11.718 14.6252 11.8938 14.5447C12.0696 14.4641 12.226 14.3466 12.3521 14.2C12.4753 14.06 12.5664 13.8947 12.6189 13.7157C12.6714 13.5367 12.6841 13.3484 12.6561 13.164C12.4075 11.506 11.3761 9.94467 9.58946 8.52267C9.51112 8.46022 9.44786 8.38093 9.40438 8.29067C9.3609 8.20041 9.33832 8.10152 9.33832 8.00133C9.33832 7.90115 9.3609 7.80225 9.40438 7.712C9.44786 7.62174 9.51112 7.54244 9.58946 7.48C11.3768 6.058 12.4081 4.49667 12.6561 2.838C12.684 2.65303 12.671 2.4642 12.6179 2.28483C12.5648 2.10547 12.4729 1.93996 12.3488 1.8C12.223 1.65387 12.0672 1.53655 11.892 1.45602C11.7168 1.37549 11.5263 1.33365 11.3335 1.33333V1.33333ZM10.4541 13.3333H5.54546C5.43638 13.3333 5.32898 13.3065 5.23268 13.2552C5.13637 13.204 5.05411 13.1299 4.9931 13.0395C4.93209 12.9491 4.89421 12.8451 4.88276 12.7366C4.87132 12.6281 4.88667 12.5185 4.92746 12.4173C5.44952 11.2901 6.24494 10.3111 7.24147 9.56933L7.5868 9.29467C7.70477 9.20083 7.85106 9.14975 8.0018 9.14975C8.15254 9.14975 8.29883 9.20083 8.4168 9.29467L8.75613 9.56533C9.75125 10.31 10.5467 11.2893 11.0715 12.416C11.1125 12.5172 11.1281 12.6269 11.1168 12.7355C11.1055 12.8441 11.0678 12.9483 11.0068 13.0389C10.9458 13.1295 10.8636 13.2037 10.7672 13.255C10.6708 13.3064 10.5633 13.3333 10.4541 13.3333V13.3333ZM6.68947 12H9.30813C8.92775 11.5042 8.48853 11.0565 8.00013 10.6667C7.50957 11.055 7.06929 11.5029 6.68947 12V12Z" fill="#7C7B88"/>
<path d="M4.67013 16L4.65855 37.3333H4.67013V16ZM2.6408 15.0667L18.8304 1.17396L18.8033 1.1424L18.7761 1.11094L2.6408 15.0667ZM2.02946 12.9613L-18.9532 9.10912L-19.0181 9.46252L-19.071 9.8179L2.02946 12.9613ZM4.96346 8L18.4483 24.5309L38.71 8.0028L18.451 -8.52868L4.96346 8ZM2.03013 3.03733L-19.0709 6.17687L-19.0182 6.53137L-18.9536 6.88391L2.03013 3.03733ZM2.6408 0.933333L18.7821 14.8821L18.8063 14.8541L18.8304 14.826L2.6408 0.933333ZM4.67013 0L4.67013 -21.3333L4.65855 -21.3333L4.67013 0ZM11.3335 0L11.3524 -21.3333L11.3429 -21.3333H11.3335L11.3335 0ZM13.3628 0.933333L-2.82206 14.8316L-2.7985 14.859L-2.77484 14.8864L13.3628 0.933333ZM13.9748 3.03667L34.9517 6.92011L35.0224 6.53798L35.0792 6.15352L13.9748 3.03667ZM11.0341 8L-2.44823 -8.53291L-22.7074 7.98816L-2.45983 24.5234L11.0341 8ZM13.9715 12.9653L35.0756 9.84631L35.0199 9.46976L34.9509 9.09544L13.9715 12.9653ZM13.3595 15.0693L-2.77911 1.11736L-2.79314 1.13359L-2.80713 1.14984L13.3595 15.0693ZM4.67013 1.33333L4.65702 22.6667H4.67013V1.33333ZM3.65146 1.8L19.6793 15.8791L19.7479 15.801L19.8157 15.7222L3.65146 1.8ZM3.34746 2.83733L24.4435 -0.335515L24.4414 -0.349501L24.4393 -0.363484L3.34746 2.83733ZM6.41413 7.47533L19.657 -9.25L19.65 -9.25554L6.41413 7.47533ZM6.41413 8.52067L-6.82877 -8.20467L-6.82945 -8.20412L6.41413 8.52067ZM3.34746 13.1607L24.435 16.3899L24.4373 16.3747L24.4396 16.3595L3.34746 13.1607ZM3.65146 14.2L19.8157 0.277754L19.7457 0.196525L19.675 0.116002L3.65146 14.2ZM4.67013 14.6667L4.67013 -6.66667L4.65702 -6.66666L4.67013 14.6667ZM11.3335 14.6667L11.3514 -6.66666L11.3425 -6.66667H11.3335V14.6667ZM12.3521 14.2L-3.66489 0.108645L-3.74054 0.194637L-3.81527 0.281437L12.3521 14.2ZM12.6561 13.164L-8.44124 16.3282L-8.43838 16.3473L-8.43548 16.3663L12.6561 13.164ZM9.58946 8.52267L-3.70714 25.2053L-3.70135 25.21L-3.69555 25.2146L9.58946 8.52267ZM9.58946 7.48L-3.69251 -9.21432L-3.69983 -9.2085L-3.70714 -9.20267L9.58946 7.48ZM12.6561 2.838L-8.43853 -0.344187L-8.44061 -0.330417L-8.44267 -0.316644L12.6561 2.838ZM12.3488 1.8L-3.81862 15.7185L-3.71665 15.837L-3.61295 15.9539L12.3488 1.8ZM5.54546 13.3333L5.53632 34.6667H5.54546V13.3333ZM4.92746 12.4173L-14.4307 3.45232L-14.6566 3.94011L-14.8577 4.43866L4.92746 12.4173ZM7.24147 9.56933L19.9794 26.6824L20.2536 26.4783L20.5211 26.2655L7.24147 9.56933ZM7.5868 9.29467L20.8664 25.9909L20.8668 25.9906L7.5868 9.29467ZM8.0018 9.14975L8.0018 30.4831L8.0018 9.14975ZM8.4168 9.29467L21.7196 -7.38304L21.7082 -7.39214L21.6968 -7.40122L8.4168 9.29467ZM8.75613 9.56533L-4.54669 26.243L-4.28922 26.4484L-4.02553 26.6457L8.75613 9.56533ZM11.0715 12.416L30.8394 4.39466L30.637 3.89605L30.4098 3.40828L11.0715 12.416ZM9.30813 12V33.3333H52.5643L26.2338 -0.985821L9.30813 12ZM8.00013 10.6667L21.3082 -6.00685L8.05542 -16.5846L-5.24017 -6.06072L8.00013 10.6667ZM11.3335 -5.33333H4.67013V37.3333H11.3335V-5.33333ZM4.68171 -5.33333C7.36964 -5.33187 10.0255 -4.74964 12.4675 -3.62652L-5.36063 35.1369C-2.21813 36.5822 1.19958 37.3315 4.65855 37.3333L4.68171 -5.33333ZM12.4675 -3.62652C14.9095 -2.5034 17.08 -0.865881 18.8304 1.17396L-13.5488 28.9594C-11.2963 31.5844 -8.50313 33.6916 -5.36063 35.1369L12.4675 -3.62652ZM18.7761 1.11094C20.539 3.1491 21.8406 5.54406 22.5921 8.13191L-18.3821 20.0297C-17.4197 23.3443 -15.7524 26.4119 -13.4945 29.0224L18.7761 1.11094ZM22.5921 8.13191C23.3435 10.7198 23.527 13.4394 23.1299 16.1048L-19.071 9.8179C-19.5796 13.2317 -19.3446 16.7151 -18.3821 20.0297L22.5921 8.13191ZM23.0121 16.8135C22.4553 19.8463 20.8376 22.5819 18.4483 24.5309L-8.52134 -8.53092C-13.9827 -4.07593 -17.6805 2.17706 -18.9532 9.10912L23.0121 16.8135ZM18.451 -8.52868C20.8403 -6.57898 22.4578 -3.84256 23.0138 -0.809241L-18.9536 6.88391C-17.6826 13.8173 -13.9855 20.0721 -8.52408 24.5287L18.451 -8.52868ZM23.1312 -0.1022C23.5275 2.56129 23.3441 5.27894 22.5935 7.86503L-18.3822 -4.02778C-19.3436 -0.715444 -19.5785 2.7654 -19.0709 6.17687L23.1312 -0.1022ZM22.5935 7.86503C21.8429 10.4511 20.5428 12.8447 18.7821 14.8821L-13.5005 -13.0155C-15.7557 -10.4058 -17.4208 -7.34011 -18.3822 -4.02778L22.5935 7.86503ZM18.8304 14.826C17.08 16.8659 14.9095 18.5034 12.4675 19.6265L-5.36063 -19.1369C-8.50315 -17.6916 -11.2963 -15.5843 -13.5488 -12.9594L18.8304 14.826ZM12.4675 19.6265C10.0255 20.7496 7.36962 21.3319 4.68171 21.3333L4.65855 -21.3333C1.1996 -21.3315 -2.21811 -20.5822 -5.36063 -19.1369L12.4675 19.6265ZM4.67013 21.3333H11.3335L11.3335 -21.3333H4.67013L4.67013 21.3333ZM11.3146 21.3333C8.62911 21.3309 5.97582 20.7488 3.53603 19.6267L21.3641 -19.1367C18.2239 -20.581 14.8088 -21.3303 11.3524 -21.3333L11.3146 21.3333ZM3.53603 19.6267C1.09624 18.5046 -1.07253 16.869 -2.82206 14.8316L29.5477 -12.9649C27.2958 -15.5872 24.5044 -17.6924 21.3641 -19.1367L3.53603 19.6267ZM-2.77484 14.8864C-4.53423 12.8515 -5.834 10.4612 -6.58552 7.87833L34.3822 -4.04191C33.4194 -7.35069 31.7543 -10.4129 29.5004 -13.0197L-2.77484 14.8864ZM-6.58552 7.87833C-7.33704 5.29549 -7.52263 2.58093 -7.12962 -0.080191L35.0792 6.15352C35.5827 2.74445 35.3449 -0.733101 34.3822 -4.04191L-6.58552 7.87833ZM-7.00209 -0.846779C-6.44287 -3.86749 -4.829 -6.59142 -2.44823 -8.53291L24.5165 24.5329C29.972 20.084 33.6702 13.8421 34.9517 6.92011L-7.00209 -0.846779ZM-2.45983 24.5234C-4.83892 22.5805 -6.45073 19.8559 -7.00793 16.8352L34.9509 9.09544C33.6739 2.17304 29.9802 -4.07095 24.5281 -8.52345L-2.45983 24.5234ZM-7.13263 16.0844C-7.52592 13.4233 -7.34058 10.7087 -6.58927 8.12575L34.3794 20.0425C35.342 16.7334 35.5794 13.2556 35.0756 9.84631L-7.13263 16.0844ZM-6.58927 8.12575C-5.83796 5.5428 -4.53835 3.15231 -2.77911 1.11736L29.498 29.0213C31.7519 26.4142 33.4169 23.3516 34.3794 20.0425L-6.58927 8.12575ZM-2.80713 1.14984C-1.05843 -0.881165 1.10737 -2.51154 3.54282 -3.6303L21.353 35.1414C24.4877 33.7014 27.2753 31.6029 29.5261 28.9888L-2.80713 1.14984ZM3.54282 -3.6303C5.97825 -4.74904 8.62616 -5.3299 11.3063 -5.33332L11.3607 37.3333C14.8102 37.3289 18.2184 36.5813 21.353 35.1414L3.54282 -3.6303ZM11.3335 -20H4.67013V22.6667H11.3335V-20ZM4.68324 -20C1.41884 -20.002 -1.80751 -19.2992 -4.77532 -17.9396L12.995 20.8504C10.3788 22.0489 7.53466 22.6684 4.65702 22.6667L4.68324 -20ZM-4.77532 -17.9396C-7.74313 -16.58 -10.3824 -14.5957 -12.5128 -12.1222L19.8157 15.7222C17.9377 17.9026 15.6112 19.6519 12.995 20.8504L-4.77532 -17.9396ZM-12.3764 -12.2791C-14.5524 -9.80186 -16.1604 -6.87875 -17.0877 -3.71458L23.857 8.28462C23.0347 11.0904 21.6088 13.6824 19.6793 15.8791L-12.3764 -12.2791ZM-17.0877 -3.71458C-18.015 -0.55042 -18.2391 2.77824 -17.7444 6.03815L24.4393 -0.363484C24.878 2.5272 24.6792 5.47884 23.857 8.28462L-17.0877 -3.71458ZM-17.7486 6.01018C-16.4452 14.6766 -11.3344 20.6362 -6.82177 24.2062L19.65 -9.25554C20.5947 -8.5082 23.6414 -5.66861 24.4435 -0.335515L-17.7486 6.01018ZM-6.82877 24.2007C-9.27241 22.2658 -11.2468 19.8033 -12.6041 16.9974L25.8049 -1.58197C24.3601 -4.56892 22.2583 -7.19033 19.657 -9.25L-6.82877 24.2007ZM-12.6041 16.9974C-13.9614 14.1915 -14.6664 11.1149 -14.6664 7.998H28.0003C28.0003 4.67999 27.2498 1.40495 25.8049 -1.58197L-12.6041 16.9974ZM-14.6664 7.998C-14.6664 4.88108 -13.9614 1.80453 -12.6041 -1.00137L25.8049 17.578C27.2498 14.5911 28.0003 11.316 28.0003 7.998H-14.6664ZM-12.6041 -1.00137C-11.2468 -3.80724 -9.27245 -6.26979 -6.82877 -8.20467L19.657 25.246C22.2584 23.1863 24.3601 20.5649 25.8049 17.578L-12.6041 -1.00137ZM-6.82945 -8.20412C-11.3552 -4.6204 -16.436 1.33262 -17.7447 9.96182L24.4396 16.3595C23.6362 21.6567 20.6155 24.4871 19.6577 25.2455L-6.82945 -8.20412ZM-17.7401 9.93146C-18.2401 13.1969 -18.0186 16.5323 -17.0912 19.703L23.8596 7.72508C24.682 10.5366 24.8784 13.4943 24.435 16.3899L-17.7401 9.93146ZM-17.0912 19.703C-16.1638 22.8737 -14.553 25.8027 -12.372 28.284L19.675 0.116002C21.6089 2.31623 23.0373 4.91348 23.8596 7.72508L-17.0912 19.703ZM-12.5128 28.1222C-10.3824 30.5956 -7.74315 32.58 -4.77532 33.9396L12.995 -4.85037C15.6112 -3.65184 17.9377 -1.9026 19.8157 0.277754L-12.5128 28.1222ZM-4.77532 33.9396C-1.80751 35.2992 1.41884 36.002 4.68324 36L4.65702 -6.66666C7.53466 -6.66843 10.3788 -6.04889 12.995 -4.85037L-4.77532 33.9396ZM4.67013 36H11.3335V-6.66667H4.67013V36ZM11.3155 36C14.5815 36.0027 17.8096 35.2999 20.7789 33.9397L3.00867 -4.85031C5.62636 -6.04952 8.47218 -6.66908 11.3514 -6.66666L11.3155 36ZM20.7789 33.9397C23.7483 32.5794 26.3887 30.5937 28.5195 28.1186L-3.81527 0.281437C-1.93677 -1.90057 0.390944 -3.65109 3.00867 -4.85031L20.7789 33.9397ZM28.3691 28.2914C30.5489 25.8137 32.16 22.8889 33.0891 19.7224L-7.85133 7.70897C-7.02718 4.90036 -5.59825 2.30621 -3.66489 0.108645L28.3691 28.2914ZM33.0891 19.7224C34.0183 16.5558 34.2431 13.2243 33.7477 9.96167L-8.43548 16.3663C-8.87485 13.4725 -8.67548 10.5176 -7.85133 7.70897L33.0891 19.7224ZM33.7535 9.99982C32.4531 1.32926 27.3348 -4.61929 22.8745 -8.16924L-3.69555 25.2146C-4.58253 24.5086 -7.63816 21.6827 -8.44124 16.3282L33.7535 9.99982ZM22.8861 -8.16C25.3148 -6.22427 27.2759 -3.76606 28.6238 -0.968114L-9.81504 17.5495C-8.3802 20.5279 -6.29251 23.1447 -3.70714 25.2053L22.8861 -8.16ZM28.6238 -0.968114C29.9717 1.82987 30.6717 4.89565 30.6717 8.00133H-11.995C-11.995 11.3074 -11.2499 14.571 -9.81504 17.5495L28.6238 -0.968114ZM30.6717 8.00133C30.6717 11.107 29.9717 14.1728 28.6238 16.9708L-9.81504 -1.54679C-11.2499 1.43171 -11.995 4.69528 -11.995 8.00133H30.6717ZM28.6238 16.9708C27.2759 19.7688 25.3147 22.227 22.8861 24.1627L-3.70714 -9.20267C-6.29247 -7.14208 -8.38017 -4.5253 -9.81504 -1.54679L28.6238 16.9708ZM22.8714 24.1743C27.334 20.6239 32.4573 14.6715 33.7549 5.99264L-8.44267 -0.316644C-7.64103 -5.67816 -4.58042 -8.5079 -3.69251 -9.21432L22.8714 24.1743ZM33.7508 6.02019C34.2447 2.74602 34.0135 -0.596689 33.0734 -3.77169L-7.83769 8.34136C-8.67154 5.52508 -8.87664 2.56005 -8.43853 -0.344187L33.7508 6.02019ZM33.0734 -3.77169C32.1334 -6.94663 30.5075 -9.87641 28.3105 -12.3539L-3.61295 15.9539C-5.56165 13.7563 -7.00386 11.1576 -7.83769 8.34136L33.0734 -3.77169ZM28.5162 -12.1185C26.3915 -14.5865 23.7602 -16.5679 20.8012 -17.9279L2.98276 20.84C0.374192 19.641 -1.94554 17.8943 -3.81862 15.7185L28.5162 -12.1185ZM20.8012 -17.9279C17.8422 -19.2879 14.625 -19.9946 11.3685 -20L11.2985 22.6666C8.42756 22.6619 5.59134 22.0389 2.98276 20.84L20.8012 -17.9279ZM10.4541 -8H5.54546V34.6667H10.4541V-8ZM5.55461 -8C8.93612 -7.99855 12.2656 -7.16737 15.251 -5.57938L-4.78569 32.0899C-1.60765 33.7803 1.93665 34.6651 5.53632 34.6667L5.55461 -8ZM15.251 -5.57938C18.2365 -3.99138 20.7867 -1.69508 22.6779 1.10808L-12.6917 24.971C-10.6785 27.955 -7.96376 30.3994 -4.78569 32.0899L15.251 -5.57938ZM22.6779 1.10808C24.5691 3.91125 25.7436 7.13567 26.0984 10.4985L-16.3328 14.9747C-15.9552 18.5545 -14.7049 21.987 -12.6917 24.971L22.6779 1.10808ZM26.0984 10.4985C26.4531 13.8613 25.9773 17.2599 24.7126 20.396L-14.8577 4.43866C-16.204 7.77713 -16.7105 11.3949 -16.3328 14.9747L26.0984 10.4985ZM24.2857 21.3823C23.3141 23.4802 21.8339 25.302 19.9794 26.6824L-5.49643 -7.54373C-9.34401 -4.67984 -12.4151 -0.90004 -14.4307 3.45232L24.2857 21.3823ZM20.5211 26.2655L20.8664 25.9909L-5.69282 -7.40153L-6.03815 -7.12686L20.5211 26.2655ZM20.8668 25.9906C17.2097 28.8994 12.6747 30.4831 8.0018 30.4831V-12.1836C3.02738 -12.1836 -1.80017 -10.4978 -5.6932 -7.40122L20.8668 25.9906ZM8.0018 30.4831C3.32888 30.4831 -1.2061 28.8994 -4.8632 25.9906L21.6968 -7.40122C17.8038 -10.4978 12.9762 -12.1836 8.0018 -12.1836L8.0018 30.4831ZM-4.88603 25.9724L-4.54669 26.243L22.059 -7.11238L21.7196 -7.38304L-4.88603 25.9724ZM-4.02553 26.6457C-5.84846 25.2816 -7.30554 23.4876 -8.26689 21.4237L30.4098 3.40828C28.3989 -0.908969 25.351 -4.66159 21.5378 -7.51507L-4.02553 26.6457ZM-8.69642 20.4373C-9.96917 17.3008 -10.452 13.8996 -10.1025 10.5328L32.3361 14.9382C32.7082 11.3542 32.1942 7.7336 30.8394 4.39466L-8.69642 20.4373ZM-10.1025 10.5328C-9.75299 7.16602 -8.58189 3.93654 -6.69198 1.12821L28.7056 24.9495C30.7174 21.96 31.9641 18.5222 32.3361 14.9382L-10.1025 10.5328ZM-6.69198 1.12821C-4.80212 -1.68006 -2.2514 -3.98112 0.735971 -5.57275L20.7984 32.0828C23.9785 30.3885 26.6938 27.939 28.7056 24.9495L-6.69198 1.12821ZM0.735971 -5.57275C3.7234 -7.16442 7.05601 -7.9979 10.4409 -8L10.4673 34.6667C14.0706 34.6644 17.6183 33.7772 20.7984 32.0828L0.735971 -5.57275ZM6.68947 33.3333H9.30813V-9.33333H6.68947V33.3333ZM26.2338 -0.985821C24.8014 -2.85284 23.1474 -4.53888 21.3082 -6.00685L-5.30794 27.3402C-6.17035 26.6519 -6.94591 25.8613 -7.61758 24.9858L26.2338 -0.985821ZM-5.24017 -6.06072C-7.11994 -4.57282 -8.80702 -2.85656 -10.2625 -0.951575L23.6414 24.9516C22.9456 25.8623 22.1391 26.6827 21.2404 27.3941L-5.24017 -6.06072Z" fill="#7C7B88" mask="url(#path-1-inside-1_16_2926)"/>
</g>
<defs>
<clipPath id="clip0_16_2926">
<rect width="16" height="16" fill="white"/>
</clipPath>
</defs>
</svg>
