<svg width="16" height="16" viewBox="0 0 16 16" fill="none" xmlns="http://www.w3.org/2000/svg">
<g id="mic">
<path id="Vector (Stroke)" fill-rule="evenodd" clip-rule="evenodd" d="M6.11442 0.781049C6.61452 0.280951 7.2928 0 8.00004 0C8.70728 0 9.38556 0.280951 9.88566 0.781049C10.3858 1.28115 10.6667 1.95942 10.6667 2.66667V8C10.6667 8.70724 10.3858 9.38552 9.88566 9.88562C9.38556 10.3857 8.70728 10.6667 8.00004 10.6667C7.2928 10.6667 6.61452 10.3857 6.11442 9.88562C5.61433 9.38552 5.33337 8.70724 5.33337 8V2.66667C5.33337 1.95942 5.61433 1.28115 6.11442 0.781049ZM8.00004 1.33333C7.64642 1.33333 7.30728 1.47381 7.05723 1.72386C6.80718 1.97391 6.66671 2.31304 6.66671 2.66667V8C6.66671 8.35362 6.80718 8.69276 7.05723 8.94281C7.30728 9.19286 7.64642 9.33333 8.00004 9.33333C8.35366 9.33333 8.6928 9.19286 8.94285 8.94281C9.1929 8.69276 9.33337 8.35362 9.33337 8V2.66667C9.33337 2.31304 9.1929 1.97391 8.94285 1.72386C8.6928 1.47381 8.35366 1.33333 8.00004 1.33333Z" fill="#6F727A"/>
<path id="Vector (Stroke)_2" fill-rule="evenodd" clip-rule="evenodd" d="M3.33329 6C3.70148 6 3.99996 6.29848 3.99996 6.66667V8C3.99996 9.06087 4.42139 10.0783 5.17153 10.8284C5.92168 11.5786 6.93909 12 7.99996 12C9.06082 12 10.0782 11.5786 10.8284 10.8284C11.5785 10.0783 12 9.06087 12 8V6.66667C12 6.29848 12.2984 6 12.6666 6C13.0348 6 13.3333 6.29848 13.3333 6.66667V8C13.3333 9.41449 12.7714 10.771 11.7712 11.7712C10.771 12.7714 9.41445 13.3333 7.99996 13.3333C6.58547 13.3333 5.22892 12.7714 4.22872 11.7712C3.22853 10.771 2.66663 9.41449 2.66663 8V6.66667C2.66663 6.29848 2.9651 6 3.33329 6Z" fill="#6F727A"/>
<path id="Vector (Stroke)_3" fill-rule="evenodd" clip-rule="evenodd" d="M8.00004 12C8.36823 12 8.66671 12.2985 8.66671 12.6667V15.3333C8.66671 15.7015 8.36823 16 8.00004 16C7.63185 16 7.33337 15.7015 7.33337 15.3333V12.6667C7.33337 12.2985 7.63185 12 8.00004 12Z" fill="#6F727A"/>
<path id="Vector (Stroke)_4" fill-rule="evenodd" clip-rule="evenodd" d="M4.66663 15.3334C4.66663 14.9652 4.9651 14.6667 5.33329 14.6667H10.6666C11.0348 14.6667 11.3333 14.9652 11.3333 15.3334C11.3333 15.7016 11.0348 16.0001 10.6666 16.0001H5.33329C4.9651 16.0001 4.66663 15.7016 4.66663 15.3334Z" fill="#6F727A"/>
</g>
</svg>
