<svg width="16" height="16" viewBox="0 0 16 16" fill="none" xmlns="http://www.w3.org/2000/svg">
<g id="fi-rr-PARKING" clip-path="url(#clip0_5527_610)">
<g id="Vector">
<path d="M12.6667 0H3.33333C2.4496 0.00105857 1.60237 0.352588 0.97748 0.97748C0.352588 1.60237 0.00105857 2.4496 0 3.33333V12.6667C0.00105857 13.5504 0.352588 14.3976 0.97748 15.0225C1.60237 15.6474 2.4496 15.9989 3.33333 16H12.6667C13.5504 15.9989 14.3976 15.6474 15.0225 15.0225C15.6474 14.3976 15.9989 13.5504 16 12.6667V3.33333C15.9989 2.4496 15.6474 1.60237 15.0225 0.97748C14.3976 0.352588 13.5504 0.00105857 12.6667 0ZM14.6667 12.6667C14.6667 13.1971 14.456 13.7058 14.0809 14.0809C13.7058 14.456 13.1971 14.6667 12.6667 14.6667H3.33333C2.8029 14.6667 2.29419 14.456 1.91912 14.0809C1.54405 13.7058 1.33333 13.1971 1.33333 12.6667V3.33333C1.33333 2.8029 1.54405 2.29419 1.91912 1.91912C2.29419 1.54405 2.8029 1.33333 3.33333 1.33333H12.6667C13.1971 1.33333 13.7058 1.54405 14.0809 1.91912C14.456 2.29419 14.6667 2.8029 14.6667 3.33333V12.6667Z" fill="#6F727A"/>
<path d="M6 12.7273C5.63181 12.7273 5.33333 12.4288 5.33333 12.0606V4.66667C5.33333 4.29848 5.63181 4 6 4H8.60606C9.27652 4 9.83902 4.125 10.2936 4.375C10.7509 4.625 11.0961 4.96875 11.3291 5.40625C11.5649 5.84091 11.6828 6.33523 11.6828 6.8892C11.6828 7.44886 11.5649 7.94602 11.3291 8.38068C11.0933 8.81534 10.7453 9.15767 10.285 9.40767C9.82481 9.65483 9.25805 9.77841 8.58475 9.77841H6.9143V8.47869H8.37169C8.76373 8.47869 9.08475 8.41051 9.33475 8.27415C9.58475 8.13778 9.76941 7.95028 9.88873 7.71165C10.0109 7.47301 10.072 7.19886 10.072 6.8892C10.072 6.57955 10.0109 6.30682 9.88873 6.07102C9.76941 5.83523 9.58333 5.65199 9.33049 5.52131C9.08049 5.38778 8.75805 5.32102 8.36316 5.32102L7.33333 5.33333C6.96514 5.33333 6.9143 5.50141 6.9143 5.8696V12.0606C6.9143 12.4288 6.61582 12.7273 6.24763 12.7273H6Z" fill="#6F727A"/>
</g>
</g>
<defs>
<clipPath id="clip0_5527_610">
<rect width="16" height="16" fill="white"/>
</clipPath>
</defs>
</svg>
