<svg width="16" height="16" viewBox="0 0 16 16" fill="none" xmlns="http://www.w3.org/2000/svg">
<g id="percent">
<path id="Union" fill-rule="evenodd" clip-rule="evenodd" d="M4.33333 3.33333C3.78105 3.33333 3.33333 3.78105 3.33333 4.33333C3.33333 4.88562 3.78105 5.33333 4.33333 5.33333C4.88562 5.33333 5.33333 4.88562 5.33333 4.33333C5.33333 3.78105 4.88562 3.33333 4.33333 3.33333ZM2 4.33333C2 3.04467 3.04467 2 4.33333 2C5.622 2 6.66667 3.04467 6.66667 4.33333C6.66667 5.622 5.622 6.66667 4.33333 6.66667C3.04467 6.66667 2 5.622 2 4.33333ZM13.1381 3.80474L3.80474 13.1381C3.54439 13.3984 3.12228 13.3984 2.86193 13.1381C2.60158 12.8777 2.60158 12.4556 2.86193 12.1953L12.1953 2.86193C12.4556 2.60158 12.8777 2.60158 13.1381 2.86193C13.3984 3.12228 13.3984 3.54439 13.1381 3.80474ZM10.6667 11.6667C10.6667 11.1144 11.1144 10.6667 11.6667 10.6667C12.219 10.6667 12.6667 11.1144 12.6667 11.6667C12.6667 12.219 12.219 12.6667 11.6667 12.6667C11.1144 12.6667 10.6667 12.219 10.6667 11.6667ZM11.6667 9.33333C10.378 9.33333 9.33333 10.378 9.33333 11.6667C9.33333 12.9553 10.378 14 11.6667 14C12.9553 14 14 12.9553 14 11.6667C14 10.378 12.9553 9.33333 11.6667 9.33333Z" fill="#6F727A"/>
</g>
</svg>
