<svg width="16" height="16" viewBox="0 0 16 16" fill="none" xmlns="http://www.w3.org/2000/svg">
<g clip-path="url(#clip0_16_2929)">
<path d="M14.0003 6.66667H11.7956L8.96429 1.042C8.79218 0.726597 8.53829 0.463382 8.22929 0.280024C7.92029 0.096665 7.5676 -6.48318e-05 7.20829 1.6722e-06H7.08696C6.81487 -0.000374072 6.54644 0.0625776 6.30289 0.183875C6.05933 0.305173 5.84736 0.481488 5.68372 0.698868C5.52009 0.916248 5.40929 1.16873 5.3601 1.43633C5.31091 1.70393 5.32467 1.97931 5.40029 2.24067L6.68562 6.66667H5.09629C4.83346 6.66736 4.5731 6.61592 4.33027 6.51534C4.08745 6.41475 3.86698 6.26701 3.68162 6.08067L2.73696 5.13334C2.49551 4.89213 2.18349 4.73411 1.84617 4.68221C1.50884 4.6303 1.16376 4.68721 0.860958 4.84467C0.673596 4.94133 0.507986 5.0753 0.374307 5.23833C0.240628 5.40135 0.141707 5.59 0.0836241 5.79267C0.0193852 6.01011 -0.00026405 6.23829 0.0258555 6.46352C0.0519751 6.68874 0.123325 6.90637 0.235624 7.10334L1.31162 8.98667C1.60373 9.4964 2.02507 9.9201 2.53316 10.2151C3.04125 10.51 3.61813 10.6658 4.20562 10.6667H6.67962L5.56762 13.6313C5.46808 13.8965 5.43428 14.1818 5.46912 14.4629C5.50396 14.744 5.6064 15.0125 5.76768 15.2453C5.92895 15.4781 6.14426 15.6684 6.39515 15.7999C6.64604 15.9313 6.92505 16 7.20829 16C7.56138 16.0019 7.90856 15.9094 8.21389 15.732C8.51923 15.5547 8.77162 15.299 8.94496 14.9913L11.643 10.6667H14.0003C14.5307 10.6667 15.0394 10.456 15.4145 10.0809C15.7896 9.70581 16.0003 9.1971 16.0003 8.66667C16.0003 8.13624 15.7896 7.62753 15.4145 7.25246C15.0394 6.87738 14.5307 6.66667 14.0003 6.66667ZM6.68362 1.87C6.66554 1.80746 6.66224 1.74156 6.674 1.67752C6.68575 1.61348 6.71223 1.55305 6.75135 1.501C6.79046 1.44895 6.84115 1.40671 6.89939 1.37761C6.95764 1.34852 7.02185 1.33336 7.08696 1.33334H7.20829C7.32453 1.33234 7.43897 1.36209 7.54001 1.41957C7.64105 1.47706 7.72509 1.56023 7.78363 1.66067L10.3036 6.66667H8.07362L6.68362 1.87ZM14.0003 9.33334H11.273C11.1598 9.33341 11.0486 9.36227 10.9497 9.4172C10.8508 9.47213 10.7675 9.55133 10.7076 9.64734L7.79362 14.3193C7.73626 14.4245 7.65162 14.5122 7.54862 14.5733C7.44562 14.6344 7.32806 14.6667 7.20829 14.6667C7.14052 14.6667 7.07375 14.6503 7.01371 14.6189C6.95368 14.5875 6.90217 14.5419 6.86361 14.4862C6.82506 14.4305 6.80061 14.3662 6.79237 14.2989C6.78412 14.2317 6.79233 14.1634 6.81629 14.1L8.26562 10.2333C8.30331 10.1325 8.316 10.024 8.30262 9.91716C8.28925 9.81033 8.25019 9.70833 8.1888 9.61988C8.12741 9.53143 8.04551 9.45916 7.9501 9.40926C7.8547 9.35936 7.74863 9.33331 7.64096 9.33334H4.20562C3.85355 9.33275 3.50787 9.23924 3.20351 9.06225C2.89916 8.88525 2.64692 8.63105 2.47229 8.32534L1.39296 6.44134C1.37037 6.40116 1.35597 6.35691 1.35059 6.31114C1.34521 6.26537 1.34896 6.21898 1.36162 6.17467C1.3683 6.14513 1.38114 6.11734 1.39929 6.0931C1.41744 6.06886 1.4405 6.04872 1.46696 6.034C1.50805 6.01219 1.55377 6.00053 1.60029 6C1.67184 6.0005 1.74042 6.02869 1.79162 6.07867L2.73629 7.02334C3.04553 7.33412 3.41334 7.58046 3.81844 7.74811C4.22354 7.91575 4.65788 8.00137 5.09629 8H14.0003C14.1771 8 14.3467 8.07024 14.4717 8.19526C14.5967 8.32029 14.667 8.48986 14.667 8.66667C14.667 8.84348 14.5967 9.01305 14.4717 9.13807C14.3467 9.2631 14.1771 9.33334 14.0003 9.33334Z" fill="#7C7B88"/>
</g>
<defs>
<clipPath id="clip0_16_2929">
<rect width="16" height="16" fill="white"/>
</clipPath>
</defs>
</svg>
