<svg width="16" height="16" viewBox="0 0 16 16" fill="none" xmlns="http://www.w3.org/2000/svg">
<mask id="path-1-inside-1_16_2931" fill="white">
<path fill-rule="evenodd" clip-rule="evenodd" d="M8.21065 0.0341605L12.3873 1.42683C13.0514 1.64741 13.629 2.07167 14.0382 2.6393C14.4474 3.20694 14.6673 3.88909 14.6666 4.58883V8.00016C14.6666 13.0422 8.53331 15.8268 8.27065 15.9428C8.18543 15.9807 8.09323 16.0002 7.99998 16.0002C7.90674 16.0002 7.81453 15.9807 7.72931 15.9428C7.46665 15.8268 1.33331 13.0422 1.33331 8.00016V4.58883C1.33267 3.88909 1.55256 3.20694 1.96174 2.6393C2.37092 2.07167 2.94858 1.64741 3.61265 1.42683L7.78931 0.0341605C7.92607 -0.0113868 8.0739 -0.0113868 8.21065 0.0341605ZM7.99998 14.5928C9.12065 14.0222 13.3333 11.6368 13.3333 8.00016V4.58883C13.3333 4.16901 13.2011 3.75985 12.9556 3.41932C12.7101 3.07879 12.3636 2.82416 11.9653 2.69149L7.99998 1.36949L4.03465 2.69149C3.63634 2.82416 3.28988 3.07879 3.04436 3.41932C2.79883 3.75985 2.66669 4.16901 2.66665 4.58883V8.00016C2.66665 11.6462 6.87798 14.0242 7.99998 14.5928ZM7.40787 8.33327L10.1999 5.53326C10.2621 5.47119 10.3359 5.42198 10.4171 5.38844C10.4983 5.35489 10.5854 5.33768 10.6732 5.33777C10.7611 5.33786 10.8481 5.35526 10.9293 5.38898C11.0104 5.42269 11.0841 5.47206 11.1462 5.53426C11.2083 5.59647 11.2575 5.67029 11.291 5.75151C11.3246 5.83273 11.3418 5.91976 11.3417 6.00764C11.3416 6.09551 11.3242 6.18251 11.2905 6.26366C11.2568 6.34481 11.2074 6.41853 11.1452 6.4806L8.29721 9.32861C8.18066 9.44593 8.04197 9.53894 7.88919 9.60222C7.73641 9.66551 7.57258 9.69782 7.40721 9.69727H7.38521C7.21647 9.69469 7.05 9.65791 6.89588 9.58916C6.74176 9.5204 6.60319 9.42111 6.48854 9.29727L4.95121 7.69727C4.88795 7.63472 4.83785 7.56015 4.80386 7.47794C4.76986 7.39574 4.75267 7.30756 4.75328 7.2186C4.75389 7.12965 4.7723 7.04172 4.80743 6.95999C4.84255 6.87826 4.89367 6.80438 4.95779 6.74271C5.0219 6.68105 5.09771 6.63284 5.18074 6.60092C5.26378 6.569 5.35236 6.55403 5.44127 6.55687C5.53018 6.55972 5.61762 6.58033 5.69845 6.6175C5.77927 6.65466 5.85184 6.70762 5.91187 6.77327L7.40787 8.33327Z"/>
</mask>
<path fill-rule="evenodd" clip-rule="evenodd" d="M8.21065 0.0341605L12.3873 1.42683C13.0514 1.64741 13.629 2.07167 14.0382 2.6393C14.4474 3.20694 14.6673 3.88909 14.6666 4.58883V8.00016C14.6666 13.0422 8.53331 15.8268 8.27065 15.9428C8.18543 15.9807 8.09323 16.0002 7.99998 16.0002C7.90674 16.0002 7.81453 15.9807 7.72931 15.9428C7.46665 15.8268 1.33331 13.0422 1.33331 8.00016V4.58883C1.33267 3.88909 1.55256 3.20694 1.96174 2.6393C2.37092 2.07167 2.94858 1.64741 3.61265 1.42683L7.78931 0.0341605C7.92607 -0.0113868 8.0739 -0.0113868 8.21065 0.0341605ZM7.99998 14.5928C9.12065 14.0222 13.3333 11.6368 13.3333 8.00016V4.58883C13.3333 4.16901 13.2011 3.75985 12.9556 3.41932C12.7101 3.07879 12.3636 2.82416 11.9653 2.69149L7.99998 1.36949L4.03465 2.69149C3.63634 2.82416 3.28988 3.07879 3.04436 3.41932C2.79883 3.75985 2.66669 4.16901 2.66665 4.58883V8.00016C2.66665 11.6462 6.87798 14.0242 7.99998 14.5928ZM7.40787 8.33327L10.1999 5.53326C10.2621 5.47119 10.3359 5.42198 10.4171 5.38844C10.4983 5.35489 10.5854 5.33768 10.6732 5.33777C10.7611 5.33786 10.8481 5.35526 10.9293 5.38898C11.0104 5.42269 11.0841 5.47206 11.1462 5.53426C11.2083 5.59647 11.2575 5.67029 11.291 5.75151C11.3246 5.83273 11.3418 5.91976 11.3417 6.00764C11.3416 6.09551 11.3242 6.18251 11.2905 6.26366C11.2568 6.34481 11.2074 6.41853 11.1452 6.4806L8.29721 9.32861C8.18066 9.44593 8.04197 9.53894 7.88919 9.60222C7.73641 9.66551 7.57258 9.69782 7.40721 9.69727H7.38521C7.21647 9.69469 7.05 9.65791 6.89588 9.58916C6.74176 9.5204 6.60319 9.42111 6.48854 9.29727L4.95121 7.69727C4.88795 7.63472 4.83785 7.56015 4.80386 7.47794C4.76986 7.39574 4.75267 7.30756 4.75328 7.2186C4.75389 7.12965 4.7723 7.04172 4.80743 6.95999C4.84255 6.87826 4.89367 6.80438 4.95779 6.74271C5.0219 6.68105 5.09771 6.63284 5.18074 6.60092C5.26378 6.569 5.35236 6.55403 5.44127 6.55687C5.53018 6.55972 5.61762 6.58033 5.69845 6.6175C5.77927 6.65466 5.85184 6.70762 5.91187 6.77327L7.40787 8.33327Z" fill="#7C7B88"/>
<path d="M12.3873 1.42683L5.63918 21.6648L5.65068 21.6686L5.66217 21.6724L12.3873 1.42683ZM8.21065 0.0341605L14.9588 -20.2038L14.952 -20.206L8.21065 0.0341605ZM14.6666 4.58883L-6.66668 4.56923L-6.66669 4.57903V4.58883H14.6666ZM8.27065 15.9428L-0.347669 -3.57219L-0.369146 -3.5627L-0.390603 -3.55317L8.27065 15.9428ZM7.72931 15.9428L16.3906 -3.55317L16.3691 -3.5627L16.3476 -3.57219L7.72931 15.9428ZM1.33331 4.58883H22.6666V4.57905L22.6666 4.56928L1.33331 4.58883ZM1.96174 2.6393L19.2675 15.1142L19.2675 15.1142L1.96174 2.6393ZM3.61265 1.42683L10.3378 21.6724L10.3493 21.6686L10.3608 21.6648L3.61265 1.42683ZM7.78931 0.0341605L1.04798 -20.206L1.04118 -20.2038L7.78931 0.0341605ZM7.99998 14.5928L-1.64445 33.6216L8.02268 38.5213L17.6805 33.6033L7.99998 14.5928ZM13.3333 4.58883L34.6666 4.58883L34.6666 4.58684L13.3333 4.58883ZM12.9556 3.41932L-4.34884 15.896L-4.34881 15.896L12.9556 3.41932ZM11.9653 2.69149L5.2181 22.9297L5.22396 22.9317L11.9653 2.69149ZM7.99998 1.36949L14.7472 -18.8687L7.99998 -21.1182L1.25277 -18.8687L7.99998 1.36949ZM4.03465 2.69149L10.776 22.9317L10.7819 22.9297L4.03465 2.69149ZM3.04436 3.41932L-14.2601 -9.05738L-14.2601 -9.05737L3.04436 3.41932ZM2.66665 4.58883L-18.6667 4.58685V4.58883H2.66665ZM10.1999 5.53326L-4.86915 -9.56759L-4.88793 -9.54885L-4.90666 -9.53007L10.1999 5.53326ZM7.40787 8.33327L-7.98963 23.099L7.11024 38.8449L22.5144 23.3966L7.40787 8.33327ZM10.9293 5.38898L19.114 -14.3118L19.114 -14.3118L10.9293 5.38898ZM11.1462 5.53426L-3.95471 20.6032L-3.95465 20.6033L11.1462 5.53426ZM11.291 5.75151L-8.42703 13.8946L-8.42701 13.8946L11.291 5.75151ZM11.2905 6.26366L-8.41029 -1.9211L-8.41039 -1.92086L11.2905 6.26366ZM11.1452 6.4806L-3.92387 -8.6202L-3.93182 -8.61227L-3.93976 -8.60433L11.1452 6.4806ZM8.29721 9.32861L-6.78776 -5.75632L-6.81288 -5.7312L-6.83791 -5.706L8.29721 9.32861ZM7.88919 9.60222L16.0534 29.3115L16.0535 29.3115L7.88919 9.60222ZM7.40721 9.69727L7.4777 -11.6359L7.44245 -11.6361H7.40721V9.69727ZM7.38521 9.69727L7.05862 31.0281L7.2219 31.0306H7.38521V9.69727ZM6.89588 9.58916L15.5872 -9.89348L15.5871 -9.89352L6.89588 9.58916ZM6.48854 9.29727L22.1429 -5.19593L22.0086 -5.34092L21.8717 -5.48339L6.48854 9.29727ZM4.95121 7.69727L20.3344 -7.0834L20.1449 -7.2806L19.9505 -7.47289L4.95121 7.69727ZM4.75328 7.2186L26.0861 7.36566L26.0861 7.36566L4.75328 7.2186ZM4.80743 6.95999L24.4076 15.3828L24.4076 15.3828L4.80743 6.95999ZM5.18074 6.60092L12.8348 26.5139L12.8349 26.5139L5.18074 6.60092ZM5.69845 6.6175L14.6109 -12.7649L14.6109 -12.765L5.69845 6.6175ZM5.91187 6.77327L-9.8302 21.1711L-9.66009 21.3571L-9.48563 21.539L5.91187 6.77327ZM19.1354 -18.8111L14.9588 -20.2038L1.46252 20.2721L5.63918 21.6648L19.1354 -18.8111ZM31.344 -9.83556C28.3123 -14.0412 24.0325 -17.1844 19.1125 -18.8188L5.66217 21.6724C2.07028 20.4793 -1.05427 18.1845 -3.26753 15.1142L31.344 -9.83556ZM36 4.60842C36.0047 -0.575974 34.3756 -5.62999 31.344 -9.83556L-3.26753 15.1142C-5.48076 12.0439 -6.67015 8.35414 -6.66668 4.56923L36 4.60842ZM36 8.00016V4.58883H-6.66669V8.00016H36ZM16.889 35.4578C17.8986 35.012 21.623 33.2934 25.4417 30.0239C28.9352 27.0328 36 19.684 36 8.00016H-6.66669C-6.66669 1.35831 -2.6686 -2.07719 -2.30738 -2.38646C-1.62102 -2.97411 -1.09466 -3.2423 -0.347669 -3.57219L16.889 35.4578ZM7.99998 37.3336C11.0772 37.3336 14.1201 36.688 16.9319 35.4388L-0.390603 -3.55317C2.25081 -4.72664 5.10921 -5.33309 7.99998 -5.33309V37.3336ZM-0.931936 35.4388C1.8799 36.688 4.92271 37.3336 7.99998 37.3336V-5.33309C10.8908 -5.33309 13.7492 -4.72663 16.3906 -3.55317L-0.931936 35.4388ZM-20 8.00016C-20 19.684 -12.9353 27.0328 -9.44171 30.0239C-5.62302 33.2934 -1.89865 35.012 -0.889003 35.4578L16.3476 -3.57219C17.0946 -3.2423 17.621 -2.97411 18.3073 -2.38646C18.6686 -2.07719 22.6666 1.35831 22.6666 8.00016H-20ZM-20 4.58883V8.00016H22.6666V4.58883H-20ZM-15.344 -9.83557C-18.3756 -5.62998 -20.0048 -0.575966 -20 4.60837L22.6666 4.56928C22.6701 8.35414 21.4807 12.0438 19.2675 15.1142L-15.344 -9.83557ZM-3.11249 -18.8188C-8.03252 -17.1844 -12.3124 -14.0412 -15.344 -9.83557L19.2675 15.1142C17.0542 18.1845 13.9297 20.4793 10.3378 21.6724L-3.11249 -18.8188ZM1.04118 -20.2038L-3.13548 -18.8111L10.3608 21.6648L14.5374 20.2721L1.04118 -20.2038ZM14.952 -20.206C10.4392 -21.7091 5.56078 -21.7091 1.04798 -20.206L14.5306 20.2744C10.2914 21.6863 5.70861 21.6863 1.4693 20.2744L14.952 -20.206ZM-8.00002 8.00016C-8.00002 1.24095 -4.1577 -2.50231 -3.52863 -3.09395C-2.61445 -3.95373 -1.93072 -4.29027 -1.68054 -4.41766L17.6805 33.6033C19.0513 32.9053 22.4017 31.0907 25.7024 27.9864C28.718 25.1503 34.6666 18.396 34.6666 8.00016H-8.00002ZM-8.00002 4.58883V8.00016H34.6666V4.58883H-8.00002ZM-4.34881 15.896C-6.72225 12.6042 -7.99964 8.64901 -8.00002 4.59081L34.6666 4.58684C34.6662 -0.310987 33.1245 -5.08451 30.26 -9.05738L-4.34881 15.896ZM5.22396 22.9317C1.37373 21.6493 -1.97539 19.1878 -4.34884 15.896L30.26 -9.05735C27.3955 -13.0303 23.3535 -16.001 18.7067 -17.5487L5.22396 22.9317ZM1.25277 21.6077L5.2181 22.9297L18.7125 -17.5467L14.7472 -18.8687L1.25277 21.6077ZM10.7819 22.9297L14.7472 21.6077L1.25277 -18.8687L-2.71257 -17.5467L10.7819 22.9297ZM20.3488 15.896C17.9754 19.1878 14.6262 21.6493 10.776 22.9317L-2.70669 -17.5487C-7.35356 -16.001 -11.3956 -13.0302 -14.2601 -9.05738L20.3488 15.896ZM24 4.5908C23.9996 8.64902 22.7222 12.6042 20.3488 15.896L-14.2601 -9.05737C-17.1246 -5.08451 -18.6662 -0.310991 -18.6667 4.58685L24 4.5908ZM24 8.00016V4.58883H-18.6667V8.00016H24ZM17.6444 -4.43599C17.9058 -4.30352 18.5995 -3.96246 19.5228 -3.09464C20.1714 -2.48512 24 1.2574 24 8.00016H-18.6667C-18.6667 18.3889 -12.7324 25.1434 -9.69771 27.9956C-6.38819 31.1061 -3.02784 32.9205 -1.64445 33.6216L17.6444 -4.43599ZM-4.90666 -9.53007L-7.69866 -6.73006L22.5144 23.3966L25.3064 20.5966L-4.90666 -9.53007ZM2.27402 -14.3296C-0.39662 -13.2267 -2.82387 -11.6086 -4.86915 -9.56759L25.2689 20.6341C23.348 22.5509 21.0684 24.0707 18.5602 25.1065L2.27402 -14.3296ZM10.6958 -15.9956C7.80635 -15.9986 4.94462 -15.4325 2.27402 -14.3296L18.5602 25.1065C16.0521 26.1423 13.3644 26.674 10.6507 26.6711L10.6958 -15.9956ZM19.114 -14.3118C16.4457 -15.4204 13.5852 -15.9925 10.6958 -15.9956L10.6507 26.6711C7.93704 26.6682 5.25054 26.1309 2.74456 25.0898L19.114 -14.3118ZM26.2471 -9.5347C24.2063 -11.5799 21.7825 -13.2032 19.114 -14.3118L2.74455 25.0898C0.238369 24.0486 -2.038 22.524 -3.95471 20.6032L26.2471 -9.5347ZM31.0091 -2.39155C29.9062 -5.06218 28.2881 -7.48945 26.2471 -9.53476L-3.95465 20.6033C-5.8715 18.6824 -7.39121 16.4028 -8.42703 13.8946L31.0091 -2.39155ZM32.675 6.0301C32.6781 3.14086 32.112 0.27916 31.0091 -2.39159L-8.42701 13.8946C-9.46288 11.3863 -9.99448 8.69867 -9.99163 5.98518L32.675 6.0301ZM30.9913 14.4484C32.0998 11.7802 32.672 8.91963 32.675 6.0301L-9.99163 5.98518C-9.98877 3.27139 -9.4514 0.584841 -8.41029 -1.9211L30.9913 14.4484ZM26.2143 21.5814C28.2595 19.5405 29.8828 17.1167 30.9914 14.4482L-8.41039 -1.92086C-7.36923 -4.42704 -5.84466 -6.70345 -3.92387 -8.6202L26.2143 21.5814ZM23.3822 24.4135L26.2302 21.5655L-3.93976 -8.60433L-6.78776 -5.75632L23.3822 24.4135ZM16.0535 29.3115C18.8165 28.1669 21.3247 26.485 23.4323 24.3632L-6.83791 -5.706C-4.96335 -7.59309 -2.73258 -9.08908 -0.275074 -10.1071L16.0535 29.3115ZM7.33671 31.0305C10.3275 31.0404 13.2904 30.4561 16.0534 29.3115L-0.274991 -10.1071C2.18245 -11.125 4.81767 -11.6447 7.4777 -11.6359L7.33671 31.0305ZM7.38521 31.0306H7.40721V-11.6361H7.38521V31.0306ZM-1.79539 29.0718C0.993325 30.3158 4.00538 30.9814 7.05862 31.0281L7.71179 -11.6336C10.4276 -11.592 13.1067 -11 15.5872 -9.89348L-1.79539 29.0718ZM-9.1658 23.7905C-7.09128 26.0312 -4.5839 27.8278 -1.79529 29.0718L15.5871 -9.89352C18.0674 -8.78704 20.2977 -7.18897 22.1429 -5.19593L-9.1658 23.7905ZM-10.432 22.4779L-8.89467 24.0779L21.8717 -5.48339L20.3344 -7.0834L-10.432 22.4779ZM-14.9106 15.6297C-13.7889 18.3426 -12.1355 20.8035 -10.048 22.8674L19.9505 -7.47289C21.9114 -5.53402 23.4645 -3.22228 24.5183 -0.673824L-14.9106 15.6297ZM-16.5795 7.07155C-16.5998 10.0071 -16.0323 12.9169 -14.9106 15.6297L24.5183 -0.673824C25.572 1.87456 26.1051 4.60806 26.0861 7.36566L-16.5795 7.07155ZM-14.7928 -1.46284C-15.9518 1.23421 -16.5593 4.13598 -16.5795 7.07155L26.0861 7.36566C26.0671 10.1233 25.4964 12.8492 24.4076 15.3828L-14.7928 -1.46284ZM-9.8309 -8.63278C-11.9466 -6.59779 -13.6337 -4.15994 -14.7928 -1.46283L24.4076 15.3828C23.3188 17.9165 21.734 20.2066 19.7465 22.1182L-9.8309 -8.63278ZM-2.47336 -13.312C-5.21348 -12.2588 -7.71513 -10.6678 -9.8309 -8.63278L19.7465 22.1182C17.7589 24.0299 15.4089 25.5245 12.8348 26.5139L-2.47336 -13.312ZM6.12407 -14.7655C3.18987 -14.8595 0.266655 -14.3652 -2.47338 -13.312L12.8349 26.5139C10.2609 27.5032 7.51485 27.9675 4.75847 27.8793L6.12407 -14.7655ZM14.6109 -12.765C11.9438 -13.9913 9.05826 -14.6716 6.12407 -14.7655L4.75847 27.8793C2.0021 27.791 -0.708601 27.152 -3.21398 26L14.6109 -12.765ZM21.6539 -7.62459C19.6727 -9.79083 17.278 -11.5386 14.6109 -12.7649L-3.21403 25.9999C-5.71943 24.8479 -7.96901 23.2061 -9.8302 21.1711L21.6539 -7.62459ZM22.8054 -6.43251L21.3094 -7.99251L-9.48563 21.539L-7.98963 23.099L22.8054 -6.43251Z" fill="#7C7B88" mask="url(#path-1-inside-1_16_2931)"/>
</svg>
