<svg width="28" height="24" viewBox="0 0 28 24" fill="none" xmlns="http://www.w3.org/2000/svg">
<path d="M27.6655 15.481C27.5638 16.3387 27.27 18.5701 25.6222 20.5198C21.5662 25.3188 13.4913 23.4607 11.3838 22.9757C8.61952 22.3396 3.20423 21.0934 1.09443 16.3992C-0.14067 13.6512 0.333794 11.0049 0.478067 10.2569C1.33017 5.8396 4.71181 3.49709 5.78791 2.75176C6.27278 2.41597 11.5249 -1.09455 17.7284 0.861488C24.0664 2.86006 28.3623 9.60822 27.6655 15.481Z" fill="#BC845B"/>
<path d="M17.275 23.9998C14.6571 23.9998 12.3471 23.4682 11.3256 23.233C9.94887 22.9163 7.86866 22.4375 5.87829 21.4461C4.77825 20.8982 3.81906 20.2476 3.02704 19.5124C2.09313 18.6453 1.36299 17.6348 0.856848 16.5087C0.00965366 14.6239 -0.20988 12.4444 0.221898 10.2062C0.594181 8.27667 1.47975 6.50858 2.85436 4.95123C3.96184 3.69649 5.0955 2.91118 5.64046 2.53375C6.09797 2.21682 9.44823 0.00811768 13.8863 0.00811768C15.1214 0.00811768 16.4401 0.179027 17.8051 0.609395C19.3752 1.10448 20.8578 1.89341 22.2115 2.95417C23.5019 3.96545 24.6253 5.18218 25.5501 6.57073C26.464 7.94254 27.1362 9.40938 27.5485 10.9304C27.9724 12.4945 28.0986 14.0362 27.9233 15.5127C27.8316 16.2865 27.5521 18.6414 25.8192 20.6917C24.8538 21.8341 23.5922 22.6931 22.0697 23.2451C20.818 23.6988 19.3742 23.9506 17.7787 23.9933C17.6098 23.9975 17.4415 23.9998 17.275 23.9998ZM13.8792 0.53201C12.5052 0.53201 11.1056 0.75436 9.69007 1.19906C7.60005 1.85555 6.19465 2.78899 5.93407 2.96955C4.85336 3.71821 1.56453 5.99631 0.732804 10.3074C0.321998 12.4369 0.528738 14.5055 1.33057 16.2895C3.38698 20.8647 8.62602 22.0704 11.4407 22.7182C13.6321 23.2225 15.6124 23.4742 17.3761 23.4742C20.9688 23.4742 23.6642 22.4299 25.4239 20.3479C27.054 18.4192 27.3192 16.1839 27.4063 15.4495C28.1044 9.56611 23.6367 3.00108 17.6504 1.11338C16.4215 0.72585 15.1614 0.53201 13.8792 0.53201Z" fill="black"/>
<path d="M16.2388 7.70455C15.436 7.95828 14.559 7.76157 13.943 7.18096C12.5797 5.89574 9.80978 4.15678 6.0093 6.1371C6.0093 6.1371 1.25231 8.46467 2.9815 14.7622C2.9815 14.7622 4.00911 19.1786 11.9883 20.9743C19.9675 22.77 22.6829 19.6067 22.6829 19.6067C22.6829 19.6067 27.6165 14.9749 23.2187 9.48983C23.2187 9.48983 20.5089 6.35537 16.2388 7.70455Z" fill="#F1ECC3"/>
<path d="M9.57641 8.72632C10.9317 9.37995 11.7487 10.6697 11.6404 11.9374C11.6111 12.2798 11.5177 12.5824 11.3994 12.8401C11.1777 13.3237 10.825 13.7332 10.3901 14.0328C9.5059 14.6421 7.14399 15.943 3.37698 15.6894C3.37698 15.6894 1.72082 13.0053 3.1219 9.40151C3.60454 9.04431 4.54663 8.44907 5.8729 8.22777C7.63378 7.93422 9.02326 8.47456 9.57641 8.72632Z" fill="#595260"/>
<path d="M20.0944 11.1583C19.4627 11.0646 18.8172 11.1088 18.2084 11.3037C17.2216 11.6197 16.0292 12.4092 16.1383 14.3819C16.1476 14.6125 16.1774 14.962 16.2801 15.3719C16.328 15.5632 16.5279 16.3115 17.2126 17.2585C18.3932 18.8909 20.5797 20.5114 20.8782 20.7306C21.4431 20.4999 22.1435 20.1255 22.8159 19.5063C24.8001 17.6789 25.0012 15.1375 25.0334 14.4365C24.7096 13.9026 24.1496 13.1347 23.2468 12.4593C22.0906 11.5948 20.902 11.278 20.0944 11.1583Z" fill="#595260"/>
<path d="M20.8764 20.7479L20.8697 20.7431C20.4585 20.4412 18.3488 18.8549 17.2009 17.2677C16.5867 16.4186 16.3514 15.718 16.2659 15.3759C16.1849 15.0524 16.1371 14.7182 16.1237 14.3827C16.0147 12.4118 17.1949 11.6127 18.2042 11.2896C18.8001 11.0988 19.4545 11.0484 20.0967 11.1436C20.9023 11.2631 22.1041 11.5862 23.2557 12.4475C23.9707 12.9823 24.5732 13.6489 25.0462 14.4289L25.0486 14.4328L25.0484 14.4375C25.0157 15.1478 24.8851 15.8798 24.6709 16.5539C24.2939 17.7403 23.6732 18.7376 22.8262 19.5177C22.2643 20.0353 21.6109 20.4482 20.8841 20.7449L20.8764 20.7479ZM19.4618 11.1269C19.0334 11.1269 18.6103 11.1913 18.2132 11.3183C17.214 11.6382 16.0453 12.4293 16.1533 14.3812C16.1666 14.7149 16.2142 15.0469 16.2946 15.3684C16.3797 15.7084 16.6137 16.4049 17.2248 17.2498C18.364 18.8249 20.4541 20.4002 20.8804 20.7137C21.6007 20.4186 22.2486 20.0086 22.8059 19.4953C24.6687 17.7797 24.9738 15.3925 25.0184 14.4405C24.5476 13.6656 23.9487 13.0032 23.238 12.4717C22.0914 11.6141 20.8946 11.2923 20.0924 11.1733C19.8827 11.1424 19.6717 11.1269 19.4618 11.1269Z" fill="#595260"/>
<g opacity="0.5">
<path d="M27.2755 11.1625C26.5867 9.52562 25.4414 7.42733 23.5306 5.44399C22.5134 4.38821 21.0634 2.91353 18.6802 1.94162C18.3722 1.81596 17.0241 1.28091 15.1441 1.07937C14.4397 1.0038 11.9735 0.794274 9.02154 1.77554C5.68899 2.88321 3.54839 4.90652 2.52197 6.02852C2.98811 5.3663 6.50748 0.548996 12.7393 0.151815C17.6892 -0.163607 21.1533 2.47939 22.0005 3.16544C22.8157 3.86402 23.7634 4.80696 24.6726 6.04029C26.0831 7.95364 26.8485 9.81676 27.2755 11.1625Z" fill="white"/>
</g>
<path d="M17.2688 23.992C14.6509 23.992 12.3409 23.4604 11.3192 23.2252C9.94267 22.9085 7.86246 22.4298 5.87194 21.4383C4.7719 20.8904 3.81271 20.2398 3.02069 19.5044C2.08678 18.6374 1.35664 17.6268 0.850499 16.5006C0.00330464 14.6158 -0.216227 12.4363 0.21555 10.1981C0.587834 8.26857 1.4734 6.50049 2.84801 4.94314C3.95549 3.6884 5.08915 2.90308 5.63412 2.52567C6.21894 2.12049 11.5294 -1.37555 17.7986 0.601305C19.3687 1.09639 20.8513 1.88532 22.205 2.94608C23.4956 3.95736 24.6188 5.17409 25.5436 6.56264C26.4575 7.93445 27.1297 9.40129 27.542 10.9223C27.9659 12.4864 28.0921 14.0281 27.9168 15.5046C27.8251 16.2784 27.5456 18.6333 25.8128 20.6836C24.8473 21.826 23.5858 22.6851 22.0634 23.237C20.8116 23.6908 19.3679 23.9425 17.7722 23.9852C17.6036 23.9897 17.4353 23.992 17.2688 23.992ZM13.873 0.524373C12.499 0.524373 11.0994 0.746722 9.68387 1.19142C7.59385 1.84791 6.18845 2.78135 5.92787 2.96192C4.84716 3.71057 1.55833 5.98867 0.726604 10.2997C0.315798 12.4292 0.52254 14.4978 1.32437 16.2819C3.38078 20.8571 8.61982 22.0628 11.4345 22.7105C13.6259 23.2148 15.6062 23.4666 17.3699 23.4666C20.9624 23.4666 23.658 22.4223 25.4177 20.3403C27.0478 18.4116 27.313 16.1763 27.4001 15.4418C28.0983 9.55847 23.6305 2.99344 17.6442 1.10574C16.4153 0.718061 15.1552 0.524373 13.873 0.524373Z" fill="black"/>
<g opacity="0.25">
<path d="M0.377185 10.4586C0.377185 10.4586 -0.275167 19.3393 12.6496 21.9684C25.5744 24.5975 27.4754 16.3859 27.4754 16.3859C27.4754 16.3859 26.7382 25.5729 14.5472 23.5357C2.3561 21.4985 1.09676 16.4061 1.09676 16.4061C1.09676 16.4061 -0.316664 12.0389 0.377185 10.4586Z" fill="#020002"/>
</g>
<path d="M10.158 11.967C10.3807 10.8551 9.81026 9.79908 8.88386 9.6082C7.95745 9.41731 7.0259 10.1639 6.80317 11.2757C6.58045 12.3876 7.15091 13.4436 8.07731 13.6345C9.00372 13.8254 9.93527 13.0788 10.158 11.967Z" fill="black"/>
<path d="M9.68671 11.9835C9.75682 11.6335 9.60189 11.3061 9.34066 11.2523C9.07944 11.1984 8.81083 11.4385 8.74072 11.7886C8.67061 12.1386 8.82553 12.4659 9.08676 12.5198C9.34799 12.5736 9.61659 12.3335 9.68671 11.9835Z" fill="white"/>
<path d="M21.0142 14.5065C21.2706 13.4022 20.7325 12.3288 19.8124 12.1091C18.8922 11.8893 17.9384 12.6064 17.682 13.7108C17.4256 14.8151 17.9637 15.8885 18.8839 16.1083C19.8041 16.328 20.7578 15.6109 21.0142 14.5065Z" fill="black"/>
<path d="M18.97 13.9934C19.0507 13.6458 18.9058 13.3137 18.6464 13.2517C18.3869 13.1898 18.1111 13.4214 18.0304 13.769C17.9497 14.1167 18.0946 14.4487 18.3541 14.5107C18.6136 14.5727 18.8893 14.3411 18.97 13.9934Z" fill="white"/>
<path d="M11.8911 13.4906C11.6669 13.9577 12.3697 15.0477 13.31 15.2497C14.1825 15.4371 15.2114 14.8495 15.2253 14.3427C15.2413 13.7553 13.8917 13.3617 13.7946 13.3343C13.2193 13.1717 12.1106 13.0332 11.8911 13.4906Z" fill="black"/>
<path d="M13.232 15.2886C13.254 15.2944 13.276 15.2996 13.2983 15.3043C13.9295 15.4399 14.599 15.1814 14.9539 14.8839C15.1582 14.7125 15.2735 14.5205 15.2783 14.343C15.2954 13.7183 13.9614 13.3231 13.8092 13.2801C13.3496 13.1504 12.1005 12.9304 11.8437 13.4661C11.7629 13.6343 11.7851 13.8746 11.9061 14.1428C12.1066 14.5873 12.6028 15.125 13.232 15.2886ZM13.7054 13.368C13.7307 13.3747 13.7555 13.3813 13.7798 13.3883C14.2666 13.5258 15.1841 13.9022 15.1721 14.3422C15.1682 14.4857 15.0675 14.6474 14.8886 14.7973C14.5527 15.079 13.9191 15.3235 13.3215 15.1951C12.6959 15.0608 12.199 14.5299 12.0022 14.0935C11.8971 13.8604 11.8737 13.6497 11.9383 13.5151C12.1199 13.1366 13.055 13.1986 13.7054 13.368Z" fill="black"/>
<path d="M13.7264 14.5463C13.6463 14.9403 13.4543 15.3138 13.1782 15.6063C13.1093 15.6794 13.0344 15.7469 12.9559 15.8093C12.8772 15.8716 12.7946 15.9291 12.7066 15.9775C12.619 16.0265 12.5279 16.0691 12.4339 16.1042C12.3871 16.122 12.339 16.137 12.291 16.1511L12.2178 16.1692C12.1934 16.1748 12.1686 16.1792 12.1441 16.1842C11.9465 16.2199 11.7419 16.2199 11.5464 16.1784C11.3509 16.1376 11.1679 16.0535 11.0119 15.943C10.8554 15.8321 10.7241 15.696 10.6183 15.5467C10.5648 15.4726 10.5181 15.3943 10.4767 15.3142C10.4361 15.2338 10.4003 15.1512 10.375 15.0656C10.4916 15.1984 10.6182 15.315 10.75 15.4173C10.8835 15.5174 11.0227 15.6019 11.1667 15.6606C11.3104 15.7199 11.4576 15.7515 11.6027 15.7577C11.7478 15.7638 11.8917 15.7402 12.0282 15.6954C12.3017 15.6048 12.5424 15.4219 12.7226 15.1945C12.9056 14.9674 13.0255 14.6941 13.0896 14.4073L13.7264 14.5463Z" fill="black"/>
<path d="M13.7359 14.5571C13.6414 14.8352 13.604 15.1335 13.645 15.4255C13.6641 15.5714 13.7027 15.7148 13.7604 15.85C13.8177 15.985 13.8937 16.1129 13.9899 16.2227C14.0847 16.3338 14.198 16.4292 14.3276 16.4988C14.457 16.5682 14.6009 16.6154 14.7549 16.6385C14.9088 16.6614 15.0717 16.6612 15.2366 16.6419C15.4014 16.6214 15.5689 16.5863 15.7355 16.5318C15.6703 16.5919 15.5979 16.6442 15.522 16.6913C15.4462 16.7388 15.3662 16.7801 15.283 16.816C15.1164 16.8869 14.9356 16.9358 14.7458 16.9485C14.5565 16.9617 14.3585 16.9368 14.1715 16.87C13.9844 16.8036 13.8104 16.6981 13.6588 16.5665C13.5079 16.4338 13.3826 16.2737 13.2815 16.1001C13.2309 16.0131 13.1893 15.9213 13.1527 15.8277C13.1167 15.7338 13.0855 15.6377 13.0635 15.5394C12.9723 15.1467 12.9933 14.7275 13.1185 14.3459L13.7359 14.5571Z" fill="black"/>
<path d="M14.2287 13.8903C14.2558 13.7737 14.0055 13.6143 13.6698 13.5341C13.334 13.4539 13.0399 13.4834 13.0129 13.5999C12.9858 13.7164 13.236 13.8759 13.5718 13.9561C13.9075 14.0363 14.2017 14.0068 14.2287 13.8903Z" fill="white"/>
</svg>
