<svg width="28" height="25" viewBox="0 0 28 25" fill="none" xmlns="http://www.w3.org/2000/svg">
<path d="M27.6798 12.4452C27.7603 13.2876 27.9418 15.4853 26.7534 17.7011C23.8284 23.1547 15.6227 23.0901 13.481 23.0733C10.6719 23.0511 5.169 23.0078 2.14639 18.9631C0.376979 16.5953 0.28397 13.9621 0.267608 13.2155C0.170618 8.80724 2.95562 5.84775 3.8418 4.90598C4.24111 4.48171 8.59328 0.00737888 15.0075 0.562718C21.5611 1.13032 27.1286 6.67691 27.6798 12.4452Z" fill="#BC845B"/>
<path d="M13.9777 23.3342C13.7889 23.3342 13.6221 23.3329 13.4797 23.3319C12.0809 23.3208 9.96688 23.3042 7.8328 22.7777C6.65344 22.4867 5.58891 22.0678 4.66869 21.5321C3.58352 20.9005 2.66565 20.0884 1.94058 19.1181C0.727024 17.494 0.0594437 15.4549 0.0103591 13.2211C-0.0320925 11.2954 0.456395 9.4156 1.46212 7.63343C2.27238 6.1975 3.20617 5.20534 3.65486 4.72847C4.10826 4.24672 8.04329 0.256348 13.908 0.256348C14.275 0.256348 14.6485 0.271865 15.0304 0.304966C16.6539 0.4455 18.2539 0.885869 19.786 1.61381C21.2465 2.30761 22.588 3.23372 23.7732 4.36627C24.9442 5.48522 25.9014 6.74634 26.6179 8.11444C27.3548 9.5214 27.7988 10.97 27.9373 12.4203C28.01 13.1803 28.2309 15.4933 26.9813 17.8233C26.285 19.1215 25.243 20.2113 23.8842 21.0626C22.7671 21.7625 21.4217 22.3099 19.886 22.6895C17.52 23.2742 15.2528 23.3342 13.9777 23.3342ZM13.895 0.773118C11.6393 0.773118 9.42474 1.38284 7.29685 2.59193C5.41041 3.66389 4.24461 4.85541 4.02999 5.08342C3.13998 6.02918 0.431337 8.9074 0.526116 13.2097C0.572843 15.3349 1.20475 17.2707 2.35345 18.8079C5.29942 22.7501 10.6233 22.7921 13.4836 22.8145C13.5826 22.8153 13.6812 22.8157 13.7794 22.8157C20.3746 22.8157 24.6625 21.0544 26.5268 17.5784C27.7024 15.3866 27.4926 13.1911 27.4238 12.4697C26.8716 6.69107 21.1757 1.35639 14.986 0.820258C14.6214 0.78893 14.2576 0.773118 13.895 0.773118Z" fill="black"/>
<path d="M14.9953 7.42791C14.2708 7.84109 13.3808 7.83902 12.6633 7.41402C11.0752 6.47343 8.03046 5.39704 4.76434 8.09881C4.76434 8.09881 0.644612 11.336 3.63332 16.9958C3.63332 16.9958 5.55013 21.0042 13.65 21.0293C21.7498 21.0544 23.7187 17.4508 23.7187 17.4508C23.7187 17.4508 27.5283 11.971 22.1256 7.6549C22.1254 7.65504 18.8477 5.2305 14.9953 7.42791Z" fill="#F1ECC3"/>
<path d="M8.75885 9.81968C10.2075 10.1576 11.2676 11.2185 11.4274 12.4548C11.4706 12.7888 11.4432 13.0981 11.3826 13.3698C11.2688 13.8797 11.0129 14.3465 10.6544 14.7257C9.92554 15.4963 7.91041 17.2427 4.21034 17.7995C4.21034 17.7995 2.04664 15.5822 2.65098 11.8359C3.04366 11.3916 3.83152 10.6221 5.0694 10.1288C6.71277 9.47389 8.17087 9.69614 8.75885 9.81968Z" fill="#595260"/>
<path d="M19.4489 9.91519C18.8177 9.95967 18.202 10.1389 17.6534 10.4547C16.7638 10.9666 15.7742 11.9753 16.2917 13.8399C16.3488 14.0588 16.4508 14.3869 16.6356 14.7573C16.7218 14.9302 17.0716 15.6041 17.9323 16.365C19.4159 17.6766 21.8712 18.7635 22.2059 18.9098C22.7047 18.5692 23.3046 18.0623 23.8263 17.3269C25.3657 15.1569 25.03 12.682 24.9148 12.0043C24.4899 11.5621 23.7875 10.9461 22.7724 10.4914C21.4727 9.90928 20.2558 9.85844 19.4489 9.91519Z" fill="#595260"/>
<path d="M22.207 18.9266L22.1995 18.9233C21.7383 18.7217 19.3647 17.6514 17.9221 16.376C17.1504 15.6938 16.7763 15.0732 16.622 14.7639C16.4761 14.4714 16.36 14.1618 16.2771 13.8435C15.76 11.9804 16.7359 10.9653 17.6457 10.4417C18.1827 10.1328 18.8057 9.94552 19.4475 9.9003C20.2523 9.8437 21.4834 9.89779 22.778 10.4777C23.582 10.8378 24.3042 11.3478 24.9251 11.9938L24.9282 11.9971L24.9289 12.0015C25.0455 12.6882 25.0719 13.4165 25.0051 14.1072C24.8878 15.3226 24.495 16.4088 23.8377 17.3352C23.4017 17.9498 22.8553 18.4835 22.2137 18.9217L22.207 18.9266ZM19.9466 9.91257C19.7674 9.91257 19.601 9.91922 19.4497 9.93C18.8124 9.97493 18.1937 10.1607 17.6606 10.4676C16.7599 10.9859 15.7937 11.991 16.3058 13.836C16.3883 14.1524 16.5036 14.4602 16.6487 14.7507C16.8021 15.0581 17.174 15.6751 17.9418 16.3538C19.3735 17.6195 21.7259 18.6835 22.2041 18.8929C22.8398 18.4575 23.3815 17.9277 23.814 17.3182C25.2593 15.2811 25.0564 12.9316 24.9009 12.0111C24.2835 11.3695 23.5653 10.8626 22.7663 10.5047C21.7203 10.0365 20.7162 9.91257 19.9466 9.91257Z" fill="#595260"/>
<g opacity="0.5">
<path d="M26.4022 8.39482C25.3937 6.97456 23.8469 5.20953 21.583 3.71685C20.3778 2.92227 18.666 1.81883 16.1559 1.39442C15.8314 1.3396 14.4145 1.11365 12.5524 1.31965C11.8548 1.39693 9.42337 1.71967 6.77015 3.28535C3.77495 5.05274 2.12479 7.44345 1.36523 8.735C1.67817 8.00233 4.08007 2.64504 10.0307 0.942376C14.7571 -0.410061 18.6626 1.38408 19.6261 1.86095C20.5612 2.35644 21.6755 3.05778 22.8132 4.04506C24.578 5.5769 25.7078 7.19755 26.4022 8.39482Z" fill="white"/>
</g>
<path d="M13.97 23.3281C13.781 23.3281 13.6142 23.3267 13.4718 23.3257C12.073 23.3146 9.95907 23.2981 7.82499 22.7716C6.64563 22.4806 5.5811 22.0616 4.66087 21.526C3.5757 20.8944 2.65783 20.0822 1.93277 19.1119C0.719064 17.4879 0.0516312 15.4487 0.00254656 13.2149C-0.039905 11.2893 0.448583 9.40928 1.4543 7.62712C2.26457 6.19119 3.19836 5.19902 3.64705 4.72215C4.10031 4.24041 8.03533 0.250183 13.9001 0.250183C14.2672 0.250183 14.6408 0.265699 15.0226 0.298801C16.6461 0.439335 18.2461 0.879705 19.7782 1.60765C21.2387 2.30145 22.5802 3.22756 23.7654 4.3601C24.9364 5.47906 25.8936 6.74002 26.6101 8.10827C27.347 9.51524 27.791 10.9639 27.9295 12.4141C28.0022 13.1742 28.2231 15.4873 26.9735 17.8171C26.2771 19.1153 25.2352 20.2051 23.8763 21.0565C22.7591 21.7563 21.4138 22.3037 19.878 22.6833C17.5124 23.2681 15.2452 23.3281 13.97 23.3281ZM13.8872 0.766952C11.6315 0.766952 9.41693 1.37667 7.28904 2.58577C5.4026 3.65773 4.2368 4.84924 4.02218 5.07726C3.13217 6.02302 0.423525 8.90123 0.518304 13.2036C0.56503 15.3287 1.19694 17.2646 2.34564 18.8017C5.2916 22.7439 10.6154 22.7857 13.4758 22.8083C20.2384 22.8615 24.627 21.0999 26.519 17.5722C27.6946 15.3804 27.4848 13.1849 27.416 12.4635C26.8638 6.6849 21.1679 1.35022 14.9782 0.814093C14.6136 0.782616 14.2498 0.766952 13.8872 0.766952Z" fill="black"/>
<g opacity="0.25">
<path d="M0.212687 13.4299C0.212687 13.4299 1.43479 22.0674 14.4968 21.8406C27.5587 21.6136 27.6852 13.3513 27.6852 13.3513C27.6852 13.3513 28.8892 22.3 16.6611 22.9376C4.43293 23.5753 2.15072 18.9691 2.15072 18.9691C2.15072 18.9691 -0.129284 15.0897 0.212687 13.4299Z" fill="#020002"/>
</g>
<path d="M15.3847 14.0502C15.4786 14.5344 14.5598 15.3599 13.6378 15.3114C12.7823 15.2665 11.971 14.4716 12.082 14.0032C12.2107 13.4603 13.5594 13.4347 13.6562 13.4337C14.2299 13.4275 15.2928 13.576 15.3847 14.0502Z" fill="black"/>
<path d="M15.2113 14.645C15.389 14.4291 15.4683 14.214 15.4346 14.0397C15.327 13.4845 14.114 13.3757 13.6557 13.3806C13.5041 13.3822 12.1694 13.4132 12.0326 13.9906C11.9937 14.1546 12.0536 14.3594 12.2015 14.5675C12.4581 14.9287 13.0162 15.3323 13.6353 15.3648C13.6571 15.3659 13.6789 15.3665 13.7007 15.3668C14.3245 15.3729 14.9165 15.003 15.2113 14.645ZM15.3348 14.0609C15.3618 14.2004 15.2887 14.388 15.1342 14.5756C14.8448 14.9271 14.2539 15.2907 13.6404 15.2585C13.0544 15.2278 12.5261 14.8458 12.2831 14.5041C12.1539 14.3221 12.0999 14.1489 12.1313 14.0162C12.2276 13.6096 13.1712 13.4923 13.6566 13.487C13.681 13.4867 13.7056 13.4867 13.7306 13.487C14.3758 13.4933 15.2587 13.6687 15.3348 14.0609Z" fill="black"/>
<path d="M14.4531 13.9183C14.4606 14.0033 14.089 14.1506 13.7184 14.1422C13.3521 14.1338 12.9916 13.9733 13.0022 13.8895C13.0157 13.783 13.6314 13.7939 13.7218 13.7955C13.7986 13.797 14.4433 13.8084 14.4531 13.9183Z" fill="white"/>
<path d="M9.99262 12.895C9.92954 12.8182 9.86895 12.7447 9.80616 12.6759C9.74307 12.6071 9.6794 12.5426 9.61351 12.4826C9.48232 12.3624 9.34391 12.2609 9.20049 12.1781C9.05692 12.0958 8.90834 12.0324 8.75696 11.9902C8.60558 11.9481 8.45169 11.9269 8.29766 11.9272C7.98973 11.9272 7.68225 12.014 7.39526 12.179C7.25199 12.2616 7.11358 12.3632 6.98225 12.483C6.91636 12.5429 6.85253 12.6074 6.78944 12.676C6.72665 12.7449 6.66577 12.8182 6.60254 12.895C6.60401 12.7954 6.61934 12.6965 6.64411 12.5992C6.66843 12.5016 6.70336 12.4059 6.74699 12.3132C6.8347 12.1282 6.95866 11.9556 7.11284 11.8096C7.26658 11.6632 7.45098 11.5435 7.65351 11.4616C7.85589 11.3794 8.0767 11.3357 8.29766 11.3361C8.51846 11.336 8.73927 11.3796 8.94165 11.4617C9.14418 11.5437 9.32829 11.6637 9.48203 11.8102C9.63621 11.9562 9.76003 12.1286 9.84773 12.3137C9.89151 12.4063 9.92644 12.5019 9.95076 12.5995C9.97553 12.6967 9.991 12.7954 9.99262 12.895Z" fill="black"/>
<path d="M21.0328 13.0575C20.9697 12.9806 20.9091 12.9072 20.8463 12.8383C20.7833 12.7696 20.7196 12.705 20.6537 12.645C20.5225 12.5249 20.3841 12.4234 20.2407 12.3406C20.0971 12.2583 19.9485 12.1949 19.7971 12.1527C19.6458 12.1105 19.4919 12.0894 19.3377 12.0897C19.0298 12.0897 18.7223 12.1764 18.4353 12.3415C18.292 12.4241 18.1536 12.5256 18.0223 12.6455C17.9564 12.7053 17.8926 12.7699 17.8295 12.8385C17.7667 12.9073 17.7058 12.9806 17.6426 13.0575C17.6441 12.9579 17.6594 12.859 17.6841 12.7616C17.7085 12.6641 17.7434 12.5683 17.787 12.4757C17.8747 12.2907 17.9987 12.1181 18.1529 11.9721C18.3066 11.8256 18.491 11.7059 18.6936 11.6241C18.8959 11.5419 19.1167 11.4982 19.3377 11.4986C19.5585 11.4985 19.7793 11.542 19.9817 11.6242C20.1842 11.7062 20.3683 11.8262 20.5221 11.9727C20.6762 12.1187 20.8001 12.2911 20.8878 12.4761C20.9315 12.5688 20.9665 12.6644 20.9908 12.7619C21.0157 12.8592 21.0312 12.9579 21.0328 13.0575Z" fill="black"/>
<path d="M13.0243 15.9378C12.6482 14.9351 12.7048 13.9258 13.1393 13.1227C14.1047 11.3384 17.2238 7.25487 23.2599 13.8513C30.464 21.7243 22.5269 28.5552 17.2856 20.3526C16.9443 19.8183 16.4559 19.3625 15.8916 19.0394C14.999 18.5283 13.6743 17.5556 13.064 16.0401C13.0504 16.0058 13.0371 15.9717 13.0243 15.9378Z" fill="#BC845B"/>
<path d="M22.5733 24.3512C21.7301 24.3512 20.851 24.0861 20.0068 23.5736C18.9242 22.9163 17.9287 21.8842 17.0479 20.5058C16.7329 20.0129 16.2849 19.5912 15.752 19.2861C15.1607 18.9476 14.6308 18.5558 14.1771 18.122C13.5516 17.5237 13.089 16.859 12.802 16.1465C12.7876 16.1108 12.7735 16.0743 12.7598 16.038C12.5607 15.5073 12.4718 14.9706 12.4954 14.4429C12.5189 13.9187 12.652 13.429 12.8909 12.9875C13.4403 11.972 14.6689 10.2304 16.724 9.97622C18.7358 9.72744 21.0054 10.9668 23.4693 13.6596C24.8152 15.1305 25.7165 16.6387 26.1482 18.1425C26.5324 19.4802 26.5193 20.7583 26.1107 21.8388C25.577 23.2502 24.4068 24.1815 22.9804 24.3303C22.846 24.3443 22.7101 24.3512 22.5733 24.3512ZM13.2902 15.8379C13.3024 15.87 13.3148 15.9023 13.3274 15.9338C13.894 17.3411 15.1114 18.2653 16.0328 18.7929C16.6449 19.1433 17.1608 19.6296 17.5248 20.1996C19.0968 22.6594 21.0637 23.9593 22.9218 23.7654C24.1307 23.6393 25.1247 22.8438 25.5809 21.6374C26.3902 19.4975 25.4446 16.6585 23.0516 14.0434C21.7914 12.6661 20.5814 11.6782 19.4553 11.1073C18.5119 10.6289 17.6161 10.4381 16.7931 10.5398C14.99 10.7626 13.8862 12.3386 13.3886 13.2581C12.9828 14.0088 12.9479 14.9249 13.2902 15.8379Z" fill="black"/>
<g opacity="0.25">
<path d="M25.5218 22.5035C25.5218 22.5035 22.3483 25.2656 18.6236 19.9768C18.4958 19.7694 18.3126 19.5008 18.0601 19.2074C17.9194 19.044 17.6873 18.7769 17.35 18.5057C16.9383 18.1746 16.7492 18.1428 16.2971 17.8528C15.7181 17.4642 15.3191 17.0606 15.2513 17.0018C14.778 16.5922 14.3482 15.6678 14.1261 15.1422C13.6785 15.0171 13.2309 14.892 12.7832 14.7668C12.8373 15.2329 12.9593 15.7918 13.222 16.3809C14.0958 18.3403 15.8826 19.1941 16.4899 19.4516C16.6936 19.7238 17.0194 20.1415 17.4532 20.6206C18.9133 22.2338 20.698 24.2054 22.7447 24.0681C23.1782 24.0389 24.2877 23.8708 25.5218 22.5035Z" fill="black"/>
</g>
<g opacity="0.5">
<path d="M17.656 10.9467C17.9168 11.0234 18.2831 11.1433 18.7071 11.3238C19.453 11.6414 20.5071 12.2018 21.743 13.3512C22.0284 13.6165 25.4437 16.8541 25.6054 19.9693C25.6216 20.2797 25.6577 20.9756 25.3686 21.8099C25.1114 22.552 24.7116 23.0731 24.4401 23.3749C24.9986 23.0468 25.3495 22.6693 25.5779 22.3321C26.7788 20.5593 26.1572 17.5936 24.1071 14.8603C24.1071 14.8603 20.7337 10.164 17.4341 10.3582C17.5079 10.5543 17.582 10.7505 17.656 10.9467Z" fill="white"/>
</g>
<path d="M22.5733 24.3512C21.7301 24.3512 20.851 24.0861 20.0068 23.5736C18.9242 22.9163 17.9287 21.8842 17.0479 20.5058C16.7329 20.0129 16.2849 19.5912 15.752 19.2861C15.1607 18.9476 14.6308 18.5558 14.1771 18.122C13.5516 17.5237 13.089 16.859 12.802 16.1465C12.7876 16.1108 12.7735 16.0743 12.7598 16.038C12.5607 15.5073 12.4718 14.9706 12.4954 14.4429C12.5189 13.9187 12.652 13.429 12.8909 12.9875C13.4403 11.972 14.6689 10.2304 16.724 9.97622C18.7358 9.72744 21.0054 10.9668 23.4693 13.6596C24.8152 15.1305 25.7165 16.6387 26.1482 18.1425C26.5324 19.4802 26.5193 20.7583 26.1107 21.8388C25.577 23.2502 24.4068 24.1815 22.9804 24.3303C22.846 24.3443 22.7101 24.3512 22.5733 24.3512ZM13.2902 15.8379C13.3024 15.87 13.3148 15.9023 13.3274 15.9338C13.894 17.3411 15.1114 18.2653 16.0328 18.7929C16.6449 19.1433 17.1608 19.6296 17.5248 20.1996C19.0968 22.6594 21.0637 23.9593 22.9218 23.7654C24.1307 23.6393 25.1247 22.8438 25.5809 21.6374C26.3902 19.4975 25.4446 16.6585 23.0516 14.0434C21.7914 12.6661 20.5814 11.6782 19.4553 11.1073C18.5119 10.6289 17.6161 10.4381 16.7931 10.5398C14.99 10.7626 13.8862 12.3386 13.3886 13.2581C12.9828 14.0088 12.9479 14.9249 13.2902 15.8379Z" fill="black"/>
<path d="M14.146 8.91103C13.8971 8.91704 13.7635 9.20768 13.9194 9.40226C14.3746 9.97025 15.1053 10.9571 15.2642 11.6215C15.4991 12.6025 16.7633 11.9368 16.7633 11.9368C17.3315 11.702 17.685 11.262 17.6514 10.8487C17.6443 10.7609 17.6158 10.6277 17.5094 10.4756C17.5094 10.4756 16.6256 8.85131 14.146 8.91103Z" fill="white"/>
<path d="M15.9454 12.4412C15.7944 12.4412 15.6416 12.4167 15.5001 12.3523C15.3199 12.2704 15.085 12.0886 14.9891 11.6876C14.8811 11.2366 14.4108 10.4685 13.6988 9.58004C13.5584 9.40494 13.5299 9.16946 13.6245 8.96547C13.7187 8.76197 13.916 8.63231 14.1394 8.62695C15.5014 8.59433 16.4072 9.05294 16.9275 9.44356C17.4484 9.83466 17.6998 10.2387 17.7493 10.3238C17.8576 10.4822 17.9196 10.6509 17.9338 10.8254C17.9779 11.3632 17.556 11.912 16.8831 12.1944C16.7892 12.2425 16.3748 12.4412 15.9454 12.4412ZM14.153 9.19478C14.148 9.19494 14.1428 9.1951 14.1383 9.20484C14.1334 9.21555 14.1373 9.22042 14.1404 9.22431C14.6878 9.90736 15.375 10.8661 15.5399 11.555C15.586 11.7475 15.6725 11.8069 15.7335 11.8348C15.9995 11.9563 16.4836 11.7624 16.6322 11.685L16.6434 11.6792L16.6555 11.6741C17.0994 11.4908 17.3927 11.1608 17.3691 10.8718C17.3628 10.7951 17.332 10.7165 17.2774 10.6386L17.2684 10.6256L17.2608 10.6117C17.2593 10.6091 17.0497 10.2384 16.5646 9.88091C15.9156 9.40266 15.1041 9.17173 14.153 9.19478Z" fill="black"/>
<g opacity="0.25">
<path d="M15.4184 9.21267C15.4184 9.21267 15.0971 9.4707 15.4671 10.0991C15.8374 10.7274 16.0588 11.205 16.3042 12.108L15.5376 12.1011C14.9221 11.1127 14.3067 10.1241 13.6914 9.13559C13.862 9.08918 14.0733 9.04861 14.3169 9.03854C14.7883 9.01923 15.1719 9.12261 15.4184 9.21267Z" fill="black"/>
</g>
<path d="M12.46 10.2692C12.211 10.2752 12.0775 10.5659 12.2334 10.7605C12.6886 11.3285 13.4192 12.3153 13.5782 12.9797C13.8131 13.9607 15.0773 13.295 15.0773 13.295C15.6455 13.0602 15.999 12.6202 15.9653 12.2069C15.9582 12.1191 15.9297 11.9859 15.8234 11.8338C15.8232 11.834 14.9396 10.2097 12.46 10.2692Z" fill="white"/>
<path d="M14.2594 13.7995C14.1083 13.7995 13.9555 13.775 13.8141 13.7106C13.6339 13.6287 13.399 13.4469 13.303 13.0459C13.1951 12.5949 12.7248 11.8268 12.0127 10.9383C11.8724 10.7632 11.8439 10.5278 11.9384 10.3238C12.0326 10.1204 12.23 9.9906 12.4533 9.98524C13.8153 9.95246 14.7212 10.4112 15.2414 10.8017C15.7623 11.1928 16.0137 11.5969 16.0633 11.6819C16.1716 11.8403 16.2336 12.0091 16.2478 12.1835C16.2917 12.7213 15.8698 13.2702 15.1971 13.5525C15.103 13.6009 14.6888 13.7995 14.2594 13.7995ZM12.4669 10.5532C12.4619 10.5534 12.4567 10.5536 12.4522 10.5633C12.4474 10.574 12.4512 10.5789 12.4543 10.5828C13.0018 11.2658 13.6889 12.2246 13.8539 12.9135C13.9 13.1063 13.9868 13.1657 14.0481 13.1934C14.2968 13.3065 14.7604 13.1413 14.9459 13.0436L14.9575 13.0375L14.9697 13.0324C15.4135 12.8491 15.7068 12.5191 15.6832 12.2301C15.6769 12.1533 15.6461 12.0748 15.5916 11.9969L15.5825 11.9839L15.5749 11.97C15.5734 11.9674 15.3638 11.5967 14.8787 11.2392C14.2294 10.7611 13.4179 10.5304 12.4669 10.5532Z" fill="black"/>
<g opacity="0.25">
<path d="M13.7324 10.571C13.7324 10.571 13.4111 10.8291 13.7811 11.4574C14.1513 12.0858 14.3728 12.5634 14.6182 13.4663L13.8515 13.4595C13.2361 12.4711 12.6206 11.4824 12.0054 10.494C12.176 10.4476 12.3874 10.407 12.6308 10.3969C13.1022 10.3774 13.4859 10.4808 13.7324 10.571Z" fill="black"/>
</g>
<path d="M11.5166 11.7812C11.2677 11.7872 11.1341 12.0779 11.29 12.2724C11.7452 12.8404 12.4759 13.8273 12.6348 14.4917C12.8697 15.4727 14.1339 14.807 14.1339 14.807C14.7021 14.5722 15.0557 14.1322 15.022 13.7189C15.0149 13.6311 14.9864 13.4978 14.88 13.3458C14.8799 13.3458 13.9962 11.7215 11.5166 11.7812Z" fill="white"/>
<path d="M13.3155 15.3114C13.1645 15.3114 13.0117 15.2869 12.8702 15.2225C12.69 15.1405 12.4552 14.9588 12.3592 14.5578C12.2512 14.1068 11.781 13.3387 11.0689 12.4502C10.9285 12.2751 10.9001 12.0396 10.9946 11.8357C11.0888 11.6321 11.2861 11.5025 11.5095 11.4971C12.8713 11.4645 13.7773 11.9231 14.2976 12.3137C14.8185 12.7048 15.0699 13.1089 15.1194 13.194C15.2277 13.3523 15.2897 13.5211 15.304 13.6956C15.348 14.2334 14.9261 14.7822 14.2532 15.0646C14.1592 15.1128 13.7448 15.3114 13.3155 15.3114ZM11.5231 12.0651C11.5181 12.0653 11.5129 12.0654 11.5084 12.0752C11.5035 12.0859 11.5074 12.0908 11.5105 12.0947C12.0579 12.7777 12.7451 13.7366 12.91 14.4254C12.9562 14.6178 13.0426 14.6772 13.1036 14.7051C13.3696 14.8267 13.8537 14.6329 14.0023 14.5554L14.0135 14.5495L14.0257 14.5445C14.4695 14.3611 14.7628 14.0312 14.7392 13.7422C14.7329 13.6654 14.7021 13.5868 14.6476 13.509L14.6385 13.496L14.6309 13.482C14.6294 13.4794 14.4198 13.1088 13.9347 12.7513C13.2856 12.273 12.4741 12.0421 11.5231 12.0651Z" fill="black"/>
<g opacity="0.25">
<path d="M12.789 12.083C12.789 12.083 12.4677 12.341 12.8378 12.9694C13.208 13.5977 13.4294 14.0753 13.6748 14.9783L12.9082 14.9715C12.2927 13.983 11.6773 12.9944 11.062 12.0059C11.2326 11.9595 11.4439 11.9189 11.6875 11.9088C12.1589 11.8895 12.5425 11.9927 12.789 12.083Z" fill="black"/>
</g>
<path d="M15.1832 15.6772C15.6083 14.6944 15.6016 13.6834 15.2073 12.8598C14.3312 11.0297 11.4174 6.79639 5.06307 13.0853C-2.52099 20.5913 5.06922 27.8075 10.709 19.8751C11.0763 19.3584 11.5865 18.9274 12.1662 18.6327C13.0829 18.1666 14.4541 17.2607 15.1385 15.7773C15.154 15.7437 15.1689 15.7103 15.1832 15.6772Z" fill="#BC845B"/>
<path d="M5.43387 23.6115C5.22829 23.6115 5.0253 23.5961 4.82588 23.5653C3.40868 23.3458 2.28593 22.3575 1.82249 20.9215C1.46767 19.822 1.51785 18.5447 1.96737 17.2278C2.4729 15.7473 3.44753 14.2854 4.8644 12.8831C7.45825 10.316 9.78614 9.19088 11.7833 9.53897C13.8234 9.8947 14.9644 11.6951 15.4632 12.7368C15.6799 13.1897 15.7887 13.6853 15.7863 14.21C15.7838 14.7382 15.6686 15.2698 15.4434 15.79C15.4281 15.8253 15.412 15.8612 15.396 15.8962C15.0742 16.5936 14.5794 17.2346 13.9251 17.8011C13.4506 18.212 12.902 18.5768 12.2947 18.8857C11.7474 19.164 11.2791 19.563 10.9401 20.0397C9.99237 21.3728 8.94699 22.3543 7.83331 22.9569C7.03414 23.3895 6.21572 23.6115 5.43387 23.6115ZM11.0651 10.0459C10.4187 10.0459 9.72673 10.209 8.99944 10.5334C7.84642 11.0479 6.58916 11.9744 5.26261 13.2874C2.74339 15.7807 1.659 18.5692 2.36153 20.7466C2.75763 21.9741 3.71122 22.8179 4.91232 23.0039C6.75847 23.2897 8.78739 22.0891 10.4788 19.7102C10.8705 19.1591 11.4099 18.699 12.0384 18.3793C12.9847 17.8982 14.2464 17.0355 14.8817 15.658C14.896 15.627 14.9101 15.5954 14.9237 15.5641C15.3107 14.6692 15.3209 13.7525 14.9523 12.9825C14.5008 12.0394 13.4762 10.4106 11.6862 10.0985C11.4843 10.0635 11.2771 10.0459 11.0651 10.0459Z" fill="black"/>
<g opacity="0.25">
<path d="M2.37793 21.6146C2.37793 21.6146 5.4111 24.5307 9.39236 19.4332C9.53011 19.2323 9.72646 18.9733 9.99306 18.6927C10.1417 18.5364 10.3867 18.2812 10.7369 18.027C11.1644 17.7169 11.3547 17.6944 11.8206 17.4272C12.4181 17.0678 12.8365 16.6845 12.9073 16.6291C13.4002 16.2435 13.8751 15.3417 14.1228 14.8276C14.576 14.7249 15.0292 14.622 15.4825 14.5193C15.4054 14.9821 15.256 15.5342 14.9645 16.1097C13.995 18.0233 12.1685 18.7873 11.549 19.0145C11.3321 19.2763 10.986 19.6773 10.5292 20.1343C8.99124 21.673 7.11157 23.5537 5.07408 23.315C4.64285 23.2646 3.54309 23.0414 2.37793 21.6146Z" fill="black"/>
</g>
<g opacity="0.5">
<path d="M10.8044 10.4622C10.5403 10.526 10.1684 10.6276 9.73608 10.7868C8.97544 11.0669 7.89494 11.5743 6.60384 12.6611C6.30584 12.912 2.73476 15.9761 2.41944 19.0794C2.38803 19.3887 2.31762 20.0818 2.56512 20.9295C2.78527 21.6834 3.15903 22.2237 3.41528 22.5386C2.87365 22.1831 2.54181 21.7887 2.33041 21.4406C1.2185 19.6106 1.98562 16.6791 4.16831 14.0509C4.16831 14.0509 7.76933 9.52777 11.0553 9.88544C10.9717 10.0777 10.8881 10.2699 10.8044 10.4622Z" fill="white"/>
</g>
<path d="M5.43387 23.6115C5.22829 23.6115 5.0253 23.5961 4.82588 23.5653C3.40868 23.3458 2.28593 22.3575 1.82249 20.9215C1.46767 19.822 1.51785 18.5447 1.96737 17.2278C2.4729 15.7473 3.44753 14.2854 4.8644 12.8831C7.45825 10.316 9.78614 9.19088 11.7833 9.53897C13.8234 9.8947 14.9644 11.6951 15.4632 12.7368C15.6799 13.1897 15.7887 13.6853 15.7863 14.21C15.7838 14.7382 15.6686 15.2698 15.4434 15.79C15.4281 15.8253 15.412 15.8612 15.396 15.8962C15.0742 16.5936 14.5794 17.2346 13.9251 17.8011C13.4506 18.212 12.902 18.5768 12.2947 18.8857C11.7474 19.164 11.2791 19.563 10.9401 20.0397C9.99237 21.3728 8.94699 22.3543 7.83331 22.9569C7.03414 23.3895 6.21572 23.6115 5.43387 23.6115ZM11.0651 10.0459C10.4187 10.0459 9.72673 10.209 8.99944 10.5334C7.84642 11.0479 6.58916 11.9744 5.26261 13.2874C2.74339 15.7807 1.659 18.5692 2.36153 20.7466C2.75763 21.9741 3.71122 22.8179 4.91232 23.0039C6.75847 23.2897 8.78739 22.0891 10.4788 19.7102C10.8705 19.1591 11.4099 18.699 12.0384 18.3793C12.9847 17.8982 14.2464 17.0355 14.8817 15.658C14.896 15.627 14.9101 15.5954 14.9237 15.5641C15.3107 14.6692 15.3209 13.7525 14.9523 12.9825C14.5008 12.0394 13.4762 10.4106 11.6862 10.0985C11.4843 10.0635 11.2771 10.0459 11.0651 10.0459Z" fill="black"/>
<path d="M14.4107 8.60332C14.659 8.62166 14.7781 8.91864 14.6127 9.10526C14.13 9.65005 13.3516 10.5994 13.1599 11.255C12.8769 12.2232 11.647 11.4955 11.647 11.4955C11.0912 11.2328 10.7597 10.776 10.8139 10.3647C10.8254 10.2773 10.8603 10.1458 10.9741 9.99912C10.9743 9.99912 11.9371 8.42075 14.4107 8.60332Z" fill="white"/>
<path d="M12.5056 12.0416C12.0527 12.0416 11.6111 11.8022 11.5149 11.7469C10.8569 11.4315 10.4626 10.8624 10.533 10.3274C10.5558 10.1537 10.6262 9.98836 10.7421 9.83549C10.7957 9.75289 11.0668 9.36179 11.6064 8.99697C12.1452 8.63265 13.0728 8.21948 14.4314 8.31977C14.6541 8.33616 14.8448 8.47556 14.929 8.68344C15.0133 8.89182 14.9733 9.12566 14.8244 9.29347C14.0694 10.1455 13.5618 10.8894 13.4316 11.3345C13.3159 11.7301 13.0723 11.9002 12.8884 11.9731C12.7651 12.0221 12.6347 12.0416 12.5056 12.0416ZM14.0131 8.87234C13.222 8.87234 12.5286 9.06676 11.9471 9.45202C11.4448 9.78486 11.2172 10.1448 11.215 10.1484L11.2067 10.162L11.1976 10.1735C11.1394 10.2487 11.1047 10.3256 11.0947 10.402C11.0568 10.6894 11.3336 11.0336 11.7678 11.2388L11.7796 11.2444L11.7909 11.2511C11.9351 11.3356 12.4091 11.5533 12.6807 11.445C12.743 11.4202 12.8324 11.3652 12.8879 11.1753C13.0867 10.4955 13.8203 9.57194 14.4008 8.91681C14.4042 8.91307 14.4082 8.90837 14.4039 8.89749C14.3998 8.88743 14.3946 8.88711 14.3896 8.88679C14.2619 8.87705 14.1363 8.87234 14.0131 8.87234Z" fill="black"/>
<g opacity="0.25">
<path d="M13.1247 8.84149C13.1247 8.84149 13.4329 9.11526 13.0323 9.72447C12.6315 10.3337 12.3869 10.7996 12.0972 11.6892L12.8631 11.7204C13.5267 10.7636 14.19 9.80691 14.8535 8.85009C14.6854 8.79524 14.4764 8.74428 14.2336 8.72221C13.7636 8.67953 13.3755 8.76359 13.1247 8.84149Z" fill="black"/>
</g>
<path d="M15.5762 10.1815C15.8245 10.1998 15.9437 10.4968 15.7782 10.6834C15.2955 11.2282 14.5171 12.1776 14.3254 12.8332C14.0425 13.8014 12.8126 13.0737 12.8126 13.0737C12.2567 12.8109 11.9252 12.3541 11.9794 11.9429C11.9909 11.8554 12.0259 11.724 12.1397 11.5773C12.1398 11.5773 13.1026 9.99874 15.5762 10.1815Z" fill="white"/>
<path d="M13.6711 13.6198C13.2182 13.6198 12.7766 13.3804 12.6804 13.325C12.0224 13.0097 11.6281 12.4406 11.6985 11.9056C11.7213 11.7319 11.7918 11.5665 11.9077 11.4137C11.9612 11.3311 12.2324 10.94 12.7719 10.5752C13.3108 10.2108 14.2383 9.79766 15.5969 9.89795C15.8196 9.91434 16.0103 10.0537 16.0945 10.2616C16.1788 10.47 16.1389 10.7039 15.9899 10.8718C15.235 11.7238 14.7273 12.4677 14.5972 12.9127C14.4814 13.3083 14.2378 13.4784 14.0539 13.5513C13.9306 13.6003 13.8003 13.6198 13.6711 13.6198ZM15.1857 10.4507C13.1832 10.4507 12.3894 11.7118 12.3811 11.7253L12.3729 11.7389L12.3632 11.7515C12.3049 11.8267 12.2703 11.9036 12.2602 11.98C12.2223 12.2676 12.4991 12.6117 12.9333 12.8168L12.9451 12.8225L12.9564 12.8291C13.1007 12.9137 13.5746 13.1313 13.8462 13.023C13.9086 12.9982 13.9979 12.9432 14.0534 12.7533C14.2522 12.0735 14.9858 11.15 15.5663 10.4948C15.5697 10.4911 15.5738 10.4864 15.5694 10.4755C15.5653 10.4656 15.5602 10.4651 15.5551 10.4648C15.4277 10.4552 15.3046 10.4507 15.1857 10.4507Z" fill="black"/>
<g opacity="0.25">
<path d="M14.2903 10.4197C14.2903 10.4197 14.5985 10.6934 14.1978 11.3027C13.797 11.9119 13.5524 12.3778 13.2627 13.2674L14.0287 13.2986C14.6922 12.3418 15.3555 11.3851 16.0191 10.4283C15.8509 10.3734 15.6419 10.3225 15.3991 10.3004C14.9292 10.2576 14.541 10.3418 14.2903 10.4197Z" fill="black"/>
</g>
<path d="M16.4434 11.7382C16.6917 11.7565 16.8109 12.0535 16.6454 12.2402C16.1627 12.7849 15.3843 13.7343 15.1926 14.3899C14.9097 15.3581 13.6798 14.6304 13.6798 14.6304C13.1239 14.3677 12.7924 13.9109 12.8466 13.4996C12.8581 13.4122 12.8931 13.2807 13.0068 13.134C13.0068 13.134 13.9698 11.5556 16.4434 11.7382Z" fill="white"/>
<path d="M14.5393 15.1765C14.0863 15.1765 13.6448 14.9371 13.5486 14.8818C12.8906 14.5665 12.4963 13.9974 12.5667 13.4623C12.5895 13.2887 12.6599 13.1233 12.7758 12.9704C12.8294 12.8878 13.1005 12.4967 13.6401 12.1319C14.1789 11.7676 15.1065 11.3544 16.4651 11.4547C16.6878 11.4711 16.8785 11.6105 16.9627 11.8184C17.047 12.0268 17.007 12.2606 16.8581 12.4286C16.1031 13.2806 15.5955 14.0245 15.4653 14.4694C15.3496 14.8651 15.106 15.0352 14.9221 15.108C14.7987 15.157 14.6684 15.1765 14.5393 15.1765ZM16.0539 12.0076C14.0514 12.0076 13.2576 13.2687 13.2493 13.2822L13.241 13.2958L13.2313 13.3085C13.1731 13.3836 13.1384 13.4605 13.1284 13.537C13.0905 13.8245 13.3673 14.1686 13.8015 14.3737L13.8133 14.3794L13.8246 14.386C13.9688 14.4706 14.4428 14.6882 14.7144 14.58C14.7767 14.5551 14.8661 14.5001 14.9216 14.3102C15.1204 13.6304 15.854 12.7069 16.4345 12.0518C16.4379 12.048 16.4419 12.0433 16.4375 12.0324C16.4335 12.0224 16.4283 12.0221 16.4233 12.0217C16.2959 12.012 16.1727 12.0076 16.0539 12.0076Z" fill="black"/>
<g opacity="0.25">
<path d="M15.1584 11.9765C15.1584 11.9765 15.4666 12.2503 15.066 12.8595C14.6652 13.4687 14.4206 13.9346 14.1309 14.8242L14.8968 14.8554C15.5604 13.8986 16.2237 12.9419 16.8872 11.9851C16.719 11.9302 16.5101 11.8793 16.2673 11.8572C15.7973 11.8145 15.4092 11.8986 15.1584 11.9765Z" fill="black"/>
</g>
<g opacity="0.25">
<path d="M1.93311 21.0918C2.03444 21.4191 2.72045 23.5202 4.66875 24.1914C5.67884 24.5393 6.56639 24.344 7.08066 24.2239C9.50907 23.6565 10.9831 21.6092 11.6267 20.5105C11.8281 20.1668 12.117 19.8836 12.4632 19.6877C12.7276 19.5383 13.0436 19.3429 13.3029 19.1335C13.53 18.9502 13.8552 18.9575 14.0739 19.1507C14.3596 19.4034 14.7626 19.7311 15.1709 19.9673C15.3964 20.0978 15.589 20.2781 15.7386 20.4917C16.8508 22.0791 21.5987 28.1532 25.3883 22.1627C25.3883 22.1627 22.4561 25.866 18.4995 22.2374C18.4995 22.2374 17.068 20.7833 16.4529 19.485C16.4529 19.485 14.0567 17.9276 13.7493 17.5542C13.59 17.6975 13.3314 17.9179 12.9888 18.1543C12.3357 18.6051 12.0043 18.6816 11.5482 19.0144C11.0668 19.3658 10.8656 19.6967 10.5284 20.1342C9.91958 20.9242 9.06198 21.8094 8.36884 22.2898C7.24107 23.0715 5.30167 23.6465 3.90779 22.9254C2.91713 22.4131 1.96451 21.1226 1.93311 21.0918Z" fill="black"/>
</g>
</svg>
