<svg width="16" height="16" viewBox="0 0 16 16" fill="none" xmlns="http://www.w3.org/2000/svg">
<g clip-path="url(#clip0_23_3044)">
<mask id="path-1-inside-1_23_3044" fill="white">
<path d="M16 6C16.0015 5.63299 15.902 5.27264 15.7124 4.9584C15.5228 4.64417 15.2503 4.38817 14.9249 4.21844C14.5995 4.04871 14.2337 3.9718 13.8675 3.99612C13.5013 4.02044 13.1488 4.14506 12.8487 4.35634C12.5486 4.56761 12.3124 4.85739 12.166 5.19394C12.0196 5.53049 11.9687 5.90084 12.0187 6.26443C12.0687 6.62802 12.2179 6.97082 12.4497 7.25531C12.6816 7.5398 12.9873 7.75499 13.3333 7.87733V10.6667C13.3333 11.7275 12.9119 12.7449 12.1618 13.4951C11.4116 14.2452 10.3942 14.6667 9.33333 14.6667C8.27247 14.6667 7.25505 14.2452 6.50491 13.4951C5.75476 12.7449 5.33333 11.7275 5.33333 10.6667V10.6133C6.44272 10.4524 7.45721 9.89777 8.19157 9.05081C8.92594 8.20384 9.33119 7.121 9.33333 6V3.33333C9.33228 2.4496 8.98075 1.60237 8.35585 0.97748C7.73096 0.352588 6.88373 0.00105857 6 0C5.82319 0 5.65362 0.0702379 5.5286 0.195262C5.40357 0.320286 5.33333 0.489856 5.33333 0.666667C5.33333 0.843478 5.40357 1.01305 5.5286 1.13807C5.65362 1.2631 5.82319 1.33333 6 1.33333C6.53043 1.33333 7.03914 1.54405 7.41421 1.91912C7.78929 2.29419 8 2.8029 8 3.33333V6C8 6.88406 7.64881 7.7319 7.02369 8.35702C6.39857 8.98214 5.55072 9.33333 4.66667 9.33333C3.78261 9.33333 2.93477 8.98214 2.30964 8.35702C1.68452 7.7319 1.33333 6.88406 1.33333 6V3.33333C1.33333 2.8029 1.54405 2.29419 1.91912 1.91912C2.29419 1.54405 2.8029 1.33333 3.33333 1.33333C3.51014 1.33333 3.67971 1.2631 3.80474 1.13807C3.92976 1.01305 4 0.843478 4 0.666667C4 0.489856 3.92976 0.320286 3.80474 0.195262C3.67971 0.0702379 3.51014 0 3.33333 0C2.4496 0.00105857 1.60237 0.352588 0.97748 0.97748C0.352588 1.60237 0.00105857 2.4496 0 3.33333L0 6C0.00214397 7.121 0.407394 8.20384 1.14176 9.05081C1.87612 9.89777 2.89061 10.4524 4 10.6133V10.6667C4 12.0812 4.5619 13.4377 5.5621 14.4379C6.56229 15.4381 7.91885 16 9.33333 16C10.7478 16 12.1044 15.4381 13.1046 14.4379C14.1048 13.4377 14.6667 12.0812 14.6667 10.6667V7.87733C15.0553 7.73994 15.3919 7.48585 15.6306 7.1498C15.8693 6.81375 15.9983 6.41217 16 6V6ZM14 6.66667C13.8681 6.66667 13.7393 6.62757 13.6296 6.55431C13.52 6.48106 13.4345 6.37694 13.3841 6.25512C13.3336 6.13331 13.3204 5.99926 13.3461 5.86994C13.3719 5.74062 13.4354 5.62183 13.5286 5.5286C13.6218 5.43536 13.7406 5.37187 13.8699 5.34614C13.9993 5.32042 14.1333 5.33362 14.2551 5.38408C14.3769 5.43454 14.4811 5.51999 14.5543 5.62962C14.6276 5.73925 14.6667 5.86815 14.6667 6C14.6667 6.17681 14.5964 6.34638 14.4714 6.4714C14.3464 6.59643 14.1768 6.66667 14 6.66667Z"/>
</mask>
<path d="M16 6C16.0015 5.63299 15.902 5.27264 15.7124 4.9584C15.5228 4.64417 15.2503 4.38817 14.9249 4.21844C14.5995 4.04871 14.2337 3.9718 13.8675 3.99612C13.5013 4.02044 13.1488 4.14506 12.8487 4.35634C12.5486 4.56761 12.3124 4.85739 12.166 5.19394C12.0196 5.53049 11.9687 5.90084 12.0187 6.26443C12.0687 6.62802 12.2179 6.97082 12.4497 7.25531C12.6816 7.5398 12.9873 7.75499 13.3333 7.87733V10.6667C13.3333 11.7275 12.9119 12.7449 12.1618 13.4951C11.4116 14.2452 10.3942 14.6667 9.33333 14.6667C8.27247 14.6667 7.25505 14.2452 6.50491 13.4951C5.75476 12.7449 5.33333 11.7275 5.33333 10.6667V10.6133C6.44272 10.4524 7.45721 9.89777 8.19157 9.05081C8.92594 8.20384 9.33119 7.121 9.33333 6V3.33333C9.33228 2.4496 8.98075 1.60237 8.35585 0.97748C7.73096 0.352588 6.88373 0.00105857 6 0C5.82319 0 5.65362 0.0702379 5.5286 0.195262C5.40357 0.320286 5.33333 0.489856 5.33333 0.666667C5.33333 0.843478 5.40357 1.01305 5.5286 1.13807C5.65362 1.2631 5.82319 1.33333 6 1.33333C6.53043 1.33333 7.03914 1.54405 7.41421 1.91912C7.78929 2.29419 8 2.8029 8 3.33333V6C8 6.88406 7.64881 7.7319 7.02369 8.35702C6.39857 8.98214 5.55072 9.33333 4.66667 9.33333C3.78261 9.33333 2.93477 8.98214 2.30964 8.35702C1.68452 7.7319 1.33333 6.88406 1.33333 6V3.33333C1.33333 2.8029 1.54405 2.29419 1.91912 1.91912C2.29419 1.54405 2.8029 1.33333 3.33333 1.33333C3.51014 1.33333 3.67971 1.2631 3.80474 1.13807C3.92976 1.01305 4 0.843478 4 0.666667C4 0.489856 3.92976 0.320286 3.80474 0.195262C3.67971 0.0702379 3.51014 0 3.33333 0C2.4496 0.00105857 1.60237 0.352588 0.97748 0.97748C0.352588 1.60237 0.00105857 2.4496 0 3.33333L0 6C0.00214397 7.121 0.407394 8.20384 1.14176 9.05081C1.87612 9.89777 2.89061 10.4524 4 10.6133V10.6667C4 12.0812 4.5619 13.4377 5.5621 14.4379C6.56229 15.4381 7.91885 16 9.33333 16C10.7478 16 12.1044 15.4381 13.1046 14.4379C14.1048 13.4377 14.6667 12.0812 14.6667 10.6667V7.87733C15.0553 7.73994 15.3919 7.48585 15.6306 7.1498C15.8693 6.81375 15.9983 6.41217 16 6V6ZM14 6.66667C13.8681 6.66667 13.7393 6.62757 13.6296 6.55431C13.52 6.48106 13.4345 6.37694 13.3841 6.25512C13.3336 6.13331 13.3204 5.99926 13.3461 5.86994C13.3719 5.74062 13.4354 5.62183 13.5286 5.5286C13.6218 5.43536 13.7406 5.37187 13.8699 5.34614C13.9993 5.32042 14.1333 5.33362 14.2551 5.38408C14.3769 5.43454 14.4811 5.51999 14.5543 5.62962C14.6276 5.73925 14.6667 5.86815 14.6667 6C14.6667 6.17681 14.5964 6.34638 14.4714 6.4714C14.3464 6.59643 14.1768 6.66667 14 6.66667Z" fill="#7C7B88"/>
<path d="M13.3333 7.87733H34.6667V-7.20747L20.4446 -12.2359L13.3333 7.87733ZM13.3333 10.6667H34.6667H13.3333ZM5.33333 10.6667L-16 10.6667L5.33333 10.6667ZM5.33333 10.6133L2.27009 -10.4989L-16 -7.84807V10.6133H5.33333ZM9.33333 6L30.6666 6.0408L30.6667 6.0204V6H9.33333ZM9.33333 3.33333H30.6667V3.32056L30.6667 3.30778L9.33333 3.33333ZM6 0L6.02555 -21.3333L6.01278 -21.3333H6L6 0ZM5.33333 0.666667L26.6667 0.666667L5.33333 0.666667ZM6 1.33333L6 22.6667L6 1.33333ZM4.66667 9.33333L4.66667 30.6667L4.66667 9.33333ZM1.33333 3.33333H-20H1.33333ZM3.33333 0L3.33333 -21.3333H3.32056L3.30778 -21.3333L3.33333 0ZM0 3.33333L-21.3333 3.30778L-21.3333 3.32056V3.33333L0 3.33333ZM0 6L-21.3333 6V6.0204L-21.3333 6.0408L0 6ZM4 10.6133H25.3333V-7.84807L7.06324 -10.4989L4 10.6133ZM4 10.6667L-17.3333 10.6667L4 10.6667ZM9.33333 16L9.33333 37.3333L9.33333 16ZM14.6667 10.6667H36H14.6667ZM14.6667 7.87733L7.55574 -12.236L-6.66667 -7.20776V7.87733H14.6667ZM37.3332 6.08831C37.3509 1.80648 36.19 -2.39764 33.9778 -6.06369L-2.553 15.9805C-4.386 12.9429 -5.34784 9.4595 -5.33315 5.91169L37.3332 6.08831ZM33.9778 -6.06369C31.7656 -9.72973 28.5872 -12.7164 24.7907 -14.6966L5.05917 23.1335C1.9135 21.4927 -0.720004 19.0181 -2.553 15.9805L33.9778 -6.06369ZM24.7907 -14.6966C20.9942 -16.6768 16.7261 -17.5741 12.4537 -17.2903L15.2813 25.2826C11.7413 25.5177 8.20481 24.7742 5.05917 23.1335L24.7907 -14.6966ZM12.4537 -17.2903C8.18124 -17.0066 4.06927 -15.5526 0.568057 -13.0878L25.1294 21.8004C22.2284 23.8427 18.8213 25.0474 15.2813 25.2826L12.4537 -17.2903ZM0.568057 -13.0878C-2.93317 -10.6229 -5.68865 -7.24214 -7.39663 -3.3157L31.7287 13.7036C30.3135 16.9569 28.0304 19.7581 25.1294 21.8004L0.568057 -13.0878ZM-7.39663 -3.3157C-9.10461 0.610746 -9.69923 4.93146 -9.11539 9.17331L33.1528 3.35555C33.6365 6.87022 33.1439 10.4502 31.7287 13.7036L-7.39663 -3.3157ZM-9.11539 9.17331C-8.53155 13.4151 -6.79176 17.4145 -4.0865 20.7336L28.986 -6.22296C31.2275 -3.4729 32.669 -0.159104 33.1528 3.35555L-9.11539 9.17331ZM-4.0865 20.7336C-1.38126 24.0526 2.1851 26.5632 6.22204 27.9905L20.4446 -12.2359C23.7895 -11.0532 26.7445 -8.973 28.986 -6.22296L-4.0865 20.7336ZM-8 7.87733V10.6667H34.6667V7.87733H-8ZM-8 10.6667C-8 6.06959 -6.17382 1.66079 -2.92318 -1.58985L27.2467 28.58C31.9976 23.8291 34.6667 17.3855 34.6667 10.6667L-8 10.6667ZM-2.92318 -1.58985C0.327454 -4.84049 4.73626 -6.66667 9.33333 -6.66667V36C16.0521 36 22.4958 33.331 27.2467 28.58L-2.92318 -1.58985ZM9.33333 -6.66667C13.9304 -6.66667 18.3392 -4.84049 21.5899 -1.58985L-8.58004 28.58C-3.82911 33.331 2.61452 36 9.33333 36V-6.66667ZM21.5899 -1.58985C24.8405 1.66078 26.6667 6.06958 26.6667 10.6667L-16 10.6667C-16 17.3855 -13.331 23.8291 -8.58004 28.58L21.5899 -1.58985ZM26.6667 10.6667V10.6133H-16V10.6667H26.6667ZM8.39657 31.7256C14.5731 30.8294 20.2213 27.7417 24.3099 23.0262L-7.92672 -4.92459C-5.30686 -7.94616 -1.68765 -9.92469 2.27009 -10.4989L8.39657 31.7256ZM24.3099 23.0262C28.3985 18.3107 30.6547 12.282 30.6666 6.0408L-12 5.9592C-11.9923 1.96002 -10.5466 -1.90302 -7.92672 -4.92459L24.3099 23.0262ZM30.6667 6V3.33333H-12V6H30.6667ZM30.6667 3.30778C30.6588 -3.22504 28.0602 -9.48806 23.4408 -14.1075L-6.72909 16.0624C-10.0987 12.6928 -11.9943 8.12425 -12 3.35889L30.6667 3.30778ZM23.4408 -14.1075C18.8214 -18.7269 12.5584 -21.3255 6.02555 -21.3333L5.97445 21.3333C1.20908 21.3276 -3.35947 19.432 -6.72909 16.0624L23.4408 -14.1075ZM6 -21.3333C0.165232 -21.3333 -5.43055 -19.0155 -9.55635 -14.8897L20.6135 15.2802C16.7378 19.156 11.4811 21.3333 6 21.3333L6 -21.3333ZM-9.55635 -14.8897C-13.6821 -10.7639 -16 -5.16811 -16 0.666667L26.6667 0.666667C26.6667 6.14782 24.4893 11.4045 20.6135 15.2802L-9.55635 -14.8897ZM-16 0.666667C-16 6.50144 -13.6821 12.0972 -9.55635 16.223L20.6135 -13.9469C24.4893 -10.0711 26.6667 -4.81448 26.6667 0.666667L-16 0.666667ZM-9.55635 16.223C-5.43055 20.3488 0.165235 22.6667 6 22.6667L6 -20C11.4811 -20 16.7378 -17.8226 20.6135 -13.9469L-9.55635 16.223ZM6 22.6667C0.872482 22.6667 -4.04503 20.6298 -7.67073 17.0041L22.4992 -13.1658C18.1233 -17.5417 12.1884 -20 6 -20L6 22.6667ZM-7.67073 17.0041C-11.2964 13.3784 -13.3333 8.46085 -13.3333 3.33333H29.3333C29.3333 -2.85505 26.875 -8.78997 22.4992 -13.1658L-7.67073 17.0041ZM-13.3333 3.33333V6H29.3333V3.33333H-13.3333ZM-13.3333 6C-13.3333 1.2261 -11.4369 -3.35227 -8.06126 -6.72792L22.1086 23.442C26.7345 18.8161 29.3333 12.542 29.3333 6H-13.3333ZM-8.06126 -6.72792C-4.6856 -10.1036 -0.10723 -12 4.66667 -12L4.66667 30.6667C11.2087 30.6667 17.4827 28.0679 22.1086 23.442L-8.06126 -6.72792ZM4.66667 -12C9.44056 -12 14.0189 -10.1036 17.3946 -6.72792L-12.7753 23.442C-8.1494 28.0679 -1.87534 30.6667 4.66667 30.6667L4.66667 -12ZM17.3946 -6.72792C20.7702 -3.35227 22.6667 1.2261 22.6667 6H-20C-20 12.542 -17.4012 18.8161 -12.7753 23.442L17.3946 -6.72792ZM22.6667 6V3.33333H-20V6H22.6667ZM22.6667 3.33333C22.6667 8.46085 20.6298 13.3784 17.0041 17.0041L-13.1658 -13.1658C-17.5417 -8.78998 -20 -2.85505 -20 3.33333L22.6667 3.33333ZM17.0041 17.0041C13.3784 20.6298 8.46085 22.6667 3.33333 22.6667L3.33333 -20C-2.85505 -20 -8.78998 -17.5417 -13.1658 -13.1658L17.0041 17.0041ZM3.33333 22.6667C9.1681 22.6667 14.7639 20.3488 18.8897 16.223L-11.2802 -13.9469C-7.40446 -17.8226 -2.14781 -20 3.33333 -20L3.33333 22.6667ZM18.8897 16.223C23.0155 12.0972 25.3333 6.50144 25.3333 0.666667H-17.3333C-17.3333 -4.81448 -15.156 -10.0711 -11.2802 -13.9469L18.8897 16.223ZM25.3333 0.666667C25.3333 -5.16811 23.0155 -10.7639 18.8897 -14.8897L-11.2802 15.2802C-15.156 11.4045 -17.3333 6.14782 -17.3333 0.666667H25.3333ZM18.8897 -14.8897C14.7639 -19.0155 9.1681 -21.3333 3.33333 -21.3333L3.33333 21.3333C-2.14781 21.3333 -7.40446 19.156 -11.2802 15.2802L18.8897 -14.8897ZM3.30778 -21.3333C-3.22504 -21.3255 -9.48806 -18.7269 -14.1075 -14.1075L16.0624 16.0624C12.6928 19.432 8.12425 21.3276 3.35889 21.3333L3.30778 -21.3333ZM-14.1075 -14.1075C-18.7269 -9.48806 -21.3255 -3.22504 -21.3333 3.30778L21.3333 3.35889C21.3276 8.12425 19.432 12.6928 16.0624 16.0624L-14.1075 -14.1075ZM-21.3333 3.33333V6L21.3333 6V3.33333L-21.3333 3.33333ZM-21.3333 6.0408C-21.3214 12.282 -19.0651 18.3107 -14.9765 23.0262L17.2601 -4.92459C19.8799 -1.90302 21.3256 1.96002 21.3333 5.9592L-21.3333 6.0408ZM-14.9765 23.0262C-10.8879 27.7417 -5.23976 30.8294 0.93676 31.7256L7.06324 -10.4989C11.021 -9.92469 14.6402 -7.94616 17.2601 -4.92459L-14.9765 23.0262ZM-17.3333 10.6133V10.6667H25.3333V10.6133H-17.3333ZM-17.3333 10.6667C-17.3333 17.7391 -14.5238 24.5219 -9.52285 29.5228L20.647 -0.647042C23.6476 2.35354 25.3333 6.42321 25.3333 10.6667L-17.3333 10.6667ZM-9.52285 29.5228C-4.52188 34.5238 2.2609 37.3333 9.33333 37.3333L9.33333 -5.33333C13.5768 -5.33333 17.6465 -3.64763 20.647 -0.647042L-9.52285 29.5228ZM9.33333 37.3333C16.4058 37.3333 23.1885 34.5238 28.1895 29.5228L-1.98037 -0.647042C1.02021 -3.64763 5.08987 -5.33333 9.33333 -5.33333L9.33333 37.3333ZM28.1895 29.5228C33.1905 24.5219 36 17.7391 36 10.6667L-6.66667 10.6667C-6.66667 6.42321 -4.98096 2.35354 -1.98037 -0.647042L28.1895 29.5228ZM36 10.6667V7.87733H-6.66667V10.6667H36ZM21.7776 27.9907C26.3113 26.3878 30.2391 23.4233 33.0236 19.5028L-1.76236 -5.20316C0.544764 -8.4516 3.79921 -10.9079 7.55574 -12.236L21.7776 27.9907ZM33.0236 19.5028C35.808 15.5822 37.3132 10.8971 37.3332 6.08844L-5.33315 5.91156C-5.31663 1.9272 -4.06949 -1.95473 -1.76236 -5.20316L33.0236 19.5028ZM14 -14.6667C18.0875 -14.6667 22.0832 -13.4546 25.4818 -11.1837L1.77745 24.2923C5.39534 26.7097 9.64881 28 14 28V-14.6667ZM25.4818 -11.1837C28.8804 -8.91282 31.5293 -5.68513 33.0935 -1.90879L-6.32535 14.419C-4.66022 18.439 -1.84042 21.8749 1.77745 24.2923L25.4818 -11.1837ZM33.0935 -1.90879C34.6577 1.86755 35.067 6.02293 34.2696 10.0319L-7.57728 1.70801C-8.42615 5.97559 -7.99048 10.3991 -6.32535 14.419L33.0935 -1.90879ZM34.2696 10.0319C33.4721 14.0408 31.5039 17.7232 28.6135 20.6135L-1.55635 -9.55635C-4.63313 -6.47957 -6.72841 -2.55953 -7.57728 1.70801L34.2696 10.0319ZM28.6135 20.6135C25.7233 23.5038 22.0408 25.4721 18.0319 26.2696L9.70801 -15.5773C5.44041 -14.7284 1.52039 -12.6331 -1.55635 -9.55635L28.6135 20.6135ZM18.0319 26.2696C14.0229 27.067 9.86755 26.6577 6.09121 25.0935L22.419 -14.3254C18.3991 -15.9905 13.9756 -16.4262 9.70801 -15.5773L18.0319 26.2696ZM6.09121 25.0935C2.31495 23.5293 -0.912773 20.8805 -3.18371 17.4818L32.2923 -6.22255C29.8749 -9.8405 26.4389 -12.6603 22.419 -14.3254L6.09121 25.0935ZM-3.18371 17.4818C-5.45463 14.0831 -6.66667 10.0874 -6.66667 6H36C36 1.64888 34.7098 -2.6046 32.2923 -6.22255L-3.18371 17.4818ZM-6.66667 6C-6.66667 0.518896 -4.48932 -4.73776 -0.61354 -8.61354L29.5564 21.5563C33.6822 17.4305 36 11.8347 36 6H-6.66667ZM-0.61354 -8.61354C3.26222 -12.4893 8.51887 -14.6667 14 -14.6667V28C19.8348 28 25.4305 25.6822 29.5564 21.5563L-0.61354 -8.61354Z" fill="#7C7B88" mask="url(#path-1-inside-1_23_3044)"/>
</g>
<defs>
<clipPath id="clip0_23_3044">
<rect width="16" height="16" fill="white"/>
</clipPath>
</defs>
</svg>
