<svg width="16" height="16" viewBox="0 0 16 16" fill="none" xmlns="http://www.w3.org/2000/svg">
<g id="fi-rr-stopwatch" clip-path="url(#clip0_5527_655)">
<g id="Vector">
<mask id="path-1-inside-1_5527_655" fill="white">
<path d="M9.3333 8.66667C9.33436 8.90097 9.27365 9.13141 9.15731 9.33479C9.04096 9.53816 8.87307 9.70729 8.67056 9.82513C8.46804 9.94297 8.23805 10.0054 8.00375 10.006C7.76945 10.0067 7.53911 9.94559 7.33593 9.8289C7.13275 9.71221 6.96391 9.54404 6.84641 9.34132C6.72892 9.13861 6.66691 8.90851 6.66664 8.67421C6.66638 8.43991 6.72786 8.20967 6.84489 8.00669C6.96193 7.80371 7.13038 7.63516 7.3333 7.518V4.66667C7.3333 4.48986 7.40353 4.32029 7.52856 4.19526C7.65358 4.07024 7.82315 4 7.99996 4C8.17677 4 8.34634 4.07024 8.47137 4.19526C8.59639 4.32029 8.66663 4.48986 8.66663 4.66667V7.518C8.86871 7.6342 9.03668 7.8015 9.15369 8.00311C9.2707 8.20472 9.33264 8.43356 9.3333 8.66667ZM13.3733 3.69267C14.3446 4.73852 14.9897 6.04511 15.2292 7.4522C15.4688 8.85929 15.2926 10.3057 14.7221 11.6141C14.1516 12.9225 13.2118 14.036 12.0177 14.818C10.8236 15.6 9.42731 16.0165 7.99996 16.0165C6.57262 16.0165 5.1763 15.6 3.98224 14.818C2.78818 14.036 1.84828 12.9225 1.27781 11.6141C0.707336 10.3057 0.53109 8.85929 0.770683 7.4522C1.01028 6.04511 1.65529 4.73852 2.62663 3.69267L2.17863 3.19467C1.90719 3.29021 1.62103 3.33716 1.3333 3.33333C1.15649 3.33333 0.986916 3.2631 0.861892 3.13807C0.736868 3.01305 0.66663 2.84348 0.66663 2.66667C0.66663 2.48986 0.736868 2.32029 0.861892 2.19526C0.986916 2.07024 1.15649 2 1.3333 2C1.85663 2 1.99996 1.85667 1.99996 1.33333C1.99996 1.15652 2.0702 0.986953 2.19523 0.861929C2.32025 0.736905 2.48982 0.666667 2.66663 0.666667C2.84344 0.666667 3.01301 0.736905 3.13803 0.861929C3.26306 0.986953 3.3333 1.15652 3.3333 1.33333C3.33718 1.65775 3.27361 1.97944 3.14663 2.278L3.6173 2.80067C4.6987 1.98685 5.9855 1.4905 7.3333 1.36733V0.666667C7.3333 0.489856 7.40353 0.320286 7.52856 0.195262C7.65358 0.0702379 7.82315 0 7.99996 0C8.17677 0 8.34634 0.0702379 8.47137 0.195262C8.59639 0.320286 8.66663 0.489856 8.66663 0.666667V1.36733C10.0144 1.49031 11.3012 1.98642 12.3826 2.8L12.8533 2.27733C12.7264 1.97898 12.6628 1.65753 12.6666 1.33333C12.6666 1.15652 12.7369 0.986953 12.8619 0.861929C12.9869 0.736905 13.1565 0.666667 13.3333 0.666667C13.5101 0.666667 13.6797 0.736905 13.8047 0.861929C13.9297 0.986953 14 1.15652 14 1.33333C14 1.85667 14.1433 2 14.6666 2C14.8434 2 15.013 2.07024 15.138 2.19526C15.2631 2.32029 15.3333 2.48986 15.3333 2.66667C15.3333 2.84348 15.2631 3.01305 15.138 3.13807C15.013 3.2631 14.8434 3.33333 14.6666 3.33333C14.3789 3.33716 14.0927 3.29021 13.8213 3.19467L13.3733 3.69267ZM14 8.66667C14 7.47998 13.6481 6.31994 12.9888 5.33325C12.3295 4.34655 11.3924 3.57752 10.2961 3.12339C9.19971 2.66926 7.99331 2.55044 6.82942 2.78196C5.66554 3.01347 4.59644 3.58491 3.75732 4.42403C2.91821 5.26314 2.34676 6.33224 2.11525 7.49613C1.88374 8.66001 2.00256 9.86641 2.45669 10.9628C2.91081 12.0591 3.67985 12.9962 4.66654 13.6555C5.65324 14.3148 6.81328 14.6667 7.99996 14.6667C9.59072 14.6649 11.1158 14.0322 12.2407 12.9074C13.3655 11.7825 13.9982 10.2574 14 8.66667Z"/>
</mask>
<path d="M9.3333 8.66667C9.33436 8.90097 9.27365 9.13141 9.15731 9.33479C9.04096 9.53816 8.87307 9.70729 8.67056 9.82513C8.46804 9.94297 8.23805 10.0054 8.00375 10.006C7.76945 10.0067 7.53911 9.94559 7.33593 9.8289C7.13275 9.71221 6.96391 9.54404 6.84641 9.34132C6.72892 9.13861 6.66691 8.90851 6.66664 8.67421C6.66638 8.43991 6.72786 8.20967 6.84489 8.00669C6.96193 7.80371 7.13038 7.63516 7.3333 7.518V4.66667C7.3333 4.48986 7.40353 4.32029 7.52856 4.19526C7.65358 4.07024 7.82315 4 7.99996 4C8.17677 4 8.34634 4.07024 8.47137 4.19526C8.59639 4.32029 8.66663 4.48986 8.66663 4.66667V7.518C8.86871 7.6342 9.03668 7.8015 9.15369 8.00311C9.2707 8.20472 9.33264 8.43356 9.3333 8.66667ZM13.3733 3.69267C14.3446 4.73852 14.9897 6.04511 15.2292 7.4522C15.4688 8.85929 15.2926 10.3057 14.7221 11.6141C14.1516 12.9225 13.2118 14.036 12.0177 14.818C10.8236 15.6 9.42731 16.0165 7.99996 16.0165C6.57262 16.0165 5.1763 15.6 3.98224 14.818C2.78818 14.036 1.84828 12.9225 1.27781 11.6141C0.707336 10.3057 0.53109 8.85929 0.770683 7.4522C1.01028 6.04511 1.65529 4.73852 2.62663 3.69267L2.17863 3.19467C1.90719 3.29021 1.62103 3.33716 1.3333 3.33333C1.15649 3.33333 0.986916 3.2631 0.861892 3.13807C0.736868 3.01305 0.66663 2.84348 0.66663 2.66667C0.66663 2.48986 0.736868 2.32029 0.861892 2.19526C0.986916 2.07024 1.15649 2 1.3333 2C1.85663 2 1.99996 1.85667 1.99996 1.33333C1.99996 1.15652 2.0702 0.986953 2.19523 0.861929C2.32025 0.736905 2.48982 0.666667 2.66663 0.666667C2.84344 0.666667 3.01301 0.736905 3.13803 0.861929C3.26306 0.986953 3.3333 1.15652 3.3333 1.33333C3.33718 1.65775 3.27361 1.97944 3.14663 2.278L3.6173 2.80067C4.6987 1.98685 5.9855 1.4905 7.3333 1.36733V0.666667C7.3333 0.489856 7.40353 0.320286 7.52856 0.195262C7.65358 0.0702379 7.82315 0 7.99996 0C8.17677 0 8.34634 0.0702379 8.47137 0.195262C8.59639 0.320286 8.66663 0.489856 8.66663 0.666667V1.36733C10.0144 1.49031 11.3012 1.98642 12.3826 2.8L12.8533 2.27733C12.7264 1.97898 12.6628 1.65753 12.6666 1.33333C12.6666 1.15652 12.7369 0.986953 12.8619 0.861929C12.9869 0.736905 13.1565 0.666667 13.3333 0.666667C13.5101 0.666667 13.6797 0.736905 13.8047 0.861929C13.9297 0.986953 14 1.15652 14 1.33333C14 1.85667 14.1433 2 14.6666 2C14.8434 2 15.013 2.07024 15.138 2.19526C15.2631 2.32029 15.3333 2.48986 15.3333 2.66667C15.3333 2.84348 15.2631 3.01305 15.138 3.13807C15.013 3.2631 14.8434 3.33333 14.6666 3.33333C14.3789 3.33716 14.0927 3.29021 13.8213 3.19467L13.3733 3.69267ZM14 8.66667C14 7.47998 13.6481 6.31994 12.9888 5.33325C12.3295 4.34655 11.3924 3.57752 10.2961 3.12339C9.19971 2.66926 7.99331 2.55044 6.82942 2.78196C5.66554 3.01347 4.59644 3.58491 3.75732 4.42403C2.91821 5.26314 2.34676 6.33224 2.11525 7.49613C1.88374 8.66001 2.00256 9.86641 2.45669 10.9628C2.91081 12.0591 3.67985 12.9962 4.66654 13.6555C5.65324 14.3148 6.81328 14.6667 7.99996 14.6667C9.59072 14.6649 11.1158 14.0322 12.2407 12.9074C13.3655 11.7825 13.9982 10.2574 14 8.66667Z" fill="#6F727A"/>
<path d="M7.3333 7.518L18.0002 25.9931L28.6666 19.8346V7.518H7.3333ZM8.66663 7.518H-12.6667V19.8596L-1.96786 26.0118L8.66663 7.518ZM13.3733 3.69267L-2.48681 -10.5751L-15.5285 3.92218L-2.25822 18.2105L13.3733 3.69267ZM7.99996 16.0165V37.3498V16.0165ZM2.62663 3.69267L18.2581 18.2105L31.5284 3.92218L18.4867 -10.5751L2.62663 3.69267ZM2.17863 3.19467L18.0387 -11.0731L8.52013 -21.654L-4.90479 -16.9284L2.17863 3.19467ZM1.3333 3.33333L1.61661 -17.9981L1.47496 -18H1.3333V3.33333ZM0.66663 2.66667H-20.6667H0.66663ZM1.3333 2V-19.3333V2ZM2.66663 0.666667V-20.6667V0.666667ZM3.3333 1.33333H-18V1.46099L-17.9985 1.58865L3.3333 1.33333ZM3.14663 2.278L-16.4848 -6.07168L-21.8087 6.44565L-12.7063 16.5537L3.14663 2.278ZM3.6173 2.80067L-12.2356 17.0764L0.836551 31.5928L16.4452 19.8464L3.6173 2.80067ZM7.3333 1.36733L9.2748 22.6121L28.6666 20.84V1.36733H7.3333ZM7.99996 0V-21.3333V0ZM8.66663 1.36733H-12.6667V20.8427L6.72808 22.6124L8.66663 1.36733ZM12.3826 2.8L-0.442308 19.8479L15.1656 31.5896L28.2355 17.0757L12.3826 2.8ZM12.8533 2.27733L28.7062 16.5531L37.8086 6.44509L32.4848 -6.07218L12.8533 2.27733ZM12.6666 1.33333L33.9985 1.58274L34 1.45804V1.33333H12.6666ZM13.3333 0.666667V-20.6667V0.666667ZM14.6666 2V-19.3333V2ZM14.6666 3.33333V-18H14.525L14.3833 -17.9981L14.6666 3.33333ZM13.8213 3.19467L20.9047 -16.9284L7.4798 -21.654L-2.03881 -11.0731L13.8213 3.19467ZM7.99996 14.6667V36H8.0118L8.02363 36L7.99996 14.6667ZM-11.9998 8.76308C-12.0157 5.24855 -11.1052 1.7919 -9.35996 -1.25871L27.6746 19.9283C29.6525 16.4709 30.6844 12.5534 30.6664 8.57025L-11.9998 8.76308ZM-9.35996 -1.25871C-7.61474 -4.30932 -5.09645 -6.84619 -2.05873 -8.61379L19.3998 28.264C22.8426 26.2608 25.6967 23.3856 27.6746 19.9283L-9.35996 -1.25871ZM-2.05873 -8.61379C0.978967 -10.3814 4.42883 -11.3173 7.94339 -11.3272L8.0641 31.3393C12.0473 31.328 15.9571 30.2673 19.3998 28.264L-2.05873 -8.61379ZM7.94339 -11.3272C11.4579 -11.3372 14.9131 -10.4208 17.9607 -8.67043L-3.28885 28.3282C0.165162 30.312 4.08095 31.3505 8.0641 31.3393L7.94339 -11.3272ZM17.9607 -8.67043C21.0084 -6.92005 23.541 -4.39747 25.3034 -1.35677L-11.6106 20.0394C-9.61316 23.4855 -6.74288 26.3445 -3.28885 28.3282L17.9607 -8.67043ZM25.3034 -1.35677C27.0659 1.68393 27.996 5.13538 28 8.64992L-14.6667 8.6985C-14.6621 12.6817 -13.6081 16.5933 -11.6106 20.0394L25.3034 -1.35677ZM28 8.64992C28.004 12.1645 27.0818 15.618 25.3262 18.6627L-11.6364 -2.64935C-13.626 0.801313 -14.6712 4.71534 -14.6667 8.6985L28 8.64992ZM25.3262 18.6627C23.5707 21.7074 21.0439 24.2358 18.0002 25.9931L-3.33359 -10.9571C-6.78308 -8.96546 -9.64685 -6.10001 -11.6364 -2.64935L25.3262 18.6627ZM28.6666 7.518V4.66667H-14V7.518H28.6666ZM28.6666 4.66667C28.6666 10.1478 26.4892 15.4045 22.6135 19.2802L-7.55639 -10.8897C-11.6822 -6.76389 -14 -1.16811 -14 4.66667H28.6666ZM22.6135 19.2802C18.7378 23.1559 13.4811 25.3333 7.99996 25.3333V-17.3333C2.16518 -17.3333 -3.4306 -15.0155 -7.55639 -10.8897L22.6135 19.2802ZM7.99996 25.3333C2.51881 25.3333 -2.73784 23.1559 -6.61358 19.2802L23.5563 -10.8897C19.4305 -15.0155 13.8347 -17.3333 7.99996 -17.3333V25.3333ZM-6.61358 19.2802C-10.4893 15.4045 -12.6667 10.1478 -12.6667 4.66667H30C30 -1.16811 27.6821 -6.76389 23.5563 -10.8897L-6.61358 19.2802ZM-12.6667 4.66667V7.518H30V4.66667H-12.6667ZM-1.96786 26.0118C-5.00875 24.2631 -7.53641 21.7456 -9.29724 18.7117L27.6046 -2.7055C25.6098 -6.14263 22.7462 -8.99474 19.3011 -10.9757L-1.96786 26.0118ZM-9.29724 18.7117C-11.0581 15.6778 -11.9901 12.2342 -12 8.72645L30.6665 8.60689C30.6554 4.63287 29.5995 0.73163 27.6046 -2.7055L-9.29724 18.7117ZM-2.25822 18.2105C-4.11259 16.2139 -5.34399 13.7195 -5.80139 11.0332L36.2599 3.87121C35.3233 -1.62924 32.8019 -6.73681 29.0048 -10.8251L-2.25822 18.2105ZM-5.80139 11.0332C-6.25879 8.34693 -5.92233 5.58557 -4.83324 3.08774L34.2775 20.1405C36.5075 15.0259 37.1965 9.37165 36.2599 3.87121L-5.80139 11.0332ZM-4.83324 3.08774C-3.74416 0.589906 -1.94981 -1.5358 0.32976 -3.02871L23.7056 32.6646C28.3733 29.6077 32.0475 25.2551 34.2775 20.1405L-4.83324 3.08774ZM0.32976 -3.02871C2.60933 -4.52162 5.27503 -5.31683 7.99996 -5.31683V37.3498C13.5796 37.3498 19.0379 35.7215 23.7056 32.6646L0.32976 -3.02871ZM7.99996 -5.31683C10.7249 -5.31683 13.3906 -4.52162 15.6702 -3.02871L-7.70569 32.6646C-3.03799 35.7215 2.42035 37.3498 7.99996 37.3498V-5.31683ZM15.6702 -3.02871C17.9497 -1.5358 19.7441 0.589908 20.8332 3.08774L-18.2776 20.1405C-16.0475 25.2551 -12.3734 29.6077 -7.70569 32.6646L15.6702 -3.02871ZM20.8332 3.08774C21.9223 5.58557 22.2587 8.34693 21.8013 11.0332L-20.26 3.87121C-21.1965 9.37166 -20.5076 15.0259 -18.2776 20.1405L20.8332 3.08774ZM21.8013 11.0332C21.3439 13.7195 20.1125 16.2138 18.2581 18.2105L-13.0049 -10.8251C-16.8019 -6.73681 -19.3234 -1.62924 -20.26 3.87121L21.8013 11.0332ZM18.4867 -10.5751L18.0387 -11.0731L-13.6815 17.4624L-13.2335 17.9604L18.4867 -10.5751ZM-4.90479 -16.9284C-2.81077 -17.6655 -0.603173 -18.0276 1.61661 -17.9981L1.04998 24.6648C3.84524 24.7019 6.62515 24.2459 9.26205 23.3177L-4.90479 -16.9284ZM1.3333 -18C6.81445 -18 12.0711 -15.8226 15.9468 -11.9469L-14.2231 18.223C-10.0973 22.3488 -4.50148 24.6667 1.3333 24.6667V-18ZM15.9468 -11.9469C19.8226 -8.07112 22 -2.81447 22 2.66667H-20.6667C-20.6667 8.50143 -18.3489 14.0972 -14.2231 18.223L15.9468 -11.9469ZM22 2.66667C22 8.1478 19.8226 13.4045 15.9468 17.2802L-14.2231 -12.8897C-18.3489 -8.76388 -20.6667 -3.16809 -20.6667 2.66667H22ZM15.9468 17.2802C12.0711 21.156 6.81444 23.3333 1.3333 23.3333V-19.3333C-4.50146 -19.3333 -10.0973 -17.0155 -14.2231 -12.8897L15.9468 17.2802ZM1.3333 23.3333C1.84769 23.3333 10.1926 23.7031 16.9478 16.9479C23.703 10.1927 23.3333 1.84773 23.3333 1.33333H-19.3334C-19.3334 0.712666 -19.3153 -1.14697 -18.735 -3.48374C-18.0964 -6.05486 -16.6201 -9.82395 -13.2221 -13.222C-9.82399 -16.6201 -6.05489 -18.0964 -3.48377 -18.7349C-1.14701 -19.3153 0.71263 -19.3333 1.3333 -19.3333V23.3333ZM23.3333 1.33333C23.3333 6.81447 21.1559 12.0711 17.2802 15.9469L-12.8897 -14.223C-17.0155 -10.0972 -19.3334 -4.50143 -19.3334 1.33333H23.3333ZM17.2802 15.9469C13.4044 19.8226 8.14777 22 2.66663 22V-20.6667C-3.16813 -20.6667 -8.76392 -18.3488 -12.8897 -14.223L17.2802 15.9469ZM2.66663 22C-2.81451 22 -8.07116 19.8226 -11.9469 15.9469L18.223 -14.223C14.0972 -18.3488 8.5014 -20.6667 2.66663 -20.6667V22ZM-11.9469 15.9469C-15.8227 12.0711 -18 6.81448 -18 1.33333H24.6666C24.6666 -4.50144 22.3488 -10.0972 18.223 -14.223L-11.9469 15.9469ZM-17.9985 1.58865C-18.03 -1.04208 -17.5145 -3.65065 -16.4848 -6.07168L22.7781 10.6277C24.0618 7.60953 24.7044 4.35759 24.6651 1.07802L-17.9985 1.58865ZM-12.7063 16.5537L-12.2356 17.0764L19.4702 -11.475L18.9995 -11.9977L-12.7063 16.5537ZM16.4452 19.8464C14.3585 21.4167 11.8755 22.3745 9.2748 22.6121L5.39179 -19.8775C0.0954902 -19.3935 -4.96112 -17.443 -9.2106 -14.245L16.4452 19.8464ZM28.6666 1.36733V0.666667H-14V1.36733H28.6666ZM28.6666 0.666667C28.6666 6.14782 26.4892 11.4045 22.6135 15.2802L-7.55639 -14.8897C-11.6822 -10.7639 -14 -5.16811 -14 0.666667H28.6666ZM22.6135 15.2802C18.7378 19.156 13.4811 21.3333 7.99996 21.3333V-21.3333C2.16519 -21.3333 -3.43059 -19.0155 -7.55639 -14.8897L22.6135 15.2802ZM7.99996 21.3333C2.51882 21.3333 -2.73783 19.156 -6.61358 15.2802L23.5563 -14.8897C19.4305 -19.0155 13.8347 -21.3333 7.99996 -21.3333V21.3333ZM-6.61358 15.2802C-10.4893 11.4045 -12.6667 6.14782 -12.6667 0.666667H30C30 -5.16811 27.6821 -10.7639 23.5563 -14.8897L-6.61358 15.2802ZM-12.6667 0.666667V1.36733H30V0.666667H-12.6667ZM6.72808 22.6124C4.1275 22.3751 1.6445 21.4178 -0.442308 19.8479L25.2076 -14.2479C20.9578 -17.445 15.9012 -19.3945 10.6052 -19.8777L6.72808 22.6124ZM28.2355 17.0757L28.7062 16.5531L-2.99961 -11.9984L-3.47028 -11.4757L28.2355 17.0757ZM32.4848 -6.07218C33.5138 -3.65284 34.0292 -1.04619 33.9985 1.58274L-8.66525 1.08393C-8.70356 4.36125 -8.06099 7.6108 -6.77823 10.6268L32.4848 -6.07218ZM34 1.33333C34 6.81443 31.8226 12.0711 27.9468 15.9469L-2.22305 -14.223C-6.34888 -10.0972 -8.6667 -4.50139 -8.6667 1.33333H34ZM27.9468 15.9469C24.0711 19.8226 18.8144 22 13.3333 22V-20.6667C7.49855 -20.6667 1.90276 -18.3488 -2.22305 -14.223L27.9468 15.9469ZM13.3333 22C7.85217 22 2.59552 19.8226 -1.28024 15.9469L28.8896 -14.223C24.7638 -18.3488 19.168 -20.6667 13.3333 -20.6667V22ZM-1.28024 15.9469C-5.15603 12.0711 -7.33337 6.81443 -7.33337 1.33333H35.3333C35.3333 -4.50139 33.0155 -10.0972 28.8896 -14.223L-1.28024 15.9469ZM-7.33337 1.33333C-7.33337 1.84773 -7.70309 10.1927 -0.947899 16.9479C5.80729 23.7031 14.1522 23.3333 14.6666 23.3333V-19.3333C15.2873 -19.3333 17.1469 -19.3153 19.4837 -18.7349C22.0548 -18.0964 25.8239 -16.6201 29.222 -13.222C32.6201 -9.82395 34.0964 -6.05486 34.7349 -3.48374C35.3152 -1.14697 35.3333 0.712667 35.3333 1.33333H-7.33337ZM14.6666 23.3333C9.18551 23.3333 3.92886 21.156 0.0530894 17.2802L30.223 -12.8897C26.0972 -17.0155 20.5014 -19.3333 14.6666 -19.3333V23.3333ZM0.0530894 17.2802C-3.82269 13.4044 -6.00004 8.14777 -6.00004 2.66667H36.6666C36.6666 -3.16805 34.3488 -8.76385 30.223 -12.8897L0.0530894 17.2802ZM-6.00004 2.66667C-6.00004 -2.81444 -3.82269 -8.07109 0.0530894 -11.9469L30.223 18.223C34.3488 14.0972 36.6666 8.50139 36.6666 2.66667H-6.00004ZM0.0530894 -11.9469C3.92885 -15.8226 9.1855 -18 14.6666 -18V24.6667C20.5014 24.6667 26.0972 22.3488 30.223 18.223L0.0530894 -11.9469ZM14.3833 -17.9981C16.6031 -18.0276 18.8107 -17.6655 20.9047 -16.9284L6.73787 23.3177C9.37477 24.2459 12.1547 24.7019 14.9499 24.6648L14.3833 -17.9981ZM-2.03881 -11.0731L-2.48681 -10.5751L29.2334 17.9604L29.6814 17.4624L-2.03881 -11.0731ZM35.3333 8.66667C35.3333 3.26065 33.7302 -2.02397 30.7268 -6.51892L-4.74924 17.1854C-6.43409 14.6639 -7.33337 11.6993 -7.33337 8.66667H35.3333ZM30.7268 -6.51892C27.7234 -11.0139 23.4545 -14.5172 18.46 -16.586L2.13215 22.8328C-0.669649 21.6723 -3.06439 19.707 -4.74924 17.1854L30.7268 -6.51892ZM18.46 -16.586C13.4655 -18.6548 7.96964 -19.1961 2.66749 -18.1415L10.9913 23.7054C8.01697 24.297 4.93395 23.9934 2.13215 22.8328L18.46 -16.586ZM2.66749 -18.1415C-2.63465 -17.0868 -7.50499 -14.4836 -11.3276 -10.6609L18.8423 19.509C16.6979 21.6534 13.9657 23.1137 10.9913 23.7054L2.66749 -18.1415ZM-11.3276 -10.6609C-15.1503 -6.83828 -17.7535 -1.96795 -18.8082 3.3342L23.0387 11.6581C22.447 14.6324 20.9867 17.3646 18.8423 19.509L-11.3276 -10.6609ZM-18.8082 3.3342C-19.8628 8.63635 -19.3215 14.1322 -17.2527 19.1267L22.1661 2.79886C23.3267 5.60066 23.6303 8.68368 23.0387 11.6581L-18.8082 3.3342ZM-17.2527 19.1267C-15.1839 24.1212 -11.6806 28.3901 -7.18562 31.3935L16.5187 -4.08253C19.0403 -2.39768 21.0056 -0.0029442 22.1661 2.79886L-17.2527 19.1267ZM-7.18562 31.3935C-2.69068 34.3969 2.59394 36 7.99996 36V-6.66667C11.0326 -6.66667 13.9972 -5.76738 16.5187 -4.08253L-7.18562 31.3935ZM8.02363 36C15.2641 35.992 22.2058 33.1121 27.3256 27.9923L-2.84429 -2.17758C0.0258551 -5.04773 3.91731 -6.66215 7.9763 -6.66665L8.02363 36ZM27.3256 27.9923C32.4454 22.8725 35.3253 15.9308 35.3333 8.69033L-7.33336 8.643C-7.32886 4.58402 -5.71444 0.692561 -2.84429 -2.17758L27.3256 27.9923Z" fill="#6F727A" mask="url(#path-1-inside-1_5527_655)"/>
</g>
</g>
<defs>
<clipPath id="clip0_5527_655">
<rect width="16" height="16" fill="white"/>
</clipPath>
</defs>
</svg>
