<svg width="17" height="16" viewBox="0 0 17 16" fill="none" xmlns="http://www.w3.org/2000/svg">
<path fill-rule="evenodd" clip-rule="evenodd" d="M15.3355 1.33174C15.1587 1.33174 14.9891 1.40198 14.8641 1.527C14.7391 1.65202 14.6688 1.82159 14.6688 1.9984V3.58107C13.9742 2.53279 13.0422 1.66302 11.9485 1.04234C10.8549 0.421661 9.63025 0.0675546 8.37408 0.00875185C7.11792 -0.0500509 5.86559 0.188107 4.7187 0.703901C3.57181 1.2197 2.56267 1.9986 1.77316 2.97741C0.983647 3.95622 0.436003 5.10736 0.174663 6.33745C-0.0866781 7.56753 -0.0543538 8.84189 0.269013 10.0571C0.592379 11.2724 1.19768 12.3943 2.0358 13.3318C2.87392 14.2693 3.92125 14.9961 5.09281 15.4531C5.17024 15.4829 5.2525 15.4983 5.33548 15.4984C5.49105 15.4986 5.64181 15.4445 5.76165 15.3453C5.88148 15.2461 5.96285 15.1081 5.99165 14.9552C6.02045 14.8023 5.99488 14.6441 5.91937 14.5081C5.84385 14.3721 5.72314 14.2668 5.57815 14.2104C4.5835 13.8258 3.69563 13.2082 2.98907 12.4094C2.28251 11.6106 1.77789 10.654 1.51755 9.61987C1.25722 8.58571 1.24878 7.50419 1.49293 6.4661C1.73708 5.428 2.22671 4.46362 2.92071 3.65392C3.61471 2.84422 4.49283 2.21282 5.48135 1.81272C6.46988 1.41263 7.53996 1.25551 8.60177 1.35457C9.66358 1.45363 10.6861 1.80596 11.5836 2.382C12.4811 2.95804 13.2272 3.74097 13.7595 4.66507H12.0021C11.8253 4.66507 11.6558 4.73531 11.5307 4.86033C11.4057 4.98536 11.3355 5.15493 11.3355 5.33174C11.3355 5.50855 11.4057 5.67812 11.5307 5.80314C11.6558 5.92817 11.8253 5.9984 12.0021 5.9984H14.0021C14.5326 5.9984 15.0413 5.78769 15.4164 5.41262C15.7914 5.03755 16.0021 4.52884 16.0021 3.9984V1.9984C16.0021 1.82159 15.9319 1.65202 15.8069 1.527C15.6819 1.40198 15.5123 1.33174 15.3355 1.33174ZM8.6686 4.66491V7.99824C8.6686 8.17505 8.59837 8.34462 8.47334 8.46965C8.34832 8.59467 8.17875 8.66491 8.00194 8.66491H5.33527C5.15846 8.66491 4.98889 8.59467 4.86387 8.46965C4.73884 8.34462 4.6686 8.17505 4.6686 7.99824C4.6686 7.82143 4.73884 7.65186 4.86387 7.52684C4.98889 7.40181 5.15846 7.33158 5.33527 7.33158H7.33527V4.66491C7.33527 4.4881 7.40551 4.31853 7.53053 4.1935C7.65556 4.06848 7.82513 3.99824 8.00194 3.99824C8.17875 3.99824 8.34832 4.06848 8.47334 4.1935C8.59837 4.31853 8.6686 4.4881 8.6686 4.66491ZM12.5878 10.584C12.9629 10.209 13.4716 9.99824 14.002 9.99824C14.5325 9.99824 15.0412 10.209 15.4163 10.584C15.7913 10.9591 16.002 11.4678 16.002 11.9982V13.9982C16.002 14.5287 15.7913 15.0374 15.4163 15.4125C15.0412 15.7875 14.5325 15.9982 14.002 15.9982C13.4716 15.9982 12.9629 15.7875 12.5878 15.4125C12.2128 15.0374 12.002 14.5287 12.002 13.9982V11.9982C12.002 11.4678 12.2128 10.9591 12.5878 10.584ZM14.4734 14.4696C14.5985 14.3446 14.6687 14.1751 14.6687 13.9982V11.9982C14.6687 11.8214 14.5985 11.6519 14.4734 11.5268C14.3484 11.4018 14.1789 11.3316 14.002 11.3316C13.8252 11.3316 13.6557 11.4018 13.5306 11.5268C13.4056 11.6519 13.3354 11.8214 13.3354 11.9982V13.9982C13.3354 14.1751 13.4056 14.3446 13.5306 14.4696C13.6557 14.5947 13.8252 14.6649 14.002 14.6649C14.1789 14.6649 14.3484 14.5947 14.4734 14.4696ZM9.87216 10.0107C10.0015 9.98492 10.1356 9.99811 10.2574 10.0486C10.3792 10.0991 10.4833 10.1846 10.5565 10.2942C10.6298 10.4038 10.6688 10.5327 10.6688 10.6646V15.3313C10.6688 15.5081 10.5985 15.6776 10.4735 15.8027C10.3485 15.9277 10.1789 15.9979 10.0021 15.9979C9.8253 15.9979 9.65573 15.9277 9.53071 15.8027C9.40568 15.6776 9.33544 15.5081 9.33544 15.3313V12.2739L8.47344 13.1359C8.34771 13.2574 8.17931 13.3246 8.00451 13.323C7.82971 13.3215 7.6625 13.2514 7.5389 13.1278C7.41529 13.0042 7.34518 12.837 7.34366 12.6622C7.34214 12.4874 7.40934 12.319 7.53078 12.1933L9.53078 10.1932C9.62401 10.1 9.74281 10.0364 9.87216 10.0107Z" fill="#7C7B88"/>
</svg>
