<svg width="16" height="16" viewBox="0 0 16 16" fill="none" xmlns="http://www.w3.org/2000/svg">
<g clip-path="url(#clip0_23_3054)">
<mask id="path-1-inside-1_23_3054" fill="white">
<path d="M15.3333 7.33333C15.1565 7.33333 14.987 7.40357 14.8619 7.5286C14.7369 7.65362 14.6667 7.82319 14.6667 8C14.6721 9.55018 14.1389 11.0541 13.1583 12.2548C12.1778 13.4554 10.8106 14.2782 9.29059 14.5825C7.77057 14.8869 6.19203 14.6538 4.82479 13.9232C3.45755 13.1927 2.38649 12.0099 1.79469 10.5771C1.20288 9.14433 1.12707 7.55049 1.58021 6.06801C2.03335 4.58552 2.98731 3.30644 4.27903 2.44938C5.57075 1.59232 7.12005 1.2105 8.66209 1.36918C10.2041 1.52786 11.6432 2.21718 12.7333 3.31933C12.7114 3.32531 12.6891 3.32999 12.6667 3.33333H10.6667C10.4899 3.33333 10.3203 3.40357 10.1953 3.5286C10.0702 3.65362 10 3.82319 10 4C10 4.17681 10.0702 4.34638 10.1953 4.4714C10.3203 4.59643 10.4899 4.66667 10.6667 4.66667H12.6667C13.1971 4.66667 13.7058 4.45595 14.0809 4.08088C14.456 3.70581 14.6667 3.1971 14.6667 2.66667V0.666667C14.6667 0.489856 14.5964 0.320286 14.4714 0.195262C14.3464 0.0702379 14.1768 0 14 0C13.8232 0 13.6536 0.0702379 13.5286 0.195262C13.4036 0.320286 13.3333 0.489856 13.3333 0.666667V2.04333C11.9684 0.82302 10.2259 0.108111 8.39723 0.0180684C6.56852 -0.0719742 4.7643 0.468305 3.28605 1.54862C1.80781 2.62894 0.745088 4.18386 0.275482 5.95354C-0.194124 7.72322 -0.0421722 9.60046 0.705947 11.2716C1.45407 12.9427 2.75303 14.3064 4.38579 15.1349C6.01854 15.9634 7.88617 16.2065 9.67659 15.8235C11.467 15.4405 13.0718 14.4547 14.2227 13.0307C15.3736 11.6067 16.001 9.83093 16 8C16 7.82319 15.9298 7.65362 15.8047 7.5286C15.6797 7.40357 15.5101 7.33333 15.3333 7.33333Z"/>
</mask>
<path d="M15.3333 7.33333C15.1565 7.33333 14.987 7.40357 14.8619 7.5286C14.7369 7.65362 14.6667 7.82319 14.6667 8C14.6721 9.55018 14.1389 11.0541 13.1583 12.2548C12.1778 13.4554 10.8106 14.2782 9.29059 14.5825C7.77057 14.8869 6.19203 14.6538 4.82479 13.9232C3.45755 13.1927 2.38649 12.0099 1.79469 10.5771C1.20288 9.14433 1.12707 7.55049 1.58021 6.06801C2.03335 4.58552 2.98731 3.30644 4.27903 2.44938C5.57075 1.59232 7.12005 1.2105 8.66209 1.36918C10.2041 1.52786 11.6432 2.21718 12.7333 3.31933C12.7114 3.32531 12.6891 3.32999 12.6667 3.33333H10.6667C10.4899 3.33333 10.3203 3.40357 10.1953 3.5286C10.0702 3.65362 10 3.82319 10 4C10 4.17681 10.0702 4.34638 10.1953 4.4714C10.3203 4.59643 10.4899 4.66667 10.6667 4.66667H12.6667C13.1971 4.66667 13.7058 4.45595 14.0809 4.08088C14.456 3.70581 14.6667 3.1971 14.6667 2.66667V0.666667C14.6667 0.489856 14.5964 0.320286 14.4714 0.195262C14.3464 0.0702379 14.1768 0 14 0C13.8232 0 13.6536 0.0702379 13.5286 0.195262C13.4036 0.320286 13.3333 0.489856 13.3333 0.666667V2.04333C11.9684 0.82302 10.2259 0.108111 8.39723 0.0180684C6.56852 -0.0719742 4.7643 0.468305 3.28605 1.54862C1.80781 2.62894 0.745088 4.18386 0.275482 5.95354C-0.194124 7.72322 -0.0421722 9.60046 0.705947 11.2716C1.45407 12.9427 2.75303 14.3064 4.38579 15.1349C6.01854 15.9634 7.88617 16.2065 9.67659 15.8235C11.467 15.4405 13.0718 14.4547 14.2227 13.0307C15.3736 11.6067 16.001 9.83093 16 8C16 7.82319 15.9298 7.65362 15.8047 7.5286C15.6797 7.40357 15.5101 7.33333 15.3333 7.33333Z" fill="#7C7B88"/>
<path d="M14.6667 8H-6.66667V8.03728L-6.66654 8.07456L14.6667 8ZM12.7333 3.31933L18.3474 23.9007L53.5879 14.288L27.9008 -11.6826L12.7333 3.31933ZM12.6667 3.33333V24.6667H14.2449L15.8059 24.4344L12.6667 3.33333ZM12.6667 4.66667L12.6667 26L12.6667 4.66667ZM14.6667 2.66667H36H14.6667ZM14 0L14 -21.3333L14 0ZM13.3333 2.04333L-0.885332 17.9474L34.6667 49.7318V2.04333H13.3333ZM16 8L-5.33334 8L-5.33333 8.01172L16 8ZM15.3333 -14C9.49857 -14 3.90278 -11.6822 -0.22302 -7.55635L29.9469 22.6135C26.0711 26.4893 20.8145 28.6667 15.3333 28.6667V-14ZM-0.22302 -7.55635C-4.34885 -3.43052 -6.66667 2.16528 -6.66667 8H36C36 13.4811 33.8227 18.7378 29.9469 22.6135L-0.22302 -7.55635ZM-6.66654 8.07456C-6.6784 4.68097 -5.51126 1.3886 -3.3646 -1.2398L29.6813 25.7493C33.7891 20.7196 36.0226 14.4194 35.9999 7.92545L-6.66654 8.07456ZM-3.3646 -1.2398C-1.21795 -3.86819 1.77495 -5.66944 5.10253 -6.33566L13.4787 35.5007C19.8463 34.2259 25.5735 30.779 29.6813 25.7493L-3.3646 -1.2398ZM5.10253 -6.33566C8.43012 -7.00188 11.8858 -6.4917 14.8789 -4.89235L-5.2293 32.7388C0.498272 35.7994 7.11101 36.7756 13.4787 35.5007L5.10253 -6.33566ZM14.8789 -4.89235C17.872 -3.29299 20.2167 -0.703738 21.5122 2.43285L-17.9229 18.7214C-15.4437 24.7235 -10.9569 29.6783 -5.2293 32.7388L14.8789 -4.89235ZM21.5122 2.43285C22.8078 5.56943 22.9738 9.05861 21.9818 12.304L-18.8213 -0.167985C-20.7196 6.04237 -20.402 12.7192 -17.9229 18.7214L21.5122 2.43285ZM21.9818 12.304C20.9898 15.5494 18.9014 18.3495 16.0736 20.2257L-7.51556 -15.327C-12.9268 -11.7366 -16.9231 -6.37834 -18.8213 -0.167985L21.9818 12.304ZM16.0736 20.2257C13.2458 22.102 9.8542 22.9378 6.47841 22.5905L10.8458 -19.8521C4.38589 -20.5168 -2.10433 -18.9173 -7.51556 -15.327L16.0736 20.2257ZM6.47841 22.5905C3.10262 22.2431 -0.0477305 20.734 -2.43417 18.3213L27.9008 -11.6826C23.3342 -16.2997 17.3057 -19.1874 10.8458 -19.8521L6.47841 22.5905ZM7.11924 -17.262C7.91133 -17.4781 8.71548 -17.647 9.52744 -17.7678L15.8059 24.4344C16.6628 24.3069 17.5115 24.1287 18.3474 23.9007L7.11924 -17.262ZM12.6667 -18H10.6667V24.6667H12.6667V-18ZM10.6667 -18C4.83189 -18 -0.763896 -15.6821 -4.88969 -11.5563L25.2802 18.6135C21.4045 22.4893 16.1478 24.6667 10.6667 24.6667V-18ZM-4.88969 -11.5563C-9.01547 -7.43056 -11.3333 -1.83478 -11.3333 4H31.3333C31.3333 9.48116 29.1559 14.7378 25.2802 18.6135L-4.88969 -11.5563ZM-11.3333 4C-11.3333 9.83478 -9.01547 15.4306 -4.88969 19.5563L25.2802 -10.6135C29.1559 -6.7378 31.3333 -1.48115 31.3333 4H-11.3333ZM-4.88969 19.5563C-0.763896 23.6821 4.83189 26 10.6667 26V-16.6667C16.1478 -16.6667 21.4045 -14.4893 25.2802 -10.6135L-4.88969 19.5563ZM10.6667 26H12.6667V-16.6667H10.6667V26ZM12.6667 26C18.855 26 24.79 23.5417 29.1658 19.1658L-1.00407 -11.0041C2.62164 -14.6298 7.53915 -16.6667 12.6667 -16.6667L12.6667 26ZM29.1658 19.1658C33.5417 14.79 36 8.85504 36 2.66667L-6.66667 2.66667C-6.66667 -2.46084 -4.62978 -7.37836 -1.00407 -11.0041L29.1658 19.1658ZM36 2.66667V0.666667H-6.66667V2.66667H36ZM36 0.666667C36 -5.16805 33.6822 -10.7639 29.5563 -14.8897L-0.613544 15.2802C-4.48932 11.4044 -6.66667 6.14777 -6.66667 0.666667H36ZM29.5563 -14.8897C25.4305 -19.0155 19.8347 -21.3333 14 -21.3333L14 21.3333C8.51887 21.3333 3.26222 19.156 -0.613544 15.2802L29.5563 -14.8897ZM14 -21.3333C8.16525 -21.3333 2.56946 -19.0155 -1.55635 -14.8897L28.6135 15.2802C24.7378 19.156 19.4811 21.3333 14 21.3333L14 -21.3333ZM-1.55635 -14.8897C-5.68218 -10.7639 -8 -5.16805 -8 0.666667H34.6667C34.6667 6.14777 32.4893 11.4044 28.6135 15.2802L-1.55635 -14.8897ZM-8 0.666667V2.04333H34.6667V0.666667H-8ZM27.552 -13.8608C22.5453 -18.3369 16.1541 -20.9592 9.44638 -21.2895L7.34809 21.3256C4.29779 21.1754 1.39143 19.9829 -0.885332 17.9474L27.552 -13.8608ZM9.44638 -21.2895C2.73866 -21.6197 -3.87924 -19.638 -9.30144 -15.6754L15.8735 18.7726C13.4078 20.5746 10.3984 21.4758 7.34809 21.3256L9.44638 -21.2895ZM-9.30144 -15.6754C-14.7236 -11.7128 -18.6217 -6.00934 -20.3442 0.481847L20.8952 11.4252C20.1119 14.3771 18.3393 16.9706 15.8735 18.7726L-9.30144 -15.6754ZM-20.3442 0.481847C-22.0667 6.97304 -21.5094 13.8588 -18.7653 19.9884L20.1772 2.55474C21.425 5.34216 21.6785 8.4734 20.8952 11.4252L-20.3442 0.481847ZM-18.7653 19.9884C-16.0212 26.118 -11.2566 31.1203 -5.26761 34.1592L14.0392 -3.88934C16.7626 -2.5074 18.9293 -0.23267 20.1772 2.55474L-18.7653 19.9884ZM-5.26761 34.1592C0.721337 37.1981 7.57181 38.0897 14.1391 36.6849L5.21411 -5.03788C8.20053 -5.67671 11.3157 -5.27129 14.0392 -3.88934L-5.26761 34.1592ZM14.1391 36.6849C20.7064 35.2801 26.5926 31.664 30.8142 26.4409L-2.3688 -0.379494C-0.449049 -2.75466 2.22768 -4.39905 5.21411 -5.03788L14.1391 36.6849ZM30.8142 26.4409C35.0358 21.2178 37.337 14.7041 37.3333 7.98828L-5.33333 8.01172C-5.33501 4.95773 -4.28854 1.99567 -2.3688 -0.379494L30.8142 26.4409ZM37.3333 8C37.3333 2.16528 35.0155 -3.43052 30.8897 -7.55635L0.71979 22.6135C-3.15599 18.7378 -5.33334 13.4811 -5.33334 8H37.3333ZM30.8897 -7.55635C26.7639 -11.6822 21.1681 -14 15.3333 -14V28.6667C9.8522 28.6667 4.59555 26.4893 0.71979 22.6135L30.8897 -7.55635Z" fill="#7C7B88" mask="url(#path-1-inside-1_23_3054)"/>
<mask id="path-3-inside-2_23_3054" fill="white">
<path d="M8.0001 4C7.82329 4 7.65372 4.07024 7.5287 4.19526C7.40367 4.32029 7.33344 4.48986 7.33344 4.66667V8C7.33347 8.1768 7.40374 8.34634 7.52877 8.47133L9.52877 10.4713C9.6545 10.5928 9.8229 10.66 9.9977 10.6584C10.1725 10.6569 10.3397 10.5868 10.4633 10.4632C10.5869 10.3396 10.657 10.1724 10.6586 9.9976C10.6601 9.8228 10.5929 9.6544 10.4714 9.52867L8.66677 7.724V4.66667C8.66677 4.48986 8.59653 4.32029 8.47151 4.19526C8.34648 4.07024 8.17691 4 8.0001 4V4Z"/>
</mask>
<path d="M8.0001 4C7.82329 4 7.65372 4.07024 7.5287 4.19526C7.40367 4.32029 7.33344 4.48986 7.33344 4.66667V8C7.33347 8.1768 7.40374 8.34634 7.52877 8.47133L9.52877 10.4713C9.6545 10.5928 9.8229 10.66 9.9977 10.6584C10.1725 10.6569 10.3397 10.5868 10.4633 10.4632C10.5869 10.3396 10.657 10.1724 10.6586 9.9976C10.6601 9.8228 10.5929 9.6544 10.4714 9.52867L8.66677 7.724V4.66667C8.66677 4.48986 8.59653 4.32029 8.47151 4.19526C8.34648 4.07024 8.17691 4 8.0001 4V4Z" fill="#7C7B88"/>
<path d="M7.33344 8L-13.9999 8L-13.9999 8.00456L7.33344 8ZM7.52877 8.47133L22.6137 -6.61361L22.6114 -6.61589L7.52877 8.47133ZM9.52877 10.4713L-5.55618 25.5563L-5.42509 25.6874L-5.29175 25.8161L9.52877 10.4713ZM10.4714 9.52867L25.8163 -5.29185L25.6875 -5.42519L25.5564 -5.55628L10.4714 9.52867ZM8.66677 7.724H-12.6666V16.5606L-6.41818 22.8089L8.66677 7.724ZM8.0001 -17.3333C2.16532 -17.3333 -3.43046 -15.0155 -7.55625 -10.8897L22.6136 19.2802C18.7379 23.1559 13.4813 25.3333 8.0001 25.3333V-17.3333ZM-7.55625 -10.8897C-11.682 -6.76389 -13.9999 -1.16811 -13.9999 4.66667H28.6668C28.6668 10.1478 26.4894 15.4045 22.6136 19.2802L-7.55625 -10.8897ZM-13.9999 4.66667V8H28.6668V4.66667H-13.9999ZM-13.9999 8.00456C-13.9987 13.8389 -11.68 19.4337 -7.5539 23.5586L22.6114 -6.61589C26.4874 -2.74105 28.6656 2.51473 28.6668 7.99544L-13.9999 8.00456ZM-7.55618 23.5563L-5.55618 25.5563L24.6137 -4.61361L22.6137 -6.61361L-7.55618 23.5563ZM-5.29175 25.8161C-1.14251 29.8236 4.41474 32.0411 10.1831 31.991L9.81233 -10.6741C15.2311 -10.7212 20.4515 -8.63807 24.3493 -4.87348L-5.29175 25.8161ZM10.1831 31.991C15.9514 31.9409 21.4693 29.6271 25.5483 25.5482L-4.62163 -4.62173C-0.789853 -8.45351 4.39361 -10.627 9.81233 -10.6741L10.1831 31.991ZM25.5483 25.5482C29.6273 21.4692 31.941 15.9513 31.9911 10.183L-10.674 9.81223C-10.6269 4.39351 -8.45341 -0.789951 -4.62163 -4.62173L25.5483 25.5482ZM31.9911 10.183C32.0412 4.41464 29.8237 -1.14261 25.8163 -5.29185L-4.87338 24.3492C-8.63798 20.4514 -10.7211 15.231 -10.674 9.81223L31.9911 10.183ZM25.5564 -5.55628L23.7517 -7.36094L-6.41818 22.8089L-4.61351 24.6136L25.5564 -5.55628ZM30.0001 7.724V4.66667H-12.6666V7.724H30.0001ZM30.0001 4.66667C30.0001 -1.16811 27.6822 -6.76389 23.5565 -10.8897L-6.61344 19.2802C-10.4892 15.4045 -12.6666 10.1478 -12.6666 4.66667H30.0001ZM23.5565 -10.8897C19.4307 -15.0155 13.8349 -17.3333 8.0001 -17.3333V25.3333C2.51894 25.3333 -2.7377 23.1559 -6.61344 19.2802L23.5565 -10.8897Z" fill="#7C7B88" mask="url(#path-3-inside-2_23_3054)"/>
</g>
<defs>
<clipPath id="clip0_23_3054">
<rect width="16" height="16" fill="white"/>
</clipPath>
</defs>
</svg>
