<svg width="16" height="16" viewBox="0 0 16 16" fill="none" xmlns="http://www.w3.org/2000/svg">
<g id="fi-rr-time-quarter-past" clip-path="url(#clip0_5527_220)">
<g id="Vector">
<mask id="path-1-inside-1_5527_220" fill="white">
<path d="M16 8C16 8.17681 15.9298 8.34638 15.8047 8.47141C15.6797 8.59643 15.5101 8.66667 15.3333 8.66667C15.1565 8.66667 14.987 8.59643 14.8619 8.47141C14.7369 8.34638 14.6667 8.17681 14.6667 8C14.6647 6.23249 13.9617 4.53792 12.7119 3.2881C11.4621 2.03828 9.76751 1.33527 8 1.33333C7.82319 1.33333 7.65362 1.2631 7.5286 1.13807C7.40357 1.01305 7.33333 0.843478 7.33333 0.666667C7.33333 0.489856 7.40357 0.320286 7.5286 0.195262C7.65362 0.0702379 7.82319 0 8 0C10.121 0.00229405 12.1545 0.845885 13.6543 2.34568C15.1541 3.84547 15.9977 5.87897 16 8ZM10.6667 8.66667C10.8435 8.66667 11.013 8.59643 11.1381 8.47141C11.2631 8.34638 11.3333 8.17681 11.3333 8C11.3333 7.82319 11.2631 7.65362 11.1381 7.5286C11.013 7.40357 10.8435 7.33333 10.6667 7.33333H9.14867C9.03248 7.13362 8.86638 6.96752 8.66667 6.85133V4.66667C8.66667 4.48986 8.59643 4.32029 8.47141 4.19526C8.34638 4.07024 8.17681 4 8 4C7.82319 4 7.65362 4.07024 7.5286 4.19526C7.40357 4.32029 7.33333 4.48986 7.33333 4.66667V6.85133C7.15652 6.95314 7.00551 7.09429 6.892 7.26384C6.7785 7.43339 6.70555 7.62679 6.6788 7.82906C6.65205 8.03134 6.67222 8.23705 6.73774 8.43028C6.80327 8.6235 6.9124 8.79905 7.05667 8.94333C7.20095 9.0876 7.3765 9.19673 7.56972 9.26226C7.76295 9.32778 7.96866 9.34795 8.17094 9.32121C8.37321 9.29445 8.56661 9.2215 8.73616 9.108C8.90571 8.99449 9.04686 8.84348 9.14867 8.66667H10.6667ZM1.218 4.52267C1.08615 4.52267 0.957253 4.56177 0.84762 4.63502C0.737987 4.70827 0.652539 4.81239 0.602081 4.93421C0.551622 5.05603 0.53842 5.19007 0.564143 5.31939C0.589867 5.44871 0.653361 5.5675 0.746596 5.66074C0.839831 5.75397 0.958619 5.81747 1.08794 5.84319C1.21726 5.86891 1.35131 5.85571 1.47312 5.80525C1.59494 5.75479 1.69906 5.66935 1.77231 5.55971C1.84557 5.45008 1.88467 5.32119 1.88467 5.18933C1.88467 5.01252 1.81443 4.84295 1.6894 4.71793C1.56438 4.5929 1.39481 4.52267 1.218 4.52267ZM1.33333 8C1.33333 7.86815 1.29423 7.73925 1.22098 7.62962C1.14773 7.51999 1.04361 7.43454 0.921789 7.38408C0.799972 7.33362 0.665927 7.32042 0.536607 7.34614C0.407286 7.37187 0.288497 7.43536 0.195262 7.5286C0.102027 7.62183 0.0385336 7.74062 0.0128101 7.86994C-0.0129134 7.99926 0.000288854 8.13331 0.0507473 8.25512C0.101206 8.37694 0.186654 8.48106 0.296287 8.55431C0.40592 8.62757 0.534813 8.66667 0.666667 8.66667C0.843478 8.66667 1.01305 8.59643 1.13807 8.47141C1.2631 8.34638 1.33333 8.17681 1.33333 8ZM8 14.6667C7.86815 14.6667 7.73925 14.7058 7.62962 14.779C7.51999 14.8523 7.43454 14.9564 7.38408 15.0782C7.33362 15.2 7.32042 15.3341 7.34614 15.4634C7.37187 15.5927 7.43536 15.7115 7.5286 15.8047C7.62183 15.898 7.74062 15.9615 7.86994 15.9872C7.99926 16.0129 8.13331 15.9997 8.25512 15.9493C8.37694 15.8988 8.48106 15.8133 8.55431 15.7037C8.62757 15.5941 8.66667 15.4652 8.66667 15.3333C8.66667 15.1565 8.59643 14.987 8.47141 14.8619C8.34638 14.7369 8.17681 14.6667 8 14.6667ZM2.814 2.138C2.68215 2.138 2.55325 2.1771 2.44362 2.25035C2.33399 2.32361 2.24854 2.42773 2.19808 2.54954C2.14762 2.67136 2.13442 2.80541 2.16014 2.93473C2.18587 3.06405 2.24936 3.18284 2.3426 3.27607C2.43583 3.36931 2.55462 3.4328 2.68394 3.45852C2.81326 3.48425 2.94731 3.47104 3.06912 3.42059C3.19094 3.37013 3.29506 3.28468 3.36831 3.17505C3.44157 3.06541 3.48067 2.93652 3.48067 2.80467C3.48067 2.62786 3.41043 2.45829 3.2854 2.33326C3.16038 2.20824 2.99081 2.138 2.814 2.138ZM5.186 0.560667C5.05415 0.560667 4.92525 0.599766 4.81562 0.67302C4.70599 0.746275 4.62054 0.850394 4.57008 0.972211C4.51962 1.09403 4.50642 1.22807 4.53214 1.35739C4.55787 1.48671 4.62136 1.6055 4.7146 1.69874C4.80783 1.79197 4.92662 1.85547 5.05594 1.88119C5.18526 1.90691 5.3193 1.89371 5.44112 1.84325C5.56294 1.79279 5.66706 1.70735 5.74031 1.59771C5.81357 1.48808 5.85267 1.35919 5.85267 1.22733C5.85267 1.05052 5.78243 0.880953 5.6574 0.755929C5.53238 0.630905 5.36281 0.560667 5.186 0.560667ZM1.218 10.144C1.08615 10.144 0.957253 10.1831 0.84762 10.2564C0.737987 10.3296 0.652539 10.4337 0.602081 10.5555C0.551622 10.6774 0.53842 10.8114 0.564143 10.9407C0.589867 11.07 0.653361 11.1888 0.746596 11.2821C0.839831 11.3753 0.958619 11.4388 1.08794 11.4645C1.21726 11.4902 1.35131 11.477 1.47312 11.4266C1.59494 11.3761 1.69906 11.2907 1.77231 11.181C1.84557 11.0714 1.88467 10.9425 1.88467 10.8107C1.88467 10.6339 1.81443 10.4643 1.6894 10.3393C1.56438 10.2142 1.39481 10.144 1.218 10.144ZM2.814 12.5287C2.68215 12.5287 2.55325 12.5678 2.44362 12.641C2.33399 12.7143 2.24854 12.8184 2.19808 12.9402C2.14762 13.062 2.13442 13.1961 2.16014 13.3254C2.18587 13.4547 2.24936 13.5735 2.3426 13.6667C2.43583 13.76 2.55462 13.8235 2.68394 13.8492C2.81326 13.8749 2.94731 13.8617 3.06912 13.8113C3.19094 13.7608 3.29506 13.6753 3.36831 13.5657C3.44157 13.4561 3.48067 13.3272 3.48067 13.1953C3.48067 13.0185 3.41043 12.849 3.2854 12.7239C3.16038 12.5989 2.99081 12.5287 2.814 12.5287ZM5.186 14.106C5.05415 14.106 4.92525 14.1451 4.81562 14.2184C4.70599 14.2916 4.62054 14.3957 4.57008 14.5175C4.51962 14.6394 4.50642 14.7734 4.53214 14.9027C4.55787 15.032 4.62136 15.1508 4.7146 15.2441C4.80783 15.3373 4.92662 15.4008 5.05594 15.4265C5.18526 15.4522 5.3193 15.439 5.44112 15.3886C5.56294 15.3381 5.66706 15.2527 5.74031 15.143C5.81357 15.0334 5.85267 14.9045 5.85267 14.7727C5.85267 14.5959 5.78243 14.4263 5.6574 14.3013C5.53238 14.1762 5.36281 14.106 5.186 14.106ZM14.782 10.144C14.6501 10.144 14.5213 10.1831 14.4116 10.2564C14.302 10.3296 14.2165 10.4337 14.1661 10.5555C14.1156 10.6774 14.1024 10.8114 14.1281 10.9407C14.1539 11.07 14.2174 11.1888 14.3106 11.2821C14.4038 11.3753 14.5226 11.4388 14.6519 11.4645C14.7813 11.4902 14.9153 11.477 15.0371 11.4266C15.1589 11.3761 15.2631 11.2907 15.3363 11.181C15.4096 11.0714 15.4487 10.9425 15.4487 10.8107C15.4487 10.6339 15.3784 10.4643 15.2534 10.3393C15.1284 10.2142 14.9588 10.144 14.782 10.144ZM13.186 12.5287C13.0541 12.5287 12.9253 12.5678 12.8156 12.641C12.706 12.7143 12.6205 12.8184 12.5701 12.9402C12.5196 13.062 12.5064 13.1961 12.5321 13.3254C12.5579 13.4547 12.6214 13.5735 12.7146 13.6667C12.8078 13.76 12.9266 13.8235 13.0559 13.8492C13.1853 13.8749 13.3193 13.8617 13.4411 13.8113C13.5629 13.7608 13.6671 13.6753 13.7403 13.5657C13.8136 13.4561 13.8527 13.3272 13.8527 13.1953C13.8527 13.0185 13.7824 12.849 13.6574 12.7239C13.5324 12.5989 13.3628 12.5287 13.186 12.5287ZM10.814 14.106C10.6821 14.106 10.5533 14.1451 10.4436 14.2184C10.334 14.2916 10.2485 14.3957 10.1981 14.5175C10.1476 14.6394 10.1344 14.7734 10.1601 14.9027C10.1859 15.032 10.2494 15.1508 10.3426 15.2441C10.4358 15.3373 10.5546 15.4008 10.6839 15.4265C10.8133 15.4522 10.9473 15.439 11.0691 15.3886C11.1909 15.3381 11.2951 15.2527 11.3683 15.143C11.4416 15.0334 11.4807 14.9045 11.4807 14.7727C11.4807 14.5959 11.4104 14.4263 11.2854 14.3013C11.1604 14.1762 10.9908 14.106 10.814 14.106Z"/>
</mask>
<path d="M16 8C16 8.17681 15.9298 8.34638 15.8047 8.47141C15.6797 8.59643 15.5101 8.66667 15.3333 8.66667C15.1565 8.66667 14.987 8.59643 14.8619 8.47141C14.7369 8.34638 14.6667 8.17681 14.6667 8C14.6647 6.23249 13.9617 4.53792 12.7119 3.2881C11.4621 2.03828 9.76751 1.33527 8 1.33333C7.82319 1.33333 7.65362 1.2631 7.5286 1.13807C7.40357 1.01305 7.33333 0.843478 7.33333 0.666667C7.33333 0.489856 7.40357 0.320286 7.5286 0.195262C7.65362 0.0702379 7.82319 0 8 0C10.121 0.00229405 12.1545 0.845885 13.6543 2.34568C15.1541 3.84547 15.9977 5.87897 16 8ZM10.6667 8.66667C10.8435 8.66667 11.013 8.59643 11.1381 8.47141C11.2631 8.34638 11.3333 8.17681 11.3333 8C11.3333 7.82319 11.2631 7.65362 11.1381 7.5286C11.013 7.40357 10.8435 7.33333 10.6667 7.33333H9.14867C9.03248 7.13362 8.86638 6.96752 8.66667 6.85133V4.66667C8.66667 4.48986 8.59643 4.32029 8.47141 4.19526C8.34638 4.07024 8.17681 4 8 4C7.82319 4 7.65362 4.07024 7.5286 4.19526C7.40357 4.32029 7.33333 4.48986 7.33333 4.66667V6.85133C7.15652 6.95314 7.00551 7.09429 6.892 7.26384C6.7785 7.43339 6.70555 7.62679 6.6788 7.82906C6.65205 8.03134 6.67222 8.23705 6.73774 8.43028C6.80327 8.6235 6.9124 8.79905 7.05667 8.94333C7.20095 9.0876 7.3765 9.19673 7.56972 9.26226C7.76295 9.32778 7.96866 9.34795 8.17094 9.32121C8.37321 9.29445 8.56661 9.2215 8.73616 9.108C8.90571 8.99449 9.04686 8.84348 9.14867 8.66667H10.6667ZM1.218 4.52267C1.08615 4.52267 0.957253 4.56177 0.84762 4.63502C0.737987 4.70827 0.652539 4.81239 0.602081 4.93421C0.551622 5.05603 0.53842 5.19007 0.564143 5.31939C0.589867 5.44871 0.653361 5.5675 0.746596 5.66074C0.839831 5.75397 0.958619 5.81747 1.08794 5.84319C1.21726 5.86891 1.35131 5.85571 1.47312 5.80525C1.59494 5.75479 1.69906 5.66935 1.77231 5.55971C1.84557 5.45008 1.88467 5.32119 1.88467 5.18933C1.88467 5.01252 1.81443 4.84295 1.6894 4.71793C1.56438 4.5929 1.39481 4.52267 1.218 4.52267ZM1.33333 8C1.33333 7.86815 1.29423 7.73925 1.22098 7.62962C1.14773 7.51999 1.04361 7.43454 0.921789 7.38408C0.799972 7.33362 0.665927 7.32042 0.536607 7.34614C0.407286 7.37187 0.288497 7.43536 0.195262 7.5286C0.102027 7.62183 0.0385336 7.74062 0.0128101 7.86994C-0.0129134 7.99926 0.000288854 8.13331 0.0507473 8.25512C0.101206 8.37694 0.186654 8.48106 0.296287 8.55431C0.40592 8.62757 0.534813 8.66667 0.666667 8.66667C0.843478 8.66667 1.01305 8.59643 1.13807 8.47141C1.2631 8.34638 1.33333 8.17681 1.33333 8ZM8 14.6667C7.86815 14.6667 7.73925 14.7058 7.62962 14.779C7.51999 14.8523 7.43454 14.9564 7.38408 15.0782C7.33362 15.2 7.32042 15.3341 7.34614 15.4634C7.37187 15.5927 7.43536 15.7115 7.5286 15.8047C7.62183 15.898 7.74062 15.9615 7.86994 15.9872C7.99926 16.0129 8.13331 15.9997 8.25512 15.9493C8.37694 15.8988 8.48106 15.8133 8.55431 15.7037C8.62757 15.5941 8.66667 15.4652 8.66667 15.3333C8.66667 15.1565 8.59643 14.987 8.47141 14.8619C8.34638 14.7369 8.17681 14.6667 8 14.6667ZM2.814 2.138C2.68215 2.138 2.55325 2.1771 2.44362 2.25035C2.33399 2.32361 2.24854 2.42773 2.19808 2.54954C2.14762 2.67136 2.13442 2.80541 2.16014 2.93473C2.18587 3.06405 2.24936 3.18284 2.3426 3.27607C2.43583 3.36931 2.55462 3.4328 2.68394 3.45852C2.81326 3.48425 2.94731 3.47104 3.06912 3.42059C3.19094 3.37013 3.29506 3.28468 3.36831 3.17505C3.44157 3.06541 3.48067 2.93652 3.48067 2.80467C3.48067 2.62786 3.41043 2.45829 3.2854 2.33326C3.16038 2.20824 2.99081 2.138 2.814 2.138ZM5.186 0.560667C5.05415 0.560667 4.92525 0.599766 4.81562 0.67302C4.70599 0.746275 4.62054 0.850394 4.57008 0.972211C4.51962 1.09403 4.50642 1.22807 4.53214 1.35739C4.55787 1.48671 4.62136 1.6055 4.7146 1.69874C4.80783 1.79197 4.92662 1.85547 5.05594 1.88119C5.18526 1.90691 5.3193 1.89371 5.44112 1.84325C5.56294 1.79279 5.66706 1.70735 5.74031 1.59771C5.81357 1.48808 5.85267 1.35919 5.85267 1.22733C5.85267 1.05052 5.78243 0.880953 5.6574 0.755929C5.53238 0.630905 5.36281 0.560667 5.186 0.560667ZM1.218 10.144C1.08615 10.144 0.957253 10.1831 0.84762 10.2564C0.737987 10.3296 0.652539 10.4337 0.602081 10.5555C0.551622 10.6774 0.53842 10.8114 0.564143 10.9407C0.589867 11.07 0.653361 11.1888 0.746596 11.2821C0.839831 11.3753 0.958619 11.4388 1.08794 11.4645C1.21726 11.4902 1.35131 11.477 1.47312 11.4266C1.59494 11.3761 1.69906 11.2907 1.77231 11.181C1.84557 11.0714 1.88467 10.9425 1.88467 10.8107C1.88467 10.6339 1.81443 10.4643 1.6894 10.3393C1.56438 10.2142 1.39481 10.144 1.218 10.144ZM2.814 12.5287C2.68215 12.5287 2.55325 12.5678 2.44362 12.641C2.33399 12.7143 2.24854 12.8184 2.19808 12.9402C2.14762 13.062 2.13442 13.1961 2.16014 13.3254C2.18587 13.4547 2.24936 13.5735 2.3426 13.6667C2.43583 13.76 2.55462 13.8235 2.68394 13.8492C2.81326 13.8749 2.94731 13.8617 3.06912 13.8113C3.19094 13.7608 3.29506 13.6753 3.36831 13.5657C3.44157 13.4561 3.48067 13.3272 3.48067 13.1953C3.48067 13.0185 3.41043 12.849 3.2854 12.7239C3.16038 12.5989 2.99081 12.5287 2.814 12.5287ZM5.186 14.106C5.05415 14.106 4.92525 14.1451 4.81562 14.2184C4.70599 14.2916 4.62054 14.3957 4.57008 14.5175C4.51962 14.6394 4.50642 14.7734 4.53214 14.9027C4.55787 15.032 4.62136 15.1508 4.7146 15.2441C4.80783 15.3373 4.92662 15.4008 5.05594 15.4265C5.18526 15.4522 5.3193 15.439 5.44112 15.3886C5.56294 15.3381 5.66706 15.2527 5.74031 15.143C5.81357 15.0334 5.85267 14.9045 5.85267 14.7727C5.85267 14.5959 5.78243 14.4263 5.6574 14.3013C5.53238 14.1762 5.36281 14.106 5.186 14.106ZM14.782 10.144C14.6501 10.144 14.5213 10.1831 14.4116 10.2564C14.302 10.3296 14.2165 10.4337 14.1661 10.5555C14.1156 10.6774 14.1024 10.8114 14.1281 10.9407C14.1539 11.07 14.2174 11.1888 14.3106 11.2821C14.4038 11.3753 14.5226 11.4388 14.6519 11.4645C14.7813 11.4902 14.9153 11.477 15.0371 11.4266C15.1589 11.3761 15.2631 11.2907 15.3363 11.181C15.4096 11.0714 15.4487 10.9425 15.4487 10.8107C15.4487 10.6339 15.3784 10.4643 15.2534 10.3393C15.1284 10.2142 14.9588 10.144 14.782 10.144ZM13.186 12.5287C13.0541 12.5287 12.9253 12.5678 12.8156 12.641C12.706 12.7143 12.6205 12.8184 12.5701 12.9402C12.5196 13.062 12.5064 13.1961 12.5321 13.3254C12.5579 13.4547 12.6214 13.5735 12.7146 13.6667C12.8078 13.76 12.9266 13.8235 13.0559 13.8492C13.1853 13.8749 13.3193 13.8617 13.4411 13.8113C13.5629 13.7608 13.6671 13.6753 13.7403 13.5657C13.8136 13.4561 13.8527 13.3272 13.8527 13.1953C13.8527 13.0185 13.7824 12.849 13.6574 12.7239C13.5324 12.5989 13.3628 12.5287 13.186 12.5287ZM10.814 14.106C10.6821 14.106 10.5533 14.1451 10.4436 14.2184C10.334 14.2916 10.2485 14.3957 10.1981 14.5175C10.1476 14.6394 10.1344 14.7734 10.1601 14.9027C10.1859 15.032 10.2494 15.1508 10.3426 15.2441C10.4358 15.3373 10.5546 15.4008 10.6839 15.4265C10.8133 15.4522 10.9473 15.439 11.0691 15.3886C11.1909 15.3381 11.2951 15.2527 11.3683 15.143C11.4416 15.0334 11.4807 14.9045 11.4807 14.7727C11.4807 14.5959 11.4104 14.4263 11.2854 14.3013C11.1604 14.1762 10.9908 14.106 10.814 14.106Z" fill="#6F727A" stroke="#6F727A" stroke-width="42.6667" mask="url(#path-1-inside-1_5527_220)"/>
</g>
</g>
<defs>
<clipPath id="clip0_5527_220">
<rect width="16" height="16" fill="white"/>
</clipPath>
</defs>
</svg>
