<svg width="16" height="16" viewBox="0 0 16 16" fill="none" xmlns="http://www.w3.org/2000/svg">
<g id="fi-rr-user-time" clip-path="url(#clip0_5527_619)">
<g id="Vector">
<mask id="path-1-inside-1_5527_619" fill="white">
<path d="M11.3334 16C10.4105 16 9.50821 15.7263 8.74078 15.2135C7.97335 14.7007 7.37521 13.9719 7.022 13.1192C6.66879 12.2665 6.57638 11.3282 6.75644 10.4229C6.93651 9.51767 7.38096 8.68615 8.03361 8.03351C8.68625 7.38086 9.51777 6.9364 10.423 6.75634C11.3283 6.57627 12.2666 6.66869 13.1193 7.0219C13.972 7.37511 14.7009 7.97325 15.2136 8.74068C15.7264 9.50811 16.0001 10.4104 16.0001 11.3333C15.9987 12.5706 15.5066 13.7567 14.6317 14.6316C13.7568 15.5065 12.5707 15.9986 11.3334 16ZM11.3334 8C10.6742 8 10.0297 8.1955 9.48154 8.56177C8.93338 8.92804 8.50613 9.44864 8.25384 10.0577C8.00155 10.6668 7.93554 11.337 8.06416 11.9836C8.19277 12.6302 8.51024 13.2242 8.97642 13.6904C9.44259 14.1565 10.0365 14.474 10.6831 14.6026C11.3297 14.7312 12 14.6652 12.6091 14.4129C13.2181 14.1606 13.7387 13.7334 14.105 13.1852C14.4713 12.6371 14.6668 11.9926 14.6668 11.3333C14.6657 10.4496 14.3142 9.60238 13.6893 8.97748C13.0644 8.35259 12.2172 8.00106 11.3334 8ZM12.4714 12.4713C12.5964 12.3463 12.6666 12.1768 12.6666 12C12.6666 11.8232 12.5964 11.6537 12.4714 11.5287L12.0001 11.0573V10C12.0001 9.82319 11.9299 9.65362 11.8048 9.5286C11.6798 9.40357 11.5103 9.33334 11.3334 9.33334C11.1566 9.33334 10.9871 9.40357 10.862 9.5286C10.737 9.65362 10.6668 9.82319 10.6668 10V11.3333C10.6668 11.5101 10.7371 11.6797 10.8621 11.8047L11.5288 12.4713C11.6538 12.5963 11.8233 12.6665 12.0001 12.6665C12.1769 12.6665 12.3464 12.5963 12.4714 12.4713ZM1.33344 15.3333C1.33512 14.1084 1.74323 12.9186 2.49377 11.9506C3.24432 10.9825 4.29488 10.2908 5.48077 9.984C5.56622 9.96465 5.64702 9.92867 5.71856 9.87809C5.7901 9.82752 5.85097 9.76335 5.89771 9.68925C5.94445 9.61515 5.97614 9.53256 5.99096 9.44622C6.00578 9.35987 6.00346 9.27145 5.98411 9.186C5.96476 9.10056 5.92877 9.01976 5.8782 8.94822C5.82762 8.87668 5.76345 8.8158 5.68935 8.76907C5.61525 8.72233 5.53267 8.69064 5.44632 8.67582C5.35997 8.66099 5.27155 8.66332 5.18611 8.68267C3.70013 9.04729 2.38028 9.90181 1.43942 11.1084C0.49856 12.315 -0.00846842 13.8033 0.000107016 15.3333C0.000107016 15.5101 0.0703449 15.6797 0.195369 15.8047C0.320393 15.9298 0.489963 16 0.666774 16C0.843585 16 1.01315 15.9298 1.13818 15.8047C1.2632 15.6797 1.33344 15.5101 1.33344 15.3333ZM5.64944 7.33334C4.92424 7.33334 4.21533 7.11829 3.61235 6.71539C3.00937 6.31249 2.5394 5.73984 2.26188 5.06984C1.98436 4.39985 1.91175 3.6626 2.05323 2.95134C2.19471 2.24007 2.54392 1.58674 3.05672 1.07394C3.56951 0.561151 4.22285 0.211935 4.93411 0.0704556C5.64537 -0.0710235 6.38262 0.00158872 7.05261 0.27911C7.72261 0.556631 8.29526 1.0266 8.69816 1.62958C9.10106 2.23256 9.31611 2.94147 9.31611 3.66667C9.31505 4.6388 8.9284 5.57082 8.241 6.25822C7.55359 6.94563 6.62158 7.33228 5.64944 7.33334ZM5.64944 1.33334C5.18795 1.33334 4.73682 1.47018 4.35311 1.72657C3.9694 1.98296 3.67033 2.34738 3.49372 2.77374C3.31712 3.2001 3.27091 3.66926 3.36094 4.12188C3.45097 4.5745 3.6732 4.99026 3.99952 5.31658C4.32585 5.64291 4.74161 5.86514 5.19423 5.95517C5.64685 6.0452 6.11601 5.99899 6.54237 5.82239C6.96873 5.64578 7.33315 5.34671 7.58954 4.963C7.84593 4.57928 7.98277 4.12816 7.98277 3.66667C7.98277 3.04783 7.73694 2.45434 7.29936 2.01675C6.86177 1.57917 6.26828 1.33334 5.64944 1.33334Z"/>
</mask>
<path d="M11.3334 16C10.4105 16 9.50821 15.7263 8.74078 15.2135C7.97335 14.7007 7.37521 13.9719 7.022 13.1192C6.66879 12.2665 6.57638 11.3282 6.75644 10.4229C6.93651 9.51767 7.38096 8.68615 8.03361 8.03351C8.68625 7.38086 9.51777 6.9364 10.423 6.75634C11.3283 6.57627 12.2666 6.66869 13.1193 7.0219C13.972 7.37511 14.7009 7.97325 15.2136 8.74068C15.7264 9.50811 16.0001 10.4104 16.0001 11.3333C15.9987 12.5706 15.5066 13.7567 14.6317 14.6316C13.7568 15.5065 12.5707 15.9986 11.3334 16ZM11.3334 8C10.6742 8 10.0297 8.1955 9.48154 8.56177C8.93338 8.92804 8.50613 9.44864 8.25384 10.0577C8.00155 10.6668 7.93554 11.337 8.06416 11.9836C8.19277 12.6302 8.51024 13.2242 8.97642 13.6904C9.44259 14.1565 10.0365 14.474 10.6831 14.6026C11.3297 14.7312 12 14.6652 12.6091 14.4129C13.2181 14.1606 13.7387 13.7334 14.105 13.1852C14.4713 12.6371 14.6668 11.9926 14.6668 11.3333C14.6657 10.4496 14.3142 9.60238 13.6893 8.97748C13.0644 8.35259 12.2172 8.00106 11.3334 8ZM12.4714 12.4713C12.5964 12.3463 12.6666 12.1768 12.6666 12C12.6666 11.8232 12.5964 11.6537 12.4714 11.5287L12.0001 11.0573V10C12.0001 9.82319 11.9299 9.65362 11.8048 9.5286C11.6798 9.40357 11.5103 9.33334 11.3334 9.33334C11.1566 9.33334 10.9871 9.40357 10.862 9.5286C10.737 9.65362 10.6668 9.82319 10.6668 10V11.3333C10.6668 11.5101 10.7371 11.6797 10.8621 11.8047L11.5288 12.4713C11.6538 12.5963 11.8233 12.6665 12.0001 12.6665C12.1769 12.6665 12.3464 12.5963 12.4714 12.4713ZM1.33344 15.3333C1.33512 14.1084 1.74323 12.9186 2.49377 11.9506C3.24432 10.9825 4.29488 10.2908 5.48077 9.984C5.56622 9.96465 5.64702 9.92867 5.71856 9.87809C5.7901 9.82752 5.85097 9.76335 5.89771 9.68925C5.94445 9.61515 5.97614 9.53256 5.99096 9.44622C6.00578 9.35987 6.00346 9.27145 5.98411 9.186C5.96476 9.10056 5.92877 9.01976 5.8782 8.94822C5.82762 8.87668 5.76345 8.8158 5.68935 8.76907C5.61525 8.72233 5.53267 8.69064 5.44632 8.67582C5.35997 8.66099 5.27155 8.66332 5.18611 8.68267C3.70013 9.04729 2.38028 9.90181 1.43942 11.1084C0.49856 12.315 -0.00846842 13.8033 0.000107016 15.3333C0.000107016 15.5101 0.0703449 15.6797 0.195369 15.8047C0.320393 15.9298 0.489963 16 0.666774 16C0.843585 16 1.01315 15.9298 1.13818 15.8047C1.2632 15.6797 1.33344 15.5101 1.33344 15.3333ZM5.64944 7.33334C4.92424 7.33334 4.21533 7.11829 3.61235 6.71539C3.00937 6.31249 2.5394 5.73984 2.26188 5.06984C1.98436 4.39985 1.91175 3.6626 2.05323 2.95134C2.19471 2.24007 2.54392 1.58674 3.05672 1.07394C3.56951 0.561151 4.22285 0.211935 4.93411 0.0704556C5.64537 -0.0710235 6.38262 0.00158872 7.05261 0.27911C7.72261 0.556631 8.29526 1.0266 8.69816 1.62958C9.10106 2.23256 9.31611 2.94147 9.31611 3.66667C9.31505 4.6388 8.9284 5.57082 8.241 6.25822C7.55359 6.94563 6.62158 7.33228 5.64944 7.33334ZM5.64944 1.33334C5.18795 1.33334 4.73682 1.47018 4.35311 1.72657C3.9694 1.98296 3.67033 2.34738 3.49372 2.77374C3.31712 3.2001 3.27091 3.66926 3.36094 4.12188C3.45097 4.5745 3.6732 4.99026 3.99952 5.31658C4.32585 5.64291 4.74161 5.86514 5.19423 5.95517C5.64685 6.0452 6.11601 5.99899 6.54237 5.82239C6.96873 5.64578 7.33315 5.34671 7.58954 4.963C7.84593 4.57928 7.98277 4.12816 7.98277 3.66667C7.98277 3.04783 7.73694 2.45434 7.29936 2.01675C6.86177 1.57917 6.26828 1.33334 5.64944 1.33334Z" fill="#6F727A"/>
<path d="M11.3334 16V37.3333H11.3456L11.3578 37.3333L11.3334 16ZM8.74078 15.2135L20.593 -2.52448L20.5929 -2.5245L8.74078 15.2135ZM6.75644 10.4229L27.6799 14.5848V14.5848L6.75644 10.4229ZM13.1193 7.0219L21.2832 -12.6875L21.2832 -12.6875L13.1193 7.0219ZM15.2136 8.74068L-2.52438 20.5928L-2.52438 20.5929L15.2136 8.74068ZM16.0001 11.3333L37.3334 11.3577L37.3334 11.3455V11.3333H16.0001ZM11.3334 8L11.359 -13.3333L11.3462 -13.3333H11.3334V8ZM9.48154 8.56177L21.3337 26.2998L21.3337 26.2998L9.48154 8.56177ZM8.25384 10.0577L-11.4556 1.89381L-11.4556 1.89382L8.25384 10.0577ZM8.06416 11.9836L28.9876 7.82171L28.9876 7.8217L8.06416 11.9836ZM10.6831 14.6026L14.8451 -6.3208L14.845 -6.32081L10.6831 14.6026ZM12.6091 14.4129L4.44517 -5.29651L4.44513 -5.29649L12.6091 14.4129ZM14.105 13.1852L-3.633 1.33305L-3.63301 1.33307L14.105 13.1852ZM14.6668 11.3333H36.0001V11.3206L36.0001 11.3078L14.6668 11.3333ZM12.4714 12.4713L27.5541 27.5586L27.5586 27.5541L12.4714 12.4713ZM12.4714 11.5287L27.5587 -3.55397L27.5564 -3.5563L12.4714 11.5287ZM12.0001 11.0573H-9.33323V19.8939L-3.08482 26.1423L12.0001 11.0573ZM10.6668 11.3333H-10.6666L-10.6666 11.3379L10.6668 11.3333ZM10.8621 11.8047L25.9471 -3.28028L25.9447 -3.28258L10.8621 11.8047ZM11.5288 12.4713L-3.55617 27.5563L-3.55387 27.5586L11.5288 12.4713ZM1.33344 15.3333L-19.9999 15.304L-19.9999 15.3187V15.3333H1.33344ZM5.48077 9.984L0.769426 -10.8226L0.452133 -10.7507L0.137179 -10.6693L5.48077 9.984ZM5.71856 9.87809L18.0335 27.298L18.0336 27.2979L5.71856 9.87809ZM5.99096 9.44622L27.0167 13.0559L27.0167 13.0559L5.99096 9.44622ZM5.68935 8.76907L-5.69175 26.813L-5.69163 26.813L5.68935 8.76907ZM5.44632 8.67582L1.83666 29.7015L1.83681 29.7016L5.44632 8.67582ZM5.18611 8.68267L0.47476 -12.1239L0.288088 -12.0817L0.102204 -12.036L5.18611 8.68267ZM1.43942 11.1084L-15.3838 -2.0099L-15.3838 -2.00989L1.43942 11.1084ZM0.000107016 15.3333H21.3334V15.2736L21.3331 15.2138L0.000107016 15.3333ZM0.195369 15.8047L15.2804 0.719868L15.2803 0.719791L0.195369 15.8047ZM1.13818 15.8047L-13.9468 0.719791L-13.9468 0.719868L1.13818 15.8047ZM5.64944 7.33334V28.6667H5.66106L5.67267 28.6667L5.64944 7.33334ZM3.61235 6.71539L15.4645 -11.0226L15.4645 -11.0226L3.61235 6.71539ZM2.26188 5.06984L-17.4475 13.2338L-17.4475 13.2338L2.26188 5.06984ZM3.05672 1.07394L18.1417 16.1589L3.05672 1.07394ZM4.93411 0.0704556L9.09604 20.9939L4.93411 0.0704556ZM7.05261 0.27911L-1.1113 19.9885H-1.1113L7.05261 0.27911ZM8.69816 1.62958L26.4362 -10.2226V-10.2226L8.69816 1.62958ZM9.31611 3.66667L30.6494 3.6899L30.6494 3.67828V3.66667H9.31611ZM4.35311 1.72657L-7.49905 -16.0114L-7.49906 -16.0114L4.35311 1.72657ZM3.49372 2.77374L-16.2157 -5.39018V-5.39017L3.49372 2.77374ZM3.36094 4.12188L-17.5625 8.28381V8.28381L3.36094 4.12188ZM3.99952 5.31658L-11.0854 20.4015L-11.0854 20.4015L3.99952 5.31658ZM5.19423 5.95517L9.35618 -14.9682L9.35615 -14.9683L5.19423 5.95517ZM7.29936 2.01675L-7.78559 17.1017L-7.78558 17.1017L7.29936 2.01675ZM11.3334 -5.33333C14.6298 -5.33333 17.8521 -4.35584 20.593 -2.52448L-3.1114 32.9515C1.16428 35.8085 6.19112 37.3333 11.3334 37.3333V-5.33333ZM20.5929 -2.5245C23.3338 -0.693129 25.47 1.90986 26.7314 4.95528L-12.6874 21.2831C-10.7196 26.034 -7.38707 30.0946 -3.11138 32.9516L20.5929 -2.5245ZM26.7314 4.95528C27.9929 8.00071 28.323 11.3518 27.6799 14.5848L-14.167 6.26098C-15.1702 11.3045 -14.6553 16.5322 -12.6874 21.2831L26.7314 4.95528ZM27.6799 14.5848C27.0368 17.8179 25.4494 20.7876 23.1186 23.1185L-7.05134 -7.05144C-10.6875 -3.41527 -13.1638 1.21748 -14.167 6.26099L27.6799 14.5848ZM23.1186 23.1185C20.7877 25.4493 17.818 27.0367 14.5849 27.6798L6.26109 -14.1671C1.21758 -13.1639 -3.41518 -10.6876 -7.05134 -7.05144L23.1186 23.1185ZM14.5849 27.6798C11.3519 28.3228 8.00081 27.9928 4.95539 26.7313L21.2832 -12.6875C16.5323 -14.6554 11.3046 -15.1703 6.26109 -14.1671L14.5849 27.6798ZM4.95538 26.7313C1.90995 25.4699 -0.693029 23.3337 -2.52438 20.5928L32.9516 -3.11149C30.0947 -7.38717 26.0341 -10.7197 21.2832 -12.6875L4.95538 26.7313ZM-2.52438 20.5929C-4.35575 17.852 -5.33323 14.6297 -5.33323 11.3333H37.3334C37.3334 6.19103 35.8086 1.16419 32.9516 -3.1115L-2.52438 20.5929ZM-5.33321 11.309C-5.32818 6.89672 -3.57318 2.66661 -0.453232 -0.453336L29.7167 29.7166C34.5863 24.8469 37.3256 18.2444 37.3334 11.3577L-5.33321 11.309ZM-0.453232 -0.453336C2.66671 -3.57328 6.89682 -5.32828 11.3091 -5.33332L11.3578 37.3333C18.2445 37.3255 24.847 34.5862 29.7167 29.7166L-0.453232 -0.453336ZM11.3334 -13.3333C6.45484 -13.3333 1.68579 -11.8867 -2.37064 -9.17624L21.3337 26.2998C18.3736 28.2777 14.8935 29.3333 11.3334 29.3333V-13.3333ZM-2.37063 -9.17625C-6.42703 -6.46584 -9.58862 -2.61344 -11.4556 1.89381L27.9633 18.2216C26.6009 21.5107 24.2938 24.3219 21.3337 26.2998L-2.37063 -9.17625ZM-11.4556 1.89382C-13.3225 6.40105 -13.811 11.3607 -12.8593 16.1456L28.9876 7.8217C29.6821 11.3134 29.3256 14.9326 27.9633 18.2216L-11.4556 1.89382ZM-12.8593 16.1456C-11.9075 20.9304 -9.55821 25.3256 -6.10853 28.7753L24.0614 -1.39459C26.5787 1.12275 28.293 4.33004 28.9876 7.82171L-12.8593 16.1456ZM-6.10853 28.7753C-2.65886 32.225 1.73632 34.5743 6.52124 35.526L14.845 -6.32081C18.3367 -5.62627 21.544 -3.91191 24.0614 -1.39459L-6.10853 28.7753ZM6.52121 35.526C11.3061 36.4778 16.2657 35.9893 20.773 34.1224L4.44513 -5.29649C7.73421 -6.65888 11.3534 -7.01533 14.8451 -6.3208L6.52121 35.526ZM20.7729 34.1224C25.2802 32.2554 29.1326 29.0938 31.843 25.0374L-3.63301 1.33307C-1.65516 -1.62699 1.15605 -3.93411 4.44517 -5.29651L20.7729 34.1224ZM31.843 25.0374C34.5534 20.981 36.0001 16.2119 36.0001 11.3333H-6.66656C-6.66656 7.7733 -5.61089 4.29317 -3.633 1.33305L31.843 25.0374ZM36.0001 11.3078C35.9923 4.77496 33.3936 -1.48806 28.7742 -6.10746L-1.39565 24.0624C-4.76527 20.6928 -6.66084 16.1243 -6.66654 11.3589L36.0001 11.3078ZM28.7742 -6.10746C24.1548 -10.7269 17.8918 -13.3255 11.359 -13.3333L11.3079 29.3333C6.54252 29.3276 1.97397 27.432 -1.39565 24.0624L28.7742 -6.10746ZM27.5586 27.5541C31.6831 23.4284 34 17.8335 34 12H-8.6667C-8.6667 6.52004 -6.49025 1.26428 -2.61573 -2.61138L27.5586 27.5541ZM34 12C34 6.16645 31.6831 0.571664 27.5587 -3.55397L-2.61581 26.6113C-6.49022 22.7357 -8.6667 17.48 -8.6667 12H34ZM27.5564 -3.5563L27.085 -4.02763L-3.08482 26.1423L-2.61348 26.6136L27.5564 -3.5563ZM33.3334 11.0573V10H-9.33323V11.0573H33.3334ZM33.3334 10C33.3334 4.16527 31.0156 -1.43052 26.8898 -5.55635L-3.2801 24.6135C-7.15587 20.7378 -9.33323 15.4811 -9.33323 10H33.3334ZM26.8898 -5.55635C22.764 -9.68215 17.1682 -12 11.3334 -12V30.6667C5.8523 30.6667 0.595653 28.4893 -3.2801 24.6135L26.8898 -5.55635ZM11.3334 -12C5.49868 -12 -0.0971088 -9.68215 -4.22291 -5.55635L25.947 24.6135C22.0712 28.4893 16.8146 30.6667 11.3334 30.6667V-12ZM-4.22291 -5.55635C-8.34873 -1.43052 -10.6666 4.16527 -10.6666 10H32.0001C32.0001 15.4811 29.8228 20.7378 25.947 24.6135L-4.22291 -5.55635ZM-10.6666 10V11.3333H32.0001V10H-10.6666ZM-10.6666 11.3379C-10.6653 17.1721 -8.34672 22.767 -4.22054 26.8919L25.9447 -3.28258C29.8209 0.592355 31.9989 5.84817 32.0001 11.3287L-10.6666 11.3379ZM-4.22284 26.8896L-3.55617 27.5563L26.6137 -2.61361L25.9471 -3.28028L-4.22284 26.8896ZM-3.55387 27.5586C0.571769 31.683 6.16655 33.9999 12.0001 33.9999V-8.66681C17.4801 -8.66681 22.7358 -6.49033 26.6114 -2.61591L-3.55387 27.5586ZM12.0001 33.9999C17.8337 33.9999 23.4284 31.683 27.5541 27.5586L-2.6112 -2.61591C1.2644 -6.49033 6.5201 -8.66681 12.0001 -8.66681V33.9999ZM22.6668 15.3627C22.6619 18.8604 21.4966 22.2577 19.3535 25.0219L-14.366 -1.12078C-18.0102 3.57962 -19.9917 9.3564 -19.9999 15.304L22.6668 15.3627ZM19.3535 25.0219C17.2104 27.7862 14.2106 29.7611 10.8244 30.6373L0.137179 -10.6693C-5.62084 -9.17949 -10.7218 -5.82119 -14.366 -1.12078L19.3535 25.0219ZM10.1921 30.7906C13.01 30.1525 15.6745 28.9657 18.0335 27.298L-6.59643 -7.54179C-4.38042 -9.10839 -1.87751 -10.2232 0.769426 -10.8226L10.1921 30.7906ZM18.0336 27.2979C20.3927 25.6301 22.4003 23.514 23.9416 21.0703L-12.1462 -1.69185C-10.6983 -3.98733 -8.81252 -5.97511 -6.59653 -7.54172L18.0336 27.2979ZM23.9416 21.0703C25.483 18.6266 26.5279 15.9033 27.0167 13.0559L-15.0348 5.83653C-14.5756 3.16184 -13.5941 0.603682 -12.1462 -1.69185L23.9416 21.0703ZM27.0167 13.0559C27.5056 10.2083 27.4287 7.29244 26.7907 4.47466L-14.8225 13.8974C-15.4218 11.2505 -15.494 8.51139 -15.0348 5.83655L27.0167 13.0559ZM26.7907 4.47466C26.1527 1.65691 24.9659 -1.00765 23.298 -3.36687L-11.5416 21.2633C-13.1083 19.0472 -14.2231 16.5442 -14.8225 13.8974L26.7907 4.47466ZM23.298 -3.36687C21.6303 -5.72586 19.5142 -7.73347 17.0703 -9.27489L-5.69163 26.813C-7.98728 25.3651 -9.97505 23.4792 -11.5416 21.2633L23.298 -3.36687ZM17.0704 -9.27482C14.6268 -10.8161 11.9035 -11.8611 9.05584 -12.3499L1.83681 29.7016C-0.838131 29.2424 -3.39632 28.2608 -5.69175 26.813L17.0704 -9.27482ZM9.05599 -12.3499C6.20845 -12.8388 3.29255 -12.762 0.47476 -12.1239L9.89745 29.4893C7.25056 30.0886 4.5115 30.1608 1.83666 29.7015L9.05599 -12.3499ZM0.102204 -12.036C-6.03972 -10.529 -11.495 -6.99704 -15.3838 -2.0099L18.2627 24.2267C16.2556 26.8006 13.44 28.6235 10.27 29.4014L0.102204 -12.036ZM-15.3838 -2.00989C-19.2727 2.97725 -21.3683 9.12888 -21.3329 15.4529L21.3331 15.2138C21.3514 18.4777 20.2698 21.6527 18.2627 24.2267L-15.3838 -2.00989ZM-21.3332 15.3333C-21.3332 21.1681 -19.0154 26.7639 -14.8896 30.8897L15.2803 0.719791C19.1561 4.59556 21.3334 9.85221 21.3334 15.3333H-21.3332ZM-14.8896 30.8896C-10.7638 35.0155 -5.16796 37.3333 0.666774 37.3333V-5.33333C6.14789 -5.33333 11.4046 -3.15597 15.2804 0.719868L-14.8896 30.8896ZM0.666774 37.3333C6.50151 37.3333 12.0973 35.0155 16.2232 30.8896L-13.9468 0.719868C-10.071 -3.15597 -4.81434 -5.33333 0.666774 -5.33333V37.3333ZM16.2231 30.8897C20.3489 26.7639 22.6668 21.1681 22.6668 15.3333H-19.9999C-19.9999 9.85222 -17.8225 4.59556 -13.9468 0.719791L16.2231 30.8897ZM5.64944 -14C9.14357 -14 12.5592 -12.9639 15.4645 -11.0226L-8.23982 24.4534C-4.12859 27.2004 0.704911 28.6667 5.64944 28.6667V-14ZM15.4645 -11.0226C18.3698 -9.08139 20.6342 -6.32222 21.9713 -3.09407L-17.4475 13.2338C-15.5554 17.8019 -12.3511 21.7064 -8.23981 24.4534L15.4645 -11.0226ZM21.9713 -3.09407C23.3085 0.134089 23.6583 3.68627 22.9766 7.11327L-18.8702 -1.21059C-19.8348 3.63894 -19.3397 8.6656 -17.4475 13.2338L21.9713 -3.09407ZM22.9766 7.11327C22.295 10.5403 20.6124 13.6882 18.1417 16.1589L-12.0282 -14.011C-15.5245 -10.5147 -17.9056 -6.06012 -18.8702 -1.21059L22.9766 7.11327ZM18.1417 16.1589C15.6709 18.6296 12.523 20.3122 9.09604 20.9939L0.772182 -20.853C-4.07734 -19.8883 -8.53192 -17.5073 -12.0282 -14.011L18.1417 16.1589ZM9.09604 20.9939C5.66904 21.6755 2.11686 21.3257 -1.1113 19.9885L15.2165 -19.4303C10.6484 -21.3225 5.62171 -21.8176 0.772182 -20.853L9.09604 20.9939ZM-1.1113 19.9885C-4.33947 18.6514 -7.09862 16.387 -9.03985 13.4817L26.4362 -10.2226C23.6891 -14.3338 19.7847 -17.5381 15.2165 -19.4303L-1.1113 19.9885ZM-9.03985 13.4817C-10.9811 10.5765 -12.0172 7.1608 -12.0172 3.66667H30.6494C30.6494 -1.27786 29.1832 -6.11136 26.4362 -10.2226L-9.03985 13.4817ZM-12.0172 3.64344C-12.0121 -1.03433 -10.1516 -5.51904 -6.84395 -8.82672L23.3259 21.3432C28.0084 16.6607 30.6422 10.3119 30.6494 3.6899L-12.0172 3.64344ZM-6.84395 -8.82672C-3.53628 -12.1344 0.948437 -13.9949 5.62621 -14L5.67267 28.6667C12.2947 28.6594 18.6435 26.0257 23.3259 21.3432L-6.84395 -8.82672ZM5.64944 -20C0.968611 -20 -3.6071 -18.612 -7.49905 -16.0114L16.2053 19.4646C13.0807 21.5523 9.40729 22.6667 5.64944 22.6667V-20ZM-7.49906 -16.0114C-11.391 -13.4109 -14.4244 -9.71469 -16.2157 -5.39018L23.2031 10.9377C21.7651 14.4095 19.3298 17.3768 16.2053 19.4646L-7.49906 -16.0114ZM-16.2157 -5.39017C-18.007 -1.06565 -18.4757 3.69292 -17.5625 8.28381L24.2844 -0.0400501C25.0175 3.64559 24.6412 7.46586 23.2032 10.9377L-16.2157 -5.39017ZM-17.5625 8.28381C-16.6493 12.8747 -14.3953 17.0917 -11.0854 20.4015L19.0845 -9.76836C21.7417 -7.11116 23.5512 -3.72568 24.2844 -0.0400529L-17.5625 8.28381ZM-11.0854 20.4015C-7.7756 23.7113 -3.55861 25.9654 1.03231 26.8786L9.35615 -14.9683C13.0418 -14.2351 16.4273 -12.4255 19.0845 -9.76837L-11.0854 20.4015ZM1.03228 26.8786C5.62319 27.7918 10.3818 27.3231 14.7063 25.5318L-1.62155 -13.887C1.85024 -15.3251 5.67051 -15.7014 9.35618 -14.9682L1.03228 26.8786ZM14.7063 25.5318C19.0308 23.7405 22.727 20.7071 25.3275 16.8152L-10.1485 -6.88918C-8.06074 -10.0137 -5.09336 -12.449 -1.62155 -13.887L14.7063 25.5318ZM25.3275 16.8152C27.9281 12.9232 29.3161 8.34748 29.3161 3.66667H-13.3506C-13.3506 -0.0911621 -12.2362 -3.76462 -10.1485 -6.88918L25.3275 16.8152ZM29.3161 3.66667C29.3161 -2.61012 26.8227 -8.62983 22.3843 -13.0682L-7.78558 17.1017C-11.3488 13.5385 -13.3506 8.70578 -13.3506 3.66667H29.3161ZM22.3843 -13.0682C17.9459 -17.5065 11.9262 -20 5.64944 -20V22.6667C0.610321 22.6667 -4.2224 20.6649 -7.78559 17.1017L22.3843 -13.0682Z" fill="#6F727A" mask="url(#path-1-inside-1_5527_619)"/>
</g>
</g>
<defs>
<clipPath id="clip0_5527_619">
<rect width="16" height="16" fill="white"/>
</clipPath>
</defs>
</svg>
