<svg width="24" height="24" viewBox="0 0 24 24" fill="none" xmlns="http://www.w3.org/2000/svg">
<path d="M12 0C5.38293 0 0 5.38293 0 12C0 18.6171 5.38293 24 12 24C18.6171 24 24 18.6171 24 12C24 5.38293 18.6171 0 12 0Z" fill="#24A887"/>
<path d="M18.082 9.45728L11.582 15.9572C11.387 16.1522 11.131 16.2503 10.875 16.2503C10.619 16.2503 10.363 16.1522 10.168 15.9572L6.91809 12.7072C6.52698 12.3163 6.52698 11.6842 6.91809 11.2933C7.30902 10.9022 7.94092 10.9022 8.33203 11.2933L10.875 13.8362L16.6681 8.04333C17.059 7.65222 17.6909 7.65222 18.082 8.04333C18.473 8.43427 18.473 9.06616 18.082 9.45728Z" fill="white"/>
</svg>
