<svg width="24" height="24" viewBox="0 0 24 24" fill="none" xmlns="http://www.w3.org/2000/svg"><mask id="path-1-inside-1_5983_3975" fill="#fff"><path d="M10.48 19a1 1 0 01-.7-.29l-4.59-4.59a3 3 0 010-4.24l4.59-4.59a1 1 0 111.41 1.42L6.6 11.29a1.001 1.001 0 000 1.42l4.59 4.58a.999.999 0 01-.71 1.71z"/></mask><path d="M10.48 19a1 1 0 01-.7-.29l-4.59-4.59a3 3 0 010-4.24l4.59-4.59a1 1 0 111.41 1.42L6.6 11.29a1.001 1.001 0 000 1.42l4.59 4.58a.999.999 0 01-.71 1.71z" fill="#96969C"/><path d="M10.48 19l.123-21.333h-.033L10.48 19zm-.7-.29L-5.305 33.795l.03.03.032.031L9.78 18.71zm-4.59-4.59L-9.904 29.195l.01.01L5.19 14.12zM4.313 12h-21.334H4.313zm.877-2.12L-9.895-5.205l-.01.01L5.19 9.88zm4.59-4.59L-5.26-9.84l-.022.022-.023.023L9.78 5.29zm.705-.291v-21.333V4.999zm.705.29L-3.85 20.42l.009.009.008.008L11.19 5.29zm0 1.42L-3.833-8.436l-.023.023-.022.022L11.19 6.71zM6.6 11.29l15.023 15.147.023-.022.023-.023L6.6 11.29zm-.296.71h21.334H6.304zm.296.71l15.069-15.1-.023-.023-.023-.023L6.6 12.71zm4.59 4.58L-3.878 32.392l.022.023.023.023L11.19 17.29zm0 1.42L-3.833 3.564 11.19 18.71zm-.62-21.042a20.333 20.333 0 0114.233 5.896L-5.243 33.856a22.334 22.334 0 0015.633 6.477l.18-42.666zm14.295 5.958l-4.59-4.59-30.17 30.17 4.59 4.59 30.17-30.17zm-4.58-4.58A18.333 18.333 0 0125.645 12h-42.667c0 6.448 2.56 12.633 7.117 17.195L20.284-.955zM25.645 12c0 4.858-1.928 9.518-5.362 12.955L-9.904-5.195A24.333 24.333 0 00-17.021 12h42.667zm-5.371 12.965l4.59-4.59-30.17-30.17-4.59 4.59 30.17 30.17zm4.545-4.545a20.333 20.333 0 01-14.335 5.912v-42.666c-5.9 0-11.56 2.334-15.745 6.494l30.08 30.26zm-14.335 5.912A20.333 20.333 0 01-3.85 20.42L26.23-9.84a22.333 22.333 0 00-15.745-6.494v42.666zm-14.318-5.896a20.334 20.334 0 01-4.45-6.617L31.101-2.589a22.334 22.334 0 00-4.889-7.268L-3.833 20.436zm-4.45-6.617A20.333 20.333 0 01-9.848 6h42.666c0-2.947-.584-5.866-1.717-8.588L-8.284 13.82zM-9.848 6c0-2.683.531-5.341 1.563-7.819L31.102 14.59a22.333 22.333 0 001.717-8.59H-9.847zm1.563-7.819a20.334 20.334 0 014.451-6.617l30.046 30.294a22.334 22.334 0 004.889-7.268L-8.284-1.82zm4.406-6.572l-4.59 4.58 30.137 30.203 4.59-4.58L-3.878-8.392zm-4.545 4.535a22.333 22.333 0 00-4.889 7.268L26.075 19.82a20.334 20.334 0 01-4.451 6.616L-8.423-3.857zm-4.889 7.268A22.334 22.334 0 00-15.029 12h42.667c0 2.684-.532 5.342-1.564 7.82L-13.312 3.41zM-15.029 12c0 2.948.584 5.867 1.717 8.589L26.075 4.18A20.333 20.333 0 0127.638 12H-15.03zm1.717 8.589a22.333 22.333 0 004.89 7.268L21.622-2.438a20.334 20.334 0 014.45 6.617L-13.311 20.59zm4.844 7.222l4.59 4.58L26.259 2.188l-4.59-4.58-30.137 30.203zm4.635 4.626a20.333 20.333 0 01-4.45-6.617L31.101 9.41a22.333 22.333 0 00-4.889-7.267L-3.833 32.437zm-4.45-6.617A20.333 20.333 0 01-9.848 18h42.666c0-2.948-.584-5.867-1.717-8.59L-8.284 25.82zM-9.848 18c0-2.684.531-5.342 1.563-7.82L31.102 26.59a22.333 22.333 0 001.717-8.59H-9.847zm1.563-7.82a20.333 20.333 0 014.451-6.617l30.046 30.293a22.334 22.334 0 004.889-7.267L-8.284 10.18zm4.45-6.616A20.333 20.333 0 012.798-.824l16.134 39.499a22.333 22.333 0 007.282-4.819L-3.833 3.564zM2.798-.824a20.333 20.333 0 017.806-1.51l-.246 42.667c2.939.017 5.852-.547 8.574-1.658L2.797-.824z" fill="#96969C" mask="url(#path-1-inside-1_5983_3975)"/><mask id="path-3-inside-2_5983_3975" fill="#fff"><path d="M17.48 19a1 1 0 01-.7-.29l-6-6a.997.997 0 01-.219-1.095.999.999 0 01.219-.325l6-6a1 1 0 111.41 1.42L12.9 12l5.29 5.29a1 1 0 01-.71 1.71z"/></mask><path d="M17.48 19a1 1 0 01-.7-.29l-6-6a.997.997 0 01-.219-1.095.999.999 0 01.219-.325l6-6a1 1 0 111.41 1.42L12.9 12l5.29 5.29a1 1 0 01-.71 1.71z" fill="#96969C"/><path d="M17.48 19l.123-21.333h-.033L17.48 19zm-.7-.29L1.695 33.795l.03.03.032.031L16.78 18.71zm-6-6L25.865-2.375l-.031-.031-.031-.03L10.78 12.71zm-.296-.71h21.333-21.333zm.296-.71l15.023 15.146.03-.03.032-.031L10.78 11.29zm6-6L1.74-9.84l-.023.022-.022.023L16.78 5.29zm1.41 0L3.15 20.42l.008.008.009.008L18.19 5.29zm0 1.42L3.167-8.437l-.031.031-.031.03L18.19 6.71zM12.9 12L-2.185-3.085-17.27 12l15.085 15.085L12.9 12zm5.29 5.29L3.105 32.375l.03.03.032.032L18.19 17.29zm0 1.42L3.167 3.563 18.19 18.71zm-.62-21.043a20.333 20.333 0 0114.233 5.896L1.757 33.856a22.333 22.333 0 0015.633 6.477l.18-42.666zm14.295 5.958l-6-6-30.17 30.17 6 6 30.17-30.17zm-6.062-6.062a20.334 20.334 0 014.45 6.617L-9.131 20.59a22.334 22.334 0 004.889 7.268L25.803-2.438zm4.45 6.617A20.333 20.333 0 0131.818 12h-42.666c0 2.948.584 5.867 1.717 8.589L30.254 4.18zM31.818 12c0 2.684-.531 5.342-1.563 7.82L-9.132 3.41A22.333 22.333 0 00-10.849 12h42.666zm-1.563 7.82a20.334 20.334 0 01-4.451 6.616L-4.243-3.857a22.333 22.333 0 00-4.889 7.268L30.254 19.82zm-4.39 6.555l6-6-30.17-30.17-6 6 30.17 30.17zm5.956-5.955a20.333 20.333 0 01-14.335 5.912v-42.666c-5.9 0-11.56 2.335-15.745 6.494l30.08 30.26zm-14.335 5.912A20.333 20.333 0 013.15 20.42L33.23-9.84a22.334 22.334 0 00-15.745-6.494v42.666zM3.167 20.436a20.334 20.334 0 01-4.45-6.617L38.1-2.589a22.333 22.333 0 00-4.888-7.268L3.167 20.437zm-4.45-6.617A20.333 20.333 0 01-2.849 6H39.82c0-2.947-.584-5.866-1.718-8.588L-1.284 13.819zM-2.849 6c0-2.683.532-5.341 1.564-7.819L38.101 14.59a22.333 22.333 0 001.718-8.59H-2.848zm1.564-7.819a20.333 20.333 0 014.45-6.617l30.047 30.294a22.333 22.333 0 004.888-7.268L-1.284-1.82zm4.389-6.555l-5.29 5.29 30.17 30.17 5.29-5.29-30.17-30.17zm-5.29 35.46l5.29 5.29 30.17-30.17-5.29-5.29-30.17 30.17zm5.352 5.352a20.333 20.333 0 01-4.45-6.617L38.1 9.41a22.332 22.332 0 00-4.888-7.267L3.167 32.437zm-4.45-6.617A20.333 20.333 0 01-2.849 18H39.82c0-2.948-.584-5.867-1.718-8.59L-1.284 25.82zM-2.849 18c0-2.684.532-5.342 1.564-7.82L38.101 26.59a22.333 22.333 0 001.718-8.59H-2.848zm1.564-7.82a20.333 20.333 0 014.45-6.617l30.047 30.293A22.333 22.333 0 0038.1 26.59L-1.284 10.18zm4.45-6.616A20.333 20.333 0 019.798-.824L25.93 38.675a22.332 22.332 0 007.283-4.819L3.167 3.564zM9.798-.824a20.334 20.334 0 017.806-1.51l-.247 42.667c2.94.017 5.853-.547 8.574-1.658L9.797-.824z" fill="#96969C" mask="url(#path-3-inside-2_5983_3975)"/></svg>