<svg width="24" height="24" viewBox="0 0 24 24" fill="none" xmlns="http://www.w3.org/2000/svg"><mask id="path-1-inside-1_5983_3992" fill="#fff"><path d="M15.4 9.88l-4.59-4.59A1 1 0 109.4 6.71l4.6 4.58a1.002 1.002 0 010 1.42l-4.6 4.58a1 1 0 001.41 1.42l4.59-4.59a3 3 0 000-4.24z"/></mask><path d="M15.4 9.88l-4.59-4.59A1 1 0 109.4 6.71l4.6 4.58a1.002 1.002 0 010 1.42l-4.6 4.58a1 1 0 001.41 1.42l4.59-4.59a3 3 0 000-4.24z" fill="#6F727A"/><path d="M10.81 5.29L25.895-9.795l-.023-.023-.022-.022L10.81 5.29zm-.705-.291v-21.333V4.999zm-.705.29l15.023 15.148.008-.009.009-.008L9.4 5.29zm0 1.42L24.452-8.407l-.015-.014-.014-.015L9.4 6.71zm4.6 4.58L-1.052 26.409l.014.014.015.014L14 11.29zm.296.71H-7.038h21.334zm-.296.71L-1.023-2.436l-.015.015-.014.014L14 12.71zm-4.6 4.58L24.43 32.429l.01-.01.01-.01L9.4 17.29zm1.41 1.42L25.84 33.849l.027-.027.027-.026L10.81 18.71zm4.59-4.59l15.085 15.086.01-.01L15.4 14.12zM30.485-5.204l-4.59-4.59-30.17 30.17 4.59 4.59 30.17-30.17zM25.85-9.84a22.333 22.333 0 00-15.745-6.494v42.666A20.333 20.333 0 01-4.23 20.42L25.85-9.84zm-15.745-6.494c-5.9 0-11.56 2.334-15.745 6.494l30.08 30.26a20.333 20.333 0 01-14.335 5.912v-42.666zM-5.623-9.857a22.333 22.333 0 00-4.889 7.268L28.874 13.82a20.334 20.334 0 01-4.451 6.616L-5.623-9.857zm-4.889 7.268A22.332 22.332 0 00-12.229 6h42.666c0 2.684-.531 5.342-1.563 7.82L-10.512-2.59zM-12.229 6c0 2.948.583 5.867 1.717 8.589L28.874-1.82A20.333 20.333 0 0130.437 6h-42.666zm1.717 8.589a22.333 22.333 0 004.889 7.268L24.423-8.438a20.334 20.334 0 014.45 6.617L-10.511 14.59zm4.86 7.239l4.6 4.58L29.052-3.828l-4.6-4.58-30.104 30.236zm4.629 4.608a20.334 20.334 0 01-4.451-6.616L33.911 3.41a22.332 22.332 0 00-4.888-7.267L-1.023 26.436zm-4.451-6.616A20.333 20.333 0 01-7.038 12H35.63c0-2.948-.584-5.868-1.718-8.59L-5.474 19.82zM-7.038 12c0-2.684.532-5.342 1.564-7.82L33.911 20.59a22.332 22.332 0 001.718-8.59H-7.038zm1.564-7.82a20.333 20.333 0 014.45-6.617l30.047 30.294a22.333 22.333 0 004.888-7.268L-5.474 4.18zm4.422-6.588l-4.6 4.58 30.104 30.236 4.6-4.58L-1.052-2.408zm-4.58 4.56a22.334 22.334 0 00-6.597 15.769l42.666.15a20.332 20.332 0 01-6.006 14.357L-5.632 2.152zm-6.597 15.769a22.334 22.334 0 006.486 15.815L24.533 3.673a20.333 20.333 0 015.904 14.399l-42.666-.151zm6.486 15.815a22.334 22.334 0 0015.769 6.598l.15-42.667a20.333 20.333 0 0114.357 6.006L-5.743 33.736zm15.769 6.598a22.334 22.334 0 0015.815-6.486L-4.222 3.572a20.333 20.333 0 0114.399-5.905l-.151 42.667zm15.869-6.54l4.59-4.59L.315-.965l-4.59 4.59 30.17 30.17zm4.6-4.599A24.333 24.333 0 0037.61 12H-5.056c0-4.859 1.928-9.518 5.361-12.956l30.19 30.151zM37.61 12c0-6.449-2.56-12.633-7.117-17.196L.305 24.955A18.333 18.333 0 01-5.056 12H37.61z" fill="#6F727A" mask="url(#path-1-inside-1_5983_3992)"/></svg>