<svg xmlns="http://www.w3.org/2000/svg" width="20" height="20" fill="none"><g clip-path="url(#a)"><path fill="#1C1F29" d="M10.136 9.126c-2.066 0-3.943.249-5.333.654v3.457c1.39.405 3.267.653 5.333.653 2.364 0 4.481-.325 5.903-.838V9.965c-1.422-.513-3.539-.839-5.903-.839Zm8.032 2.81-.242-.502a.842.842 0 0 0 .003-.057c0-.569-.592-1.093-1.587-1.513v3.025c.464-.196.841-.414 1.11-.65-.079.32-.35.964-.566 1.418-.355.648-.484 1.213-.468 1.241.01.018.132-.17.31-.472.417-.593 1.205-1.724 1.362-2.013.179-.326.078-.477.078-.477Zm-15.67-.526c0 .11.021.217.064.323l-.145.258s-.117.151.088.469c.18.28 1.084 1.378 1.561 1.953.205.294.344.476.356.458.02-.027-.127-.58-.534-1.212-.19-.339-.417-.788-.553-1.12.38.24.878.459 1.468.647V9.634c-1.423.452-2.306 1.081-2.306 1.776Z"/><path fill="url(#b)" d="m9.878 3.872-.473.79-.231.021-.615-.682a.232.232 0 0 0-.24-.083.283.283 0 0 0-.191.172l-.311.88c-.073.016-.145.04-.213.07l-.734-.556a.28.28 0 0 0-.248-.03.296.296 0 0 0-.162.208l-.151.93-.198.108-.808-.381a.232.232 0 0 0-.256.022c-.074.045-.117.14-.122.23l.03.94-.168.144-.87-.208c-.093-.03-.18.003-.252.074a.283.283 0 0 0-.069.251l.21.912c-.05.057-.097.118-.14.18l-.907-.037a.232.232 0 0 0-.222.123c-.045.081-.061.186-.015.273l.371.845-.111.204-.878.154a.257.257 0 0 0-.205.16.334.334 0 0 0 .023.27l.531.754-.01.04-1.489 1.576s-.217.174.104.598c.29.362 1.787 1.82 2.577 2.59.169.226.365.43.583.608.035-.042-.156-.748-.809-1.57-.504-.743-1.16-1.887-1.016-2.016 0 0 .175-.222.535-.383-.014-.011-.014-.011 0 0 0 0 7.416 3.42 14.29.055.787-.147 1.264.277 1.264.277.163.101-.263 1.275-.608 2.055-.479.881-.547 1.572-.507 1.594.177-.204.326-.43.445-.672.611-.841 1.749-2.452 1.96-2.845.245-.447 0-.581 0-.581l-1.587-1.166-.04-.164.515-.756c.059-.07.063-.173.03-.26a.257.257 0 0 0-.196-.164l-.892-.155-.095-.198.364-.858a.256.256 0 0 0-.023-.27.23.23 0 0 0-.216-.11l-.902.027-.145-.18.204-.91a.297.297 0 0 0-.06-.253.257.257 0 0 0-.253-.08l-.872.217a1.976 1.976 0 0 1-.168-.153l.021-.932a.297.297 0 0 0-.11-.235.232.232 0 0 0-.26-.016l-.807.38-.203-.111-.145-.917a.258.258 0 0 0-.16-.206.231.231 0 0 0-.256.023l-.728.541-.212-.059-.309-.877a.27.27 0 0 0-.196-.177.27.27 0 0 0-.25.087l-.613.686-.222-.032-.469-.785a.258.258 0 0 0-.219-.136c-.09-.005-.176.054-.22.135Z"/><path fill="#000" d="M7.63 14.128a1.023 1.023 0 0 1-.043-.039l2.429-.199c-1.981-2.614-3.569-.531-3.738-.299v.537H7.63Zm5.057-.028.044-.039-2.335-.17c1.983-2.722 3.474-.56 3.643-.328v.537h-1.352Z"/><path fill="url(#c)" d="M16.422 11.505s-.264 1.056-1.916 2.167l-.46.11s-1.498-2.733-3.62.345c0 0 .66-.382 2.431.087 0 0-.815 1.247-2.454 1.206 0 0 1.571 1.89 3.966-.837 0 0 2.532-.98 2.736-3.078h-.683Z"/><path fill="#000" d="M11.5 10.15s.74-.811 1.481 0c0 0 .582 1.082 0 1.623 0 0-.953.758-1.482 0 0 0-.635-.595 0-1.623Z"/><path fill="#fff" d="M12.358 10.451c0 .316-.186.572-.416.572-.23 0-.416-.256-.416-.572 0-.315.187-.572.416-.572.23 0 .416.257.416.572Z"/><path fill="#000" d="M8.193 9.929s1.27-.563 1.618.693c0 0 .363 1.464-1.044 1.547 0 0-1.795-.346-.574-2.24Z"/><path fill="#fff" d="M8.831 10.472c0 .326-.192.59-.428.59-.237 0-.43-.264-.43-.59 0-.326.193-.59.43-.59.236 0 .428.264.428.59Z"/><path fill="url(#d)" d="M6.286 14.75c2.321 2.976 3.421.586 3.421.586-1.303-.147-2.228-1.014-2.228-1.014 1.564-.2 2.468-.216 2.468-.216-2.093-2.762-3.792-.261-3.792-.261-.423-.155-.859-.745-1.18-1.291l-1.3-.383c1.495 2.542 2.61 2.578 2.61 2.578Z"/></g><defs><linearGradient id="b" x1="10.553" x2="9.432" y1="16.613" y2="3.795" gradientUnits="userSpaceOnUse"><stop stop-color="#F74C00"/><stop offset=".33" stop-color="#F74C00"/><stop offset="1" stop-color="#F49600"/></linearGradient><linearGradient id="c" x1="13.754" x2="13.754" y1="16.058" y2="11.505" gradientUnits="userSpaceOnUse"><stop stop-color="#CC3A00"/><stop offset=".15" stop-color="#CC3A00"/><stop offset=".74" stop-color="#F74C00"/><stop offset="1" stop-color="#F74C00"/></linearGradient><linearGradient id="d" x1="6.811" x2="6.811" y1="16.244" y2="12.171" gradientUnits="userSpaceOnUse"><stop stop-color="#CC3A00"/><stop offset=".15" stop-color="#CC3A00"/><stop offset=".74" stop-color="#F74C00"/><stop offset="1" stop-color="#F74C00"/></linearGradient><clipPath id="a"><path fill="#fff" d="M0 0h20v20H0z"/></clipPath></defs></svg>