<svg xmlns="http://www.w3.org/2000/svg" xmlns:xlink="http://www.w3.org/1999/xlink" id="flag-icons-mo" viewBox="0 0 512 512"><path fill="#00785e" d="M0 0h512v512H0z"/><path fill="#fbd116" d="M272.5 147.4L256 96.5l-16.5 51 43.3-31.5h-53.6z"/><g id="mo-a"><path fill="#fff" d="M256 353.7H146.7l-4-4.2H256a2 2 0 011.5 2q0 1.6-1.5 2.2m0-33.4c.6-1.3 1.9-4.3 1.3-8a13 13 0 00-1.3-4.1 87 87 0 01-34.7 20.2 86 86 0 01-25 3.7h-67.4l6.3 8.6h65a86 86 0 0055.8-20.4M139.1 294a34 34 0 01-10.3 2.2 86 86 0 0064.8 29.3 86 86 0 0062.4-26.6 470 470 0 004.8-62.9 470 470 0 00-4.8-72.2c-7 6.3-20.2 20-26.4 40.9a87 87 0 00-3.6 24.6 86 86 0 0014.6 48.1 86 86 0 01-18-52.9 86 86 0 018.2-37 35 35 0 01-8-13.8 86 86 0 00-11.2 42.6 86 86 0 0017 51.4 101 101 0 00-78.3-31.5 35 35 0 017.2 9.5 101 101 0 0173.3 31.4 101 101 0 00-65.2-23.6q-20.9 0-39 7.8a87 87 0 0088 55.6 87 87 0 01-15.4 1.4 86 86 0 01-60.1-24.3M256 388.7h-56.6a153 153 0 0056.6 10.8 12 12 0 001.3-5.3 12 12 0 00-1.3-5.5m0-26.2h-99.9l8.4 6.7H256a5 5 0 001.4-3.3c0-2-1.2-3.1-1.4-3.4m0 13.4h-81.8a153 153 0 0015.4 8.5H256a8 8 0 001.2-4.5 8 8 0 00-1.2-4"/><path fill="#fbd116" d="M155.6 211.7l-7-36.4-15.7 33.6 32.4-18-36.8-4.5zm49.3-58.8l-29.6-22.3 10.8 35.4 12.1-35-30.3 21.3z"/></g><use xlink:href="#mo-a" width="100%" height="100%" transform="matrix(-1 0 0 1 512 0)"/></svg>