<svg width="40" height="40" viewBox="0 0 40 40" fill="none" xmlns="http://www.w3.org/2000/svg">
<g clip-path="url(#clip0_5573_2556)">
<path d="M0 16C0 8.45753 0 4.68629 2.34315 2.34315C4.68629 0 8.45753 0 16 0H24C31.5425 0 35.3137 0 37.6569 2.34315C40 4.68629 40 8.45753 40 16V24C40 31.5425 40 35.3137 37.6569 37.6569C35.3137 40 31.5425 40 24 40H16C8.45753 40 4.68629 40 2.34315 37.6569C0 35.3137 0 31.5425 0 24V16Z" fill="#3B5998"/>
<path d="M22.0853 31.7596V20.8785H25.0889L25.487 17.1288H22.0853L22.0904 15.2521C22.0904 14.2741 22.1833 13.7501 23.588 13.7501H25.4657V10H22.4616C18.8533 10 17.5832 11.819 17.5832 14.878V17.1293H15.334V20.8789H17.5832V31.7596H22.0853Z" fill="white"/>
</g>
<defs>
<clipPath id="clip0_5573_2556">
<rect width="40" height="40" fill="white"/>
</clipPath>
</defs>
</svg>
