<svg width="20" height="20" viewBox="0 0 20 20" fill="none" xmlns="http://www.w3.org/2000/svg">
<g clip-path="url(#clip0_60_294)">
<path fill-rule="evenodd" clip-rule="evenodd" d="M12.9062 15.3393H4.51044C4.51044 16.5229 5.44658 17.4759 6.61055 17.4759H12.9062C14.0653 17.4759 15.0014 16.5179 15.0014 15.3393V6.55187C15.0014 6.51172 14.9668 6.47174 14.9271 6.47174H12.9805C12.9408 6.47174 12.9062 6.50676 12.9062 6.55187V15.3393ZM12.9062 2.4993C14.0653 2.4993 15.0014 3.4573 15.0014 4.641H6.60564V13.4283C6.60564 13.4685 6.57097 13.5086 6.52641 13.5086H4.57978C4.54012 13.5086 4.50049 13.4734 4.50049 13.4283V4.641C4.50049 3.4573 5.43669 2.4993 6.60072 2.4993H12.9062Z" fill="#0DAB40"/>
</g>
<defs>
<clipPath id="clip0_60_294">
<rect width="20.0017" height="20.0017" fill="white" transform="translate(0 -0.000854492)"/>
</clipPath>
</defs>
</svg>
