<svg width="21" height="20" viewBox="0 0 21 20" fill="none" xmlns="http://www.w3.org/2000/svg">
<g clip-path="url(#clip0_60_437)">
<path d="M20.0027 13.2351V9.34293C20.0027 8.48066 19.7797 7.92187 19.4183 7.57218C19.0536 7.21922 18.4699 7.00001 17.5763 6.9997C17.1375 7.00318 16.7011 7.06795 16.2797 7.1919L16.2756 7.1931L16.2756 7.19308C15.9017 7.29961 15.5315 7.41982 15.165 7.55373V8.05744C15.596 7.90332 15.9516 7.78874 16.2286 7.71595L16.2289 7.71588C16.6422 7.60756 17.0291 7.54867 17.3848 7.54831L17.3853 7.54831C17.8156 7.54831 18.2171 7.62423 18.5445 7.82533C18.8879 8.03623 19.1041 8.35707 19.195 8.74706L19.3136 9.25581L18.8001 9.35202C17.8362 9.53263 17.0666 9.72262 16.4832 9.91986L20.0027 13.2351ZM20.0027 13.2351H19.2836M20.0027 13.2351H19.2836M19.2836 13.2351V12.4316L18.3245 12.2337C18.1735 12.584 17.9115 12.8756 17.5791 13.0634L17.578 13.0641C17.2217 13.2665 16.8181 13.3711 16.4085 13.3671V13.3671H16.4036C16.0702 13.3671 15.7848 13.2998 15.5377 13.1752L15.5377 13.1752L15.5329 13.1728C15.3043 13.0606 15.112 12.8849 14.979 12.6669L14.9787 12.6665C14.8508 12.4574 14.7781 12.1993 14.7781 11.8739V11.8737C14.7778 11.3431 14.9308 10.9645 15.1995 10.6866L14.8453 10.3442L15.1995 10.6866C15.5082 10.3673 15.9294 10.1075 16.4829 9.91995L19.2836 13.2351ZM18.4104 11.2654L18.8468 11.5095C18.6232 11.9091 18.338 12.2402 17.9871 12.4899L17.9868 12.4901C17.6344 12.7405 17.2455 12.8847 16.8283 12.8847C16.4961 12.8847 16.1774 12.7874 15.9252 12.5517C15.6705 12.3143 15.5538 12.0029 15.5538 11.6666C15.5538 11.2568 15.6932 10.8848 15.9964 10.602C16.2593 10.357 16.6081 10.1838 17.0064 10.0605C17.3857 9.94308 17.9354 9.81144 18.6453 9.66571L19.2945 9.53245L19.2444 10.1933C19.2093 10.6558 19.0737 11.1055 18.8464 11.5102L18.4104 11.2654ZM18.4104 11.2654C18.2183 11.6087 17.9805 11.881 17.6973 12.0825L18.4104 11.2654ZM4.26683 12.5374C4.57581 12.233 4.72752 11.8452 4.72752 11.4114C4.72752 10.9781 4.57643 10.5901 4.2669 10.2854C3.95756 9.98028 3.5664 9.83448 3.13199 9.83448C2.69732 9.83448 2.30657 9.98094 1.99742 10.2851L1.99716 10.2854C1.68818 10.5898 1.53647 10.9776 1.53647 11.4114C1.53647 11.8448 1.68757 12.2327 1.99715 12.5374M4.26683 12.5374L3.9159 12.1813L4.26684 12.5374C4.26683 12.5374 4.26683 12.5374 4.26683 12.5374ZM4.26683 12.5374C3.95736 12.8424 3.56633 12.9883 3.13199 12.9883C2.69762 12.9883 2.30648 12.8425 1.99715 12.5374M1.99715 12.5374C1.99724 12.5375 1.99733 12.5376 1.99742 12.5377L2.34807 12.1813L1.99689 12.5372C1.99698 12.5373 1.99706 12.5374 1.99715 12.5374ZM14.2781 11.8739C14.2781 12.277 14.3692 12.6283 14.5522 12.9274L16.3228 9.4463C15.709 9.65424 15.2144 9.95183 14.84 10.3391C14.4653 10.7266 14.2778 11.2382 14.2781 11.8739ZM13.294 12.6732C13.3051 12.6693 13.3162 12.6654 13.3273 12.6614L13.4768 13.1588C13.1766 13.2958 12.8296 13.368 12.4267 13.368C11.8183 13.368 11.4528 13.2119 11.2342 12.9863C11.0128 12.7578 10.8579 12.3715 10.8579 11.7331V9.96677V9.36755L10.3198 9.4655V9.0088C10.3832 8.99421 10.4396 8.98078 10.4887 8.96855L10.8677 8.87403V8.48341V7.40837C11.1152 7.34473 11.3581 7.28047 11.5962 7.2156V8.03032V8.69132L12.2322 8.51145C12.6718 8.38714 13.1367 8.24608 13.6268 8.08847V8.60081C13.0434 8.78494 12.4874 8.94697 11.9584 9.08705L11.5864 9.18557V9.57039V11.5443C11.5864 11.8422 11.6454 12.1585 11.8483 12.4064C12.067 12.6735 12.3768 12.7715 12.6816 12.7715C12.8864 12.7715 13.0896 12.7391 13.2834 12.6767L13.2834 12.6768L13.294 12.6732ZM9.54506 13.1643C9.26126 13.2962 8.92519 13.3671 8.52575 13.3671H8.52563C7.93484 13.3672 7.58216 13.2139 7.37112 12.993C7.15599 12.7678 7.00423 12.3853 7.00423 11.7514V10.4952V9.94501L6.45659 9.99744C6.44046 9.99899 6.42462 10.0005 6.40906 10.002V9.60011C6.47283 9.59446 6.52573 9.58901 6.56717 9.58375L7.00423 9.52829V9.08773V8.14323C7.23139 8.11513 7.44276 8.08691 7.63822 8.05855V8.88893V9.45919L8.20358 9.38464C8.4176 9.35642 8.61028 9.32939 8.781 9.30358V9.73148C8.58169 9.76178 8.34653 9.79432 8.0748 9.82907L7.63822 9.88489V10.325V11.5815C7.63822 11.8966 7.69675 12.2248 7.8963 12.4826C8.11469 12.7648 8.43145 12.8749 8.75229 12.8749V12.3749C8.9017 12.3752 9.05049 12.3496 9.19166 12.2993C9.20783 12.2931 9.22393 12.2867 9.23997 12.2802L9.40327 12.7534C9.39253 12.7577 9.38177 12.7619 9.37098 12.766L9.35956 12.7704L9.3595 12.7703C9.16432 12.8398 8.95841 12.8753 8.75127 12.8749L9.54506 13.1643ZM2.02413 9.71407L2.02526 9.71347C2.34229 9.54508 2.70733 9.45571 3.13199 9.45571C3.55638 9.45571 3.9216 9.54509 4.23847 9.71364L4.23979 9.71434C4.86924 10.0467 5.26301 10.6998 5.26301 11.4117C5.26301 12.1233 4.86921 12.7767 4.23979 13.1091L4.23873 13.1096C3.92172 13.278 3.55638 13.3674 3.13199 13.3674C2.7071 13.3674 2.34223 13.2782 2.02552 13.1098L2.0242 13.1091C1.39478 12.7767 1.00098 12.1233 1.00098 11.4117C1.00098 10.6996 1.39458 10.0464 2.02413 9.71407Z" fill="black" stroke="black"/>
</g>
<defs>
<clipPath id="clip0_60_437">
<rect width="20.0017" height="20.0017" fill="white" transform="translate(0.500977 -0.000854492)"/>
</clipPath>
</defs>
</svg>
