<svg width="20" height="20" viewBox="0 0 20 20" fill="none" xmlns="http://www.w3.org/2000/svg">
<g clip-path="url(#clip0_60_308)">
<path d="M18.4148 4.48843C18.6785 4.92773 18.9117 5.38699 19.1126 5.86251C19.3134 6.33789 19.4815 6.82835 19.6153 7.32978C19.7492 7.83135 19.8484 8.34243 19.9123 8.85932C19.9762 9.37609 20.0046 9.89722 19.9972 10.4185C19.9906 10.9396 19.9482 11.4597 19.8705 11.9743C19.7928 12.489 19.68 12.9969 19.533 13.4941C19.3859 13.9913 19.2049 14.4765 18.9916 14.9456C18.7783 15.4149 18.5331 15.8671 18.258 16.2983C18.0707 16.5909 17.8699 16.8732 17.6564 17.1446C17.4427 17.4159 17.2167 17.6758 16.979 17.9234C16.7412 18.171 16.4921 18.4058 16.2325 18.6272C15.9729 18.8485 15.7033 19.0562 15.4245 19.2492C15.216 19.3846 15.0967 19.3468 15.0415 19.2966C14.9338 19.199 15.1056 18.8645 15.1056 18.8645H15.102C15.5028 18.0092 15.7379 16.7929 15.7379 15.6438C15.7379 15.3284 15.7184 15.0166 15.6863 14.7116C15.5527 12.4504 13.9329 10.6259 11.435 8.57034C10.4198 7.73286 9.63617 6.99492 9.08398 6.28449C8.95308 6.11963 8.83996 5.95676 8.73579 5.79191L8.95308 6.09504C8.50071 5.45837 8.23096 4.65897 8.23096 3.78923C8.23096 1.70141 9.78659 0.00952632 11.7092 0.00014019C11.8607 0.00106558 12.0121 0.00807213 12.1632 0.0208954C12.3141 0.0337187 12.4646 0.0523588 12.6143 0.0769478C12.7641 0.101537 12.9129 0.131943 13.0605 0.168033C13.2081 0.204255 13.3545 0.246163 13.4992 0.293754L14.0246 0.483195C15.7993 1.23541 17.3462 2.71604 18.4148 4.48843Z" fill="#F4732A"/>
<path d="M10.8364 12.2146C11.0819 12.4161 11.3047 12.647 11.5006 12.9027C11.6965 13.1584 11.8641 13.4372 12.0001 13.7336C12.1361 14.03 12.2396 14.3419 12.3086 14.6636C12.3776 14.9851 12.4115 15.314 12.4099 15.6438C12.4122 16.0658 12.3559 16.4858 12.2429 16.8903C12.1299 17.2949 11.9614 17.6796 11.7431 18.0318C11.5247 18.3841 11.2587 18.7003 10.9536 18.97C10.6486 19.2398 10.3078 19.4603 9.94234 19.6244H9.93961C9.93961 19.6244 6.97603 21.0481 3.52091 18.3427H3.52352C3.35073 18.21 3.18316 18.0698 3.02106 17.9226C2.85895 17.7753 2.70269 17.6211 2.5524 17.4603C2.40223 17.2995 2.25828 17.1321 2.12079 16.9588C1.98343 16.7855 1.85278 16.6062 1.72921 16.4216C1.4249 15.9416 1.15763 15.4362 0.929889 14.9103C0.702275 14.3845 0.515062 13.8399 0.369866 13.2818C0.224795 12.7238 0.122486 12.1543 0.0636869 11.5787C0.00501194 11.0033 -0.00978113 10.4236 0.0194321 9.84546C0.0640599 8.9354 0.217833 8.03526 0.477022 7.16671C0.736212 6.29816 1.0987 5.46848 1.55567 4.69763C2.01264 3.92691 2.56036 3.2215 3.18552 2.59844C3.81068 1.97552 4.50819 1.44012 5.2609 1.00518C5.76498 0.750433 5.53339 1.26667 5.53339 1.26667V1.2705C5.41405 1.56319 5.30988 1.86249 5.22535 2.17038C4.29115 5.55322 5.99558 8.29662 9.27268 10.8401L10.8373 12.2137L10.8364 12.2146Z" fill="#092540"/>
</g>
<defs>
<clipPath id="clip0_60_308">
<rect width="20.0017" height="20.0017" fill="white" transform="translate(0.000976562 -0.000854492)"/>
</clipPath>
</defs>
</svg>
