<svg width="40" height="40" viewBox="0 0 40 40" fill="none" xmlns="http://www.w3.org/2000/svg">
<rect width="40" height="40" rx="8" fill="#F5F5F9"/>
<g clip-path="url(#clip0_6046_61357)">
<path d="M25 11.7856H15C14.0532 11.7868 13.1454 12.1634 12.4759 12.8329C11.8064 13.5025 11.4297 14.4102 11.4286 15.3571V25.3571C11.4297 26.3039 11.8064 27.2117 12.4759 27.8812C13.1454 28.5507 14.0532 28.9274 15 28.9285H25C25.9469 28.9274 26.8546 28.5507 27.5241 27.8812C28.1937 27.2117 28.5703 26.3039 28.5714 25.3571V15.3571C28.5703 14.4102 28.1937 13.5025 27.5241 12.8329C26.8546 12.1634 25.9469 11.7868 25 11.7856ZM15 13.2142H25C25.5683 13.2142 26.1134 13.44 26.5152 13.8418C26.9171 14.2437 27.1429 14.7888 27.1429 15.3571V25.3571C27.1416 25.6753 27.0684 25.9891 26.9286 26.2749L20.3836 19.7299C20.0519 19.3982 19.6582 19.135 19.2248 18.9555C18.7915 18.776 18.327 18.6835 17.8579 18.6835C17.3888 18.6835 16.9243 18.776 16.4909 18.9555C16.0576 19.135 15.6638 19.3982 15.3322 19.7299L12.8572 22.2042V15.3571C12.8572 14.7888 13.0829 14.2437 13.4848 13.8418C13.8867 13.44 14.4317 13.2142 15 13.2142ZM15 27.4999C14.4317 27.4999 13.8867 27.2742 13.4848 26.8723C13.0829 26.4704 12.8572 25.9254 12.8572 25.3571V24.2242L16.3414 20.7399C16.5404 20.5408 16.7767 20.3828 17.0368 20.2751C17.2969 20.1673 17.5756 20.1118 17.8572 20.1118C18.1387 20.1118 18.4174 20.1673 18.6775 20.2751C18.9376 20.3828 19.1739 20.5408 19.3729 20.7399L25.9179 27.2856C25.632 27.4254 25.3182 27.4987 25 27.4999H15Z" fill="#DCDBF0"/>
<path d="M22.8572 19.2855C23.3516 19.2855 23.835 19.1388 24.2461 18.8641C24.6572 18.5894 24.9776 18.199 25.1669 17.7422C25.3561 17.2854 25.4056 16.7827 25.3091 16.2977C25.2127 15.8128 24.9746 15.3673 24.6249 15.0177C24.2753 14.6681 23.8298 14.43 23.3449 14.3335C22.8599 14.237 22.3573 14.2866 21.9005 14.4758C21.4436 14.665 21.0532 14.9854 20.7785 15.3965C20.5038 15.8077 20.3572 16.291 20.3572 16.7855C20.3572 17.4485 20.6206 18.0844 21.0894 18.5532C21.5582 19.0221 22.1941 19.2855 22.8572 19.2855ZM22.8572 15.714C23.0691 15.714 23.2762 15.7769 23.4524 15.8946C23.6286 16.0123 23.7659 16.1797 23.847 16.3755C23.9281 16.5712 23.9493 16.7867 23.908 16.9945C23.8667 17.2023 23.7646 17.3932 23.6148 17.5431C23.4649 17.6929 23.274 17.795 23.0662 17.8363C22.8583 17.8777 22.6429 17.8564 22.4471 17.7753C22.2514 17.6942 22.084 17.5569 21.9663 17.3807C21.8486 17.2045 21.7857 16.9974 21.7857 16.7855C21.7857 16.5013 21.8986 16.2288 22.0995 16.0279C22.3005 15.8269 22.573 15.714 22.8572 15.714Z" fill="#DCDBF0"/>
</g>
<defs>
<clipPath id="clip0_6046_61357">
<rect width="17.1429" height="17.1429" fill="white" transform="translate(11.4286 11.7856)"/>
</clipPath>
</defs>
</svg>
