<svg width="16" height="16" viewBox="0 0 16 16" fill="none" xmlns="http://www.w3.org/2000/svg"><g id="Group" fill="#000"><path id="Vector" d="M5.881.523C3.435.704 1.356.871 1.26.89a.898.898 0 00-.641.48l-.103.215.01 5.131.015 5.132.156.318c.088.176.685.998 1.336 1.844 1.286 1.668 1.379 1.76 1.868 1.81.142.014 1.208-.035 2.363-.103 1.16-.073 3.018-.186 4.133-.25 4.764-.289 4.52-.264 4.793-.499.343-.284.319.181.333-6.056.01-5.287.005-5.635-.073-5.796-.093-.181-.26-.308-2.431-1.834C11.565.264 11.462.21 10.81.2c-.268-.01-2.49.137-4.93.323zm5.498.67c.206.093 1.707 1.14 1.927 1.34.059.06.079.108.05.138-.07.059-9.363.611-9.632.572a1.212 1.212 0 01-.406-.161c-.426-.289-1.482-1.155-1.482-1.218 0-.167-.034-.167 4.109-.465.792-.054 2.093-.151 2.886-.215 1.716-.137 2.23-.132 2.548.01zm2.955 2.676c.068.069.127.2.146.328.015.117.025 2.309.015 4.862-.015 4.383-.02 4.657-.103 4.784a.495.495 0 01-.22.186c-.205.083-9.944.636-10.145.577a.756.756 0 01-.288-.17l-.118-.128-.014-4.725c-.01-3.317 0-4.784.039-4.916a.514.514 0 01.166-.255c.088-.058.666-.107 2.652-.224 1.394-.079 3.55-.21 4.788-.284 2.945-.181 2.935-.181 3.082-.035z"/><path id="Vector_2" d="M11.716 5.488c-.528.035-.997.084-1.051.113a.493.493 0 00-.279.377c-.014.161.034.18.562.244l.23.03V8.34c0 1.243-.02 2.065-.044 2.04-.024-.03-.719-1.086-1.545-2.348a310.64 310.64 0 00-1.522-2.318c-.01-.01-.548.02-1.193.064-.793.053-1.228.102-1.316.151-.142.073-.299.333-.299.504 0 .103.186.157.578.157h.205v6.006l-.333.103c-.259.078-.347.127-.39.225-.08.166-.074.318.004.318.03 0 .582-.034 1.218-.073 1.257-.074 1.399-.108 1.53-.367a.749.749 0 00.074-.186c0-.02-.17-.078-.377-.127-.21-.05-.42-.098-.464-.108-.083-.024-.088-.176-.088-2.28V7.847l1.487 2.334c1.56 2.446 1.756 2.725 1.995 2.847.299.156 1.057.049 1.439-.2l.117-.074.01-3.336.015-3.34.259-.05c.308-.059.45-.2.45-.445 0-.156-.01-.166-.157-.161-.087.004-.591.033-1.114.067z"/></g></svg>