<svg width="41" height="40" viewBox="0 0 41 40" fill="none" xmlns="http://www.w3.org/2000/svg">
<g clip-path="url(#clip0_11_20065)">
<path d="M20.5 0C9.4725 0 0.5 8.9375 0.5 19.9222C0.5 30.9081 9.4725 39.845 20.5 39.845C31.5275 39.845 40.5 30.9081 40.5 19.9222C40.5 8.9375 31.5275 0 20.5 0Z" fill="white"/>
<path d="M19.7683 20.2804C19.5702 20.7079 19.3757 21.1371 19.1849 21.5679C18.4593 23.2057 17.6555 25.1992 17.3618 26.4761C17.2565 26.9307 17.1912 27.4942 17.1924 28.1192C17.1924 28.3661 17.2058 28.6261 17.2268 28.8907C18.2814 29.2764 19.3954 29.4742 20.5183 29.4751C21.5424 29.4733 22.5595 29.3081 23.5315 28.9857C23.3045 28.7822 23.0943 28.5607 22.903 28.3232C21.6187 26.6917 20.9021 24.3007 19.7683 20.2804ZM15.0265 12.1748C12.5733 13.8967 10.9683 16.7373 10.9624 19.9561C10.9683 23.1264 12.5252 25.9298 14.9165 27.6592C15.503 25.2251 16.9733 22.9967 19.178 18.5298C19.0358 18.1397 18.8868 17.7522 18.7312 17.3673C18.1202 15.8411 17.2387 14.0686 16.4518 13.2661C16.0508 12.8467 15.5643 12.4842 15.0265 12.1748Z" fill="#91DC47"/>
<path d="M28.843 30.8746C27.5774 30.7165 26.533 30.5259 25.619 30.2046C24.0334 30.9891 22.288 31.3963 20.519 31.3943C14.1774 31.3943 9.0371 26.2746 9.03617 19.9562C9.03617 16.5281 10.5524 13.4546 12.9512 11.3587C12.3096 11.204 11.6405 11.114 10.9574 11.1152C7.58804 11.1468 4.03179 13.004 2.55117 18.0199C2.41273 18.7502 2.44585 19.3021 2.44585 19.9565C2.44585 29.8996 10.538 37.9606 20.5193 37.9606C26.6321 37.9606 32.0321 34.9349 35.3021 30.3078C33.5334 30.7468 31.8324 30.9568 30.3762 30.9612C29.8302 30.9612 29.3177 30.9321 28.843 30.8746Z" fill="#63B132"/>
<path d="M25.4465 27.3856C25.5581 27.4406 25.8112 27.5306 26.1631 27.6303C28.5315 25.8984 30.0706 23.1087 30.0765 19.9559H30.0756C30.0668 14.6996 25.7965 10.4465 20.5187 10.4365C19.4991 10.4383 18.4862 10.6022 17.5181 10.9221C19.4587 13.1253 20.3918 16.2743 21.2943 19.7184L21.2959 19.7225C21.2974 19.7253 21.5846 20.6787 22.0774 21.9443C22.5668 23.2075 23.264 24.7718 24.0243 25.9118C24.5234 26.6756 25.0724 27.2243 25.4465 27.3856Z" fill="#90B4FE"/>
<path d="M5.83008 9.47222C7.53727 8.40722 9.28008 8.02315 10.8013 8.0369C12.902 8.04315 14.5538 8.6919 15.3463 9.13565C15.5376 9.24565 15.7195 9.36378 15.8976 9.48565C17.3541 8.84634 18.9276 8.51687 20.5182 8.51815C26.8604 8.51909 32.0016 13.6388 32.0026 19.956C32.0016 23.141 30.6938 26.021 28.5857 28.0947C29.1278 28.1564 29.673 28.1866 30.2185 28.1853C32.2204 28.1866 34.3838 27.7466 36.006 26.3875C37.0635 25.5 37.9498 24.2007 38.441 22.2522C38.537 21.4997 38.5923 20.7347 38.5923 19.9563C38.5923 10.0135 30.501 1.9519 20.5188 1.9519C14.4651 1.9519 9.11008 4.92065 5.83008 9.47222Z" fill="#5881D8"/>
</g>
<defs>
<clipPath id="clip0_11_20065">
<rect width="40" height="40" fill="white" transform="translate(0.5)"/>
</clipPath>
</defs>
</svg>
