<svg width="41" height="40" viewBox="0 0 41 40" fill="none" xmlns="http://www.w3.org/2000/svg">
<g clip-path="url(#clip0_11_19497)">
<path d="M6.96875 32.4688C3.9375 29.2188 2.125 24.75 2.15625 19.4062C2.125 14.6875 3.625 10.625 6.1875 7.53125H0.8125V32.4375L6.96875 32.4688ZM35.2188 32.4688C36.5312 31.0625 37.7188 29.4062 38.7812 27.5L32.8438 24.5312C30.75 27.9062 27.7188 31.0312 23.5 31.0625C17.375 31.0312 14.9688 25.7813 14.9688 19.0313H37.875C37.9062 18.2813 37.9062 17.9062 37.875 17.5625C38.0312 13.5312 36.9688 10.1562 35.0312 7.53125H40.1875V32.4375L35.2188 32.4688ZM15.3438 13.25C15.5938 10.1875 18 8.15625 20.8438 8.125C23.6875 8.125 25.75 10.1875 25.8125 13.25H15.3438Z" fill="#A90533"/>
</g>
<defs>
<clipPath id="clip0_11_19497">
<rect width="40" height="40" fill="white" transform="translate(0.5)"/>
</clipPath>
</defs>
</svg>
