<svg width="41" height="40" viewBox="0 0 41 40" fill="none" xmlns="http://www.w3.org/2000/svg">
<path fill-rule="evenodd" clip-rule="evenodd" d="M7.09388 21.4688C7.15638 22.5625 8.25013 22.0625 8.75012 21.7188C9.21887 21.375 9.37512 21.6563 9.40637 21C9.43762 20.5625 9.46887 20.1563 9.46887 19.7188C8.75013 19.6563 7.96888 19.8125 7.37513 20.25C7.09388 20.4688 6.50013 21.1875 7.09388 21.4688Z" fill="#F6D2A2"/>
<path d="M7.68774 22.25C7.46899 22.25 7.06274 22.1563 7.00024 21.5313C6.81274 21.4063 6.75024 21.25 6.75024 21.1562C6.71899 20.7812 7.12524 20.3437 7.34399 20.1875C7.84399 19.8125 8.50024 19.625 9.18774 19.625H9.59399V19.7187C9.62524 20.0625 9.59399 20.4063 9.56274 20.7188C9.56274 20.8125 9.56274 20.9062 9.53149 21C9.50024 21.4687 9.40649 21.5312 9.18774 21.625C9.09399 21.6562 9.00024 21.6875 8.84399 21.8125C8.68774 21.9063 8.15649 22.25 7.68774 22.25ZM9.18774 19.8125C8.53149 19.8125 7.93774 20 7.46899 20.3437C7.25024 20.5 6.93774 20.875 6.96899 21.125C6.96899 21.2188 7.03149 21.3125 7.15649 21.375L7.21899 21.4063V21.4687C7.25024 21.9688 7.50024 22.0313 7.68774 22.0313C8.00024 22.0313 8.43774 21.8125 8.71899 21.625C8.90649 21.5 9.03149 21.4688 9.12524 21.4375C9.28149 21.375 9.31274 21.375 9.34399 21C9.34399 20.9062 9.34399 20.8125 9.37524 20.7188C9.40649 20.4375 9.40649 20.125 9.40649 19.8438C9.31274 19.8125 9.25024 19.8125 9.18774 19.8125Z" fill="black"/>
<path fill-rule="evenodd" clip-rule="evenodd" d="M7.09375 21.4688C7.25 21.4062 7.4375 21.375 7.53125 21.2188L7.09375 21.4688Z" fill="#C6B198"/>
<path d="M7.0938 21.5623C7.06255 21.5623 7.00005 21.531 7.00005 21.4998C6.9688 21.4373 7.00005 21.3748 7.06255 21.3748C7.0938 21.3748 7.12505 21.3435 7.12505 21.3435C7.25005 21.281 7.37505 21.2498 7.43755 21.156C7.4688 21.1248 7.5313 21.0935 7.5938 21.1248C7.62505 21.156 7.6563 21.2185 7.62505 21.281C7.50005 21.4373 7.3438 21.4998 7.2188 21.531L7.1563 21.5623H7.0938Z" fill="black"/>
<path fill-rule="evenodd" clip-rule="evenodd" d="M9.65643 8.24999C5.40643 7.06249 8.56268 1.65624 11.9689 3.87499L9.65643 8.24999Z" fill="#6AD7E5"/>
<path d="M9.71886 8.375L9.62511 8.34375C7.43761 7.71875 7.46886 6.15625 7.53136 5.6875C7.68761 4.5 8.81261 3.25 10.3126 3.25C10.9064 3.25 11.4689 3.4375 12.0314 3.8125L12.1251 3.875L9.71886 8.375ZM10.3126 3.46875C8.90636 3.46875 7.87511 4.625 7.71886 5.71875C7.56261 6.84375 8.25011 7.71875 9.59386 8.125L11.8126 3.90625C11.3439 3.625 10.8439 3.46875 10.3126 3.46875Z" fill="black"/>
<path fill-rule="evenodd" clip-rule="evenodd" d="M28.5 3.4688C31.8437 1.12505 34.9062 6.43755 31 7.7813L28.5 3.4688Z" fill="#6AD7E5"/>
<path d="M30.9688 7.90625L28.375 3.4375L28.4688 3.375C29.0625 2.96875 29.6563 2.75 30.25 2.75C31.6875 2.75 32.7188 3.9375 32.9375 5.09375C33.0313 5.5625 33.125 7.15625 31.0625 7.84375L30.9688 7.90625ZM28.6563 3.53125L31.0625 7.6875C32.2813 7.25 32.9063 6.3125 32.7188 5.1875C32.5313 4.125 31.5625 3.03125 30.25 3.03125C29.7188 3 29.1875 3.15625 28.6563 3.53125Z" fill="black"/>
<path fill-rule="evenodd" clip-rule="evenodd" d="M29.25 35.0938C30.0937 35.625 31.6562 37.2188 30.375 38C29.1562 39.125 28.4687 36.75 27.375 36.4375C27.8437 35.8125 28.4375 35.2188 29.25 35.0938Z" fill="#F6D2A2"/>
<path d="M29.7187 38.4063C29.2187 38.4063 28.7812 37.9063 28.4062 37.4375C28.0625 37.0625 27.7187 36.6563 27.3437 36.5313L27.1875 36.5L27.2812 36.375C27.6562 35.8438 28.2812 35.1562 29.2187 35H29.25L29.2812 35.0312C29.8125 35.375 30.9687 36.3437 30.9375 37.25C30.9375 37.5937 30.75 37.875 30.4062 38.0938C30.1875 38.3125 29.9687 38.4063 29.7187 38.4063ZM27.5312 36.375C27.9062 36.5313 28.2187 36.9375 28.5312 37.2813C28.9062 37.75 29.2812 38.1562 29.6875 38.1562C29.875 38.1562 30.0625 38.0625 30.25 37.875H30.2812C30.5625 37.6875 30.7187 37.4687 30.7187 37.1875C30.7187 36.4687 29.8125 35.5625 29.1875 35.1562C28.625 35.3125 28.0625 35.6875 27.5312 36.375ZM30.375 38.0938C30.3437 38.0938 30.3125 38.0625 30.2812 38.0312C30.2187 37.9062 30.1562 37.75 30.125 37.625C30.0312 37.375 29.9375 37.125 29.75 36.9375C29.7187 36.9062 29.7187 36.8437 29.75 36.7812C29.7812 36.75 29.8437 36.75 29.9062 36.7812C30.125 37 30.25 37.2812 30.3437 37.5625L30.5 37.9375C30.5312 38 30.5 38.0625 30.4687 38.0938H30.375Z" fill="black"/>
<path fill-rule="evenodd" clip-rule="evenodd" d="M14.0002 36.9065C13.0002 37.0627 12.4377 37.969 11.5939 38.4377C10.8127 38.9065 10.5002 38.2815 10.4377 38.1565C10.3127 38.094 10.3127 38.219 10.1252 38.0315C9.4064 36.8752 10.8752 36.0315 11.6564 35.469C12.7502 35.219 13.4377 36.1565 14.0002 36.9065Z" fill="#F6D2A2"/>
<path d="M11.0626 38.6875C10.6564 38.6875 10.4376 38.3438 10.3751 38.2188H10.3439C10.2501 38.2188 10.1876 38.1875 10.0626 38.0625V38.0312C9.37513 36.9375 10.5626 36.0937 11.3439 35.5312L11.6251 35.3437H11.6876C11.8126 35.3125 11.9064 35.3125 12.0314 35.3125C12.9689 35.3125 13.5626 36.125 14.0626 36.7812L14.2189 37L14.0314 37.0312C13.4376 37.125 13.0001 37.5 12.5626 37.875C12.2814 38.125 12.0001 38.3438 11.6876 38.5312C11.4376 38.625 11.2501 38.6875 11.0626 38.6875ZM10.3751 38.0312C10.4064 38.0312 10.4376 38.0313 10.5001 38.0625H10.5314L10.5626 38.0937C10.6251 38.1875 10.7814 38.4687 11.0939 38.4687C11.2501 38.4687 11.4064 38.4062 11.5626 38.3125C11.8751 38.1562 12.1564 37.9062 12.4064 37.6875C12.8126 37.3437 13.2501 36.9688 13.8126 36.8125C13.3439 36.1875 12.7814 35.5 12.0001 35.5C11.9064 35.5 11.8126 35.5 11.7189 35.5312L11.4689 35.7188C10.6564 36.2813 9.65638 37 10.2501 37.9375C10.2814 38 10.3126 38.0312 10.3751 38.0312ZM10.4376 38.25C10.3751 38.25 10.3126 38.1875 10.3439 38.125C10.3751 37.8125 10.5314 37.5937 10.6876 37.3437C10.7814 37.2187 10.8439 37.0938 10.9064 36.9688C10.9376 36.9063 11.0001 36.9062 11.0314 36.9062C11.0939 36.9375 11.0939 37 11.0939 37.0312C11.0314 37.1875 10.9376 37.3125 10.8439 37.4375C10.6876 37.6563 10.5626 37.8437 10.5314 38.0937C10.5314 38.2187 10.5001 38.25 10.4376 38.25Z" fill="black"/>
<path fill-rule="evenodd" clip-rule="evenodd" d="M9.84379 6.78118C9.28129 6.49993 8.87504 6.09368 9.21879 5.43743C9.53129 4.84368 10.125 4.90618 10.6875 5.18743L9.84379 6.78118ZM30.125 6.21868C30.6875 5.93743 31.0938 5.53118 30.75 4.87493C30.4375 4.28118 29.8438 4.34368 29.2813 4.62493L30.125 6.21868Z" fill="black"/>
<path fill-rule="evenodd" clip-rule="evenodd" d="M33.9688 21.3125C33.9063 22.4063 32.8125 21.9063 32.3125 21.5625C31.8438 21.2188 31.6875 21.5 31.6562 20.8438C31.625 20.4063 31.5938 20 31.5938 19.5625C32.3125 19.5 33.0938 19.6563 33.6875 20.0938C34 20.3438 34.5625 21.0313 33.9688 21.3125Z" fill="#F6D2A2"/>
<path d="M33.406 22.0938C32.9373 22.0938 32.406 21.75 32.2498 21.6563C32.0935 21.5625 31.9998 21.5 31.906 21.4687C31.656 21.375 31.5935 21.3125 31.5623 20.8437C31.5623 20.75 31.5623 20.6563 31.531 20.5625C31.4998 20.25 31.4685 19.9062 31.4998 19.5625V19.4688H31.906C32.5935 19.4688 33.2498 19.6562 33.7498 20.0312C33.9685 20.1875 34.3748 20.625 34.3435 21C34.3435 21.125 34.281 21.2813 34.0935 21.375C34.031 22 33.6248 22.0938 33.406 22.0938ZM31.6873 19.6875C31.6873 19.9688 31.6873 20.2813 31.7185 20.5625C31.7185 20.6563 31.7185 20.75 31.7498 20.8437C31.781 21.2187 31.8123 21.2188 31.9685 21.2813C32.0623 21.3125 32.1873 21.375 32.3748 21.4687C32.656 21.6562 33.0935 21.875 33.406 21.875C33.5935 21.875 33.8435 21.8125 33.8748 21.3125V21.25L33.9373 21.2188C34.0623 21.1563 34.1248 21.0938 34.1248 20.9688C34.156 20.7188 33.8435 20.3438 33.6248 20.1875C33.156 19.8437 32.531 19.6563 31.906 19.6563C31.8435 19.6875 31.781 19.6875 31.6873 19.6875Z" fill="black"/>
<path fill-rule="evenodd" clip-rule="evenodd" d="M33.9688 21.3125C33.8125 21.25 33.625 21.2188 33.5312 21.0625L33.9688 21.3125Z" fill="#C6B198"/>
<path d="M33.9688 21.4375H33.9375L33.875 21.4063C33.7188 21.3438 33.5625 21.3125 33.4688 21.1563C33.4375 21.125 33.4375 21.0313 33.5 21C33.5313 20.9688 33.625 20.9688 33.6563 21.0313C33.7188 21.125 33.8438 21.1563 33.9688 21.2188C34 21.2188 34.0313 21.25 34.0313 21.25C34.0938 21.2813 34.125 21.3438 34.0938 21.375C34.0625 21.4063 34 21.4375 33.9688 21.4375Z" fill="black"/>
<path fill-rule="evenodd" clip-rule="evenodd" d="M20.125 1.25C24.375 1.25 28.3438 1.84375 30.4375 5.9375C32.3125 10.5 31.625 15.4375 31.9375 20.2812C32.1875 24.4375 32.7188 29.2188 30.8125 33.0625C28.7813 37.0938 23.7188 38.125 19.5625 37.9688C16.2813 37.8438 12.3438 36.7812 10.4688 33.7812C8.31253 30.2812 9.31253 25.0625 9.46878 21.1562C9.65628 16.5312 8.21878 11.875 9.75003 7.375C11.2813 2.65625 15.5313 1.59375 20.125 1.25Z" fill="#6AD7E5"/>
<path d="M20.2811 38.0939H19.4999C18.2186 38.0626 16.2811 37.8439 14.3749 37.0626C12.5311 36.3126 11.1874 35.2501 10.3124 33.8439C8.56239 31.0002 8.87489 27.0939 9.15614 23.6251C9.21864 22.7501 9.28114 21.9376 9.31239 21.1564C9.37489 19.5314 9.24989 17.8439 9.09364 16.2502C8.84364 13.3127 8.59364 10.2814 9.56239 7.3439C10.3124 5.1564 11.6561 3.5939 13.6874 2.5939C15.2811 1.81265 17.2499 1.37515 20.0624 1.1564C24.2499 1.12515 28.4061 1.7189 30.4999 5.87515C31.8749 9.2189 31.8749 12.8127 31.9061 16.2814C31.9061 17.5939 31.9061 18.9377 31.9999 20.2502C32.0311 20.6564 32.0624 21.0626 32.0624 21.4689C32.3124 25.2814 32.5936 29.5939 30.8436 33.0939C29.9686 34.8751 28.4374 36.1876 26.3436 37.0314C24.6561 37.7189 22.5311 38.0939 20.2811 38.0939ZM20.1249 1.3439C15.7186 1.68765 11.4061 2.6564 9.81239 7.4064C8.84364 10.3127 9.09364 13.3127 9.34364 16.2189C9.46864 17.8439 9.62489 19.5001 9.56239 21.1564C9.53114 21.9376 9.46864 22.7501 9.40614 23.6251C9.12489 27.0626 8.81239 30.9377 10.5311 33.7189C11.2499 34.8751 13.5624 37.6251 19.5311 37.8439H20.3124C27.2186 37.8439 29.7811 34.7814 30.7186 32.9689C32.4374 29.5314 32.1561 25.2189 31.9374 21.4376C31.9061 21.0314 31.8749 20.6252 31.8749 20.2189C31.8124 18.9064 31.7811 17.5627 31.7811 16.2502C31.7499 12.8127 31.7499 9.2189 30.4061 5.9064C29.4686 4.06265 28.0624 2.81265 26.1249 2.0939C24.1249 1.43765 21.8749 1.3439 20.1249 1.3439Z" fill="black"/>
<path fill-rule="evenodd" clip-rule="evenodd" d="M20.8749 6.93734C21.6249 11.3748 28.8749 10.1873 27.8437 5.71859C26.9062 1.71859 20.6249 2.84359 20.8749 6.93734Z" fill="white"/>
<path d="M24.3125 9.84375C22.9063 9.84375 21.125 9.09375 20.75 6.96875C20.6875 5.96875 21 5.0625 21.6563 4.375C22.375 3.59375 23.4688 3.15625 24.5938 3.15625C25.9063 3.15625 27.4688 3.84375 27.9063 5.75C28.1563 6.8125 27.9688 7.75 27.375 8.5C26.7188 9.3125 25.5625 9.84375 24.3125 9.84375ZM20.9688 6.9375C21.125 7.8125 21.5313 8.5 22.1875 9C22.75 9.4375 23.5313 9.65625 24.3125 9.65625C25.4688 9.65625 26.5938 9.15625 27.2188 8.375C27.7813 7.6875 27.9375 6.78125 27.7188 5.78125C27.3125 4 25.8438 3.375 24.5938 3.375C23.5313 3.375 22.5 3.8125 21.8125 4.53125C21.2188 5.15625 20.9063 6 20.9688 6.9375Z" fill="black"/>
<path fill-rule="evenodd" clip-rule="evenodd" d="M12.2188 7.65605C13.2188 11.4998 19.375 10.531 19.1563 6.65605C18.875 2.03105 11.25 2.90605 12.2188 7.65605Z" fill="white"/>
<path d="M15.5 10.2187C14.1563 10.2187 12.5938 9.5625 12.0938 7.6875C11.875 6.59375 12.0938 5.59375 12.7188 4.84375C13.4063 4 14.5313 3.5 15.75 3.5C17.375 3.5 19.0938 4.46875 19.2188 6.65625C19.2813 7.5625 19 8.375 18.375 9.03125C17.7188 9.75 16.625 10.2187 15.5 10.2187ZM15.75 3.71875C14.5938 3.71875 13.5313 4.1875 12.875 4.96875C12.2813 5.6875 12.0938 6.59375 12.3125 7.625C12.75 9.375 14.25 10 15.5 10C16.5625 10 17.5938 9.59375 18.25 8.875C18.8125 8.28125 19.0938 7.5 19.0313 6.65625C18.9688 5.3125 18.0625 3.71875 15.75 3.71875Z" fill="black"/>
<path fill-rule="evenodd" clip-rule="evenodd" d="M21.7501 12.25C21.7501 12.8125 21.8751 13.4687 21.7813 14.0937C21.6251 14.375 21.3438 14.4062 21.0938 14.5C20.7501 14.4375 20.4688 14.2187 20.3126 13.9062C20.2188 13.2187 20.3438 12.5312 20.3751 11.8438L21.7501 12.25Z" fill="white"/>
<path d="M21.0937 14.625C20.6875 14.5625 20.375 14.3125 20.2187 13.9688C20.1562 13.4688 20.1875 13 20.2187 12.5312C20.25 12.3125 20.25 12.0938 20.25 11.875V11.75L21.8437 12.25V12.3125C21.8437 12.5 21.875 12.6875 21.875 12.9063C21.9062 13.3125 21.9375 13.75 21.875 14.1562V14.1875C21.75 14.4375 21.5312 14.5 21.3125 14.5938C21.25 14.5625 21.1875 14.5938 21.0937 14.625ZM20.4062 13.875C20.5312 14.1563 20.7812 14.3437 21.0625 14.4062C21.125 14.375 21.1875 14.375 21.2187 14.3438C21.4062 14.2813 21.5624 14.2188 21.6562 14.0625C21.7187 13.6875 21.6874 13.2813 21.6562 12.875C21.6562 12.6875 21.625 12.5 21.625 12.3438L20.4375 11.9688C20.4375 12.1563 20.4062 12.3438 20.4062 12.5C20.375 13 20.3437 13.4375 20.4062 13.875Z" fill="black"/>
<path fill-rule="evenodd" clip-rule="evenodd" d="M14.9688 7.03125C14.9688 7.65625 14.5 8.15625 13.9375 8.15625C13.375 8.15625 12.9062 7.65625 12.9062 7.03125C12.9062 6.40625 13.375 5.90625 13.9375 5.90625C14.5 5.90625 14.9688 6.40625 14.9688 7.03125Z" fill="black"/>
<path fill-rule="evenodd" clip-rule="evenodd" d="M14.625 7.28125C14.625 7.4375 14.5 7.5625 14.375 7.5625C14.25 7.5625 14.125 7.4375 14.125 7.28125C14.125 7.125 14.25 7 14.375 7C14.5313 7 14.625 7.125 14.625 7.28125Z" fill="white"/>
<path fill-rule="evenodd" clip-rule="evenodd" d="M23.6875 6.75C23.6875 7.375 23.2188 7.875 22.6563 7.875C22.0938 7.875 21.625 7.375 21.625 6.75C21.625 6.125 22.0938 5.625 22.6563 5.625C23.2188 5.625 23.6875 6.125 23.6875 6.75Z" fill="black"/>
<path fill-rule="evenodd" clip-rule="evenodd" d="M23.3752 7C23.3752 7.15625 23.2815 7.28125 23.1252 7.28125C23.0002 7.28125 22.8752 7.15625 22.8752 7C22.8752 6.84375 22.969 6.71875 23.1252 6.71875C23.2502 6.71875 23.3752 6.84375 23.3752 7ZM18.7502 12.1875C18.2815 13.2812 19.0002 15.5 20.2502 13.875C20.1565 13.1875 20.2815 12.5 20.3127 11.8125L18.7502 12.1875Z" fill="white"/>
<path d="M19.4065 14.5625C19.1877 14.5625 18.969 14.4375 18.8127 14.1875C18.469 13.6875 18.4065 12.75 18.6565 12.1563L18.6877 12.0938L20.4065 11.6562V11.7813L20.3752 12.4688C20.344 12.9375 20.3127 13.375 20.3752 13.8438V13.875L20.344 13.9063C20.0315 14.3438 19.719 14.5625 19.4065 14.5625ZM18.844 12.2813C18.6565 12.8125 18.719 13.6563 19.0002 14.0625C19.1252 14.25 19.2502 14.3438 19.4065 14.3438C19.6252 14.3438 19.8752 14.1563 20.1252 13.8438C20.0627 13.375 20.094 12.9063 20.1565 12.4688L20.1877 11.9375L18.844 12.2813Z" fill="black"/>
<path fill-rule="evenodd" clip-rule="evenodd" d="M18.9063 10.0625C18.0626 10.125 17.3751 11.1562 17.8126 11.9375C18.4063 13 19.6876 11.8437 20.5001 11.9375C21.4376 11.9687 22.1876 12.9375 22.9376 12.125C23.7813 11.2187 22.5626 10.3437 21.6563 9.9375L18.9063 10.0625Z" fill="#F6D2A2"/>
<path d="M22.2811 12.5625C21.9999 12.5625 21.7186 12.4375 21.4374 12.3125C21.1561 12.1875 20.8436 12.0625 20.4999 12.0625H20.4061C20.1561 12.0625 19.8749 12.1562 19.5624 12.2812C19.2186 12.4062 18.8749 12.5 18.5624 12.5C18.1874 12.5 17.9061 12.3438 17.7186 12C17.4999 11.625 17.5311 11.1875 17.7499 10.7812C17.9999 10.3125 18.4374 10.0312 18.9061 9.96875L21.6874 9.84375H21.7186C22.4061 10.125 23.1874 10.6562 23.3436 11.2812C23.4061 11.5937 23.3124 11.9062 23.0624 12.1875C22.8124 12.4687 22.5624 12.5625 22.2811 12.5625ZM20.5311 11.875C20.8749 11.875 21.2186 12.0313 21.5311 12.1563C21.8124 12.2813 22.0624 12.375 22.3124 12.375C22.5311 12.375 22.7186 12.2812 22.9061 12.0938C23.1249 11.875 23.1874 11.625 23.1561 11.375C23.0311 10.8438 22.2811 10.3437 21.6874 10.0937L18.9686 10.2188C18.5624 10.25 18.1874 10.5313 17.9686 10.9063C17.7811 11.25 17.7811 11.625 17.9374 11.9375C18.0936 12.2188 18.2811 12.3437 18.5936 12.3437C18.8749 12.3437 19.1874 12.2187 19.4999 12.125C19.8436 12 20.1249 11.9062 20.4374 11.9062C20.4374 11.8437 20.4686 11.8437 20.5311 11.875Z" fill="#231F20"/>
<path fill-rule="evenodd" clip-rule="evenodd" d="M18.8125 10.0312C18.75 8.56243 21.5626 8.37493 21.8751 9.59368C22.2188 10.8437 18.9375 11.1249 18.8125 10.0312Z" fill="black"/>
</svg>
