<svg width="41" height="40" viewBox="0 0 41 40" fill="none" xmlns="http://www.w3.org/2000/svg">
<g clip-path="url(#clip0_11_19408)">
<path d="M20.5344 26.2246L20.5403 26.2099C20.5319 26.1733 20.5294 26.1637 20.5341 26.2246H20.5344Z" fill="#484444"/>
<path d="M20.5344 26.2246L20.5403 26.2099C20.5319 26.1733 20.5294 26.1637 20.5341 26.2246H20.5344Z" fill="url(#paint0_linear_11_19408)"/>
<path d="M20.8029 36.076C20.6623 35.7832 20.4854 35.2094 20.3685 34.9566C20.2573 34.721 19.9204 34.106 19.7517 33.9082C19.3845 33.4785 19.2976 33.4466 19.1904 32.9035C19.0023 31.9588 18.5054 30.2447 17.9195 29.0619C17.6167 28.4516 17.1138 27.9388 16.6538 27.4957C16.252 27.1075 15.3463 26.4544 15.1876 26.4875C13.7082 26.7829 13.2492 28.2344 12.552 29.3844C12.1676 30.02 11.7598 30.561 11.456 31.2372C11.1751 31.8597 11.2007 32.5482 10.721 33.0816C10.2279 33.631 9.90791 34.2144 9.6676 34.9225C9.62135 35.0569 9.49166 36.4704 9.3501 36.806L11.5501 36.651C13.5995 36.7916 13.0073 37.5775 16.207 37.4054L21.2582 37.2491C21.1007 36.7866 20.8845 36.2507 20.8017 36.076H20.8029Z" fill="url(#paint1_linear_11_19408)"/>
<path d="M35.4609 2.56965H5.5415C2.75838 2.5709 0.502441 4.82652 0.502441 7.60996V18.6047C1.22369 18.3434 2.26025 16.8103 2.58494 16.4368C3.15369 15.785 3.25619 14.9525 3.53963 14.4287C4.18525 13.235 4.29619 12.4146 5.76119 12.4146C6.44463 12.4146 6.71588 12.5718 7.17838 13.1921C7.49932 13.6231 8.05619 14.4203 8.31494 14.9525C8.61494 15.5675 9.10463 16.399 9.31963 16.5662C9.47932 16.6918 9.63682 16.7846 9.78463 16.8397C10.0215 16.93 10.219 16.7662 10.3778 16.6397C10.5806 16.4771 10.6684 16.1487 10.8565 15.7093C11.1274 15.0756 11.4215 14.3162 11.5899 14.05C11.8806 13.5925 11.9793 13.0493 12.2931 12.7856C12.7571 12.3975 13.3599 12.3706 13.5274 12.3375C14.4574 12.1531 14.8799 12.7856 15.3374 13.1946C15.6378 13.4618 16.0468 14.0015 16.3387 14.7228C16.5656 15.2881 16.8549 15.8103 16.9759 16.1365C17.0931 16.4503 17.3821 16.9553 17.5531 17.5584C17.7081 18.1078 18.1243 18.529 18.2818 18.789C18.2818 18.789 18.5237 19.4665 19.9943 20.0865C20.3131 20.2209 20.9578 20.4396 21.3421 20.5787C21.9818 20.8118 22.6009 20.7812 23.3893 20.6871C23.9509 20.6871 24.2562 19.8731 24.5112 19.2212C24.6624 18.8368 24.8065 17.7318 24.9056 17.4193C25.0006 17.1143 24.7774 16.8787 24.9678 16.6112C25.1896 16.2987 25.3218 16.2818 25.4499 15.8753C25.7259 15.005 27.3199 14.9609 28.2146 14.9609C28.9643 14.9609 28.8665 15.6859 30.1337 15.4381C30.8587 15.2953 31.5584 15.5309 32.3287 15.735C32.9768 15.9068 33.5859 16.1021 33.9521 16.5306C34.189 16.8078 34.7749 18.1947 34.1768 18.2543C34.234 18.324 34.2768 18.4509 34.3843 18.5206C34.2512 19.044 33.6712 18.6706 33.3503 18.6034C32.9159 18.5143 32.6106 18.6168 32.1859 18.805C31.4609 19.1284 30.3999 19.0906 29.7674 19.6165C29.2315 20.0634 29.2331 21.0584 28.9828 21.6162C28.9828 21.6162 28.2881 23.4034 26.7718 24.4959C26.3837 24.7765 25.6256 25.4503 23.974 25.7053C23.2343 25.8203 22.5409 25.8287 21.7803 25.7909L20.6831 25.7493C20.4659 25.7484 19.7259 25.7237 19.7628 25.7947L19.6796 25.9996C19.6931 26.0681 19.7199 26.2353 19.7271 26.2768C19.7578 26.4415 19.7662 26.5737 19.7724 26.7259C19.7834 27.0384 19.7468 27.3643 19.7628 27.6806C19.7956 28.335 20.0384 28.9331 20.069 29.5934C20.1034 30.3297 20.4671 31.1072 20.8187 31.709C20.9531 31.9372 21.1556 31.9628 21.2446 32.245C21.3484 32.5668 21.2509 32.9103 21.3009 33.2543C21.4984 34.5875 21.8806 35.9825 22.4837 37.1862C22.4874 37.1963 22.4919 37.2062 22.4971 37.2156C23.2393 37.0922 23.9828 36.825 24.9471 36.6822C26.7134 36.4209 29.1718 36.5553 30.7503 36.4072C34.7443 36.0328 36.9124 38.0456 40.5012 37.2203V7.60996C40.4999 4.82652 38.244 2.56934 35.4609 2.56934V2.56965ZM20.534 26.2243C20.5293 26.1634 20.5318 26.1718 20.5403 26.2097L20.534 26.2243Z" fill="url(#paint2_linear_11_19408)"/>
<path d="M9.72369 30.8526C10.0018 30.2445 10.1631 29.5511 10.3937 28.9286C10.6159 28.3329 10.9615 27.4879 11.5499 27.1879C11.479 27.1036 10.3193 27.0661 10.0093 27.0342L9.00932 26.8926L7.08307 26.4958C6.70838 26.4055 5.46213 25.9636 5.19119 25.8392C4.55619 25.5461 4.134 24.7517 3.63838 24.8329C3.32088 24.8845 3.00963 24.9933 2.81557 25.3129C2.65463 25.5742 2.59963 26.0223 2.48838 26.3223C2.359 26.6717 2.13557 26.9973 1.94025 27.3295C1.58025 27.9389 0.933379 28.4904 0.654941 29.0848C0.598691 29.2067 0.548691 29.3436 0.502441 29.4864V36.2786L1.54838 36.5042C4.35869 37.2551 5.04463 37.3186 7.80088 37.0023L8.05963 36.9679C8.26963 36.5289 8.43338 35.0345 8.56994 34.572C8.67619 34.2167 8.82275 33.9345 8.87869 33.572C8.93119 33.2283 8.874 32.9008 8.84338 32.587C8.76775 31.8045 9.41463 31.5251 9.72463 30.8526H9.72369Z" fill="url(#paint3_linear_11_19408)"/>
</g>
<defs>
<linearGradient id="paint0_linear_11_19408" x1="20.536" y1="26.1804" x2="20.536" y2="26.2244" gradientUnits="userSpaceOnUse">
<stop stop-color="#F29100"/>
<stop offset="1" stop-color="#EC670F"/>
</linearGradient>
<linearGradient id="paint1_linear_11_19408" x1="15.3053" y1="26.486" x2="15.3053" y2="37.4302" gradientUnits="userSpaceOnUse">
<stop stop-color="#F29100"/>
<stop offset="1" stop-color="#EC670F"/>
</linearGradient>
<linearGradient id="paint2_linear_11_19408" x1="20.5011" y1="2.56996" x2="20.5011" y2="37.4218" gradientUnits="userSpaceOnUse">
<stop stop-color="#F29100"/>
<stop offset="1" stop-color="#EC670F"/>
</linearGradient>
<linearGradient id="paint3_linear_11_19408" x1="6.02593" y1="24.8266" x2="6.02593" y2="37.1816" gradientUnits="userSpaceOnUse">
<stop stop-color="#F29100"/>
<stop offset="1" stop-color="#EC670F"/>
</linearGradient>
<clipPath id="clip0_11_19408">
<rect width="40" height="40" fill="white" transform="translate(0.5)"/>
</clipPath>
</defs>
</svg>
