<svg width="41" height="40" viewBox="0 0 41 40" fill="none" xmlns="http://www.w3.org/2000/svg">
<g clip-path="url(#clip0_11_19967)">
<path d="M20.7715 18.2529C16.6397 18.2529 12.8858 18.7497 10.1066 19.5592V26.474C12.8858 27.2835 16.6397 27.7802 20.7715 27.7802C25.5003 27.7802 29.734 27.1295 32.5777 26.104V19.9293C29.734 18.9036 25.5003 18.2529 20.7715 18.2529ZM36.8368 23.8713L36.3525 22.868C36.355 22.8299 36.357 22.7918 36.357 22.7535C36.357 21.6161 35.1742 20.5678 33.1842 19.7285V25.7785C34.1127 25.3869 34.866 24.9498 35.4047 24.4792C35.2462 25.1168 34.7039 26.4065 34.2716 27.3136C33.561 28.6109 33.3037 29.7401 33.3367 29.7961C33.3577 29.8313 33.6001 29.4573 33.9576 28.8513C34.7895 27.666 36.3658 25.4031 36.6809 24.8267C37.0378 24.1732 36.8368 23.8713 36.8368 23.8713ZM5.49424 22.8198C5.49424 23.0389 5.53831 23.2547 5.62334 23.4663L5.33329 23.9826C5.33329 23.9826 5.10093 24.284 5.51009 24.92C5.87099 25.4808 7.67875 27.6759 8.63287 28.8255C9.04272 29.4148 9.32057 29.7778 9.3449 29.7428C9.3832 29.6871 9.09012 28.5807 8.2762 27.3183C7.89641 26.6403 7.44281 25.7421 7.17059 25.0786C7.93066 25.5596 8.92511 25.996 10.1066 26.3715V19.2682C7.25947 20.1729 5.49424 21.4299 5.49424 22.8198Z" fill="#A52B00"/>
<path d="M20.2573 7.74433L19.3107 9.32535L18.8492 9.36572L17.6191 8.00097C17.5638 7.9299 17.4891 7.87647 17.4039 7.84722C17.3188 7.81797 17.227 7.81416 17.1397 7.83626C17.0533 7.85916 16.9734 7.90223 16.9068 7.96194C16.8402 8.02165 16.7887 8.09629 16.7565 8.17976L16.1355 9.93895C15.9887 9.97106 15.8457 10.0182 15.7086 10.0796L14.2423 8.968C14.1052 8.87668 13.8956 8.84335 13.7463 8.90808C13.6636 8.9475 13.5912 9.00559 13.5347 9.07776C13.4783 9.14993 13.4394 9.23423 13.4211 9.324L13.1189 11.1845L12.7244 11.3998L11.1078 10.6371C11.0275 10.5931 10.9359 10.5738 10.8447 10.5818C10.7534 10.5898 10.6666 10.6246 10.5951 10.682C10.448 10.7723 10.3612 10.9608 10.3513 11.1424L10.4124 13.0228L10.076 13.3105L8.33473 12.8946C8.14856 12.8334 7.9736 12.9003 7.831 13.042C7.7696 13.1087 7.72512 13.1892 7.7013 13.2767C7.67749 13.3642 7.67505 13.4561 7.69417 13.5447L8.112 15.368C8.01235 15.4826 7.91938 15.6029 7.83353 15.7282L6.0189 15.6545C5.92912 15.6478 5.83937 15.6675 5.76061 15.7111C5.68184 15.7547 5.61749 15.8203 5.57542 15.8999C5.48634 16.0627 5.45301 16.2723 5.54561 16.445L6.28772 18.1366L6.06501 18.5435L4.30966 18.8521C4.21885 18.864 4.13287 18.9 4.0606 18.9563C3.98832 19.0125 3.93238 19.0871 3.89854 19.1722C3.86852 19.2603 3.85721 19.3536 3.86532 19.4463C3.87343 19.539 3.90078 19.629 3.94564 19.7105L5.00754 21.2191L4.98864 21.2983L2.00983 24.452C2.00983 24.452 1.57531 24.8 2.21778 25.6479C2.79776 26.3721 5.79092 29.2874 7.37225 30.8281C7.70942 31.2795 8.10083 31.6877 8.53767 32.0435C8.60784 31.9599 8.2259 30.5468 6.91982 28.9045C5.91142 27.417 4.60055 25.1294 4.88798 24.8718C4.88798 24.8718 5.23662 24.428 5.95761 24.1066C5.92973 24.0832 5.92973 24.0832 5.95761 24.1066C5.95761 24.1066 20.7889 30.9458 34.5364 24.2152C36.1123 23.9224 37.0646 24.769 37.0646 24.769C37.3924 24.9728 36.5387 27.3206 35.8485 28.8792C34.892 30.6419 34.7545 32.023 34.8359 32.0675C35.1887 31.6596 35.4878 31.208 35.7257 30.7239C36.9476 29.0413 39.223 25.82 39.6451 25.034C40.135 24.1387 39.6467 23.8715 39.6467 23.8715L36.4721 21.5403L36.3917 21.2115L37.4219 19.7006C37.5389 19.5612 37.5466 19.3539 37.4796 19.179C37.4486 19.0952 37.3963 19.021 37.3278 18.9635C37.2594 18.9061 37.1772 18.8675 37.0893 18.8515L35.3058 18.5426L35.1161 18.1459L35.8441 16.429C35.887 16.3437 35.9052 16.2482 35.8969 16.1531C35.8886 16.0581 35.854 15.9672 35.797 15.8906C35.7067 15.7436 35.5439 15.6545 35.3645 15.6702L33.561 15.7246L33.271 15.3625L33.6803 13.5444C33.6999 13.4563 33.6991 13.365 33.678 13.2773C33.6569 13.1896 33.616 13.1079 33.5585 13.0384C33.497 12.968 33.4175 12.9157 33.3285 12.8871C33.2396 12.8585 33.1445 12.8546 33.0535 12.8759L31.3094 13.3127C31.1913 13.2171 31.0789 13.1148 30.9726 13.0063L31.0162 11.1427C31.0176 11.0524 30.9983 10.9629 30.9598 10.8812C30.9213 10.7995 30.8647 10.7277 30.7941 10.6713C30.7207 10.6146 30.632 10.5812 30.5393 10.5754C30.4467 10.5697 30.3545 10.592 30.2747 10.6393L28.6623 11.4003L28.2553 11.1776L27.9657 9.34307C27.9537 9.25226 27.9177 9.16628 27.8615 9.094C27.8052 9.02173 27.7307 8.96579 27.6455 8.93195C27.5652 8.88789 27.4736 8.86863 27.3824 8.87662C27.2911 8.8846 27.2043 8.91946 27.1328 8.9768L25.6777 10.0599L25.2541 9.94193L24.6357 8.18786C24.6059 8.10034 24.5542 8.02192 24.4855 7.96009C24.4168 7.89827 24.3333 7.85511 24.2432 7.83473C24.1517 7.81802 24.0576 7.82517 23.9697 7.85548C23.8819 7.88579 23.8033 7.93824 23.7417 8.00776L22.5186 9.3805L22.0738 9.31609L21.1356 7.74498C21.093 7.66531 21.0302 7.59825 20.9534 7.55055C20.8767 7.50285 20.7888 7.47619 20.6985 7.47324C20.5168 7.46331 20.3463 7.58155 20.2573 7.74433Z" fill="url(#paint0_linear_11_19967)"/>
<path d="M15.7613 28.2555C15.7045 28.2071 15.6748 28.1784 15.6748 28.1784L20.5326 27.7805C16.5701 22.553 13.3955 26.7173 13.0576 27.1829V28.2555H15.7613ZM25.8758 28.1992C25.9325 28.1508 25.9622 28.1221 25.9622 28.1221L21.2939 27.7805C25.2583 22.3384 28.2417 26.6609 28.5795 27.1265V28.1992H25.8758Z" fill="black"/>
<path d="M33.345 23.009C33.345 23.009 32.8168 25.1217 29.5112 27.3437L28.5914 27.5622C28.5914 27.5622 25.5954 22.0984 21.3518 28.2543C21.3518 28.2543 22.6722 27.4894 26.2146 28.4273C26.2146 28.4273 24.5846 30.9225 21.3062 30.8405C21.3062 30.8405 24.448 34.6197 29.238 29.165C29.238 29.165 34.3011 27.2071 34.7109 23.009H33.345Z" fill="url(#paint1_linear_11_19967)"/>
<path d="M23.4992 20.3008C23.4992 20.3008 24.9811 18.6781 26.4632 20.3008C26.4632 20.3008 27.6277 22.4646 26.4632 23.5463C26.4632 23.5463 24.5577 25.061 23.4992 23.5463C23.4992 23.5463 22.2288 22.3562 23.4992 20.3008Z" fill="black"/>
<path d="M25.2173 20.903C25.2173 21.5348 24.8448 22.0471 24.3855 22.0471C23.9262 22.0471 23.5537 21.5348 23.5537 20.903C23.5537 20.2711 23.9262 19.7588 24.3855 19.7588C24.8448 19.7588 25.2173 20.2711 25.2173 20.903Z" fill="white"/>
<path d="M16.886 19.8578C16.886 19.8578 19.4282 18.7323 20.122 21.2446C20.122 21.2446 20.8488 24.1729 18.0343 24.3382C18.0343 24.3382 14.4454 23.6469 16.886 19.8578Z" fill="black"/>
<path d="M18.163 20.9445C18.163 21.596 17.7789 22.1246 17.3051 22.1246C16.8314 22.1246 16.4473 21.596 16.4473 20.9445C16.4473 20.2927 16.8314 19.7644 17.3051 19.7644C17.7789 19.7644 18.163 20.2927 18.163 20.9445Z" fill="white"/>
<path d="M13.073 29.4983C17.716 35.4529 19.9154 30.6713 19.9154 30.6713C17.3088 30.3781 15.4597 28.643 15.4597 28.643C18.5876 28.2439 20.396 28.2113 20.396 28.2113C16.2091 22.6885 12.8123 27.69 12.8123 27.69C11.9652 27.3804 11.0936 26.1993 10.45 25.1078L7.85155 24.3421C10.841 29.425 13.073 29.4983 13.073 29.4983Z" fill="url(#paint2_linear_11_19967)"/>
</g>
<defs>
<linearGradient id="paint0_linear_11_19967" x1="21.6082" y1="33.2248" x2="19.3655" y2="7.58987" gradientUnits="userSpaceOnUse">
<stop stop-color="#F74C00"/>
<stop offset="0.33" stop-color="#F74C00"/>
<stop offset="1" stop-color="#F49600"/>
</linearGradient>
<linearGradient id="paint1_linear_11_19967" x1="28.0086" y1="32.1154" x2="28.0086" y2="23.009" gradientUnits="userSpaceOnUse">
<stop stop-color="#CC3A00"/>
<stop offset="0.15" stop-color="#CC3A00"/>
<stop offset="0.74" stop-color="#F74C00"/>
<stop offset="1" stop-color="#F74C00"/>
</linearGradient>
<linearGradient id="paint2_linear_11_19967" x1="14.1238" y1="32.4878" x2="14.1238" y2="24.3421" gradientUnits="userSpaceOnUse">
<stop stop-color="#CC3A00"/>
<stop offset="0.15" stop-color="#CC3A00"/>
<stop offset="0.74" stop-color="#F74C00"/>
<stop offset="1" stop-color="#F74C00"/>
</linearGradient>
<clipPath id="clip0_11_19967">
<rect width="40" height="40" fill="white" transform="translate(0.5)"/>
</clipPath>
</defs>
</svg>
