<svg width="40" height="40" viewBox="0 0 40 40" fill="none" xmlns="http://www.w3.org/2000/svg">
<path d="M7.8125 34.5114V29.648H9.5675C10.5403 29.648 12.0837 29.5845 13.0144 29.4998L14.6637 29.373L12.4644 28.7811C11.2381 28.4639 9.69437 27.9986 9.03906 27.7448L7.8125 27.3011V17.3833H9.77906C10.8362 17.3833 12.38 17.3198 13.1834 17.2355L14.6637 17.1086L12.0628 16.4108C10.625 16.0517 9.1025 15.5652 8.63719 15.3748L7.8125 14.9942V5.39422L8.46812 5.24641C8.8275 5.18297 9.71562 5.11953 10.4347 5.11953C13.9869 5.11953 22.4241 3.95641 26.5684 2.89922C29.4653 2.13797 31.4741 1.37672 32.1719 0.742343C32.5312 0.425155 32.5525 0.615467 32.5525 5.28859V10.173L32.045 10.5539L31.5375 10.9555L32.5525 11.8436V22.4373L32.045 22.818L31.5375 23.2198L32.5525 24.108V34.7017L32.0025 35.1245C31.4106 35.5898 29.1269 36.3723 26.5262 37.0277C22.4662 38.0427 12.5491 39.3748 9.16562 39.3748H7.8125V34.5114Z" fill="#390D09"/>
<path d="M7.8125 34.5537V29.7115L11.5131 29.5634C15.3616 29.4156 18.2162 29.0984 22.4028 28.3793C27.1606 27.5547 31.8547 26.0747 32.3412 25.2287C32.4681 25.0172 32.5525 26.6456 32.5525 29.7962V34.7018L32.0025 35.1247C31.4106 35.59 29.1269 36.3725 26.5262 37.0278C22.4662 38.0428 12.5491 39.375 9.16562 39.375H7.8125V34.5537ZM7.8125 22.2897V17.4468L11.5131 17.32C15.6153 17.1509 18.8081 16.7915 23.0372 16.009C27.7737 15.1209 32.0872 13.6831 32.4047 12.9006C32.4681 12.7528 32.5316 14.8037 32.5316 17.4681C32.5525 21.6972 32.5103 22.3737 32.1931 22.7118C31.4531 23.5368 25.7437 25.0168 19.8653 25.9262C16.2919 26.4762 10.3712 27.1106 8.72156 27.1106H7.8125V22.2897ZM7.8125 10.11V5.37341L8.46812 5.24653C8.8275 5.1831 9.71562 5.11966 10.4347 5.11966C13.9869 5.11966 22.4241 3.95653 26.5684 2.89935C29.4653 2.1381 31.4741 1.37685 32.1719 0.742472C32.5312 0.425284 32.5525 0.615597 32.5525 5.26747C32.5525 9.81372 32.5316 10.1518 32.1509 10.4906C31.58 11.019 27.6681 12.2243 24.6228 12.8375C19.6962 13.8103 11.5131 14.8465 8.72187 14.8465H7.8125V10.11Z" fill="#DE3423"/>
</svg>
