<svg width="41" height="40" viewBox="0 0 41 40" fill="none" xmlns="http://www.w3.org/2000/svg">
<g clip-path="url(#clip0_11_19339)">
<path d="M12.5263 7.45117L7.8201 13.2027L5.46729 9.54273L12.5263 7.45117Z" fill="#F7A41D"/>
<path d="M12.5263 7.45117L9.1275 10.3271L7.82031 13.2027H6.25156V26.5362H8.60469L5.72875 27.8434L3.63719 32.2877H0.5V7.45117H12.5263Z" fill="#F7A41D"/>
<path d="M8.60447 26.5362L3.63697 32.2877L1.54541 29.4121L8.60447 26.5362ZM15.1404 7.45117L16.7092 11.1115L10.1729 13.2027L15.1404 7.45117Z" fill="#F7A41D"/>
<path d="M15.1408 7.45117H29.5199V13.2027H10.1733L15.1408 10.0659V7.45117Z" fill="#F7A41D"/>
<path d="M30.8268 26.5352L25.8593 32.2867L24.0293 28.8883L30.8268 26.5352Z" fill="#F7A41D"/>
<path d="M30.827 26.5352L26.6439 28.8883L25.8595 32.2867H11.4805V26.5352H30.827Z" fill="#F7A41D"/>
<path d="M39.7154 1.69922L14.0945 32.2873L1.28418 38.3005L26.9051 7.45078L39.7154 1.69922ZM37.3623 7.45078L37.1011 12.157L32.3951 13.4639L37.3623 7.45078Z" fill="#F7A41D"/>
<path d="M40.4999 7.45117V32.2877H28.2124L31.8724 29.1505L33.1796 26.5362H34.7483V13.4643H32.3952L35.0096 11.1112L37.3627 7.45117H40.4999Z" fill="#F7A41D"/>
<path d="M33.1796 26.5352L34.4868 30.457L28.2124 32.2867L33.1796 26.5352Z" fill="#F7A41D"/>
</g>
<defs>
<clipPath id="clip0_11_19339">
<rect width="40" height="40" fill="white" transform="translate(0.5)"/>
</clipPath>
</defs>
</svg>
