<svg width="24" height="24" viewBox="0 0 24 24" fill="none" xmlns="http://www.w3.org/2000/svg">
<g id="css3-plain">
<path id="Vector" d="M1.64233 0.1875L3.52765 21.3531L11.9873 23.7118L20.4705 21.3444L22.3573 0.1875H1.64233ZM18.4406 5.03663L17.8131 12.0876L17.815 12.1256L17.8123 12.2132V12.2124L17.3665 17.1426L17.3173 17.5806L11.9998 19.0513V19.0515L11.9957 19.0551L6.6874 17.5761L6.32796 13.5H8.93102L9.11571 15.5726L12.0006 16.3545L11.9998 16.356V16.3556L14.8954 15.5627L15.2014 12.1875H9.14833L9.0964 11.6169L8.97808 10.2803L8.91602 9.5625H15.4315L15.6685 6.9375H5.74483L5.6929 6.36731L5.57477 5.03025L5.51252 4.3125H18.5027L18.4406 5.03663Z" fill="#1572B6"/>
</g>
</svg>
