<svg width="16" height="24" viewBox="0 0 16 24" fill="none" xmlns="http://www.w3.org/2000/svg">
<g id="Black logo">
<path id="Rectangle 2 (Stroke)" fill-rule="evenodd" clip-rule="evenodd" d="M0.349976 4.875C0.349976 2.59683 2.1968 0.75 4.47498 0.75H8.59998V9H4.47498C2.1968 9 0.349976 7.15317 0.349976 4.875ZM4.47498 1.65C2.69386 1.65 1.24998 3.09388 1.24998 4.875C1.24998 6.65612 2.69386 8.1 4.47498 8.1H7.69998V1.65H4.47498Z" fill="black"/>
<path id="Rectangle 5 (Stroke)" fill-rule="evenodd" clip-rule="evenodd" d="M15.95 4.875C15.95 2.59683 14.1031 0.75 11.825 0.75H7.69995V9H11.825C14.1031 9 15.95 7.15317 15.95 4.875ZM11.825 1.65C13.6061 1.65 15.05 3.09388 15.05 4.875C15.05 6.65612 13.6061 8.1 11.825 8.1H8.59995V1.65H11.825Z" fill="black"/>
<path id="Rectangle 6 (Stroke)" fill-rule="evenodd" clip-rule="evenodd" d="M15.95 12.2251C15.95 9.94692 14.1031 8.1001 11.825 8.1001C9.54678 8.1001 7.69995 9.94692 7.69995 12.2251C7.69995 14.5033 9.54678 16.3501 11.825 16.3501C14.1031 16.3501 15.95 14.5033 15.95 12.2251ZM11.825 9.0001C13.6061 9.0001 15.05 10.444 15.05 12.2251C15.05 14.0062 13.6061 15.4501 11.825 15.4501C10.0438 15.4501 8.59995 14.0062 8.59995 12.2251C8.59995 10.444 10.0438 9.0001 11.825 9.0001Z" fill="black"/>
<path id="Rectangle 3 (Stroke)" fill-rule="evenodd" clip-rule="evenodd" d="M0.349976 12.2251C0.349976 9.94692 2.1968 8.1001 4.47498 8.1001H8.59998V16.3501H4.47498C2.1968 16.3501 0.349976 14.5033 0.349976 12.2251ZM4.47498 9.0001C2.69386 9.0001 1.24998 10.444 1.24998 12.2251C1.24998 14.0062 2.69386 15.4501 4.47498 15.4501H7.69998V9.0001H4.47498Z" fill="black"/>
<path id="Rectangle 4 (Stroke)" fill-rule="evenodd" clip-rule="evenodd" d="M0.349976 19.575C0.349976 17.2968 2.1968 15.45 4.47498 15.45H8.59998V19.575C8.59998 21.8531 6.75315 23.7 4.47498 23.7C2.1968 23.7 0.349976 21.8531 0.349976 19.575ZM4.47498 16.35C2.69386 16.35 1.24998 17.7938 1.24998 19.575C1.24998 21.3561 2.69386 22.8 4.47498 22.8C6.25609 22.8 7.69998 21.3561 7.69998 19.575V16.35H4.47498Z" fill="black"/>
</g>
</svg>
