<svg width="24" height="24" viewBox="0 0 24 24" fill="none" xmlns="http://www.w3.org/2000/svg">
<g id="html5-original">
<path id="Vector" d="M3.5693 21.3518L1.69336 0.311523H22.3064L20.4284 21.3486L11.9873 23.6886L3.5693 21.3518Z" fill="#E44D26"/>
<path id="Vector_2" d="M12 21.9L18.8209 20.0089L20.4257 2.03174H12V21.9Z" fill="#F16529"/>
<path id="Vector_3" d="M12 9.8353H8.58524L8.34936 7.19268H12V4.6123H5.52917L5.59105 5.30455L6.22517 12.4159H12V9.8353ZM12 16.5371L11.9885 16.5403L9.11474 15.7641L8.93117 13.7062H6.34049L6.70199 17.7579L11.9882 19.2253L12 19.2221V16.5371Z" fill="#EBEBEB"/>
<path id="Vector_4" d="M11.991 9.8353V12.4159H15.1685L14.8691 15.7626L11.991 16.5394V19.2242L17.2813 17.7579L17.3201 17.322L17.9265 10.5283L17.9893 9.8353H17.294H11.991ZM11.991 4.6123V7.19268H18.2242L18.276 6.61293L18.3937 5.30455L18.4554 4.6123H11.991Z" fill="white"/>
</g>
</svg>
