<svg width="16" height="16" viewBox="0 0 16 16" fill="none" xmlns="http://www.w3.org/2000/svg">
<g id="Group">
<path id="Vector" d="M5.88112 0.52335C3.43545 0.704315 1.35636 0.870742 1.25861 0.89023C0.984531 0.939106 0.735201 1.12502 0.617961 1.36971L0.515259 1.58501L0.525158 6.71639L0.539697 11.8478L0.696224 12.1658C0.784387 12.3418 1.38111 13.1637 2.03166 14.0098C3.31821 15.6777 3.41102 15.7708 3.90009 15.8197C4.04207 15.8343 5.10838 15.7854 6.26284 15.717C7.42226 15.6437 9.28079 15.5311 10.3963 15.4677C15.1605 15.1785 14.9158 15.2029 15.1895 14.9681C15.532 14.6844 15.5075 15.1491 15.5221 8.91241C15.532 3.62451 15.527 3.27743 15.4488 3.11595C15.356 2.93499 15.1895 2.80785 13.0176 1.28155C11.565 0.264121 11.4623 0.210295 10.8114 0.200396C10.5426 0.190806 8.32183 0.337435 5.88112 0.52335ZM11.3791 1.19339C11.5845 1.28619 13.0863 2.333 13.3063 2.53377C13.365 2.59254 13.3845 2.64142 13.3551 2.67081C13.2868 2.72958 3.99258 3.28238 3.72376 3.24309C3.60157 3.2236 3.4206 3.15029 3.3179 3.08161C2.89225 2.793 1.83584 1.92715 1.83584 1.86373C1.83584 1.69731 1.8015 1.69731 5.94484 1.3991C6.73738 1.34527 8.03847 1.24752 8.83101 1.1838C10.5475 1.04676 11.0614 1.05171 11.3791 1.19339ZM14.3336 3.8692C14.402 3.93756 14.4607 4.06965 14.4802 4.19679C14.4948 4.31434 14.5047 6.50573 14.4948 9.05904C14.4802 13.4418 14.4753 13.7159 14.3921 13.843C14.3432 13.9213 14.2454 14.0045 14.1718 14.0289C13.9667 14.1122 4.22768 14.6649 4.02723 14.6062C3.93442 14.5817 3.80697 14.5035 3.73861 14.4351L3.62106 14.308L3.60652 9.58276C3.59662 6.2663 3.60652 4.79877 3.64581 4.66669C3.67519 4.56893 3.74851 4.45138 3.81223 4.41241C3.9004 4.35363 4.47763 4.30475 6.46361 4.18751C7.85781 4.10925 10.0149 3.97716 11.2525 3.90385C14.1966 3.72257 14.187 3.72257 14.3336 3.8692Z" fill="black"/>
<path id="Vector_2" d="M11.7165 5.48834C11.1881 5.52268 10.7186 5.57156 10.6647 5.60094C10.5033 5.68416 10.4055 5.8212 10.386 5.97772C10.3715 6.1392 10.4204 6.15869 10.9484 6.22241L11.1782 6.2518V8.34048C11.1782 9.5828 11.1588 10.4047 11.1343 10.3803C11.1099 10.3509 10.4154 9.29449 9.58853 8.03238C8.76196 6.76562 8.07708 5.72344 8.06718 5.71385C8.05728 5.70396 7.51933 5.73334 6.87374 5.77758C6.0812 5.8314 5.64596 5.88028 5.55779 5.92916C5.4158 6.00247 5.25928 6.2617 5.25928 6.43308C5.25928 6.53578 5.44519 6.5896 5.83651 6.5896H6.04191V12.5964L5.70937 12.6991C5.45014 12.7774 5.36198 12.8263 5.31805 12.924C5.23979 13.0904 5.24474 13.242 5.323 13.242C5.35239 13.242 5.90518 13.2077 6.54088 13.1687C7.79805 13.0954 7.93973 13.0611 8.07182 12.8018C8.11111 12.7236 8.14513 12.6403 8.14513 12.6159C8.14513 12.5964 7.97407 12.5376 7.76836 12.4888C7.558 12.4399 7.34765 12.391 7.30372 12.3811C7.22051 12.3567 7.21556 12.2051 7.21556 10.1016V7.84646L8.70257 10.1798C10.2629 12.6255 10.4587 12.9045 10.6984 13.0267C10.997 13.1832 11.7552 13.0756 12.1366 12.8263L12.2541 12.7529L12.264 9.417L12.2786 6.07609L12.5378 6.02722C12.8459 5.96844 12.9879 5.82676 12.9879 5.58207C12.9879 5.42555 12.978 5.41565 12.8314 5.4206C12.7438 5.42462 12.2399 5.45401 11.7165 5.48834Z" fill="black"/>
</g>
</svg>
