<svg width="24" height="24" viewBox="0 0 24 24" fill="none" xmlns="http://www.w3.org/2000/svg">
<g id="sketch-original">
<path id="Vector" d="M5.55375 2.40954L12 1.73267L18.4462 2.40954L23.4375 9.05454L12 22.2677L0.5625 9.05454L5.55375 2.40954Z" fill="#FDB300"/>
<path id="Vector_2" d="M5.19562 9.05444L12 22.2676L0.5625 9.05444H5.19562ZM18.8044 9.05444L12 22.2676L23.4375 9.05444H18.8044Z" fill="#EA6C00"/>
<path id="Vector_3" d="M5.19556 9.05444H18.8043L11.9999 22.2676L5.19556 9.05444Z" fill="#FDAD00"/>
<path id="Vector_4" d="M11.9999 1.73267L5.55368 2.40954L5.19556 9.05454L11.9999 1.73267ZM11.9999 1.73267L18.4462 2.40954L18.8043 9.05454L11.9999 1.73267Z" fill="#FDD231"/>
<path id="Vector_5" d="M23.4375 9.05443L18.4463 2.40942L18.8044 9.05443H23.4375Z" fill="#FDAD00"/>
<path id="Vector_6" d="M11.9999 1.73267L5.19556 9.05454H18.8043L11.9999 1.73267Z" fill="#FEEEB7"/>
<path id="Vector_7" d="M0.5625 9.05443L5.55375 2.40942L5.19562 9.05443H0.5625Z" fill="#FDAD00"/>
</g>
</svg>
